G04 #@! TF.GenerationSoftware,KiCad,Pcbnew,(5.1.6)-1*
G04 #@! TF.CreationDate,2020-09-08T19:34:43-04:00*
G04 #@! TF.ProjectId,PayloadPrototypeBoard,5061796c-6f61-4645-9072-6f746f747970,rev?*
G04 #@! TF.SameCoordinates,Original*
G04 #@! TF.FileFunction,Copper,L1,Top*
G04 #@! TF.FilePolarity,Positive*
%FSLAX46Y46*%
G04 Gerber Fmt 4.6, Leading zero omitted, Abs format (unit mm)*
G04 Created by KiCad (PCBNEW (5.1.6)-1) date 2020-09-08 19:34:43*
%MOMM*%
%LPD*%
G01*
G04 APERTURE LIST*
G04 #@! TA.AperFunction,EtchedComponent*
%ADD10C,0.100000*%
G04 #@! TD*
G04 #@! TA.AperFunction,ComponentPad*
%ADD11C,1.600000*%
G04 #@! TD*
G04 #@! TA.AperFunction,ComponentPad*
%ADD12R,1.600000X1.600000*%
G04 #@! TD*
G04 #@! TA.AperFunction,ComponentPad*
%ADD13O,1.700000X1.700000*%
G04 #@! TD*
G04 #@! TA.AperFunction,ComponentPad*
%ADD14R,1.700000X1.700000*%
G04 #@! TD*
G04 #@! TA.AperFunction,SMDPad,CuDef*
%ADD15R,1.050000X2.200000*%
G04 #@! TD*
G04 #@! TA.AperFunction,SMDPad,CuDef*
%ADD16R,1.000000X1.000000*%
G04 #@! TD*
G04 #@! TA.AperFunction,SMDPad,CuDef*
%ADD17R,1.000000X1.500000*%
G04 #@! TD*
G04 #@! TA.AperFunction,SMDPad,CuDef*
%ADD18R,1.600000X2.180000*%
G04 #@! TD*
G04 #@! TA.AperFunction,SMDPad,CuDef*
%ADD19R,1.060000X0.650000*%
G04 #@! TD*
G04 #@! TA.AperFunction,SMDPad,CuDef*
%ADD20R,0.450000X0.500000*%
G04 #@! TD*
G04 #@! TA.AperFunction,SMDPad,CuDef*
%ADD21R,0.450000X0.400000*%
G04 #@! TD*
G04 #@! TA.AperFunction,SMDPad,CuDef*
%ADD22R,0.350000X0.550000*%
G04 #@! TD*
G04 #@! TA.AperFunction,SMDPad,CuDef*
%ADD23R,0.550000X0.350000*%
G04 #@! TD*
G04 #@! TA.AperFunction,SMDPad,CuDef*
%ADD24R,0.350000X0.380000*%
G04 #@! TD*
G04 #@! TA.AperFunction,SMDPad,CuDef*
%ADD25R,0.500000X0.450000*%
G04 #@! TD*
G04 #@! TA.AperFunction,SMDPad,CuDef*
%ADD26R,0.400000X0.450000*%
G04 #@! TD*
G04 #@! TA.AperFunction,SMDPad,CuDef*
%ADD27R,4.500000X2.000000*%
G04 #@! TD*
G04 #@! TA.AperFunction,SMDPad,CuDef*
%ADD28R,1.200000X0.600000*%
G04 #@! TD*
G04 #@! TA.AperFunction,SMDPad,CuDef*
%ADD29R,0.355600X1.676400*%
G04 #@! TD*
G04 #@! TA.AperFunction,ComponentPad*
%ADD30R,2.000000X2.000000*%
G04 #@! TD*
G04 #@! TA.AperFunction,ComponentPad*
%ADD31C,2.000000*%
G04 #@! TD*
G04 #@! TA.AperFunction,SMDPad,CuDef*
%ADD32R,0.640000X0.220000*%
G04 #@! TD*
G04 #@! TA.AperFunction,SMDPad,CuDef*
%ADD33R,0.220000X0.640000*%
G04 #@! TD*
G04 #@! TA.AperFunction,ComponentPad*
%ADD34R,3.800000X3.800000*%
G04 #@! TD*
G04 #@! TA.AperFunction,ComponentPad*
%ADD35C,4.000000*%
G04 #@! TD*
G04 #@! TA.AperFunction,ComponentPad*
%ADD36C,3.800000*%
G04 #@! TD*
G04 #@! TA.AperFunction,SMDPad,CuDef*
%ADD37R,1.350000X0.400000*%
G04 #@! TD*
G04 #@! TA.AperFunction,ComponentPad*
%ADD38O,0.950000X1.250000*%
G04 #@! TD*
G04 #@! TA.AperFunction,ComponentPad*
%ADD39O,1.550000X1.000000*%
G04 #@! TD*
G04 #@! TA.AperFunction,ViaPad*
%ADD40C,0.508000*%
G04 #@! TD*
G04 #@! TA.AperFunction,Conductor*
%ADD41C,0.152400*%
G04 #@! TD*
G04 #@! TA.AperFunction,Conductor*
%ADD42C,0.177800*%
G04 #@! TD*
G04 #@! TA.AperFunction,Conductor*
%ADD43C,1.016000*%
G04 #@! TD*
G04 #@! TA.AperFunction,Conductor*
%ADD44C,0.254000*%
G04 #@! TD*
G04 APERTURE END LIST*
D10*
G36*
X63384000Y-89962000D02*
G01*
X62884000Y-89962000D01*
X62884000Y-89362000D01*
X63384000Y-89362000D01*
X63384000Y-89962000D01*
G37*
D11*
X41910000Y-98774000D03*
D12*
X41910000Y-96774000D03*
X41910000Y-90170000D03*
D11*
X41910000Y-92170000D03*
G04 #@! TA.AperFunction,SMDPad,CuDef*
G36*
G01*
X43022000Y-65280250D02*
X43022000Y-64767750D01*
G75*
G02*
X43240750Y-64549000I218750J0D01*
G01*
X43678250Y-64549000D01*
G75*
G02*
X43897000Y-64767750I0J-218750D01*
G01*
X43897000Y-65280250D01*
G75*
G02*
X43678250Y-65499000I-218750J0D01*
G01*
X43240750Y-65499000D01*
G75*
G02*
X43022000Y-65280250I0J218750D01*
G01*
G37*
G04 #@! TD.AperFunction*
G04 #@! TA.AperFunction,SMDPad,CuDef*
G36*
G01*
X41447000Y-65280250D02*
X41447000Y-64767750D01*
G75*
G02*
X41665750Y-64549000I218750J0D01*
G01*
X42103250Y-64549000D01*
G75*
G02*
X42322000Y-64767750I0J-218750D01*
G01*
X42322000Y-65280250D01*
G75*
G02*
X42103250Y-65499000I-218750J0D01*
G01*
X41665750Y-65499000D01*
G75*
G02*
X41447000Y-65280250I0J218750D01*
G01*
G37*
G04 #@! TD.AperFunction*
G04 #@! TA.AperFunction,SMDPad,CuDef*
G36*
G01*
X41405200Y-72975650D02*
X41405200Y-72463150D01*
G75*
G02*
X41623950Y-72244400I218750J0D01*
G01*
X42061450Y-72244400D01*
G75*
G02*
X42280200Y-72463150I0J-218750D01*
G01*
X42280200Y-72975650D01*
G75*
G02*
X42061450Y-73194400I-218750J0D01*
G01*
X41623950Y-73194400D01*
G75*
G02*
X41405200Y-72975650I0J218750D01*
G01*
G37*
G04 #@! TD.AperFunction*
G04 #@! TA.AperFunction,SMDPad,CuDef*
G36*
G01*
X42980200Y-72975650D02*
X42980200Y-72463150D01*
G75*
G02*
X43198950Y-72244400I218750J0D01*
G01*
X43636450Y-72244400D01*
G75*
G02*
X43855200Y-72463150I0J-218750D01*
G01*
X43855200Y-72975650D01*
G75*
G02*
X43636450Y-73194400I-218750J0D01*
G01*
X43198950Y-73194400D01*
G75*
G02*
X42980200Y-72975650I0J218750D01*
G01*
G37*
G04 #@! TD.AperFunction*
G04 #@! TA.AperFunction,SMDPad,CuDef*
G36*
G01*
X43022000Y-70360250D02*
X43022000Y-69847750D01*
G75*
G02*
X43240750Y-69629000I218750J0D01*
G01*
X43678250Y-69629000D01*
G75*
G02*
X43897000Y-69847750I0J-218750D01*
G01*
X43897000Y-70360250D01*
G75*
G02*
X43678250Y-70579000I-218750J0D01*
G01*
X43240750Y-70579000D01*
G75*
G02*
X43022000Y-70360250I0J218750D01*
G01*
G37*
G04 #@! TD.AperFunction*
G04 #@! TA.AperFunction,SMDPad,CuDef*
G36*
G01*
X41447000Y-70360250D02*
X41447000Y-69847750D01*
G75*
G02*
X41665750Y-69629000I218750J0D01*
G01*
X42103250Y-69629000D01*
G75*
G02*
X42322000Y-69847750I0J-218750D01*
G01*
X42322000Y-70360250D01*
G75*
G02*
X42103250Y-70579000I-218750J0D01*
G01*
X41665750Y-70579000D01*
G75*
G02*
X41447000Y-70360250I0J218750D01*
G01*
G37*
G04 #@! TD.AperFunction*
G04 #@! TA.AperFunction,SMDPad,CuDef*
G36*
G01*
X41405200Y-67820250D02*
X41405200Y-67307750D01*
G75*
G02*
X41623950Y-67089000I218750J0D01*
G01*
X42061450Y-67089000D01*
G75*
G02*
X42280200Y-67307750I0J-218750D01*
G01*
X42280200Y-67820250D01*
G75*
G02*
X42061450Y-68039000I-218750J0D01*
G01*
X41623950Y-68039000D01*
G75*
G02*
X41405200Y-67820250I0J218750D01*
G01*
G37*
G04 #@! TD.AperFunction*
G04 #@! TA.AperFunction,SMDPad,CuDef*
G36*
G01*
X42980200Y-67820250D02*
X42980200Y-67307750D01*
G75*
G02*
X43198950Y-67089000I218750J0D01*
G01*
X43636450Y-67089000D01*
G75*
G02*
X43855200Y-67307750I0J-218750D01*
G01*
X43855200Y-67820250D01*
G75*
G02*
X43636450Y-68039000I-218750J0D01*
G01*
X43198950Y-68039000D01*
G75*
G02*
X42980200Y-67820250I0J218750D01*
G01*
G37*
G04 #@! TD.AperFunction*
D13*
X53340000Y-87376000D03*
X50800000Y-87376000D03*
X48260000Y-87376000D03*
D14*
X45720000Y-87376000D03*
D13*
X55626000Y-99060000D03*
X55626000Y-96520000D03*
D14*
X55626000Y-93980000D03*
X59436000Y-93980000D03*
D13*
X59436000Y-96520000D03*
X59436000Y-99060000D03*
X63246000Y-99060000D03*
X63246000Y-96520000D03*
D14*
X63246000Y-93980000D03*
X67056000Y-93980000D03*
D13*
X67056000Y-96520000D03*
X67056000Y-99060000D03*
D14*
X70866000Y-93980000D03*
D13*
X70866000Y-96520000D03*
X70866000Y-99060000D03*
X74676000Y-99060000D03*
X74676000Y-96520000D03*
D14*
X74676000Y-93980000D03*
X63500000Y-61976000D03*
D13*
X60960000Y-61976000D03*
X58420000Y-61976000D03*
X55880000Y-61976000D03*
X53340000Y-61976000D03*
X50800000Y-61976000D03*
D15*
X31447000Y-69596000D03*
X28497000Y-69596000D03*
D16*
X29972000Y-71096000D03*
X29972000Y-68096000D03*
D14*
X69088000Y-61976000D03*
D13*
X71628000Y-61976000D03*
X74168000Y-61976000D03*
X76708000Y-61976000D03*
D17*
X63784000Y-89662000D03*
X61184000Y-89662000D03*
X62484000Y-89662000D03*
D18*
X35814000Y-73170000D03*
X35814000Y-63990000D03*
G04 #@! TA.AperFunction,SMDPad,CuDef*
G36*
G01*
X52584000Y-76190000D02*
X52584000Y-81290000D01*
G75*
G02*
X52334000Y-81540000I-250000J0D01*
G01*
X47234000Y-81540000D01*
G75*
G02*
X46984000Y-81290000I0J250000D01*
G01*
X46984000Y-76190000D01*
G75*
G02*
X47234000Y-75940000I250000J0D01*
G01*
X52334000Y-75940000D01*
G75*
G02*
X52584000Y-76190000I0J-250000D01*
G01*
G37*
G04 #@! TD.AperFunction*
G04 #@! TA.AperFunction,SMDPad,CuDef*
G36*
G01*
X53659000Y-81427500D02*
X53659000Y-81552500D01*
G75*
G02*
X53596500Y-81615000I-62500J0D01*
G01*
X52846500Y-81615000D01*
G75*
G02*
X52784000Y-81552500I0J62500D01*
G01*
X52784000Y-81427500D01*
G75*
G02*
X52846500Y-81365000I62500J0D01*
G01*
X53596500Y-81365000D01*
G75*
G02*
X53659000Y-81427500I0J-62500D01*
G01*
G37*
G04 #@! TD.AperFunction*
G04 #@! TA.AperFunction,SMDPad,CuDef*
G36*
G01*
X53659000Y-80927500D02*
X53659000Y-81052500D01*
G75*
G02*
X53596500Y-81115000I-62500J0D01*
G01*
X52846500Y-81115000D01*
G75*
G02*
X52784000Y-81052500I0J62500D01*
G01*
X52784000Y-80927500D01*
G75*
G02*
X52846500Y-80865000I62500J0D01*
G01*
X53596500Y-80865000D01*
G75*
G02*
X53659000Y-80927500I0J-62500D01*
G01*
G37*
G04 #@! TD.AperFunction*
G04 #@! TA.AperFunction,SMDPad,CuDef*
G36*
G01*
X53659000Y-80427500D02*
X53659000Y-80552500D01*
G75*
G02*
X53596500Y-80615000I-62500J0D01*
G01*
X52846500Y-80615000D01*
G75*
G02*
X52784000Y-80552500I0J62500D01*
G01*
X52784000Y-80427500D01*
G75*
G02*
X52846500Y-80365000I62500J0D01*
G01*
X53596500Y-80365000D01*
G75*
G02*
X53659000Y-80427500I0J-62500D01*
G01*
G37*
G04 #@! TD.AperFunction*
G04 #@! TA.AperFunction,SMDPad,CuDef*
G36*
G01*
X53659000Y-79927500D02*
X53659000Y-80052500D01*
G75*
G02*
X53596500Y-80115000I-62500J0D01*
G01*
X52846500Y-80115000D01*
G75*
G02*
X52784000Y-80052500I0J62500D01*
G01*
X52784000Y-79927500D01*
G75*
G02*
X52846500Y-79865000I62500J0D01*
G01*
X53596500Y-79865000D01*
G75*
G02*
X53659000Y-79927500I0J-62500D01*
G01*
G37*
G04 #@! TD.AperFunction*
G04 #@! TA.AperFunction,SMDPad,CuDef*
G36*
G01*
X53659000Y-79427500D02*
X53659000Y-79552500D01*
G75*
G02*
X53596500Y-79615000I-62500J0D01*
G01*
X52846500Y-79615000D01*
G75*
G02*
X52784000Y-79552500I0J62500D01*
G01*
X52784000Y-79427500D01*
G75*
G02*
X52846500Y-79365000I62500J0D01*
G01*
X53596500Y-79365000D01*
G75*
G02*
X53659000Y-79427500I0J-62500D01*
G01*
G37*
G04 #@! TD.AperFunction*
G04 #@! TA.AperFunction,SMDPad,CuDef*
G36*
G01*
X53659000Y-78927500D02*
X53659000Y-79052500D01*
G75*
G02*
X53596500Y-79115000I-62500J0D01*
G01*
X52846500Y-79115000D01*
G75*
G02*
X52784000Y-79052500I0J62500D01*
G01*
X52784000Y-78927500D01*
G75*
G02*
X52846500Y-78865000I62500J0D01*
G01*
X53596500Y-78865000D01*
G75*
G02*
X53659000Y-78927500I0J-62500D01*
G01*
G37*
G04 #@! TD.AperFunction*
G04 #@! TA.AperFunction,SMDPad,CuDef*
G36*
G01*
X53659000Y-78427500D02*
X53659000Y-78552500D01*
G75*
G02*
X53596500Y-78615000I-62500J0D01*
G01*
X52846500Y-78615000D01*
G75*
G02*
X52784000Y-78552500I0J62500D01*
G01*
X52784000Y-78427500D01*
G75*
G02*
X52846500Y-78365000I62500J0D01*
G01*
X53596500Y-78365000D01*
G75*
G02*
X53659000Y-78427500I0J-62500D01*
G01*
G37*
G04 #@! TD.AperFunction*
G04 #@! TA.AperFunction,SMDPad,CuDef*
G36*
G01*
X53659000Y-77927500D02*
X53659000Y-78052500D01*
G75*
G02*
X53596500Y-78115000I-62500J0D01*
G01*
X52846500Y-78115000D01*
G75*
G02*
X52784000Y-78052500I0J62500D01*
G01*
X52784000Y-77927500D01*
G75*
G02*
X52846500Y-77865000I62500J0D01*
G01*
X53596500Y-77865000D01*
G75*
G02*
X53659000Y-77927500I0J-62500D01*
G01*
G37*
G04 #@! TD.AperFunction*
G04 #@! TA.AperFunction,SMDPad,CuDef*
G36*
G01*
X53659000Y-77427500D02*
X53659000Y-77552500D01*
G75*
G02*
X53596500Y-77615000I-62500J0D01*
G01*
X52846500Y-77615000D01*
G75*
G02*
X52784000Y-77552500I0J62500D01*
G01*
X52784000Y-77427500D01*
G75*
G02*
X52846500Y-77365000I62500J0D01*
G01*
X53596500Y-77365000D01*
G75*
G02*
X53659000Y-77427500I0J-62500D01*
G01*
G37*
G04 #@! TD.AperFunction*
G04 #@! TA.AperFunction,SMDPad,CuDef*
G36*
G01*
X53659000Y-76927500D02*
X53659000Y-77052500D01*
G75*
G02*
X53596500Y-77115000I-62500J0D01*
G01*
X52846500Y-77115000D01*
G75*
G02*
X52784000Y-77052500I0J62500D01*
G01*
X52784000Y-76927500D01*
G75*
G02*
X52846500Y-76865000I62500J0D01*
G01*
X53596500Y-76865000D01*
G75*
G02*
X53659000Y-76927500I0J-62500D01*
G01*
G37*
G04 #@! TD.AperFunction*
G04 #@! TA.AperFunction,SMDPad,CuDef*
G36*
G01*
X53659000Y-76427500D02*
X53659000Y-76552500D01*
G75*
G02*
X53596500Y-76615000I-62500J0D01*
G01*
X52846500Y-76615000D01*
G75*
G02*
X52784000Y-76552500I0J62500D01*
G01*
X52784000Y-76427500D01*
G75*
G02*
X52846500Y-76365000I62500J0D01*
G01*
X53596500Y-76365000D01*
G75*
G02*
X53659000Y-76427500I0J-62500D01*
G01*
G37*
G04 #@! TD.AperFunction*
G04 #@! TA.AperFunction,SMDPad,CuDef*
G36*
G01*
X53659000Y-75927500D02*
X53659000Y-76052500D01*
G75*
G02*
X53596500Y-76115000I-62500J0D01*
G01*
X52846500Y-76115000D01*
G75*
G02*
X52784000Y-76052500I0J62500D01*
G01*
X52784000Y-75927500D01*
G75*
G02*
X52846500Y-75865000I62500J0D01*
G01*
X53596500Y-75865000D01*
G75*
G02*
X53659000Y-75927500I0J-62500D01*
G01*
G37*
G04 #@! TD.AperFunction*
G04 #@! TA.AperFunction,SMDPad,CuDef*
G36*
G01*
X52659000Y-74927500D02*
X52659000Y-75677500D01*
G75*
G02*
X52596500Y-75740000I-62500J0D01*
G01*
X52471500Y-75740000D01*
G75*
G02*
X52409000Y-75677500I0J62500D01*
G01*
X52409000Y-74927500D01*
G75*
G02*
X52471500Y-74865000I62500J0D01*
G01*
X52596500Y-74865000D01*
G75*
G02*
X52659000Y-74927500I0J-62500D01*
G01*
G37*
G04 #@! TD.AperFunction*
G04 #@! TA.AperFunction,SMDPad,CuDef*
G36*
G01*
X52159000Y-74927500D02*
X52159000Y-75677500D01*
G75*
G02*
X52096500Y-75740000I-62500J0D01*
G01*
X51971500Y-75740000D01*
G75*
G02*
X51909000Y-75677500I0J62500D01*
G01*
X51909000Y-74927500D01*
G75*
G02*
X51971500Y-74865000I62500J0D01*
G01*
X52096500Y-74865000D01*
G75*
G02*
X52159000Y-74927500I0J-62500D01*
G01*
G37*
G04 #@! TD.AperFunction*
G04 #@! TA.AperFunction,SMDPad,CuDef*
G36*
G01*
X51659000Y-74927500D02*
X51659000Y-75677500D01*
G75*
G02*
X51596500Y-75740000I-62500J0D01*
G01*
X51471500Y-75740000D01*
G75*
G02*
X51409000Y-75677500I0J62500D01*
G01*
X51409000Y-74927500D01*
G75*
G02*
X51471500Y-74865000I62500J0D01*
G01*
X51596500Y-74865000D01*
G75*
G02*
X51659000Y-74927500I0J-62500D01*
G01*
G37*
G04 #@! TD.AperFunction*
G04 #@! TA.AperFunction,SMDPad,CuDef*
G36*
G01*
X51159000Y-74927500D02*
X51159000Y-75677500D01*
G75*
G02*
X51096500Y-75740000I-62500J0D01*
G01*
X50971500Y-75740000D01*
G75*
G02*
X50909000Y-75677500I0J62500D01*
G01*
X50909000Y-74927500D01*
G75*
G02*
X50971500Y-74865000I62500J0D01*
G01*
X51096500Y-74865000D01*
G75*
G02*
X51159000Y-74927500I0J-62500D01*
G01*
G37*
G04 #@! TD.AperFunction*
G04 #@! TA.AperFunction,SMDPad,CuDef*
G36*
G01*
X50659000Y-74927500D02*
X50659000Y-75677500D01*
G75*
G02*
X50596500Y-75740000I-62500J0D01*
G01*
X50471500Y-75740000D01*
G75*
G02*
X50409000Y-75677500I0J62500D01*
G01*
X50409000Y-74927500D01*
G75*
G02*
X50471500Y-74865000I62500J0D01*
G01*
X50596500Y-74865000D01*
G75*
G02*
X50659000Y-74927500I0J-62500D01*
G01*
G37*
G04 #@! TD.AperFunction*
G04 #@! TA.AperFunction,SMDPad,CuDef*
G36*
G01*
X50159000Y-74927500D02*
X50159000Y-75677500D01*
G75*
G02*
X50096500Y-75740000I-62500J0D01*
G01*
X49971500Y-75740000D01*
G75*
G02*
X49909000Y-75677500I0J62500D01*
G01*
X49909000Y-74927500D01*
G75*
G02*
X49971500Y-74865000I62500J0D01*
G01*
X50096500Y-74865000D01*
G75*
G02*
X50159000Y-74927500I0J-62500D01*
G01*
G37*
G04 #@! TD.AperFunction*
G04 #@! TA.AperFunction,SMDPad,CuDef*
G36*
G01*
X49659000Y-74927500D02*
X49659000Y-75677500D01*
G75*
G02*
X49596500Y-75740000I-62500J0D01*
G01*
X49471500Y-75740000D01*
G75*
G02*
X49409000Y-75677500I0J62500D01*
G01*
X49409000Y-74927500D01*
G75*
G02*
X49471500Y-74865000I62500J0D01*
G01*
X49596500Y-74865000D01*
G75*
G02*
X49659000Y-74927500I0J-62500D01*
G01*
G37*
G04 #@! TD.AperFunction*
G04 #@! TA.AperFunction,SMDPad,CuDef*
G36*
G01*
X49159000Y-74927500D02*
X49159000Y-75677500D01*
G75*
G02*
X49096500Y-75740000I-62500J0D01*
G01*
X48971500Y-75740000D01*
G75*
G02*
X48909000Y-75677500I0J62500D01*
G01*
X48909000Y-74927500D01*
G75*
G02*
X48971500Y-74865000I62500J0D01*
G01*
X49096500Y-74865000D01*
G75*
G02*
X49159000Y-74927500I0J-62500D01*
G01*
G37*
G04 #@! TD.AperFunction*
G04 #@! TA.AperFunction,SMDPad,CuDef*
G36*
G01*
X48659000Y-74927500D02*
X48659000Y-75677500D01*
G75*
G02*
X48596500Y-75740000I-62500J0D01*
G01*
X48471500Y-75740000D01*
G75*
G02*
X48409000Y-75677500I0J62500D01*
G01*
X48409000Y-74927500D01*
G75*
G02*
X48471500Y-74865000I62500J0D01*
G01*
X48596500Y-74865000D01*
G75*
G02*
X48659000Y-74927500I0J-62500D01*
G01*
G37*
G04 #@! TD.AperFunction*
G04 #@! TA.AperFunction,SMDPad,CuDef*
G36*
G01*
X48159000Y-74927500D02*
X48159000Y-75677500D01*
G75*
G02*
X48096500Y-75740000I-62500J0D01*
G01*
X47971500Y-75740000D01*
G75*
G02*
X47909000Y-75677500I0J62500D01*
G01*
X47909000Y-74927500D01*
G75*
G02*
X47971500Y-74865000I62500J0D01*
G01*
X48096500Y-74865000D01*
G75*
G02*
X48159000Y-74927500I0J-62500D01*
G01*
G37*
G04 #@! TD.AperFunction*
G04 #@! TA.AperFunction,SMDPad,CuDef*
G36*
G01*
X47659000Y-74927500D02*
X47659000Y-75677500D01*
G75*
G02*
X47596500Y-75740000I-62500J0D01*
G01*
X47471500Y-75740000D01*
G75*
G02*
X47409000Y-75677500I0J62500D01*
G01*
X47409000Y-74927500D01*
G75*
G02*
X47471500Y-74865000I62500J0D01*
G01*
X47596500Y-74865000D01*
G75*
G02*
X47659000Y-74927500I0J-62500D01*
G01*
G37*
G04 #@! TD.AperFunction*
G04 #@! TA.AperFunction,SMDPad,CuDef*
G36*
G01*
X47159000Y-74927500D02*
X47159000Y-75677500D01*
G75*
G02*
X47096500Y-75740000I-62500J0D01*
G01*
X46971500Y-75740000D01*
G75*
G02*
X46909000Y-75677500I0J62500D01*
G01*
X46909000Y-74927500D01*
G75*
G02*
X46971500Y-74865000I62500J0D01*
G01*
X47096500Y-74865000D01*
G75*
G02*
X47159000Y-74927500I0J-62500D01*
G01*
G37*
G04 #@! TD.AperFunction*
G04 #@! TA.AperFunction,SMDPad,CuDef*
G36*
G01*
X46784000Y-75927500D02*
X46784000Y-76052500D01*
G75*
G02*
X46721500Y-76115000I-62500J0D01*
G01*
X45971500Y-76115000D01*
G75*
G02*
X45909000Y-76052500I0J62500D01*
G01*
X45909000Y-75927500D01*
G75*
G02*
X45971500Y-75865000I62500J0D01*
G01*
X46721500Y-75865000D01*
G75*
G02*
X46784000Y-75927500I0J-62500D01*
G01*
G37*
G04 #@! TD.AperFunction*
G04 #@! TA.AperFunction,SMDPad,CuDef*
G36*
G01*
X46784000Y-76427500D02*
X46784000Y-76552500D01*
G75*
G02*
X46721500Y-76615000I-62500J0D01*
G01*
X45971500Y-76615000D01*
G75*
G02*
X45909000Y-76552500I0J62500D01*
G01*
X45909000Y-76427500D01*
G75*
G02*
X45971500Y-76365000I62500J0D01*
G01*
X46721500Y-76365000D01*
G75*
G02*
X46784000Y-76427500I0J-62500D01*
G01*
G37*
G04 #@! TD.AperFunction*
G04 #@! TA.AperFunction,SMDPad,CuDef*
G36*
G01*
X46784000Y-76927500D02*
X46784000Y-77052500D01*
G75*
G02*
X46721500Y-77115000I-62500J0D01*
G01*
X45971500Y-77115000D01*
G75*
G02*
X45909000Y-77052500I0J62500D01*
G01*
X45909000Y-76927500D01*
G75*
G02*
X45971500Y-76865000I62500J0D01*
G01*
X46721500Y-76865000D01*
G75*
G02*
X46784000Y-76927500I0J-62500D01*
G01*
G37*
G04 #@! TD.AperFunction*
G04 #@! TA.AperFunction,SMDPad,CuDef*
G36*
G01*
X46784000Y-77427500D02*
X46784000Y-77552500D01*
G75*
G02*
X46721500Y-77615000I-62500J0D01*
G01*
X45971500Y-77615000D01*
G75*
G02*
X45909000Y-77552500I0J62500D01*
G01*
X45909000Y-77427500D01*
G75*
G02*
X45971500Y-77365000I62500J0D01*
G01*
X46721500Y-77365000D01*
G75*
G02*
X46784000Y-77427500I0J-62500D01*
G01*
G37*
G04 #@! TD.AperFunction*
G04 #@! TA.AperFunction,SMDPad,CuDef*
G36*
G01*
X46784000Y-77927500D02*
X46784000Y-78052500D01*
G75*
G02*
X46721500Y-78115000I-62500J0D01*
G01*
X45971500Y-78115000D01*
G75*
G02*
X45909000Y-78052500I0J62500D01*
G01*
X45909000Y-77927500D01*
G75*
G02*
X45971500Y-77865000I62500J0D01*
G01*
X46721500Y-77865000D01*
G75*
G02*
X46784000Y-77927500I0J-62500D01*
G01*
G37*
G04 #@! TD.AperFunction*
G04 #@! TA.AperFunction,SMDPad,CuDef*
G36*
G01*
X46784000Y-78427500D02*
X46784000Y-78552500D01*
G75*
G02*
X46721500Y-78615000I-62500J0D01*
G01*
X45971500Y-78615000D01*
G75*
G02*
X45909000Y-78552500I0J62500D01*
G01*
X45909000Y-78427500D01*
G75*
G02*
X45971500Y-78365000I62500J0D01*
G01*
X46721500Y-78365000D01*
G75*
G02*
X46784000Y-78427500I0J-62500D01*
G01*
G37*
G04 #@! TD.AperFunction*
G04 #@! TA.AperFunction,SMDPad,CuDef*
G36*
G01*
X46784000Y-78927500D02*
X46784000Y-79052500D01*
G75*
G02*
X46721500Y-79115000I-62500J0D01*
G01*
X45971500Y-79115000D01*
G75*
G02*
X45909000Y-79052500I0J62500D01*
G01*
X45909000Y-78927500D01*
G75*
G02*
X45971500Y-78865000I62500J0D01*
G01*
X46721500Y-78865000D01*
G75*
G02*
X46784000Y-78927500I0J-62500D01*
G01*
G37*
G04 #@! TD.AperFunction*
G04 #@! TA.AperFunction,SMDPad,CuDef*
G36*
G01*
X46784000Y-79427500D02*
X46784000Y-79552500D01*
G75*
G02*
X46721500Y-79615000I-62500J0D01*
G01*
X45971500Y-79615000D01*
G75*
G02*
X45909000Y-79552500I0J62500D01*
G01*
X45909000Y-79427500D01*
G75*
G02*
X45971500Y-79365000I62500J0D01*
G01*
X46721500Y-79365000D01*
G75*
G02*
X46784000Y-79427500I0J-62500D01*
G01*
G37*
G04 #@! TD.AperFunction*
G04 #@! TA.AperFunction,SMDPad,CuDef*
G36*
G01*
X46784000Y-79927500D02*
X46784000Y-80052500D01*
G75*
G02*
X46721500Y-80115000I-62500J0D01*
G01*
X45971500Y-80115000D01*
G75*
G02*
X45909000Y-80052500I0J62500D01*
G01*
X45909000Y-79927500D01*
G75*
G02*
X45971500Y-79865000I62500J0D01*
G01*
X46721500Y-79865000D01*
G75*
G02*
X46784000Y-79927500I0J-62500D01*
G01*
G37*
G04 #@! TD.AperFunction*
G04 #@! TA.AperFunction,SMDPad,CuDef*
G36*
G01*
X46784000Y-80427500D02*
X46784000Y-80552500D01*
G75*
G02*
X46721500Y-80615000I-62500J0D01*
G01*
X45971500Y-80615000D01*
G75*
G02*
X45909000Y-80552500I0J62500D01*
G01*
X45909000Y-80427500D01*
G75*
G02*
X45971500Y-80365000I62500J0D01*
G01*
X46721500Y-80365000D01*
G75*
G02*
X46784000Y-80427500I0J-62500D01*
G01*
G37*
G04 #@! TD.AperFunction*
G04 #@! TA.AperFunction,SMDPad,CuDef*
G36*
G01*
X46784000Y-80927500D02*
X46784000Y-81052500D01*
G75*
G02*
X46721500Y-81115000I-62500J0D01*
G01*
X45971500Y-81115000D01*
G75*
G02*
X45909000Y-81052500I0J62500D01*
G01*
X45909000Y-80927500D01*
G75*
G02*
X45971500Y-80865000I62500J0D01*
G01*
X46721500Y-80865000D01*
G75*
G02*
X46784000Y-80927500I0J-62500D01*
G01*
G37*
G04 #@! TD.AperFunction*
G04 #@! TA.AperFunction,SMDPad,CuDef*
G36*
G01*
X46784000Y-81427500D02*
X46784000Y-81552500D01*
G75*
G02*
X46721500Y-81615000I-62500J0D01*
G01*
X45971500Y-81615000D01*
G75*
G02*
X45909000Y-81552500I0J62500D01*
G01*
X45909000Y-81427500D01*
G75*
G02*
X45971500Y-81365000I62500J0D01*
G01*
X46721500Y-81365000D01*
G75*
G02*
X46784000Y-81427500I0J-62500D01*
G01*
G37*
G04 #@! TD.AperFunction*
G04 #@! TA.AperFunction,SMDPad,CuDef*
G36*
G01*
X47159000Y-81802500D02*
X47159000Y-82552500D01*
G75*
G02*
X47096500Y-82615000I-62500J0D01*
G01*
X46971500Y-82615000D01*
G75*
G02*
X46909000Y-82552500I0J62500D01*
G01*
X46909000Y-81802500D01*
G75*
G02*
X46971500Y-81740000I62500J0D01*
G01*
X47096500Y-81740000D01*
G75*
G02*
X47159000Y-81802500I0J-62500D01*
G01*
G37*
G04 #@! TD.AperFunction*
G04 #@! TA.AperFunction,SMDPad,CuDef*
G36*
G01*
X47659000Y-81802500D02*
X47659000Y-82552500D01*
G75*
G02*
X47596500Y-82615000I-62500J0D01*
G01*
X47471500Y-82615000D01*
G75*
G02*
X47409000Y-82552500I0J62500D01*
G01*
X47409000Y-81802500D01*
G75*
G02*
X47471500Y-81740000I62500J0D01*
G01*
X47596500Y-81740000D01*
G75*
G02*
X47659000Y-81802500I0J-62500D01*
G01*
G37*
G04 #@! TD.AperFunction*
G04 #@! TA.AperFunction,SMDPad,CuDef*
G36*
G01*
X48159000Y-81802500D02*
X48159000Y-82552500D01*
G75*
G02*
X48096500Y-82615000I-62500J0D01*
G01*
X47971500Y-82615000D01*
G75*
G02*
X47909000Y-82552500I0J62500D01*
G01*
X47909000Y-81802500D01*
G75*
G02*
X47971500Y-81740000I62500J0D01*
G01*
X48096500Y-81740000D01*
G75*
G02*
X48159000Y-81802500I0J-62500D01*
G01*
G37*
G04 #@! TD.AperFunction*
G04 #@! TA.AperFunction,SMDPad,CuDef*
G36*
G01*
X48659000Y-81802500D02*
X48659000Y-82552500D01*
G75*
G02*
X48596500Y-82615000I-62500J0D01*
G01*
X48471500Y-82615000D01*
G75*
G02*
X48409000Y-82552500I0J62500D01*
G01*
X48409000Y-81802500D01*
G75*
G02*
X48471500Y-81740000I62500J0D01*
G01*
X48596500Y-81740000D01*
G75*
G02*
X48659000Y-81802500I0J-62500D01*
G01*
G37*
G04 #@! TD.AperFunction*
G04 #@! TA.AperFunction,SMDPad,CuDef*
G36*
G01*
X49159000Y-81802500D02*
X49159000Y-82552500D01*
G75*
G02*
X49096500Y-82615000I-62500J0D01*
G01*
X48971500Y-82615000D01*
G75*
G02*
X48909000Y-82552500I0J62500D01*
G01*
X48909000Y-81802500D01*
G75*
G02*
X48971500Y-81740000I62500J0D01*
G01*
X49096500Y-81740000D01*
G75*
G02*
X49159000Y-81802500I0J-62500D01*
G01*
G37*
G04 #@! TD.AperFunction*
G04 #@! TA.AperFunction,SMDPad,CuDef*
G36*
G01*
X49659000Y-81802500D02*
X49659000Y-82552500D01*
G75*
G02*
X49596500Y-82615000I-62500J0D01*
G01*
X49471500Y-82615000D01*
G75*
G02*
X49409000Y-82552500I0J62500D01*
G01*
X49409000Y-81802500D01*
G75*
G02*
X49471500Y-81740000I62500J0D01*
G01*
X49596500Y-81740000D01*
G75*
G02*
X49659000Y-81802500I0J-62500D01*
G01*
G37*
G04 #@! TD.AperFunction*
G04 #@! TA.AperFunction,SMDPad,CuDef*
G36*
G01*
X50159000Y-81802500D02*
X50159000Y-82552500D01*
G75*
G02*
X50096500Y-82615000I-62500J0D01*
G01*
X49971500Y-82615000D01*
G75*
G02*
X49909000Y-82552500I0J62500D01*
G01*
X49909000Y-81802500D01*
G75*
G02*
X49971500Y-81740000I62500J0D01*
G01*
X50096500Y-81740000D01*
G75*
G02*
X50159000Y-81802500I0J-62500D01*
G01*
G37*
G04 #@! TD.AperFunction*
G04 #@! TA.AperFunction,SMDPad,CuDef*
G36*
G01*
X50659000Y-81802500D02*
X50659000Y-82552500D01*
G75*
G02*
X50596500Y-82615000I-62500J0D01*
G01*
X50471500Y-82615000D01*
G75*
G02*
X50409000Y-82552500I0J62500D01*
G01*
X50409000Y-81802500D01*
G75*
G02*
X50471500Y-81740000I62500J0D01*
G01*
X50596500Y-81740000D01*
G75*
G02*
X50659000Y-81802500I0J-62500D01*
G01*
G37*
G04 #@! TD.AperFunction*
G04 #@! TA.AperFunction,SMDPad,CuDef*
G36*
G01*
X51159000Y-81802500D02*
X51159000Y-82552500D01*
G75*
G02*
X51096500Y-82615000I-62500J0D01*
G01*
X50971500Y-82615000D01*
G75*
G02*
X50909000Y-82552500I0J62500D01*
G01*
X50909000Y-81802500D01*
G75*
G02*
X50971500Y-81740000I62500J0D01*
G01*
X51096500Y-81740000D01*
G75*
G02*
X51159000Y-81802500I0J-62500D01*
G01*
G37*
G04 #@! TD.AperFunction*
G04 #@! TA.AperFunction,SMDPad,CuDef*
G36*
G01*
X51659000Y-81802500D02*
X51659000Y-82552500D01*
G75*
G02*
X51596500Y-82615000I-62500J0D01*
G01*
X51471500Y-82615000D01*
G75*
G02*
X51409000Y-82552500I0J62500D01*
G01*
X51409000Y-81802500D01*
G75*
G02*
X51471500Y-81740000I62500J0D01*
G01*
X51596500Y-81740000D01*
G75*
G02*
X51659000Y-81802500I0J-62500D01*
G01*
G37*
G04 #@! TD.AperFunction*
G04 #@! TA.AperFunction,SMDPad,CuDef*
G36*
G01*
X52159000Y-81802500D02*
X52159000Y-82552500D01*
G75*
G02*
X52096500Y-82615000I-62500J0D01*
G01*
X51971500Y-82615000D01*
G75*
G02*
X51909000Y-82552500I0J62500D01*
G01*
X51909000Y-81802500D01*
G75*
G02*
X51971500Y-81740000I62500J0D01*
G01*
X52096500Y-81740000D01*
G75*
G02*
X52159000Y-81802500I0J-62500D01*
G01*
G37*
G04 #@! TD.AperFunction*
G04 #@! TA.AperFunction,SMDPad,CuDef*
G36*
G01*
X52659000Y-81802500D02*
X52659000Y-82552500D01*
G75*
G02*
X52596500Y-82615000I-62500J0D01*
G01*
X52471500Y-82615000D01*
G75*
G02*
X52409000Y-82552500I0J62500D01*
G01*
X52409000Y-81802500D01*
G75*
G02*
X52471500Y-81740000I62500J0D01*
G01*
X52596500Y-81740000D01*
G75*
G02*
X52659000Y-81802500I0J-62500D01*
G01*
G37*
G04 #@! TD.AperFunction*
G04 #@! TA.AperFunction,SMDPad,CuDef*
G36*
G01*
X50015000Y-93070000D02*
X50315000Y-93070000D01*
G75*
G02*
X50465000Y-93220000I0J-150000D01*
G01*
X50465000Y-94870000D01*
G75*
G02*
X50315000Y-95020000I-150000J0D01*
G01*
X50015000Y-95020000D01*
G75*
G02*
X49865000Y-94870000I0J150000D01*
G01*
X49865000Y-93220000D01*
G75*
G02*
X50015000Y-93070000I150000J0D01*
G01*
G37*
G04 #@! TD.AperFunction*
G04 #@! TA.AperFunction,SMDPad,CuDef*
G36*
G01*
X48745000Y-93070000D02*
X49045000Y-93070000D01*
G75*
G02*
X49195000Y-93220000I0J-150000D01*
G01*
X49195000Y-94870000D01*
G75*
G02*
X49045000Y-95020000I-150000J0D01*
G01*
X48745000Y-95020000D01*
G75*
G02*
X48595000Y-94870000I0J150000D01*
G01*
X48595000Y-93220000D01*
G75*
G02*
X48745000Y-93070000I150000J0D01*
G01*
G37*
G04 #@! TD.AperFunction*
G04 #@! TA.AperFunction,SMDPad,CuDef*
G36*
G01*
X47475000Y-93070000D02*
X47775000Y-93070000D01*
G75*
G02*
X47925000Y-93220000I0J-150000D01*
G01*
X47925000Y-94870000D01*
G75*
G02*
X47775000Y-95020000I-150000J0D01*
G01*
X47475000Y-95020000D01*
G75*
G02*
X47325000Y-94870000I0J150000D01*
G01*
X47325000Y-93220000D01*
G75*
G02*
X47475000Y-93070000I150000J0D01*
G01*
G37*
G04 #@! TD.AperFunction*
G04 #@! TA.AperFunction,SMDPad,CuDef*
G36*
G01*
X46205000Y-93070000D02*
X46505000Y-93070000D01*
G75*
G02*
X46655000Y-93220000I0J-150000D01*
G01*
X46655000Y-94870000D01*
G75*
G02*
X46505000Y-95020000I-150000J0D01*
G01*
X46205000Y-95020000D01*
G75*
G02*
X46055000Y-94870000I0J150000D01*
G01*
X46055000Y-93220000D01*
G75*
G02*
X46205000Y-93070000I150000J0D01*
G01*
G37*
G04 #@! TD.AperFunction*
G04 #@! TA.AperFunction,SMDPad,CuDef*
G36*
G01*
X46205000Y-98020000D02*
X46505000Y-98020000D01*
G75*
G02*
X46655000Y-98170000I0J-150000D01*
G01*
X46655000Y-99820000D01*
G75*
G02*
X46505000Y-99970000I-150000J0D01*
G01*
X46205000Y-99970000D01*
G75*
G02*
X46055000Y-99820000I0J150000D01*
G01*
X46055000Y-98170000D01*
G75*
G02*
X46205000Y-98020000I150000J0D01*
G01*
G37*
G04 #@! TD.AperFunction*
G04 #@! TA.AperFunction,SMDPad,CuDef*
G36*
G01*
X47475000Y-98020000D02*
X47775000Y-98020000D01*
G75*
G02*
X47925000Y-98170000I0J-150000D01*
G01*
X47925000Y-99820000D01*
G75*
G02*
X47775000Y-99970000I-150000J0D01*
G01*
X47475000Y-99970000D01*
G75*
G02*
X47325000Y-99820000I0J150000D01*
G01*
X47325000Y-98170000D01*
G75*
G02*
X47475000Y-98020000I150000J0D01*
G01*
G37*
G04 #@! TD.AperFunction*
G04 #@! TA.AperFunction,SMDPad,CuDef*
G36*
G01*
X48745000Y-98020000D02*
X49045000Y-98020000D01*
G75*
G02*
X49195000Y-98170000I0J-150000D01*
G01*
X49195000Y-99820000D01*
G75*
G02*
X49045000Y-99970000I-150000J0D01*
G01*
X48745000Y-99970000D01*
G75*
G02*
X48595000Y-99820000I0J150000D01*
G01*
X48595000Y-98170000D01*
G75*
G02*
X48745000Y-98020000I150000J0D01*
G01*
G37*
G04 #@! TD.AperFunction*
G04 #@! TA.AperFunction,SMDPad,CuDef*
G36*
G01*
X50015000Y-98020000D02*
X50315000Y-98020000D01*
G75*
G02*
X50465000Y-98170000I0J-150000D01*
G01*
X50465000Y-99820000D01*
G75*
G02*
X50315000Y-99970000I-150000J0D01*
G01*
X50015000Y-99970000D01*
G75*
G02*
X49865000Y-99820000I0J150000D01*
G01*
X49865000Y-98170000D01*
G75*
G02*
X50015000Y-98020000I150000J0D01*
G01*
G37*
G04 #@! TD.AperFunction*
D19*
X35392000Y-79380000D03*
X35392000Y-80330000D03*
X35392000Y-81280000D03*
X37592000Y-81280000D03*
X37592000Y-79380000D03*
X60282000Y-83378000D03*
X60282000Y-85278000D03*
X58082000Y-85278000D03*
X58082000Y-84328000D03*
X58082000Y-83378000D03*
D20*
X47057000Y-61976000D03*
D21*
X45907000Y-62376000D03*
X45907000Y-61576000D03*
X66481000Y-78848000D03*
X66481000Y-79648000D03*
D20*
X67631000Y-79248000D03*
D22*
X75184000Y-80981000D03*
X74684000Y-80981000D03*
X74184000Y-80981000D03*
X75684000Y-80981000D03*
X76184000Y-80981000D03*
D23*
X73959000Y-79756000D03*
X73959000Y-80256000D03*
X73959000Y-79256000D03*
D22*
X75184000Y-78531000D03*
X75684000Y-78531000D03*
X76184000Y-78531000D03*
X74684000Y-78531000D03*
X74184000Y-78531000D03*
D23*
X76409000Y-80256000D03*
X76409000Y-79756000D03*
X76409000Y-79256000D03*
D24*
X65275000Y-82554000D03*
X65275000Y-83054000D03*
X65540000Y-83569000D03*
X66040000Y-83569000D03*
X66540000Y-83569000D03*
X66805000Y-83054000D03*
X66805000Y-82554000D03*
X66540000Y-82039000D03*
X66040000Y-82039000D03*
X65540000Y-82039000D03*
D25*
X75184000Y-82737000D03*
D26*
X75584000Y-83887000D03*
X74784000Y-83887000D03*
D21*
X68005000Y-82404000D03*
X68005000Y-83204000D03*
D20*
X69155000Y-82804000D03*
D27*
X59876000Y-67564000D03*
X51376000Y-67564000D03*
D28*
X61316000Y-71940000D03*
X55016000Y-71940000D03*
X55016000Y-72840000D03*
X61316000Y-72840000D03*
D29*
X69006001Y-70332600D03*
X68356000Y-70332600D03*
X67705999Y-70332600D03*
X67056000Y-70332600D03*
X66406001Y-70332600D03*
X65756000Y-70332600D03*
X65106001Y-70332600D03*
X65105999Y-75971400D03*
X65756000Y-75971400D03*
X66405999Y-75971400D03*
X67056000Y-75971400D03*
X67705999Y-75971400D03*
X68356000Y-75971400D03*
X69005999Y-75971400D03*
D30*
X36322000Y-91948000D03*
D31*
X36322000Y-94488000D03*
X36322000Y-97028000D03*
D32*
X73639000Y-72152000D03*
X73639000Y-72552000D03*
X73639000Y-72952000D03*
X73639000Y-73352000D03*
X73639000Y-73752000D03*
X73639000Y-74152000D03*
D33*
X74184000Y-74697000D03*
X74584000Y-74697000D03*
X74984000Y-74697000D03*
X75384000Y-74697000D03*
X75784000Y-74697000D03*
X76184000Y-74697000D03*
D32*
X76729000Y-74152000D03*
X76729000Y-73752000D03*
X76729000Y-73352000D03*
X76729000Y-72952000D03*
X76729000Y-72552000D03*
X76729000Y-72152000D03*
D33*
X76184000Y-71607000D03*
X75784000Y-71607000D03*
X75384000Y-71607000D03*
X74984000Y-71607000D03*
X74584000Y-71607000D03*
X74184000Y-71607000D03*
D34*
X30480000Y-91948000D03*
D35*
X30480000Y-96948000D03*
D36*
X72136000Y-67056000D03*
X72136000Y-88392000D03*
X36576000Y-85852000D03*
D37*
X32258000Y-83510000D03*
X32258000Y-84160000D03*
X32258000Y-84810000D03*
X32258000Y-82860000D03*
X32258000Y-82210000D03*
D38*
X32258000Y-86010000D03*
X32258000Y-81010000D03*
D39*
X29558000Y-80010000D03*
X29558000Y-87010000D03*
D40*
X55515200Y-79229800D03*
X57087000Y-68473900D03*
X57166800Y-67098100D03*
X60800100Y-86225500D03*
X63913500Y-83571500D03*
X53122300Y-82678700D03*
X69735100Y-76864700D03*
X68272700Y-83862600D03*
X46346500Y-82079100D03*
X38665500Y-79368600D03*
X46493000Y-62873200D03*
X53788500Y-82088500D03*
X46453600Y-75278500D03*
X54120700Y-78935300D03*
X51823300Y-66089800D03*
X54903500Y-78477100D03*
X33906700Y-71993900D03*
X45908000Y-63452300D03*
X60765200Y-79593000D03*
X60772000Y-70968400D03*
X60624300Y-78256800D03*
X60248500Y-72477100D03*
X49113100Y-92589800D03*
X42781500Y-65884500D03*
X36376600Y-79380000D03*
X61425000Y-83222900D03*
X69641200Y-70404700D03*
X70329000Y-76273600D03*
X65432700Y-79604000D03*
X74584000Y-75487500D03*
X75846800Y-73670800D03*
X75180000Y-81933800D03*
X72815000Y-80774100D03*
X65753800Y-81378400D03*
X44712500Y-65193900D03*
X45624900Y-72727900D03*
X45352700Y-70142500D03*
X47228200Y-67033400D03*
X55006100Y-81923500D03*
X45235900Y-67717100D03*
X45841800Y-84179500D03*
X45765400Y-89062600D03*
X41369100Y-82031900D03*
X38088200Y-82654500D03*
X31129400Y-83720700D03*
X51519600Y-83875100D03*
X46073200Y-83454200D03*
X43260800Y-87414500D03*
X53877400Y-84868500D03*
X48369600Y-84580800D03*
X47620400Y-84405600D03*
X53809700Y-91617500D03*
X48544500Y-83143900D03*
X45115600Y-66431600D03*
X44501800Y-75457700D03*
X40141800Y-70457900D03*
X39740600Y-72182400D03*
X30047700Y-66297700D03*
X35560000Y-77557600D03*
X62689200Y-90877600D03*
X50637900Y-83086900D03*
X53051700Y-85641200D03*
X58063500Y-86713500D03*
X65212000Y-74676800D03*
X63270500Y-76990000D03*
X63732900Y-74826900D03*
X44630300Y-62736500D03*
X43963800Y-71256300D03*
X50095900Y-73962700D03*
X47486300Y-71822800D03*
X45007200Y-70798900D03*
X65798300Y-78904100D03*
X67536100Y-91794000D03*
X74020700Y-83887000D03*
X45035100Y-77957900D03*
X44898200Y-85497600D03*
X68272700Y-91430300D03*
X68903700Y-82095100D03*
X64745500Y-73116500D03*
X56094100Y-75880200D03*
X58818500Y-82343900D03*
X61233600Y-75065500D03*
X63244900Y-72342900D03*
X72613700Y-75373700D03*
X76821800Y-78243400D03*
X34560000Y-75174000D03*
X53583800Y-69151100D03*
X53583800Y-74735800D03*
X63210800Y-82245000D03*
X62908600Y-75253500D03*
X33644200Y-78322400D03*
X75602600Y-79485800D03*
X66124700Y-73845900D03*
X59611700Y-82583400D03*
X41342800Y-71166000D03*
X50104400Y-72370600D03*
X51799700Y-73850200D03*
X72363100Y-77058400D03*
X77168300Y-78972700D03*
X59439600Y-81795300D03*
X59439600Y-73748500D03*
X41333600Y-73825800D03*
X47188000Y-74142300D03*
X50903200Y-73964600D03*
X37230700Y-62714600D03*
X70461100Y-72305200D03*
X74584000Y-73907600D03*
X71184500Y-71929500D03*
X71946100Y-71121400D03*
D41*
X57349500Y-67564000D02*
X57087000Y-67826500D01*
X57087000Y-67826500D02*
X57087000Y-68473900D01*
X57349500Y-67564000D02*
X57349500Y-67280800D01*
X57349500Y-67280800D02*
X57166800Y-67098100D01*
X53221500Y-79490000D02*
X55255000Y-79490000D01*
X55255000Y-79490000D02*
X55515200Y-79229800D01*
X59876000Y-67564000D02*
X57349500Y-67564000D01*
D42*
X74684000Y-77966800D02*
X75684000Y-77966800D01*
X74684000Y-78061300D02*
X74684000Y-77966800D01*
X74684000Y-78531000D02*
X74684000Y-78061300D01*
X74184000Y-78531000D02*
X74184000Y-77966800D01*
X74184000Y-77966800D02*
X74684000Y-77966800D01*
X75684000Y-78531000D02*
X75684000Y-77966800D01*
X76574200Y-77217600D02*
X75825000Y-77966800D01*
X75825000Y-77966800D02*
X75684000Y-77966800D01*
X77338200Y-72152000D02*
X77338200Y-76312600D01*
X77338200Y-76312600D02*
X76811400Y-76839400D01*
X76811400Y-76839400D02*
X76811400Y-76980400D01*
X76811400Y-76980400D02*
X76574200Y-77217600D01*
X76574200Y-77217600D02*
X77768900Y-78412400D01*
X77768900Y-78412400D02*
X77768900Y-79836300D01*
X77768900Y-79836300D02*
X76624200Y-80981000D01*
X76624200Y-80981000D02*
X76184000Y-80981000D01*
X67056000Y-99060000D02*
X70866000Y-99060000D01*
X63246000Y-99060000D02*
X67056000Y-99060000D01*
X65106000Y-70332600D02*
X65106000Y-69205200D01*
X75784000Y-70997800D02*
X74486700Y-69700500D01*
X74486700Y-69700500D02*
X71408500Y-69700500D01*
X71408500Y-69700500D02*
X68168900Y-66460800D01*
X75784000Y-70997800D02*
X76421600Y-70997800D01*
X76421600Y-70997800D02*
X76729000Y-71305200D01*
X76729000Y-71305200D02*
X76729000Y-72152000D01*
X68168900Y-66460800D02*
X68168800Y-66460800D01*
X68168800Y-66460800D02*
X68168800Y-64034400D01*
X68168800Y-64034400D02*
X69088000Y-63115200D01*
X68168900Y-66460800D02*
X65424500Y-69205200D01*
X65424500Y-69205200D02*
X65106000Y-69205200D01*
X69088000Y-61976000D02*
X69088000Y-63115200D01*
X66540000Y-82039000D02*
X67119600Y-82039000D01*
X67119600Y-82039000D02*
X67370100Y-82289500D01*
X67370100Y-82289500D02*
X67370100Y-85036700D01*
X67370100Y-85036700D02*
X63784000Y-88622800D01*
X66040000Y-82039000D02*
X66540000Y-82039000D01*
X60800100Y-86225500D02*
X59935900Y-86225500D01*
X59935900Y-86225500D02*
X58901200Y-85190800D01*
X58901200Y-85190800D02*
X58901200Y-84328000D01*
X63784000Y-88622800D02*
X63197400Y-88622800D01*
X63197400Y-88622800D02*
X60800100Y-86225500D01*
X74684000Y-78531000D02*
X74684000Y-80095200D01*
X74684000Y-80095200D02*
X74523200Y-80256000D01*
X65075800Y-83569000D02*
X63916000Y-83569000D01*
X63916000Y-83569000D02*
X63913500Y-83571500D01*
X65540000Y-83569000D02*
X65075800Y-83569000D01*
X58082000Y-84328000D02*
X58901200Y-84328000D01*
X63784000Y-89662000D02*
X63784000Y-88622800D01*
X50978900Y-99060000D02*
X50978900Y-97380500D01*
X50978900Y-97380500D02*
X48895000Y-95296600D01*
X48895000Y-95296600D02*
X48895000Y-94045000D01*
X48895000Y-98995000D02*
X48895000Y-99390600D01*
X48895000Y-99390600D02*
X49779600Y-100275200D01*
X49779600Y-100275200D02*
X50529200Y-100275200D01*
X50529200Y-100275200D02*
X50978900Y-99825500D01*
X50978900Y-99825500D02*
X50978900Y-99060000D01*
X50978900Y-99060000D02*
X54486800Y-99060000D01*
X47625000Y-98995000D02*
X48895000Y-98995000D01*
X55626000Y-99060000D02*
X54486800Y-99060000D01*
X41910000Y-98774000D02*
X43381500Y-98774000D01*
X43381500Y-98774000D02*
X44438800Y-97716700D01*
X44438800Y-97716700D02*
X46718500Y-97716700D01*
X46718500Y-97716700D02*
X47625000Y-98623200D01*
X47625000Y-98623200D02*
X47625000Y-98995000D01*
X47625000Y-94045000D02*
X47625000Y-93705500D01*
X47625000Y-93705500D02*
X46485900Y-92566400D01*
X46485900Y-92566400D02*
X42306400Y-92566400D01*
X42306400Y-92566400D02*
X41910000Y-92170000D01*
X47625000Y-94045000D02*
X48895000Y-94045000D01*
X29972000Y-71096000D02*
X31336200Y-71096000D01*
X31336200Y-71096000D02*
X31447000Y-70985200D01*
X29577400Y-71096000D02*
X29972000Y-71096000D01*
X29577400Y-71096000D02*
X29182800Y-71096000D01*
X35814000Y-72550900D02*
X35814000Y-73170000D01*
X41884500Y-65024000D02*
X35814000Y-71094500D01*
X35814000Y-71094500D02*
X35814000Y-72550900D01*
X35814000Y-72550900D02*
X33012700Y-72550900D01*
X33012700Y-72550900D02*
X31447000Y-70985200D01*
X31447000Y-69596000D02*
X31447000Y-70985200D01*
X32393000Y-84612000D02*
X31428800Y-84612000D01*
X32393000Y-84612000D02*
X33357200Y-84612000D01*
X30480000Y-91948000D02*
X30480000Y-89758800D01*
X30480000Y-89758800D02*
X31061800Y-89177000D01*
X31061800Y-89177000D02*
X31061800Y-84979000D01*
X31061800Y-84979000D02*
X31428800Y-84612000D01*
X52200800Y-61976000D02*
X52200800Y-61753600D01*
X52200800Y-61753600D02*
X51277800Y-60830600D01*
X51277800Y-60830600D02*
X50158300Y-60830600D01*
X50158300Y-60830600D02*
X46968100Y-64020800D01*
X46968100Y-64020800D02*
X42887700Y-64020800D01*
X42887700Y-64020800D02*
X41884500Y-65024000D01*
X29182800Y-71096000D02*
X29072000Y-70985200D01*
X29072000Y-70985200D02*
X28497000Y-70985200D01*
X28497000Y-69596000D02*
X28497000Y-70985200D01*
X53340000Y-61976000D02*
X52200800Y-61976000D01*
X59436000Y-99060000D02*
X63246000Y-99060000D01*
X52034000Y-82177500D02*
X52034000Y-82630700D01*
X52034000Y-82630700D02*
X52308500Y-82905200D01*
X52308500Y-82905200D02*
X52895800Y-82905200D01*
X52895800Y-82905200D02*
X53122300Y-82678700D01*
X49784000Y-77990000D02*
X49784000Y-78740000D01*
X47534000Y-75302500D02*
X47534000Y-75740000D01*
X47534000Y-75740000D02*
X49784000Y-77990000D01*
X49784000Y-77990000D02*
X53221500Y-77990000D01*
X49784000Y-80990000D02*
X49784000Y-78740000D01*
X52034000Y-82177500D02*
X52034000Y-81723100D01*
X52034000Y-81723100D02*
X51300900Y-80990000D01*
X51300900Y-80990000D02*
X49784000Y-80990000D01*
X49784000Y-80990000D02*
X46346500Y-80990000D01*
X36211200Y-80330000D02*
X36211200Y-81758000D01*
X36211200Y-81758000D02*
X33357200Y-84612000D01*
X70866000Y-99060000D02*
X74676000Y-99060000D01*
X35392000Y-80330000D02*
X36211200Y-80330000D01*
X73959000Y-80256000D02*
X74523200Y-80256000D01*
X76729000Y-72152000D02*
X77338200Y-72152000D01*
X75784000Y-71607000D02*
X75784000Y-70997800D01*
X61372500Y-78147100D02*
X60715400Y-77490000D01*
X60715400Y-77490000D02*
X53221500Y-77490000D01*
X57273200Y-83378000D02*
X57273200Y-83084700D01*
X57273200Y-83084700D02*
X59316000Y-81041900D01*
X59316000Y-81041900D02*
X60129300Y-81041900D01*
X60129300Y-81041900D02*
X61372500Y-79798700D01*
X61372500Y-79798700D02*
X61372500Y-78147100D01*
X69006000Y-76972300D02*
X68174000Y-77804300D01*
X68174000Y-77804300D02*
X61715300Y-77804300D01*
X61715300Y-77804300D02*
X61372500Y-78147100D01*
X69006000Y-76892100D02*
X69006000Y-76972300D01*
X69006000Y-76972300D02*
X69006000Y-77098800D01*
X69006000Y-75971400D02*
X69006000Y-76892100D01*
X57273200Y-83378000D02*
X57262800Y-83378000D01*
X58082000Y-83378000D02*
X57273200Y-83378000D01*
X69735100Y-76864700D02*
X69501000Y-77098800D01*
X69501000Y-77098800D02*
X69006000Y-77098800D01*
X75584000Y-83887000D02*
X75584000Y-84401200D01*
X68272700Y-83862600D02*
X68840700Y-84430600D01*
X68840700Y-84430600D02*
X75554600Y-84430600D01*
X75554600Y-84430600D02*
X75584000Y-84401200D01*
X68005000Y-83693200D02*
X68103300Y-83693200D01*
X68103300Y-83693200D02*
X68272700Y-83862600D01*
X68005000Y-83204000D02*
X68005000Y-83693200D01*
X46859200Y-87376000D02*
X46859200Y-87162300D01*
X46859200Y-87162300D02*
X48928000Y-85093500D01*
X48928000Y-85093500D02*
X53334200Y-85093500D01*
X53334200Y-85093500D02*
X53652400Y-85411700D01*
X53652400Y-85411700D02*
X54102500Y-85411700D01*
X54102500Y-85411700D02*
X54425000Y-85089200D01*
X54425000Y-85089200D02*
X54425000Y-85089100D01*
X54425000Y-85089100D02*
X57073900Y-85089100D01*
X57073900Y-85089100D02*
X57262800Y-85278000D01*
X57262800Y-83378000D02*
X57262800Y-84900200D01*
X57262800Y-84900200D02*
X57073900Y-85089100D01*
X58082000Y-85278000D02*
X57262800Y-85278000D01*
X45720000Y-87376000D02*
X46859200Y-87376000D01*
X58082000Y-85278000D02*
X61184000Y-88380000D01*
X61184000Y-88380000D02*
X61184000Y-89662000D01*
X46346500Y-82079100D02*
X46346500Y-81490000D01*
X37592000Y-79380000D02*
X38411200Y-79380000D01*
X38665500Y-79368600D02*
X38422600Y-79368600D01*
X38422600Y-79368600D02*
X38411200Y-79380000D01*
X75568800Y-61976000D02*
X75568800Y-61740000D01*
X75568800Y-61740000D02*
X74281300Y-60452500D01*
X74281300Y-60452500D02*
X49812500Y-60452500D01*
X49812500Y-60452500D02*
X47427700Y-62837300D01*
X47427700Y-62837300D02*
X46493000Y-62837300D01*
X46421200Y-62376000D02*
X46421200Y-62765500D01*
X46421200Y-62765500D02*
X46493000Y-62837300D01*
X46493000Y-62873200D02*
X46493000Y-62837300D01*
X76708000Y-61976000D02*
X75568800Y-61976000D01*
X45907000Y-62376000D02*
X46421200Y-62376000D01*
X53788500Y-82088500D02*
X53788500Y-82057000D01*
X53788500Y-82057000D02*
X53221500Y-81490000D01*
X53221500Y-81490000D02*
X52534000Y-82177500D01*
X47034000Y-75302500D02*
X47010000Y-75278500D01*
X47010000Y-75278500D02*
X46453600Y-75278500D01*
D41*
X53221500Y-78990000D02*
X54066000Y-78990000D01*
X54066000Y-78990000D02*
X54120700Y-78935300D01*
X51376000Y-66287500D02*
X51625600Y-66287500D01*
X51625600Y-66287500D02*
X51823300Y-66089800D01*
X51376000Y-67564000D02*
X51376000Y-66287500D01*
X53221500Y-78490000D02*
X53319700Y-78391800D01*
X53319700Y-78391800D02*
X54818200Y-78391800D01*
X54818200Y-78391800D02*
X54903500Y-78477100D01*
X36890500Y-63990000D02*
X37428200Y-63452300D01*
X37428200Y-63452300D02*
X45908000Y-63452300D01*
X36352300Y-63990000D02*
X36352300Y-69548300D01*
X36352300Y-69548300D02*
X33906700Y-71993900D01*
X36352300Y-63990000D02*
X36890500Y-63990000D01*
X35814000Y-63990000D02*
X36352300Y-63990000D01*
X60765200Y-79593000D02*
X59868200Y-80490000D01*
X59868200Y-80490000D02*
X53221500Y-80490000D01*
X60439500Y-71940000D02*
X60439500Y-71300900D01*
X60439500Y-71300900D02*
X60772000Y-70968400D01*
X61316000Y-71940000D02*
X60439500Y-71940000D01*
X53221500Y-79990000D02*
X58891100Y-79990000D01*
X58891100Y-79990000D02*
X60624300Y-78256800D01*
X61316000Y-72840000D02*
X60439500Y-72840000D01*
X60439500Y-72840000D02*
X60439500Y-72668100D01*
X60439500Y-72668100D02*
X60248500Y-72477100D01*
D43*
X41910000Y-96774000D02*
X48904300Y-96774000D01*
X48904300Y-96774000D02*
X50165000Y-98034700D01*
X50165000Y-98034700D02*
X50165000Y-98995000D01*
X36322000Y-97028000D02*
X36576000Y-96774000D01*
X36576000Y-96774000D02*
X41910000Y-96774000D01*
X30480000Y-96948000D02*
X36242000Y-96948000D01*
X36242000Y-96948000D02*
X36322000Y-97028000D01*
D42*
X49660800Y-61976000D02*
X45752300Y-65884500D01*
X45752300Y-65884500D02*
X42781500Y-65884500D01*
X49113100Y-92589800D02*
X50165000Y-93641700D01*
X50165000Y-93641700D02*
X50165000Y-94045000D01*
X49113100Y-92589800D02*
X48632500Y-92109200D01*
X48632500Y-92109200D02*
X46497100Y-92109200D01*
X46497100Y-92109200D02*
X36643200Y-82255300D01*
X36643200Y-82255300D02*
X36643200Y-79646600D01*
X36643200Y-79646600D02*
X36376600Y-79380000D01*
X50800000Y-61976000D02*
X49660800Y-61976000D01*
X36211000Y-79380000D02*
X36376600Y-79380000D01*
X35392000Y-79380000D02*
X36211000Y-79380000D01*
X34572800Y-81280000D02*
X34089200Y-81280000D01*
X34089200Y-81280000D02*
X33357200Y-82012000D01*
X35392000Y-81280000D02*
X34572800Y-81280000D01*
X35392000Y-79380000D02*
X34572800Y-79380000D01*
X34572800Y-79380000D02*
X34572800Y-81280000D01*
X32393000Y-82012000D02*
X33357200Y-82012000D01*
D43*
X41910000Y-90170000D02*
X40401700Y-90170000D01*
X36322000Y-94488000D02*
X36819200Y-94488000D01*
X36819200Y-94488000D02*
X40401700Y-90905500D01*
X40401700Y-90905500D02*
X40401700Y-90170000D01*
X59436000Y-96520000D02*
X55626000Y-96520000D01*
X63246000Y-96520000D02*
X59436000Y-96520000D01*
X67056000Y-96520000D02*
X63246000Y-96520000D01*
X70866000Y-96520000D02*
X67056000Y-96520000D01*
X70866000Y-96520000D02*
X74676000Y-96520000D01*
D41*
X66982500Y-79648000D02*
X66982500Y-78996700D01*
X66982500Y-78996700D02*
X67652400Y-78326800D01*
X67652400Y-78326800D02*
X69023400Y-78326800D01*
X69023400Y-78326800D02*
X70329000Y-77021200D01*
X70329000Y-77021200D02*
X70329000Y-76273600D01*
X69006000Y-70332600D02*
X69078100Y-70404700D01*
X69078100Y-70404700D02*
X69641200Y-70404700D01*
X60282000Y-83378000D02*
X61088500Y-83378000D01*
X61425000Y-83222900D02*
X61243600Y-83222900D01*
X61243600Y-83222900D02*
X61088500Y-83378000D01*
X66481000Y-79648000D02*
X66982500Y-79648000D01*
X66230300Y-79648000D02*
X66481000Y-79648000D01*
X66230300Y-79648000D02*
X65979500Y-79648000D01*
X65979500Y-79648000D02*
X65935500Y-79604000D01*
X65935500Y-79604000D02*
X65432700Y-79604000D01*
X74584000Y-75487500D02*
X76225300Y-75487500D01*
X76225300Y-75487500D02*
X76729000Y-74983800D01*
X76729000Y-74983800D02*
X76729000Y-74152000D01*
X67631000Y-79248000D02*
X70953000Y-79248000D01*
X70953000Y-79248000D02*
X74584000Y-75617000D01*
X74584000Y-75617000D02*
X74584000Y-75487500D01*
X74584000Y-75487500D02*
X74584000Y-75205300D01*
X74584000Y-74697000D02*
X74584000Y-75205300D01*
X75384000Y-74697000D02*
X75384000Y-74100500D01*
X75384000Y-74100500D02*
X75417100Y-74100500D01*
X75417100Y-74100500D02*
X75846800Y-73670800D01*
X75031200Y-82082600D02*
X74481000Y-81532500D01*
X74481000Y-81532500D02*
X74184000Y-81532500D01*
X75184000Y-82235500D02*
X75031200Y-82082600D01*
X75031200Y-82082600D02*
X75180000Y-81933800D01*
X73407500Y-80604400D02*
X72984700Y-80604400D01*
X72984700Y-80604400D02*
X72815000Y-80774100D01*
X73407500Y-80604400D02*
X73407500Y-79756000D01*
X74184000Y-80981000D02*
X73784100Y-80981000D01*
X73784100Y-80981000D02*
X73407500Y-80604400D01*
X75184000Y-82737000D02*
X75184000Y-82235500D01*
X74184000Y-80981000D02*
X74184000Y-81532500D01*
X73407500Y-79256000D02*
X73407500Y-79756000D01*
X73959000Y-79756000D02*
X73407500Y-79756000D01*
X73959000Y-79256000D02*
X73407500Y-79256000D01*
X69656500Y-82804000D02*
X69656500Y-82046100D01*
X69656500Y-82046100D02*
X68988800Y-81378400D01*
X68988800Y-81378400D02*
X65753800Y-81378400D01*
X65540000Y-81572500D02*
X65559700Y-81572500D01*
X65559700Y-81572500D02*
X65753800Y-81378400D01*
X69155000Y-82804000D02*
X69656500Y-82804000D01*
X65540000Y-82039000D02*
X65540000Y-81572500D01*
X65540000Y-82272200D02*
X65540000Y-82039000D01*
X65540000Y-82272200D02*
X65540000Y-82505500D01*
X65540000Y-82505500D02*
X65323500Y-82505500D01*
X65323500Y-82505500D02*
X65275000Y-82554000D01*
X44712500Y-65193900D02*
X43629400Y-65193900D01*
X43629400Y-65193900D02*
X43459500Y-65024000D01*
D42*
X48034000Y-75302500D02*
X48034000Y-74220000D01*
X48034000Y-74220000D02*
X47316600Y-73502600D01*
X47316600Y-73502600D02*
X42625900Y-73502600D01*
X42625900Y-73502600D02*
X41842700Y-72719400D01*
D41*
X45624900Y-72727900D02*
X43426200Y-72727900D01*
X43426200Y-72727900D02*
X43417700Y-72719400D01*
X43459500Y-70104000D02*
X43498000Y-70142500D01*
X43498000Y-70142500D02*
X45352700Y-70142500D01*
D42*
X41884500Y-70104000D02*
X43734800Y-71954300D01*
X43734800Y-71954300D02*
X46303000Y-71954300D01*
X46303000Y-71954300D02*
X48534000Y-74185300D01*
X48534000Y-74185300D02*
X48534000Y-75302500D01*
X55006100Y-81923500D02*
X53646300Y-83283300D01*
X53646300Y-83283300D02*
X52151900Y-83283300D01*
X52151900Y-83283300D02*
X51534000Y-82665400D01*
X51534000Y-82665400D02*
X51534000Y-82177500D01*
X41842700Y-67564000D02*
X42656500Y-66750200D01*
X42656500Y-66750200D02*
X44456800Y-66750200D01*
X44456800Y-66750200D02*
X44740000Y-67033400D01*
X44740000Y-67033400D02*
X47228200Y-67033400D01*
D41*
X43417700Y-67564000D02*
X43570800Y-67717100D01*
X43570800Y-67717100D02*
X45235900Y-67717100D01*
X47034000Y-82177500D02*
X47034000Y-83243800D01*
X47034000Y-83243800D02*
X46098300Y-84179500D01*
X46098300Y-84179500D02*
X45841800Y-84179500D01*
X48260000Y-87376000D02*
X46573400Y-89062600D01*
X46573400Y-89062600D02*
X45765400Y-89062600D01*
X46346500Y-80490000D02*
X42911000Y-80490000D01*
X42911000Y-80490000D02*
X41369100Y-82031900D01*
X46346500Y-79990000D02*
X40752700Y-79990000D01*
X40752700Y-79990000D02*
X38088200Y-82654500D01*
X32393000Y-83312000D02*
X31441500Y-83312000D01*
X31129400Y-83720700D02*
X31441500Y-83408600D01*
X31441500Y-83408600D02*
X31441500Y-83312000D01*
X31441500Y-82662000D02*
X31441500Y-81635300D01*
X31441500Y-81635300D02*
X31781200Y-81295600D01*
X31781200Y-81295600D02*
X32887300Y-81295600D01*
X32887300Y-81295600D02*
X33806900Y-80376000D01*
X33806900Y-80376000D02*
X33806900Y-79573900D01*
X33806900Y-79573900D02*
X34621700Y-78759100D01*
X34621700Y-78759100D02*
X41146900Y-78759100D01*
X41146900Y-78759100D02*
X41877800Y-79490000D01*
X41877800Y-79490000D02*
X46346500Y-79490000D01*
X32393000Y-82662000D02*
X31441500Y-82662000D01*
X51519600Y-83875100D02*
X51519600Y-83179800D01*
X51519600Y-83179800D02*
X51034000Y-82694200D01*
X51034000Y-82694200D02*
X51034000Y-82177500D01*
X43260800Y-87414500D02*
X43260800Y-85790100D01*
X43260800Y-85790100D02*
X45596700Y-83454200D01*
X45596700Y-83454200D02*
X46073200Y-83454200D01*
X50034000Y-82177500D02*
X50034000Y-83268600D01*
X50034000Y-83268600D02*
X51302000Y-84536600D01*
X51302000Y-84536600D02*
X53545500Y-84536600D01*
X53545500Y-84536600D02*
X53877400Y-84868500D01*
X49534000Y-82177500D02*
X49534000Y-83416400D01*
X49534000Y-83416400D02*
X48369600Y-84580800D01*
X47620400Y-84405600D02*
X48351600Y-83674400D01*
X48351600Y-83674400D02*
X48764400Y-83674400D01*
X48764400Y-83674400D02*
X49075000Y-83363800D01*
X49075000Y-83363800D02*
X49075000Y-82218500D01*
X49075000Y-82218500D02*
X49034000Y-82177500D01*
X48534000Y-82177500D02*
X48534000Y-83133400D01*
X48534000Y-83133400D02*
X48544500Y-83143900D01*
X69739500Y-93980000D02*
X68613000Y-95106500D01*
X68613000Y-95106500D02*
X62281400Y-95106500D01*
X62281400Y-95106500D02*
X61247100Y-94072200D01*
X61247100Y-94072200D02*
X61247100Y-93585700D01*
X61247100Y-93585700D02*
X59788000Y-92126600D01*
X59788000Y-92126600D02*
X54318800Y-92126600D01*
X54318800Y-92126600D02*
X53809700Y-91617500D01*
X70866000Y-93980000D02*
X69739500Y-93980000D01*
X73549500Y-93980000D02*
X70460200Y-90890700D01*
X70460200Y-90890700D02*
X66161200Y-90890700D01*
X66161200Y-90890700D02*
X65610600Y-91441300D01*
X65610600Y-91441300D02*
X62151000Y-91441300D01*
X62151000Y-91441300D02*
X61444000Y-90734300D01*
X61444000Y-90734300D02*
X54674800Y-90734300D01*
X54674800Y-90734300D02*
X54175900Y-90235400D01*
X54175900Y-90235400D02*
X46169900Y-90235400D01*
X46169900Y-90235400D02*
X44588100Y-88653600D01*
X44588100Y-88653600D02*
X44588100Y-86406800D01*
X44588100Y-86406800D02*
X44806300Y-86188600D01*
X44806300Y-86188600D02*
X45087000Y-86188600D01*
X45087000Y-86188600D02*
X48014000Y-83261600D01*
X48014000Y-83261600D02*
X48014000Y-82197500D01*
X48014000Y-82197500D02*
X48034000Y-82177500D01*
X74676000Y-93980000D02*
X73549500Y-93980000D01*
X63500000Y-61976000D02*
X62373500Y-61976000D01*
X46346500Y-75990000D02*
X45058900Y-74702400D01*
X45058900Y-74702400D02*
X41459800Y-74702400D01*
X41459800Y-74702400D02*
X40797000Y-74039600D01*
X40797000Y-74039600D02*
X40797000Y-69481000D01*
X40797000Y-69481000D02*
X41321000Y-68957000D01*
X41321000Y-68957000D02*
X47189700Y-68957000D01*
X47189700Y-68957000D02*
X47936800Y-69704100D01*
X47936800Y-69704100D02*
X53804300Y-69704100D01*
X53804300Y-69704100D02*
X60405900Y-63102500D01*
X60405900Y-63102500D02*
X61528700Y-63102500D01*
X61528700Y-63102500D02*
X62373500Y-62257700D01*
X62373500Y-62257700D02*
X62373500Y-61976000D01*
X60960000Y-61976000D02*
X59833500Y-61976000D01*
X45115600Y-66431600D02*
X48050100Y-66431600D01*
X48050100Y-66431600D02*
X50338400Y-64143300D01*
X50338400Y-64143300D02*
X57875400Y-64143300D01*
X57875400Y-64143300D02*
X59833500Y-62185200D01*
X59833500Y-62185200D02*
X59833500Y-61976000D01*
X46346500Y-76490000D02*
X46248400Y-76391900D01*
X46248400Y-76391900D02*
X46248400Y-76391800D01*
X46248400Y-76391800D02*
X45435900Y-76391800D01*
X45435900Y-76391800D02*
X44501800Y-75457700D01*
X40141800Y-70457900D02*
X40287400Y-70603500D01*
X40287400Y-70603500D02*
X40287400Y-74028900D01*
X40287400Y-74028900D02*
X43248500Y-76990000D01*
X43248500Y-76990000D02*
X46346500Y-76990000D01*
X39740600Y-72182400D02*
X39740600Y-73981000D01*
X39740600Y-73981000D02*
X43102500Y-77342900D01*
X43102500Y-77342900D02*
X45782300Y-77342900D01*
X45782300Y-77342900D02*
X45929400Y-77490000D01*
X45929400Y-77490000D02*
X46346500Y-77490000D01*
X29972000Y-68096000D02*
X29972000Y-67319500D01*
X29972000Y-67319500D02*
X30047700Y-67243800D01*
X30047700Y-67243800D02*
X30047700Y-66297700D01*
X46346500Y-78990000D02*
X42086700Y-78990000D01*
X42086700Y-78990000D02*
X40654300Y-77557600D01*
X40654300Y-77557600D02*
X35560000Y-77557600D01*
X74168000Y-61976000D02*
X75336100Y-63144100D01*
X75336100Y-63144100D02*
X77143300Y-63144100D01*
X77143300Y-63144100D02*
X77844700Y-62442700D01*
X77844700Y-62442700D02*
X77844700Y-61458100D01*
X77844700Y-61458100D02*
X76473700Y-60087100D01*
X76473700Y-60087100D02*
X35508000Y-60087100D01*
X35508000Y-60087100D02*
X27663200Y-67931900D01*
X27663200Y-67931900D02*
X27663200Y-70853800D01*
X27663200Y-70853800D02*
X33560200Y-76750800D01*
X33560200Y-76750800D02*
X40346400Y-76750800D01*
X40346400Y-76750800D02*
X42085600Y-78490000D01*
X42085600Y-78490000D02*
X46346500Y-78490000D01*
X62484000Y-89662000D02*
X62484000Y-90688500D01*
X62689200Y-90877600D02*
X62500100Y-90688500D01*
X62500100Y-90688500D02*
X62484000Y-90688500D01*
X53051700Y-85641200D02*
X53187600Y-85777100D01*
X53187600Y-85777100D02*
X57127100Y-85777100D01*
X57127100Y-85777100D02*
X58063500Y-86713500D01*
X50534000Y-82177500D02*
X50534000Y-82983000D01*
X50534000Y-82983000D02*
X50637900Y-83086900D01*
X65106000Y-74826900D02*
X63732900Y-74826900D01*
X65106000Y-74826900D02*
X65106000Y-74782800D01*
X65106000Y-74782800D02*
X65212000Y-74676800D01*
X65106000Y-74856700D02*
X65106000Y-74826900D01*
X53221500Y-76990000D02*
X63270500Y-76990000D01*
X65106000Y-75971400D02*
X65106000Y-74856700D01*
X44630300Y-62736500D02*
X44630300Y-62351200D01*
X44630300Y-62351200D02*
X45405500Y-61576000D01*
X45907000Y-61576000D02*
X45405500Y-61576000D01*
X49034000Y-75302500D02*
X49034000Y-74145300D01*
X49034000Y-74145300D02*
X46218100Y-71329400D01*
X46218100Y-71329400D02*
X44036900Y-71329400D01*
X44036900Y-71329400D02*
X43963800Y-71256300D01*
X47486300Y-71822800D02*
X46462400Y-70798900D01*
X46462400Y-70798900D02*
X45007200Y-70798900D01*
X50034000Y-75302500D02*
X50034000Y-74024600D01*
X50034000Y-74024600D02*
X50095900Y-73962700D01*
X65979500Y-78848000D02*
X65923400Y-78904100D01*
X65923400Y-78904100D02*
X65798300Y-78904100D01*
X66481000Y-78848000D02*
X65979500Y-78848000D01*
X47534000Y-82177500D02*
X47534000Y-83242700D01*
X47534000Y-83242700D02*
X45809600Y-84967100D01*
X45809600Y-84967100D02*
X44611100Y-84967100D01*
X44611100Y-84967100D02*
X43848700Y-85729500D01*
X43848700Y-85729500D02*
X43848700Y-88912000D01*
X43848700Y-88912000D02*
X46023700Y-91087000D01*
X46023700Y-91087000D02*
X54029600Y-91087000D01*
X54029600Y-91087000D02*
X54382300Y-91439700D01*
X54382300Y-91439700D02*
X61151600Y-91439700D01*
X61151600Y-91439700D02*
X61858600Y-92146700D01*
X61858600Y-92146700D02*
X67183400Y-92146700D01*
X67183400Y-92146700D02*
X67536100Y-91794000D01*
X74020700Y-83887000D02*
X74784000Y-83887000D01*
X45035100Y-77957900D02*
X46314400Y-77957900D01*
X46314400Y-77957900D02*
X46346500Y-77990000D01*
X68272700Y-91430300D02*
X68085800Y-91243400D01*
X68085800Y-91243400D02*
X67021700Y-91243400D01*
X67021700Y-91243400D02*
X66471100Y-91794000D01*
X66471100Y-91794000D02*
X62004800Y-91794000D01*
X62004800Y-91794000D02*
X61297800Y-91087000D01*
X61297800Y-91087000D02*
X54528500Y-91087000D01*
X54528500Y-91087000D02*
X54175800Y-90734300D01*
X54175800Y-90734300D02*
X46169900Y-90734300D01*
X46169900Y-90734300D02*
X44201400Y-88765800D01*
X44201400Y-88765800D02*
X44201400Y-86194400D01*
X44201400Y-86194400D02*
X44898200Y-85497600D01*
X68506500Y-82404000D02*
X68594800Y-82404000D01*
X68594800Y-82404000D02*
X68903700Y-82095100D01*
X68005000Y-82404000D02*
X68506500Y-82404000D01*
X49534000Y-75302500D02*
X49534000Y-73736300D01*
X49534000Y-73736300D02*
X51920600Y-71349700D01*
X51920600Y-71349700D02*
X58187200Y-71349700D01*
X58187200Y-71349700D02*
X60258400Y-73420900D01*
X60258400Y-73420900D02*
X62174800Y-73420900D01*
X62174800Y-73420900D02*
X62479200Y-73116500D01*
X62479200Y-73116500D02*
X64745500Y-73116500D01*
X58818500Y-82343900D02*
X59005000Y-82530400D01*
X59005000Y-82530400D02*
X59005000Y-83855700D01*
X59005000Y-83855700D02*
X59515100Y-84365800D01*
X59515100Y-84365800D02*
X61165200Y-84365800D01*
X61165200Y-84365800D02*
X61675500Y-84876100D01*
X61675500Y-84876100D02*
X66211300Y-84876100D01*
X66211300Y-84876100D02*
X67004600Y-84082800D01*
X67004600Y-84082800D02*
X67004600Y-83253600D01*
X67004600Y-83253600D02*
X66805000Y-83054000D01*
X56094100Y-75880200D02*
X53331300Y-75880200D01*
X53331300Y-75880200D02*
X53221500Y-75990000D01*
X72613700Y-75373700D02*
X72280400Y-75373700D01*
X72280400Y-75373700D02*
X69869400Y-72962700D01*
X69869400Y-72962700D02*
X65358900Y-72962700D01*
X65358900Y-72962700D02*
X64739100Y-72342900D01*
X64739100Y-72342900D02*
X63244900Y-72342900D01*
X76409000Y-79256000D02*
X76635600Y-79029400D01*
X76635600Y-79029400D02*
X76635600Y-78429600D01*
X76635600Y-78429600D02*
X76821800Y-78243400D01*
X61233600Y-75065500D02*
X60996600Y-75302500D01*
X60996600Y-75302500D02*
X52534000Y-75302500D01*
X53583800Y-69151100D02*
X47954900Y-69151100D01*
X47954900Y-69151100D02*
X47408100Y-68604300D01*
X47408100Y-68604300D02*
X41104200Y-68604300D01*
X41104200Y-68604300D02*
X39197900Y-70510600D01*
X39197900Y-70510600D02*
X39197900Y-72136300D01*
X39197900Y-72136300D02*
X36160200Y-75174000D01*
X36160200Y-75174000D02*
X34560000Y-75174000D01*
X52034000Y-75302500D02*
X52034000Y-74868800D01*
X52034000Y-74868800D02*
X52315600Y-74587200D01*
X52315600Y-74587200D02*
X53435200Y-74587200D01*
X53435200Y-74587200D02*
X53583800Y-74735800D01*
X62908600Y-75253500D02*
X62190100Y-74535000D01*
X62190100Y-74535000D02*
X61013800Y-74535000D01*
X61013800Y-74535000D02*
X60917000Y-74631800D01*
X60917000Y-74631800D02*
X56606300Y-74631800D01*
X56606300Y-74631800D02*
X56168800Y-74194300D01*
X56168800Y-74194300D02*
X52209600Y-74194300D01*
X52209600Y-74194300D02*
X51534000Y-74869900D01*
X51534000Y-74869900D02*
X51534000Y-75302500D01*
X75778100Y-83238600D02*
X74030300Y-83238600D01*
X74030300Y-83238600D02*
X71612300Y-80820600D01*
X71612300Y-80820600D02*
X65516900Y-80820600D01*
X65516900Y-80820600D02*
X64053500Y-82284000D01*
X64053500Y-82284000D02*
X64014500Y-82245000D01*
X64014500Y-82245000D02*
X63210800Y-82245000D01*
X64823500Y-83054000D02*
X64053500Y-82284000D01*
X65275000Y-83054000D02*
X64823500Y-83054000D01*
X75778100Y-83238600D02*
X76060600Y-83521100D01*
X76060600Y-83521100D02*
X76060600Y-99337500D01*
X76060600Y-99337500D02*
X74742100Y-100656000D01*
X74742100Y-100656000D02*
X30944700Y-100656000D01*
X30944700Y-100656000D02*
X28203400Y-97914700D01*
X28203400Y-97914700D02*
X28203400Y-80143700D01*
X28203400Y-80143700D02*
X30024700Y-78322400D01*
X30024700Y-78322400D02*
X33644200Y-78322400D01*
X75778100Y-83238600D02*
X75778100Y-81626600D01*
X75778100Y-81626600D02*
X75684000Y-81532500D01*
X66406000Y-75971400D02*
X66406000Y-77086100D01*
X66406000Y-77086100D02*
X64813600Y-77086100D01*
X64813600Y-77086100D02*
X62981000Y-75253500D01*
X62981000Y-75253500D02*
X62908600Y-75253500D01*
X75684000Y-80981000D02*
X75684000Y-81532500D01*
X66124700Y-74124900D02*
X62468600Y-74124900D01*
X62468600Y-74124900D02*
X62411200Y-74182300D01*
X62411200Y-74182300D02*
X60867600Y-74182300D01*
X60867600Y-74182300D02*
X60770900Y-74279000D01*
X60770900Y-74279000D02*
X57001700Y-74279000D01*
X57001700Y-74279000D02*
X56564200Y-73841500D01*
X56564200Y-73841500D02*
X51822400Y-73841500D01*
X51822400Y-73841500D02*
X51806700Y-73857200D01*
X67056000Y-74856700D02*
X66324200Y-74124900D01*
X66324200Y-74124900D02*
X66124700Y-74124900D01*
X66124700Y-74124900D02*
X66124700Y-73845900D01*
X76409000Y-80256000D02*
X75857500Y-80256000D01*
X75602600Y-79485800D02*
X75602600Y-80001100D01*
X75602600Y-80001100D02*
X75857500Y-80256000D01*
X67056000Y-75971400D02*
X67056000Y-74856700D01*
X51806700Y-73857200D02*
X51034000Y-74629900D01*
X51034000Y-74629900D02*
X51034000Y-75302500D01*
X51799700Y-73850200D02*
X51806700Y-73857200D01*
X59611700Y-82583400D02*
X59429300Y-82765800D01*
X59429300Y-82765800D02*
X59429300Y-83781100D01*
X59429300Y-83781100D02*
X59661300Y-84013100D01*
X59661300Y-84013100D02*
X61311400Y-84013100D01*
X61311400Y-84013100D02*
X61777600Y-84479300D01*
X61777600Y-84479300D02*
X66102100Y-84479300D01*
X66102100Y-84479300D02*
X66540000Y-84041400D01*
X66540000Y-84041400D02*
X66540000Y-83569000D01*
X41342800Y-71166000D02*
X41169600Y-70992800D01*
X41169600Y-70992800D02*
X41169600Y-69643400D01*
X41169600Y-69643400D02*
X41461400Y-69351600D01*
X41461400Y-69351600D02*
X47085400Y-69351600D01*
X47085400Y-69351600D02*
X50104400Y-72370600D01*
X67706000Y-74856700D02*
X67706000Y-74676800D01*
X67706000Y-74676800D02*
X66344600Y-73315400D01*
X66344600Y-73315400D02*
X65904900Y-73315400D01*
X65904900Y-73315400D02*
X65495200Y-73725100D01*
X65495200Y-73725100D02*
X62369500Y-73725100D01*
X62369500Y-73725100D02*
X62281300Y-73813300D01*
X62281300Y-73813300D02*
X59504400Y-73813300D01*
X59504400Y-73813300D02*
X59439600Y-73748500D01*
X67706000Y-74856700D02*
X70161400Y-74856700D01*
X70161400Y-74856700D02*
X72363100Y-77058400D01*
X76960500Y-79756000D02*
X77168300Y-79548200D01*
X77168300Y-79548200D02*
X77168300Y-78972700D01*
X59439600Y-81795300D02*
X60778900Y-81795300D01*
X60778900Y-81795300D02*
X63091800Y-84108200D01*
X63091800Y-84108200D02*
X65967300Y-84108200D01*
X65967300Y-84108200D02*
X66040000Y-84035500D01*
X76409000Y-79756000D02*
X76960500Y-79756000D01*
X47188000Y-74142300D02*
X41650100Y-74142300D01*
X41650100Y-74142300D02*
X41333600Y-73825800D01*
X59439600Y-73748500D02*
X59179800Y-73488700D01*
X59179800Y-73488700D02*
X52220000Y-73488700D01*
X52220000Y-73488700D02*
X52037100Y-73305800D01*
X52037100Y-73305800D02*
X51562000Y-73305800D01*
X51562000Y-73305800D02*
X50903200Y-73964600D01*
X66040000Y-83569000D02*
X66040000Y-84035500D01*
X50903200Y-73964600D02*
X50534000Y-74333800D01*
X50534000Y-74333800D02*
X50534000Y-75302500D01*
X67706000Y-75971400D02*
X67706000Y-74856700D01*
X47057000Y-61976000D02*
X47057000Y-61449500D01*
X47057000Y-61449500D02*
X46667700Y-61060200D01*
X46667700Y-61060200D02*
X38885100Y-61060200D01*
X38885100Y-61060200D02*
X37230700Y-62714600D01*
X53221500Y-76490000D02*
X53253500Y-76458000D01*
X53253500Y-76458000D02*
X63686600Y-76458000D01*
X63686600Y-76458000D02*
X64667400Y-77438800D01*
X64667400Y-77438800D02*
X68003300Y-77438800D01*
X68003300Y-77438800D02*
X68356000Y-77086100D01*
X68356000Y-75971400D02*
X68356000Y-77086100D01*
X74984000Y-71010500D02*
X74227200Y-70253700D01*
X74227200Y-70253700D02*
X70995300Y-70253700D01*
X70995300Y-70253700D02*
X69959500Y-69217900D01*
X69959500Y-69217900D02*
X68356000Y-69217900D01*
X68356000Y-70332600D02*
X68356000Y-69217900D01*
X74984000Y-71607000D02*
X74984000Y-71010500D01*
X74184000Y-71607000D02*
X74118500Y-71672500D01*
X74118500Y-71672500D02*
X71677900Y-71672500D01*
X71677900Y-71672500D02*
X71404400Y-71399000D01*
X71404400Y-71399000D02*
X70964700Y-71399000D01*
X70964700Y-71399000D02*
X70916400Y-71447300D01*
X70916400Y-71447300D02*
X67706000Y-71447300D01*
X67706000Y-70332600D02*
X67706000Y-71447300D01*
X74984000Y-74697000D02*
X74984000Y-74100500D01*
X67056000Y-70332600D02*
X67056000Y-71447300D01*
X70461100Y-72305200D02*
X70076900Y-71921000D01*
X70076900Y-71921000D02*
X67529700Y-71921000D01*
X67529700Y-71921000D02*
X67056000Y-71447300D01*
X74984000Y-74100500D02*
X74776900Y-74100500D01*
X74776900Y-74100500D02*
X74584000Y-73907600D01*
X66406000Y-71447300D02*
X67525000Y-72566300D01*
X67525000Y-72566300D02*
X69971900Y-72566300D01*
X69971900Y-72566300D02*
X70241300Y-72835700D01*
X70241300Y-72835700D02*
X70681000Y-72835700D01*
X70681000Y-72835700D02*
X71184500Y-72332200D01*
X71184500Y-72332200D02*
X71184500Y-71929500D01*
X66406000Y-70332600D02*
X66406000Y-71447300D01*
X74584000Y-71607000D02*
X74584000Y-71109400D01*
X74584000Y-71109400D02*
X74485000Y-71010400D01*
X74485000Y-71010400D02*
X72057100Y-71010400D01*
X72057100Y-71010400D02*
X71946100Y-71121400D01*
D44*
G36*
X78435601Y-100787600D02*
G01*
X75113393Y-100787600D01*
X76299700Y-99601294D01*
X76313263Y-99590163D01*
X76357701Y-99536016D01*
X76390721Y-99474240D01*
X76411054Y-99407210D01*
X76416200Y-99354963D01*
X76416200Y-99354955D01*
X76417919Y-99337500D01*
X76416200Y-99320045D01*
X76416200Y-84179562D01*
X76419000Y-84143750D01*
X76416200Y-84140950D01*
X76416200Y-83633050D01*
X76419000Y-83630250D01*
X76416200Y-83594438D01*
X76416200Y-83538552D01*
X76417919Y-83521099D01*
X76416200Y-83503646D01*
X76416200Y-83503637D01*
X76411054Y-83451390D01*
X76390721Y-83384360D01*
X76357701Y-83322584D01*
X76349015Y-83312000D01*
X76324395Y-83282000D01*
X76324385Y-83281990D01*
X76313262Y-83268437D01*
X76299709Y-83257314D01*
X76133700Y-83091306D01*
X76133700Y-81644052D01*
X76135419Y-81626599D01*
X76133700Y-81609146D01*
X76133700Y-81609137D01*
X76128554Y-81556890D01*
X76122445Y-81536751D01*
X76359000Y-81536751D01*
X76413772Y-81531356D01*
X76466439Y-81515380D01*
X76514977Y-81489436D01*
X76557521Y-81454521D01*
X76592436Y-81411977D01*
X76618380Y-81363439D01*
X76622189Y-81350883D01*
X76624200Y-81351081D01*
X76642285Y-81349300D01*
X76642293Y-81349300D01*
X76696399Y-81343971D01*
X76765824Y-81322911D01*
X76829807Y-81288712D01*
X76885887Y-81242687D01*
X76897422Y-81228632D01*
X78016532Y-80109522D01*
X78030587Y-80097987D01*
X78076612Y-80041907D01*
X78110811Y-79977924D01*
X78126599Y-79925879D01*
X78131871Y-79908500D01*
X78132948Y-79897561D01*
X78137200Y-79854393D01*
X78137200Y-79854386D01*
X78138981Y-79836301D01*
X78137200Y-79818216D01*
X78137200Y-78430493D01*
X78138981Y-78412415D01*
X78137200Y-78394322D01*
X78137200Y-78394307D01*
X78133829Y-78360081D01*
X78131874Y-78340216D01*
X78131872Y-78340209D01*
X78131871Y-78340201D01*
X78118982Y-78297712D01*
X78110817Y-78270790D01*
X78110813Y-78270782D01*
X78110811Y-78270776D01*
X78089596Y-78231084D01*
X78076620Y-78206806D01*
X78076617Y-78206802D01*
X78076612Y-78206793D01*
X78052109Y-78176937D01*
X78042131Y-78164777D01*
X78042118Y-78164764D01*
X78030586Y-78150713D01*
X78016549Y-78139192D01*
X77094017Y-77216584D01*
X77119112Y-77186007D01*
X77153311Y-77122024D01*
X77166330Y-77079105D01*
X77174371Y-77052600D01*
X77175743Y-77038663D01*
X77179700Y-76998492D01*
X77179700Y-76998479D01*
X77180413Y-76991242D01*
X77585837Y-76585817D01*
X77599887Y-76574287D01*
X77611417Y-76560238D01*
X77611421Y-76560234D01*
X77634848Y-76531688D01*
X77645912Y-76518207D01*
X77672043Y-76469318D01*
X77680111Y-76454225D01*
X77701171Y-76384799D01*
X77702201Y-76374337D01*
X77706500Y-76330693D01*
X77706500Y-76330685D01*
X77708281Y-76312600D01*
X77706500Y-76294515D01*
X77706500Y-72170093D01*
X77708282Y-72152000D01*
X77705083Y-72119515D01*
X77701171Y-72079801D01*
X77680111Y-72010376D01*
X77645912Y-71946393D01*
X77643702Y-71943700D01*
X77599887Y-71890313D01*
X77543807Y-71844288D01*
X77479824Y-71810089D01*
X77410399Y-71789029D01*
X77356293Y-71783700D01*
X77338200Y-71781918D01*
X77320107Y-71783700D01*
X77158460Y-71783700D01*
X77156439Y-71782620D01*
X77103772Y-71766644D01*
X77097300Y-71766007D01*
X77097300Y-71323284D01*
X77099081Y-71305199D01*
X77097300Y-71287114D01*
X77097300Y-71287107D01*
X77091971Y-71233001D01*
X77091637Y-71231898D01*
X77084665Y-71208916D01*
X77070911Y-71163576D01*
X77036712Y-71099593D01*
X77011505Y-71068880D01*
X77002220Y-71057566D01*
X77002218Y-71057564D01*
X76990686Y-71043513D01*
X76976637Y-71031983D01*
X76694820Y-70750166D01*
X76683287Y-70736113D01*
X76627207Y-70690088D01*
X76563224Y-70655889D01*
X76493799Y-70634829D01*
X76439693Y-70629500D01*
X76439685Y-70629500D01*
X76421600Y-70627719D01*
X76403515Y-70629500D01*
X75936554Y-70629500D01*
X74759922Y-69452868D01*
X74748387Y-69438813D01*
X74692307Y-69392788D01*
X74628324Y-69358589D01*
X74558899Y-69337529D01*
X74504793Y-69332200D01*
X74504785Y-69332200D01*
X74486700Y-69330419D01*
X74468615Y-69332200D01*
X71561058Y-69332200D01*
X71383765Y-69154902D01*
X71486408Y-69197418D01*
X71916660Y-69283000D01*
X72355340Y-69283000D01*
X72785592Y-69197418D01*
X73190880Y-69029542D01*
X73555630Y-68785824D01*
X73865824Y-68475630D01*
X74109542Y-68110880D01*
X74277418Y-67705592D01*
X74363000Y-67275340D01*
X74363000Y-66836660D01*
X74277418Y-66406408D01*
X74109542Y-66001120D01*
X73865824Y-65636370D01*
X73555630Y-65326176D01*
X73190880Y-65082458D01*
X72785592Y-64914582D01*
X72355340Y-64829000D01*
X71916660Y-64829000D01*
X71486408Y-64914582D01*
X71081120Y-65082458D01*
X70716370Y-65326176D01*
X70406176Y-65636370D01*
X70162458Y-66001120D01*
X69994582Y-66406408D01*
X69909000Y-66836660D01*
X69909000Y-67275340D01*
X69994582Y-67705592D01*
X70037069Y-67808165D01*
X68537100Y-66308150D01*
X68537100Y-64186954D01*
X69335638Y-63388417D01*
X69349687Y-63376887D01*
X69361217Y-63362838D01*
X69361221Y-63362834D01*
X69378647Y-63341600D01*
X69395712Y-63320807D01*
X69429911Y-63256824D01*
X69447259Y-63199637D01*
X69450971Y-63187400D01*
X69454142Y-63155199D01*
X69456300Y-63133293D01*
X69456300Y-63133286D01*
X69458081Y-63115201D01*
X69457249Y-63106751D01*
X69938000Y-63106751D01*
X69992772Y-63101356D01*
X70045439Y-63085380D01*
X70093977Y-63059436D01*
X70136521Y-63024521D01*
X70171436Y-62981977D01*
X70197380Y-62933439D01*
X70213356Y-62880772D01*
X70218751Y-62826000D01*
X70218751Y-61864764D01*
X70498600Y-61864764D01*
X70498600Y-62087236D01*
X70542002Y-62305434D01*
X70627138Y-62510972D01*
X70750737Y-62695951D01*
X70908049Y-62853263D01*
X71093028Y-62976862D01*
X71298566Y-63061998D01*
X71516764Y-63105400D01*
X71739236Y-63105400D01*
X71957434Y-63061998D01*
X72162972Y-62976862D01*
X72347951Y-62853263D01*
X72505263Y-62695951D01*
X72628862Y-62510972D01*
X72713998Y-62305434D01*
X72757400Y-62087236D01*
X72757400Y-61864764D01*
X72713998Y-61646566D01*
X72628862Y-61441028D01*
X72505263Y-61256049D01*
X72347951Y-61098737D01*
X72162972Y-60975138D01*
X71957434Y-60890002D01*
X71739236Y-60846600D01*
X71516764Y-60846600D01*
X71298566Y-60890002D01*
X71093028Y-60975138D01*
X70908049Y-61098737D01*
X70750737Y-61256049D01*
X70627138Y-61441028D01*
X70542002Y-61646566D01*
X70498600Y-61864764D01*
X70218751Y-61864764D01*
X70218751Y-61126000D01*
X70213356Y-61071228D01*
X70197380Y-61018561D01*
X70171436Y-60970023D01*
X70136521Y-60927479D01*
X70093977Y-60892564D01*
X70045439Y-60866620D01*
X69992772Y-60850644D01*
X69938000Y-60845249D01*
X68238000Y-60845249D01*
X68183228Y-60850644D01*
X68130561Y-60866620D01*
X68082023Y-60892564D01*
X68039479Y-60927479D01*
X68004564Y-60970023D01*
X67978620Y-61018561D01*
X67962644Y-61071228D01*
X67957249Y-61126000D01*
X67957249Y-62826000D01*
X67962644Y-62880772D01*
X67978620Y-62933439D01*
X68004564Y-62981977D01*
X68039479Y-63024521D01*
X68082023Y-63059436D01*
X68130561Y-63085380D01*
X68183228Y-63101356D01*
X68238000Y-63106751D01*
X68575594Y-63106751D01*
X67921163Y-63761183D01*
X67907114Y-63772713D01*
X67895584Y-63786762D01*
X67895579Y-63786767D01*
X67882459Y-63802754D01*
X67861089Y-63828793D01*
X67848011Y-63853261D01*
X67826890Y-63892776D01*
X67805829Y-63962201D01*
X67798719Y-64034400D01*
X67800501Y-64052495D01*
X67800500Y-66308345D01*
X65271946Y-68836900D01*
X65124093Y-68836900D01*
X65106000Y-68835118D01*
X65087907Y-68836900D01*
X65033801Y-68842229D01*
X64964376Y-68863289D01*
X64900393Y-68897488D01*
X64844313Y-68943513D01*
X64798288Y-68999593D01*
X64764089Y-69063576D01*
X64743029Y-69133001D01*
X64735918Y-69205200D01*
X64737701Y-69223303D01*
X64737701Y-69289296D01*
X64729680Y-69295879D01*
X64694765Y-69338423D01*
X64668821Y-69386961D01*
X64652845Y-69439628D01*
X64647450Y-69494400D01*
X64647450Y-71170800D01*
X64652845Y-71225572D01*
X64668821Y-71278239D01*
X64694765Y-71326777D01*
X64729680Y-71369321D01*
X64772224Y-71404236D01*
X64820762Y-71430180D01*
X64873429Y-71446156D01*
X64928201Y-71451551D01*
X65283801Y-71451551D01*
X65338573Y-71446156D01*
X65391240Y-71430180D01*
X65431001Y-71408928D01*
X65470761Y-71430180D01*
X65523428Y-71446156D01*
X65578200Y-71451551D01*
X65933800Y-71451551D01*
X65988572Y-71446156D01*
X66041239Y-71430180D01*
X66050401Y-71425283D01*
X66050401Y-71429835D01*
X66048681Y-71447300D01*
X66055546Y-71517010D01*
X66075880Y-71584041D01*
X66085902Y-71602790D01*
X66108900Y-71645816D01*
X66127247Y-71668171D01*
X66138515Y-71681901D01*
X66153338Y-71699963D01*
X66166901Y-71711094D01*
X67062906Y-72607100D01*
X65506194Y-72607100D01*
X65002899Y-72103806D01*
X64991763Y-72090237D01*
X64937616Y-72045799D01*
X64875840Y-72012779D01*
X64808810Y-71992446D01*
X64756563Y-71987300D01*
X64756555Y-71987300D01*
X64739100Y-71985581D01*
X64721645Y-71987300D01*
X63643642Y-71987300D01*
X63584923Y-71928581D01*
X63497560Y-71870207D01*
X63400487Y-71829998D01*
X63297435Y-71809500D01*
X63192365Y-71809500D01*
X63089313Y-71829998D01*
X62992240Y-71870207D01*
X62904877Y-71928581D01*
X62830581Y-72002877D01*
X62772207Y-72090240D01*
X62731998Y-72187313D01*
X62711500Y-72290365D01*
X62711500Y-72395435D01*
X62731998Y-72498487D01*
X62772207Y-72595560D01*
X62830581Y-72682923D01*
X62904877Y-72757219D01*
X62910386Y-72760900D01*
X62496655Y-72760900D01*
X62479200Y-72759181D01*
X62461745Y-72760900D01*
X62461737Y-72760900D01*
X62409490Y-72766046D01*
X62342460Y-72786379D01*
X62287805Y-72815593D01*
X62280684Y-72819399D01*
X62251570Y-72843293D01*
X62226537Y-72863837D01*
X62215405Y-72877401D01*
X62196751Y-72896055D01*
X62196751Y-72540000D01*
X62191356Y-72485228D01*
X62175380Y-72432561D01*
X62152631Y-72390000D01*
X62175380Y-72347439D01*
X62191356Y-72294772D01*
X62196751Y-72240000D01*
X62196751Y-71640000D01*
X62191356Y-71585228D01*
X62175380Y-71532561D01*
X62149436Y-71484023D01*
X62114521Y-71441479D01*
X62071977Y-71406564D01*
X62023439Y-71380620D01*
X61970772Y-71364644D01*
X61916000Y-71359249D01*
X61135493Y-71359249D01*
X61186319Y-71308423D01*
X61244693Y-71221060D01*
X61284902Y-71123987D01*
X61305400Y-71020935D01*
X61305400Y-70915865D01*
X61284902Y-70812813D01*
X61244693Y-70715740D01*
X61186319Y-70628377D01*
X61112023Y-70554081D01*
X61024660Y-70495707D01*
X60927587Y-70455498D01*
X60824535Y-70435000D01*
X60719465Y-70435000D01*
X60616413Y-70455498D01*
X60519340Y-70495707D01*
X60431977Y-70554081D01*
X60357681Y-70628377D01*
X60299307Y-70715740D01*
X60259098Y-70812813D01*
X60238600Y-70915865D01*
X60238600Y-70998907D01*
X60200401Y-71037106D01*
X60186838Y-71048237D01*
X60142400Y-71102384D01*
X60133220Y-71119559D01*
X60109380Y-71164159D01*
X60089046Y-71231190D01*
X60082181Y-71300900D01*
X60083901Y-71318365D01*
X60083900Y-71922536D01*
X60082180Y-71940000D01*
X60084891Y-71967521D01*
X59995840Y-72004407D01*
X59908477Y-72062781D01*
X59834181Y-72137077D01*
X59775807Y-72224440D01*
X59735598Y-72321513D01*
X59723372Y-72382978D01*
X58450999Y-71110606D01*
X58439863Y-71097037D01*
X58385716Y-71052599D01*
X58323940Y-71019579D01*
X58256910Y-70999246D01*
X58204663Y-70994100D01*
X58204655Y-70994100D01*
X58187200Y-70992381D01*
X58169745Y-70994100D01*
X51938055Y-70994100D01*
X51920599Y-70992381D01*
X51903144Y-70994100D01*
X51903137Y-70994100D01*
X51857787Y-70998567D01*
X51850889Y-70999246D01*
X51827804Y-71006249D01*
X51783860Y-71019579D01*
X51783858Y-71019580D01*
X51778766Y-71022302D01*
X51722084Y-71052599D01*
X51722082Y-71052600D01*
X51722083Y-71052600D01*
X51681500Y-71085905D01*
X51681495Y-71085910D01*
X51667937Y-71097037D01*
X51656810Y-71110595D01*
X50598291Y-72169115D01*
X50577093Y-72117940D01*
X50518719Y-72030577D01*
X50444423Y-71956281D01*
X50357060Y-71897907D01*
X50259987Y-71857698D01*
X50156935Y-71837200D01*
X50073894Y-71837200D01*
X48296393Y-70059700D01*
X53786845Y-70059700D01*
X53804300Y-70061419D01*
X53821755Y-70059700D01*
X53821763Y-70059700D01*
X53874010Y-70054554D01*
X53941040Y-70034221D01*
X54002816Y-70001201D01*
X54056963Y-69956763D01*
X54068099Y-69943194D01*
X56684274Y-67327020D01*
X56694107Y-67350760D01*
X56752481Y-67438123D01*
X56826777Y-67512419D01*
X56869585Y-67541022D01*
X56847901Y-67562706D01*
X56834337Y-67573838D01*
X56789899Y-67627985D01*
X56756879Y-67689761D01*
X56736546Y-67756791D01*
X56731400Y-67809038D01*
X56731400Y-67809045D01*
X56729681Y-67826500D01*
X56731400Y-67843956D01*
X56731400Y-68075158D01*
X56672681Y-68133877D01*
X56614307Y-68221240D01*
X56574098Y-68318313D01*
X56553600Y-68421365D01*
X56553600Y-68526435D01*
X56574098Y-68629487D01*
X56614307Y-68726560D01*
X56672681Y-68813923D01*
X56746977Y-68888219D01*
X56834340Y-68946593D01*
X56931413Y-68986802D01*
X57034465Y-69007300D01*
X57139535Y-69007300D01*
X57242587Y-68986802D01*
X57339660Y-68946593D01*
X57427023Y-68888219D01*
X57501162Y-68814080D01*
X57518561Y-68823380D01*
X57571228Y-68839356D01*
X57626000Y-68844751D01*
X62126000Y-68844751D01*
X62180772Y-68839356D01*
X62233439Y-68823380D01*
X62281977Y-68797436D01*
X62324521Y-68762521D01*
X62359436Y-68719977D01*
X62385380Y-68671439D01*
X62401356Y-68618772D01*
X62406751Y-68564000D01*
X62406751Y-66564000D01*
X62401356Y-66509228D01*
X62385380Y-66456561D01*
X62359436Y-66408023D01*
X62324521Y-66365479D01*
X62281977Y-66330564D01*
X62233439Y-66304620D01*
X62180772Y-66288644D01*
X62126000Y-66283249D01*
X57728045Y-66283249D01*
X60553195Y-63458100D01*
X61511245Y-63458100D01*
X61528700Y-63459819D01*
X61546155Y-63458100D01*
X61546163Y-63458100D01*
X61598410Y-63452954D01*
X61665440Y-63432621D01*
X61727216Y-63399601D01*
X61781363Y-63355163D01*
X61792499Y-63341594D01*
X62369249Y-62764845D01*
X62369249Y-62826000D01*
X62374644Y-62880772D01*
X62390620Y-62933439D01*
X62416564Y-62981977D01*
X62451479Y-63024521D01*
X62494023Y-63059436D01*
X62542561Y-63085380D01*
X62595228Y-63101356D01*
X62650000Y-63106751D01*
X64350000Y-63106751D01*
X64404772Y-63101356D01*
X64457439Y-63085380D01*
X64505977Y-63059436D01*
X64548521Y-63024521D01*
X64583436Y-62981977D01*
X64609380Y-62933439D01*
X64625356Y-62880772D01*
X64630751Y-62826000D01*
X64630751Y-61126000D01*
X64625356Y-61071228D01*
X64609380Y-61018561D01*
X64583436Y-60970023D01*
X64548521Y-60927479D01*
X64505977Y-60892564D01*
X64457439Y-60866620D01*
X64404772Y-60850644D01*
X64350000Y-60845249D01*
X62650000Y-60845249D01*
X62595228Y-60850644D01*
X62542561Y-60866620D01*
X62494023Y-60892564D01*
X62451479Y-60927479D01*
X62416564Y-60970023D01*
X62390620Y-61018561D01*
X62374644Y-61071228D01*
X62369249Y-61126000D01*
X62369249Y-61619099D01*
X62356037Y-61620400D01*
X62303790Y-61625546D01*
X62236760Y-61645879D01*
X62174984Y-61678899D01*
X62120837Y-61723337D01*
X62076399Y-61777484D01*
X62073222Y-61783429D01*
X62045998Y-61646566D01*
X61960862Y-61441028D01*
X61837263Y-61256049D01*
X61679951Y-61098737D01*
X61494972Y-60975138D01*
X61289434Y-60890002D01*
X61071236Y-60846600D01*
X60848764Y-60846600D01*
X60630566Y-60890002D01*
X60425028Y-60975138D01*
X60240049Y-61098737D01*
X60082737Y-61256049D01*
X59959138Y-61441028D01*
X59884840Y-61620400D01*
X59850963Y-61620400D01*
X59833500Y-61618680D01*
X59816037Y-61620400D01*
X59763790Y-61625546D01*
X59696760Y-61645879D01*
X59634984Y-61678899D01*
X59580837Y-61723337D01*
X59536399Y-61777484D01*
X59533222Y-61783429D01*
X59505998Y-61646566D01*
X59420862Y-61441028D01*
X59297263Y-61256049D01*
X59139951Y-61098737D01*
X58954972Y-60975138D01*
X58749434Y-60890002D01*
X58531236Y-60846600D01*
X58308764Y-60846600D01*
X58090566Y-60890002D01*
X57885028Y-60975138D01*
X57700049Y-61098737D01*
X57542737Y-61256049D01*
X57419138Y-61441028D01*
X57334002Y-61646566D01*
X57290600Y-61864764D01*
X57290600Y-62087236D01*
X57334002Y-62305434D01*
X57419138Y-62510972D01*
X57542737Y-62695951D01*
X57700049Y-62853263D01*
X57885028Y-62976862D01*
X58090566Y-63061998D01*
X58308764Y-63105400D01*
X58410407Y-63105400D01*
X57728107Y-63787700D01*
X50355855Y-63787700D01*
X50338400Y-63785981D01*
X50320944Y-63787700D01*
X50320937Y-63787700D01*
X50274966Y-63792228D01*
X50268689Y-63792846D01*
X50248356Y-63799014D01*
X50201660Y-63813179D01*
X50139884Y-63846199D01*
X50085737Y-63890637D01*
X50074606Y-63904200D01*
X47902807Y-66076000D01*
X46081654Y-66076000D01*
X49754485Y-62403170D01*
X49799138Y-62510972D01*
X49922737Y-62695951D01*
X50080049Y-62853263D01*
X50265028Y-62976862D01*
X50470566Y-63061998D01*
X50688764Y-63105400D01*
X50911236Y-63105400D01*
X51129434Y-63061998D01*
X51334972Y-62976862D01*
X51519951Y-62853263D01*
X51677263Y-62695951D01*
X51800862Y-62510972D01*
X51885998Y-62305434D01*
X51907207Y-62198810D01*
X51939113Y-62237687D01*
X51991611Y-62280772D01*
X51995193Y-62283712D01*
X52059176Y-62317911D01*
X52128601Y-62338971D01*
X52200800Y-62346082D01*
X52218893Y-62344300D01*
X52270101Y-62344300D01*
X52339138Y-62510972D01*
X52462737Y-62695951D01*
X52620049Y-62853263D01*
X52805028Y-62976862D01*
X53010566Y-63061998D01*
X53228764Y-63105400D01*
X53451236Y-63105400D01*
X53669434Y-63061998D01*
X53874972Y-62976862D01*
X54059951Y-62853263D01*
X54217263Y-62695951D01*
X54340862Y-62510972D01*
X54425998Y-62305434D01*
X54469400Y-62087236D01*
X54469400Y-61864764D01*
X54750600Y-61864764D01*
X54750600Y-62087236D01*
X54794002Y-62305434D01*
X54879138Y-62510972D01*
X55002737Y-62695951D01*
X55160049Y-62853263D01*
X55345028Y-62976862D01*
X55550566Y-63061998D01*
X55768764Y-63105400D01*
X55991236Y-63105400D01*
X56209434Y-63061998D01*
X56414972Y-62976862D01*
X56599951Y-62853263D01*
X56757263Y-62695951D01*
X56880862Y-62510972D01*
X56965998Y-62305434D01*
X57009400Y-62087236D01*
X57009400Y-61864764D01*
X56965998Y-61646566D01*
X56880862Y-61441028D01*
X56757263Y-61256049D01*
X56599951Y-61098737D01*
X56414972Y-60975138D01*
X56209434Y-60890002D01*
X55991236Y-60846600D01*
X55768764Y-60846600D01*
X55550566Y-60890002D01*
X55345028Y-60975138D01*
X55160049Y-61098737D01*
X55002737Y-61256049D01*
X54879138Y-61441028D01*
X54794002Y-61646566D01*
X54750600Y-61864764D01*
X54469400Y-61864764D01*
X54425998Y-61646566D01*
X54340862Y-61441028D01*
X54217263Y-61256049D01*
X54059951Y-61098737D01*
X53874972Y-60975138D01*
X53669434Y-60890002D01*
X53451236Y-60846600D01*
X53228764Y-60846600D01*
X53010566Y-60890002D01*
X52805028Y-60975138D01*
X52620049Y-61098737D01*
X52462737Y-61256049D01*
X52367154Y-61399099D01*
X51551022Y-60582968D01*
X51539487Y-60568913D01*
X51483407Y-60522888D01*
X51419424Y-60488689D01*
X51349999Y-60467629D01*
X51295893Y-60462300D01*
X51295885Y-60462300D01*
X51277800Y-60460519D01*
X51259715Y-60462300D01*
X50176385Y-60462300D01*
X50158299Y-60460519D01*
X50140214Y-60462300D01*
X50140207Y-60462300D01*
X50093120Y-60466938D01*
X50086100Y-60467629D01*
X50065040Y-60474018D01*
X50016676Y-60488689D01*
X49952693Y-60522888D01*
X49938515Y-60534524D01*
X49910666Y-60557379D01*
X49910662Y-60557383D01*
X49896613Y-60568913D01*
X49885083Y-60582962D01*
X46815546Y-63652500D01*
X46402423Y-63652500D01*
X46420902Y-63607887D01*
X46441400Y-63504835D01*
X46441400Y-63399765D01*
X46420902Y-63296713D01*
X46380693Y-63199640D01*
X46361575Y-63171028D01*
X46470824Y-63116679D01*
X46569795Y-63040189D01*
X46651941Y-62945860D01*
X46714107Y-62837318D01*
X46753903Y-62718733D01*
X46767000Y-62607750D01*
X46662252Y-62503002D01*
X46767000Y-62503002D01*
X46767000Y-62498253D01*
X46777228Y-62501356D01*
X46832000Y-62506751D01*
X47282000Y-62506751D01*
X47336772Y-62501356D01*
X47389439Y-62485380D01*
X47437977Y-62459436D01*
X47480521Y-62424521D01*
X47515436Y-62381977D01*
X47541380Y-62333439D01*
X47557356Y-62280772D01*
X47562751Y-62226000D01*
X47562751Y-61726000D01*
X47557356Y-61671228D01*
X47541380Y-61618561D01*
X47515436Y-61570023D01*
X47480521Y-61527479D01*
X47437977Y-61492564D01*
X47412600Y-61479000D01*
X47412600Y-61466952D01*
X47414319Y-61449499D01*
X47412600Y-61432046D01*
X47412600Y-61432037D01*
X47407454Y-61379790D01*
X47387121Y-61312760D01*
X47354101Y-61250984D01*
X47348844Y-61244578D01*
X47320795Y-61210400D01*
X47320790Y-61210395D01*
X47309663Y-61196837D01*
X47296105Y-61185710D01*
X46931498Y-60821105D01*
X46920363Y-60807537D01*
X46866216Y-60763099D01*
X46804440Y-60730079D01*
X46737410Y-60709746D01*
X46685163Y-60704600D01*
X46685155Y-60704600D01*
X46667700Y-60702881D01*
X46650245Y-60704600D01*
X38902555Y-60704600D01*
X38885100Y-60702881D01*
X38867644Y-60704600D01*
X38867637Y-60704600D01*
X38821666Y-60709128D01*
X38815389Y-60709746D01*
X38795056Y-60715914D01*
X38748360Y-60730079D01*
X38686584Y-60763099D01*
X38632437Y-60807537D01*
X38621306Y-60821100D01*
X37261207Y-62181200D01*
X37178165Y-62181200D01*
X37075113Y-62201698D01*
X36978040Y-62241907D01*
X36890677Y-62300281D01*
X36816381Y-62374577D01*
X36758007Y-62461940D01*
X36717798Y-62559013D01*
X36702696Y-62634935D01*
X36668772Y-62624644D01*
X36614000Y-62619249D01*
X35014000Y-62619249D01*
X34959228Y-62624644D01*
X34906561Y-62640620D01*
X34858023Y-62666564D01*
X34815479Y-62701479D01*
X34780564Y-62744023D01*
X34754620Y-62792561D01*
X34738644Y-62845228D01*
X34733249Y-62900000D01*
X34733249Y-65080000D01*
X34738644Y-65134772D01*
X34754620Y-65187439D01*
X34780564Y-65235977D01*
X34815479Y-65278521D01*
X34858023Y-65313436D01*
X34906561Y-65339380D01*
X34959228Y-65355356D01*
X35014000Y-65360751D01*
X35996700Y-65360751D01*
X35996701Y-69401005D01*
X33937207Y-71460500D01*
X33854165Y-71460500D01*
X33751113Y-71480998D01*
X33654040Y-71521207D01*
X33566677Y-71579581D01*
X33492381Y-71653877D01*
X33434007Y-71741240D01*
X33393798Y-71838313D01*
X33373300Y-71941365D01*
X33373300Y-72046435D01*
X33393798Y-72149487D01*
X33407514Y-72182600D01*
X33165254Y-72182600D01*
X31959405Y-70976751D01*
X31972000Y-70976751D01*
X32026772Y-70971356D01*
X32079439Y-70955380D01*
X32127977Y-70929436D01*
X32170521Y-70894521D01*
X32205436Y-70851977D01*
X32231380Y-70803439D01*
X32247356Y-70750772D01*
X32252751Y-70696000D01*
X32252751Y-68496000D01*
X32247356Y-68441228D01*
X32231380Y-68388561D01*
X32205436Y-68340023D01*
X32170521Y-68297479D01*
X32127977Y-68262564D01*
X32079439Y-68236620D01*
X32026772Y-68220644D01*
X31972000Y-68215249D01*
X30922000Y-68215249D01*
X30867228Y-68220644D01*
X30814561Y-68236620D01*
X30766023Y-68262564D01*
X30752751Y-68273456D01*
X30752751Y-67596000D01*
X30747356Y-67541228D01*
X30731380Y-67488561D01*
X30705436Y-67440023D01*
X30670521Y-67397479D01*
X30627977Y-67362564D01*
X30579439Y-67336620D01*
X30526772Y-67320644D01*
X30472000Y-67315249D01*
X30397627Y-67315249D01*
X30398154Y-67313511D01*
X30399818Y-67296615D01*
X30403300Y-67261263D01*
X30403300Y-67261256D01*
X30405019Y-67243800D01*
X30403300Y-67226345D01*
X30403300Y-66696442D01*
X30462019Y-66637723D01*
X30520393Y-66550360D01*
X30560602Y-66453287D01*
X30581100Y-66350235D01*
X30581100Y-66245165D01*
X30560602Y-66142113D01*
X30520393Y-66045040D01*
X30462019Y-65957677D01*
X30387723Y-65883381D01*
X30300360Y-65825007D01*
X30281004Y-65816989D01*
X35655294Y-60442700D01*
X76326407Y-60442700D01*
X76493235Y-60609528D01*
X76351110Y-60534524D01*
X76203901Y-60579175D01*
X75941080Y-60704359D01*
X75707731Y-60878412D01*
X75512822Y-61094645D01*
X75363843Y-61344748D01*
X75266519Y-61619109D01*
X75387185Y-61848998D01*
X75294264Y-61848998D01*
X75253998Y-61646566D01*
X75168862Y-61441028D01*
X75045263Y-61256049D01*
X74887951Y-61098737D01*
X74702972Y-60975138D01*
X74497434Y-60890002D01*
X74279236Y-60846600D01*
X74056764Y-60846600D01*
X73838566Y-60890002D01*
X73633028Y-60975138D01*
X73448049Y-61098737D01*
X73290737Y-61256049D01*
X73167138Y-61441028D01*
X73082002Y-61646566D01*
X73038600Y-61864764D01*
X73038600Y-62087236D01*
X73082002Y-62305434D01*
X73167138Y-62510972D01*
X73290737Y-62695951D01*
X73448049Y-62853263D01*
X73633028Y-62976862D01*
X73838566Y-63061998D01*
X74056764Y-63105400D01*
X74279236Y-63105400D01*
X74497434Y-63061998D01*
X74676806Y-62987700D01*
X75072306Y-63383200D01*
X75083437Y-63396763D01*
X75137584Y-63441201D01*
X75199360Y-63474221D01*
X75235824Y-63485282D01*
X75266389Y-63494554D01*
X75272666Y-63495172D01*
X75318637Y-63499700D01*
X75318644Y-63499700D01*
X75336100Y-63501419D01*
X75353555Y-63499700D01*
X77125845Y-63499700D01*
X77143300Y-63501419D01*
X77160755Y-63499700D01*
X77160763Y-63499700D01*
X77213010Y-63494554D01*
X77280040Y-63474221D01*
X77341816Y-63441201D01*
X77395963Y-63396763D01*
X77407099Y-63383195D01*
X78083810Y-62706485D01*
X78097362Y-62695363D01*
X78108485Y-62681810D01*
X78108495Y-62681800D01*
X78141800Y-62641217D01*
X78141802Y-62641215D01*
X78174821Y-62579440D01*
X78195154Y-62512410D01*
X78200300Y-62460163D01*
X78200300Y-62460154D01*
X78202019Y-62442701D01*
X78200300Y-62425248D01*
X78200300Y-61475555D01*
X78202019Y-61458100D01*
X78200300Y-61440645D01*
X78200300Y-61440637D01*
X78195154Y-61388390D01*
X78174821Y-61321360D01*
X78141801Y-61259584D01*
X78097363Y-61205437D01*
X78083800Y-61194306D01*
X76737499Y-59848006D01*
X76726363Y-59834437D01*
X76672216Y-59789999D01*
X76610440Y-59756979D01*
X76555785Y-59740400D01*
X78435600Y-59740400D01*
X78435601Y-100787600D01*
G37*
X78435601Y-100787600D02*
X75113393Y-100787600D01*
X76299700Y-99601294D01*
X76313263Y-99590163D01*
X76357701Y-99536016D01*
X76390721Y-99474240D01*
X76411054Y-99407210D01*
X76416200Y-99354963D01*
X76416200Y-99354955D01*
X76417919Y-99337500D01*
X76416200Y-99320045D01*
X76416200Y-84179562D01*
X76419000Y-84143750D01*
X76416200Y-84140950D01*
X76416200Y-83633050D01*
X76419000Y-83630250D01*
X76416200Y-83594438D01*
X76416200Y-83538552D01*
X76417919Y-83521099D01*
X76416200Y-83503646D01*
X76416200Y-83503637D01*
X76411054Y-83451390D01*
X76390721Y-83384360D01*
X76357701Y-83322584D01*
X76349015Y-83312000D01*
X76324395Y-83282000D01*
X76324385Y-83281990D01*
X76313262Y-83268437D01*
X76299709Y-83257314D01*
X76133700Y-83091306D01*
X76133700Y-81644052D01*
X76135419Y-81626599D01*
X76133700Y-81609146D01*
X76133700Y-81609137D01*
X76128554Y-81556890D01*
X76122445Y-81536751D01*
X76359000Y-81536751D01*
X76413772Y-81531356D01*
X76466439Y-81515380D01*
X76514977Y-81489436D01*
X76557521Y-81454521D01*
X76592436Y-81411977D01*
X76618380Y-81363439D01*
X76622189Y-81350883D01*
X76624200Y-81351081D01*
X76642285Y-81349300D01*
X76642293Y-81349300D01*
X76696399Y-81343971D01*
X76765824Y-81322911D01*
X76829807Y-81288712D01*
X76885887Y-81242687D01*
X76897422Y-81228632D01*
X78016532Y-80109522D01*
X78030587Y-80097987D01*
X78076612Y-80041907D01*
X78110811Y-79977924D01*
X78126599Y-79925879D01*
X78131871Y-79908500D01*
X78132948Y-79897561D01*
X78137200Y-79854393D01*
X78137200Y-79854386D01*
X78138981Y-79836301D01*
X78137200Y-79818216D01*
X78137200Y-78430493D01*
X78138981Y-78412415D01*
X78137200Y-78394322D01*
X78137200Y-78394307D01*
X78133829Y-78360081D01*
X78131874Y-78340216D01*
X78131872Y-78340209D01*
X78131871Y-78340201D01*
X78118982Y-78297712D01*
X78110817Y-78270790D01*
X78110813Y-78270782D01*
X78110811Y-78270776D01*
X78089596Y-78231084D01*
X78076620Y-78206806D01*
X78076617Y-78206802D01*
X78076612Y-78206793D01*
X78052109Y-78176937D01*
X78042131Y-78164777D01*
X78042118Y-78164764D01*
X78030586Y-78150713D01*
X78016549Y-78139192D01*
X77094017Y-77216584D01*
X77119112Y-77186007D01*
X77153311Y-77122024D01*
X77166330Y-77079105D01*
X77174371Y-77052600D01*
X77175743Y-77038663D01*
X77179700Y-76998492D01*
X77179700Y-76998479D01*
X77180413Y-76991242D01*
X77585837Y-76585817D01*
X77599887Y-76574287D01*
X77611417Y-76560238D01*
X77611421Y-76560234D01*
X77634848Y-76531688D01*
X77645912Y-76518207D01*
X77672043Y-76469318D01*
X77680111Y-76454225D01*
X77701171Y-76384799D01*
X77702201Y-76374337D01*
X77706500Y-76330693D01*
X77706500Y-76330685D01*
X77708281Y-76312600D01*
X77706500Y-76294515D01*
X77706500Y-72170093D01*
X77708282Y-72152000D01*
X77705083Y-72119515D01*
X77701171Y-72079801D01*
X77680111Y-72010376D01*
X77645912Y-71946393D01*
X77643702Y-71943700D01*
X77599887Y-71890313D01*
X77543807Y-71844288D01*
X77479824Y-71810089D01*
X77410399Y-71789029D01*
X77356293Y-71783700D01*
X77338200Y-71781918D01*
X77320107Y-71783700D01*
X77158460Y-71783700D01*
X77156439Y-71782620D01*
X77103772Y-71766644D01*
X77097300Y-71766007D01*
X77097300Y-71323284D01*
X77099081Y-71305199D01*
X77097300Y-71287114D01*
X77097300Y-71287107D01*
X77091971Y-71233001D01*
X77091637Y-71231898D01*
X77084665Y-71208916D01*
X77070911Y-71163576D01*
X77036712Y-71099593D01*
X77011505Y-71068880D01*
X77002220Y-71057566D01*
X77002218Y-71057564D01*
X76990686Y-71043513D01*
X76976637Y-71031983D01*
X76694820Y-70750166D01*
X76683287Y-70736113D01*
X76627207Y-70690088D01*
X76563224Y-70655889D01*
X76493799Y-70634829D01*
X76439693Y-70629500D01*
X76439685Y-70629500D01*
X76421600Y-70627719D01*
X76403515Y-70629500D01*
X75936554Y-70629500D01*
X74759922Y-69452868D01*
X74748387Y-69438813D01*
X74692307Y-69392788D01*
X74628324Y-69358589D01*
X74558899Y-69337529D01*
X74504793Y-69332200D01*
X74504785Y-69332200D01*
X74486700Y-69330419D01*
X74468615Y-69332200D01*
X71561058Y-69332200D01*
X71383765Y-69154902D01*
X71486408Y-69197418D01*
X71916660Y-69283000D01*
X72355340Y-69283000D01*
X72785592Y-69197418D01*
X73190880Y-69029542D01*
X73555630Y-68785824D01*
X73865824Y-68475630D01*
X74109542Y-68110880D01*
X74277418Y-67705592D01*
X74363000Y-67275340D01*
X74363000Y-66836660D01*
X74277418Y-66406408D01*
X74109542Y-66001120D01*
X73865824Y-65636370D01*
X73555630Y-65326176D01*
X73190880Y-65082458D01*
X72785592Y-64914582D01*
X72355340Y-64829000D01*
X71916660Y-64829000D01*
X71486408Y-64914582D01*
X71081120Y-65082458D01*
X70716370Y-65326176D01*
X70406176Y-65636370D01*
X70162458Y-66001120D01*
X69994582Y-66406408D01*
X69909000Y-66836660D01*
X69909000Y-67275340D01*
X69994582Y-67705592D01*
X70037069Y-67808165D01*
X68537100Y-66308150D01*
X68537100Y-64186954D01*
X69335638Y-63388417D01*
X69349687Y-63376887D01*
X69361217Y-63362838D01*
X69361221Y-63362834D01*
X69378647Y-63341600D01*
X69395712Y-63320807D01*
X69429911Y-63256824D01*
X69447259Y-63199637D01*
X69450971Y-63187400D01*
X69454142Y-63155199D01*
X69456300Y-63133293D01*
X69456300Y-63133286D01*
X69458081Y-63115201D01*
X69457249Y-63106751D01*
X69938000Y-63106751D01*
X69992772Y-63101356D01*
X70045439Y-63085380D01*
X70093977Y-63059436D01*
X70136521Y-63024521D01*
X70171436Y-62981977D01*
X70197380Y-62933439D01*
X70213356Y-62880772D01*
X70218751Y-62826000D01*
X70218751Y-61864764D01*
X70498600Y-61864764D01*
X70498600Y-62087236D01*
X70542002Y-62305434D01*
X70627138Y-62510972D01*
X70750737Y-62695951D01*
X70908049Y-62853263D01*
X71093028Y-62976862D01*
X71298566Y-63061998D01*
X71516764Y-63105400D01*
X71739236Y-63105400D01*
X71957434Y-63061998D01*
X72162972Y-62976862D01*
X72347951Y-62853263D01*
X72505263Y-62695951D01*
X72628862Y-62510972D01*
X72713998Y-62305434D01*
X72757400Y-62087236D01*
X72757400Y-61864764D01*
X72713998Y-61646566D01*
X72628862Y-61441028D01*
X72505263Y-61256049D01*
X72347951Y-61098737D01*
X72162972Y-60975138D01*
X71957434Y-60890002D01*
X71739236Y-60846600D01*
X71516764Y-60846600D01*
X71298566Y-60890002D01*
X71093028Y-60975138D01*
X70908049Y-61098737D01*
X70750737Y-61256049D01*
X70627138Y-61441028D01*
X70542002Y-61646566D01*
X70498600Y-61864764D01*
X70218751Y-61864764D01*
X70218751Y-61126000D01*
X70213356Y-61071228D01*
X70197380Y-61018561D01*
X70171436Y-60970023D01*
X70136521Y-60927479D01*
X70093977Y-60892564D01*
X70045439Y-60866620D01*
X69992772Y-60850644D01*
X69938000Y-60845249D01*
X68238000Y-60845249D01*
X68183228Y-60850644D01*
X68130561Y-60866620D01*
X68082023Y-60892564D01*
X68039479Y-60927479D01*
X68004564Y-60970023D01*
X67978620Y-61018561D01*
X67962644Y-61071228D01*
X67957249Y-61126000D01*
X67957249Y-62826000D01*
X67962644Y-62880772D01*
X67978620Y-62933439D01*
X68004564Y-62981977D01*
X68039479Y-63024521D01*
X68082023Y-63059436D01*
X68130561Y-63085380D01*
X68183228Y-63101356D01*
X68238000Y-63106751D01*
X68575594Y-63106751D01*
X67921163Y-63761183D01*
X67907114Y-63772713D01*
X67895584Y-63786762D01*
X67895579Y-63786767D01*
X67882459Y-63802754D01*
X67861089Y-63828793D01*
X67848011Y-63853261D01*
X67826890Y-63892776D01*
X67805829Y-63962201D01*
X67798719Y-64034400D01*
X67800501Y-64052495D01*
X67800500Y-66308345D01*
X65271946Y-68836900D01*
X65124093Y-68836900D01*
X65106000Y-68835118D01*
X65087907Y-68836900D01*
X65033801Y-68842229D01*
X64964376Y-68863289D01*
X64900393Y-68897488D01*
X64844313Y-68943513D01*
X64798288Y-68999593D01*
X64764089Y-69063576D01*
X64743029Y-69133001D01*
X64735918Y-69205200D01*
X64737701Y-69223303D01*
X64737701Y-69289296D01*
X64729680Y-69295879D01*
X64694765Y-69338423D01*
X64668821Y-69386961D01*
X64652845Y-69439628D01*
X64647450Y-69494400D01*
X64647450Y-71170800D01*
X64652845Y-71225572D01*
X64668821Y-71278239D01*
X64694765Y-71326777D01*
X64729680Y-71369321D01*
X64772224Y-71404236D01*
X64820762Y-71430180D01*
X64873429Y-71446156D01*
X64928201Y-71451551D01*
X65283801Y-71451551D01*
X65338573Y-71446156D01*
X65391240Y-71430180D01*
X65431001Y-71408928D01*
X65470761Y-71430180D01*
X65523428Y-71446156D01*
X65578200Y-71451551D01*
X65933800Y-71451551D01*
X65988572Y-71446156D01*
X66041239Y-71430180D01*
X66050401Y-71425283D01*
X66050401Y-71429835D01*
X66048681Y-71447300D01*
X66055546Y-71517010D01*
X66075880Y-71584041D01*
X66085902Y-71602790D01*
X66108900Y-71645816D01*
X66127247Y-71668171D01*
X66138515Y-71681901D01*
X66153338Y-71699963D01*
X66166901Y-71711094D01*
X67062906Y-72607100D01*
X65506194Y-72607100D01*
X65002899Y-72103806D01*
X64991763Y-72090237D01*
X64937616Y-72045799D01*
X64875840Y-72012779D01*
X64808810Y-71992446D01*
X64756563Y-71987300D01*
X64756555Y-71987300D01*
X64739100Y-71985581D01*
X64721645Y-71987300D01*
X63643642Y-71987300D01*
X63584923Y-71928581D01*
X63497560Y-71870207D01*
X63400487Y-71829998D01*
X63297435Y-71809500D01*
X63192365Y-71809500D01*
X63089313Y-71829998D01*
X62992240Y-71870207D01*
X62904877Y-71928581D01*
X62830581Y-72002877D01*
X62772207Y-72090240D01*
X62731998Y-72187313D01*
X62711500Y-72290365D01*
X62711500Y-72395435D01*
X62731998Y-72498487D01*
X62772207Y-72595560D01*
X62830581Y-72682923D01*
X62904877Y-72757219D01*
X62910386Y-72760900D01*
X62496655Y-72760900D01*
X62479200Y-72759181D01*
X62461745Y-72760900D01*
X62461737Y-72760900D01*
X62409490Y-72766046D01*
X62342460Y-72786379D01*
X62287805Y-72815593D01*
X62280684Y-72819399D01*
X62251570Y-72843293D01*
X62226537Y-72863837D01*
X62215405Y-72877401D01*
X62196751Y-72896055D01*
X62196751Y-72540000D01*
X62191356Y-72485228D01*
X62175380Y-72432561D01*
X62152631Y-72390000D01*
X62175380Y-72347439D01*
X62191356Y-72294772D01*
X62196751Y-72240000D01*
X62196751Y-71640000D01*
X62191356Y-71585228D01*
X62175380Y-71532561D01*
X62149436Y-71484023D01*
X62114521Y-71441479D01*
X62071977Y-71406564D01*
X62023439Y-71380620D01*
X61970772Y-71364644D01*
X61916000Y-71359249D01*
X61135493Y-71359249D01*
X61186319Y-71308423D01*
X61244693Y-71221060D01*
X61284902Y-71123987D01*
X61305400Y-71020935D01*
X61305400Y-70915865D01*
X61284902Y-70812813D01*
X61244693Y-70715740D01*
X61186319Y-70628377D01*
X61112023Y-70554081D01*
X61024660Y-70495707D01*
X60927587Y-70455498D01*
X60824535Y-70435000D01*
X60719465Y-70435000D01*
X60616413Y-70455498D01*
X60519340Y-70495707D01*
X60431977Y-70554081D01*
X60357681Y-70628377D01*
X60299307Y-70715740D01*
X60259098Y-70812813D01*
X60238600Y-70915865D01*
X60238600Y-70998907D01*
X60200401Y-71037106D01*
X60186838Y-71048237D01*
X60142400Y-71102384D01*
X60133220Y-71119559D01*
X60109380Y-71164159D01*
X60089046Y-71231190D01*
X60082181Y-71300900D01*
X60083901Y-71318365D01*
X60083900Y-71922536D01*
X60082180Y-71940000D01*
X60084891Y-71967521D01*
X59995840Y-72004407D01*
X59908477Y-72062781D01*
X59834181Y-72137077D01*
X59775807Y-72224440D01*
X59735598Y-72321513D01*
X59723372Y-72382978D01*
X58450999Y-71110606D01*
X58439863Y-71097037D01*
X58385716Y-71052599D01*
X58323940Y-71019579D01*
X58256910Y-70999246D01*
X58204663Y-70994100D01*
X58204655Y-70994100D01*
X58187200Y-70992381D01*
X58169745Y-70994100D01*
X51938055Y-70994100D01*
X51920599Y-70992381D01*
X51903144Y-70994100D01*
X51903137Y-70994100D01*
X51857787Y-70998567D01*
X51850889Y-70999246D01*
X51827804Y-71006249D01*
X51783860Y-71019579D01*
X51783858Y-71019580D01*
X51778766Y-71022302D01*
X51722084Y-71052599D01*
X51722082Y-71052600D01*
X51722083Y-71052600D01*
X51681500Y-71085905D01*
X51681495Y-71085910D01*
X51667937Y-71097037D01*
X51656810Y-71110595D01*
X50598291Y-72169115D01*
X50577093Y-72117940D01*
X50518719Y-72030577D01*
X50444423Y-71956281D01*
X50357060Y-71897907D01*
X50259987Y-71857698D01*
X50156935Y-71837200D01*
X50073894Y-71837200D01*
X48296393Y-70059700D01*
X53786845Y-70059700D01*
X53804300Y-70061419D01*
X53821755Y-70059700D01*
X53821763Y-70059700D01*
X53874010Y-70054554D01*
X53941040Y-70034221D01*
X54002816Y-70001201D01*
X54056963Y-69956763D01*
X54068099Y-69943194D01*
X56684274Y-67327020D01*
X56694107Y-67350760D01*
X56752481Y-67438123D01*
X56826777Y-67512419D01*
X56869585Y-67541022D01*
X56847901Y-67562706D01*
X56834337Y-67573838D01*
X56789899Y-67627985D01*
X56756879Y-67689761D01*
X56736546Y-67756791D01*
X56731400Y-67809038D01*
X56731400Y-67809045D01*
X56729681Y-67826500D01*
X56731400Y-67843956D01*
X56731400Y-68075158D01*
X56672681Y-68133877D01*
X56614307Y-68221240D01*
X56574098Y-68318313D01*
X56553600Y-68421365D01*
X56553600Y-68526435D01*
X56574098Y-68629487D01*
X56614307Y-68726560D01*
X56672681Y-68813923D01*
X56746977Y-68888219D01*
X56834340Y-68946593D01*
X56931413Y-68986802D01*
X57034465Y-69007300D01*
X57139535Y-69007300D01*
X57242587Y-68986802D01*
X57339660Y-68946593D01*
X57427023Y-68888219D01*
X57501162Y-68814080D01*
X57518561Y-68823380D01*
X57571228Y-68839356D01*
X57626000Y-68844751D01*
X62126000Y-68844751D01*
X62180772Y-68839356D01*
X62233439Y-68823380D01*
X62281977Y-68797436D01*
X62324521Y-68762521D01*
X62359436Y-68719977D01*
X62385380Y-68671439D01*
X62401356Y-68618772D01*
X62406751Y-68564000D01*
X62406751Y-66564000D01*
X62401356Y-66509228D01*
X62385380Y-66456561D01*
X62359436Y-66408023D01*
X62324521Y-66365479D01*
X62281977Y-66330564D01*
X62233439Y-66304620D01*
X62180772Y-66288644D01*
X62126000Y-66283249D01*
X57728045Y-66283249D01*
X60553195Y-63458100D01*
X61511245Y-63458100D01*
X61528700Y-63459819D01*
X61546155Y-63458100D01*
X61546163Y-63458100D01*
X61598410Y-63452954D01*
X61665440Y-63432621D01*
X61727216Y-63399601D01*
X61781363Y-63355163D01*
X61792499Y-63341594D01*
X62369249Y-62764845D01*
X62369249Y-62826000D01*
X62374644Y-62880772D01*
X62390620Y-62933439D01*
X62416564Y-62981977D01*
X62451479Y-63024521D01*
X62494023Y-63059436D01*
X62542561Y-63085380D01*
X62595228Y-63101356D01*
X62650000Y-63106751D01*
X64350000Y-63106751D01*
X64404772Y-63101356D01*
X64457439Y-63085380D01*
X64505977Y-63059436D01*
X64548521Y-63024521D01*
X64583436Y-62981977D01*
X64609380Y-62933439D01*
X64625356Y-62880772D01*
X64630751Y-62826000D01*
X64630751Y-61126000D01*
X64625356Y-61071228D01*
X64609380Y-61018561D01*
X64583436Y-60970023D01*
X64548521Y-60927479D01*
X64505977Y-60892564D01*
X64457439Y-60866620D01*
X64404772Y-60850644D01*
X64350000Y-60845249D01*
X62650000Y-60845249D01*
X62595228Y-60850644D01*
X62542561Y-60866620D01*
X62494023Y-60892564D01*
X62451479Y-60927479D01*
X62416564Y-60970023D01*
X62390620Y-61018561D01*
X62374644Y-61071228D01*
X62369249Y-61126000D01*
X62369249Y-61619099D01*
X62356037Y-61620400D01*
X62303790Y-61625546D01*
X62236760Y-61645879D01*
X62174984Y-61678899D01*
X62120837Y-61723337D01*
X62076399Y-61777484D01*
X62073222Y-61783429D01*
X62045998Y-61646566D01*
X61960862Y-61441028D01*
X61837263Y-61256049D01*
X61679951Y-61098737D01*
X61494972Y-60975138D01*
X61289434Y-60890002D01*
X61071236Y-60846600D01*
X60848764Y-60846600D01*
X60630566Y-60890002D01*
X60425028Y-60975138D01*
X60240049Y-61098737D01*
X60082737Y-61256049D01*
X59959138Y-61441028D01*
X59884840Y-61620400D01*
X59850963Y-61620400D01*
X59833500Y-61618680D01*
X59816037Y-61620400D01*
X59763790Y-61625546D01*
X59696760Y-61645879D01*
X59634984Y-61678899D01*
X59580837Y-61723337D01*
X59536399Y-61777484D01*
X59533222Y-61783429D01*
X59505998Y-61646566D01*
X59420862Y-61441028D01*
X59297263Y-61256049D01*
X59139951Y-61098737D01*
X58954972Y-60975138D01*
X58749434Y-60890002D01*
X58531236Y-60846600D01*
X58308764Y-60846600D01*
X58090566Y-60890002D01*
X57885028Y-60975138D01*
X57700049Y-61098737D01*
X57542737Y-61256049D01*
X57419138Y-61441028D01*
X57334002Y-61646566D01*
X57290600Y-61864764D01*
X57290600Y-62087236D01*
X57334002Y-62305434D01*
X57419138Y-62510972D01*
X57542737Y-62695951D01*
X57700049Y-62853263D01*
X57885028Y-62976862D01*
X58090566Y-63061998D01*
X58308764Y-63105400D01*
X58410407Y-63105400D01*
X57728107Y-63787700D01*
X50355855Y-63787700D01*
X50338400Y-63785981D01*
X50320944Y-63787700D01*
X50320937Y-63787700D01*
X50274966Y-63792228D01*
X50268689Y-63792846D01*
X50248356Y-63799014D01*
X50201660Y-63813179D01*
X50139884Y-63846199D01*
X50085737Y-63890637D01*
X50074606Y-63904200D01*
X47902807Y-66076000D01*
X46081654Y-66076000D01*
X49754485Y-62403170D01*
X49799138Y-62510972D01*
X49922737Y-62695951D01*
X50080049Y-62853263D01*
X50265028Y-62976862D01*
X50470566Y-63061998D01*
X50688764Y-63105400D01*
X50911236Y-63105400D01*
X51129434Y-63061998D01*
X51334972Y-62976862D01*
X51519951Y-62853263D01*
X51677263Y-62695951D01*
X51800862Y-62510972D01*
X51885998Y-62305434D01*
X51907207Y-62198810D01*
X51939113Y-62237687D01*
X51991611Y-62280772D01*
X51995193Y-62283712D01*
X52059176Y-62317911D01*
X52128601Y-62338971D01*
X52200800Y-62346082D01*
X52218893Y-62344300D01*
X52270101Y-62344300D01*
X52339138Y-62510972D01*
X52462737Y-62695951D01*
X52620049Y-62853263D01*
X52805028Y-62976862D01*
X53010566Y-63061998D01*
X53228764Y-63105400D01*
X53451236Y-63105400D01*
X53669434Y-63061998D01*
X53874972Y-62976862D01*
X54059951Y-62853263D01*
X54217263Y-62695951D01*
X54340862Y-62510972D01*
X54425998Y-62305434D01*
X54469400Y-62087236D01*
X54469400Y-61864764D01*
X54750600Y-61864764D01*
X54750600Y-62087236D01*
X54794002Y-62305434D01*
X54879138Y-62510972D01*
X55002737Y-62695951D01*
X55160049Y-62853263D01*
X55345028Y-62976862D01*
X55550566Y-63061998D01*
X55768764Y-63105400D01*
X55991236Y-63105400D01*
X56209434Y-63061998D01*
X56414972Y-62976862D01*
X56599951Y-62853263D01*
X56757263Y-62695951D01*
X56880862Y-62510972D01*
X56965998Y-62305434D01*
X57009400Y-62087236D01*
X57009400Y-61864764D01*
X56965998Y-61646566D01*
X56880862Y-61441028D01*
X56757263Y-61256049D01*
X56599951Y-61098737D01*
X56414972Y-60975138D01*
X56209434Y-60890002D01*
X55991236Y-60846600D01*
X55768764Y-60846600D01*
X55550566Y-60890002D01*
X55345028Y-60975138D01*
X55160049Y-61098737D01*
X55002737Y-61256049D01*
X54879138Y-61441028D01*
X54794002Y-61646566D01*
X54750600Y-61864764D01*
X54469400Y-61864764D01*
X54425998Y-61646566D01*
X54340862Y-61441028D01*
X54217263Y-61256049D01*
X54059951Y-61098737D01*
X53874972Y-60975138D01*
X53669434Y-60890002D01*
X53451236Y-60846600D01*
X53228764Y-60846600D01*
X53010566Y-60890002D01*
X52805028Y-60975138D01*
X52620049Y-61098737D01*
X52462737Y-61256049D01*
X52367154Y-61399099D01*
X51551022Y-60582968D01*
X51539487Y-60568913D01*
X51483407Y-60522888D01*
X51419424Y-60488689D01*
X51349999Y-60467629D01*
X51295893Y-60462300D01*
X51295885Y-60462300D01*
X51277800Y-60460519D01*
X51259715Y-60462300D01*
X50176385Y-60462300D01*
X50158299Y-60460519D01*
X50140214Y-60462300D01*
X50140207Y-60462300D01*
X50093120Y-60466938D01*
X50086100Y-60467629D01*
X50065040Y-60474018D01*
X50016676Y-60488689D01*
X49952693Y-60522888D01*
X49938515Y-60534524D01*
X49910666Y-60557379D01*
X49910662Y-60557383D01*
X49896613Y-60568913D01*
X49885083Y-60582962D01*
X46815546Y-63652500D01*
X46402423Y-63652500D01*
X46420902Y-63607887D01*
X46441400Y-63504835D01*
X46441400Y-63399765D01*
X46420902Y-63296713D01*
X46380693Y-63199640D01*
X46361575Y-63171028D01*
X46470824Y-63116679D01*
X46569795Y-63040189D01*
X46651941Y-62945860D01*
X46714107Y-62837318D01*
X46753903Y-62718733D01*
X46767000Y-62607750D01*
X46662252Y-62503002D01*
X46767000Y-62503002D01*
X46767000Y-62498253D01*
X46777228Y-62501356D01*
X46832000Y-62506751D01*
X47282000Y-62506751D01*
X47336772Y-62501356D01*
X47389439Y-62485380D01*
X47437977Y-62459436D01*
X47480521Y-62424521D01*
X47515436Y-62381977D01*
X47541380Y-62333439D01*
X47557356Y-62280772D01*
X47562751Y-62226000D01*
X47562751Y-61726000D01*
X47557356Y-61671228D01*
X47541380Y-61618561D01*
X47515436Y-61570023D01*
X47480521Y-61527479D01*
X47437977Y-61492564D01*
X47412600Y-61479000D01*
X47412600Y-61466952D01*
X47414319Y-61449499D01*
X47412600Y-61432046D01*
X47412600Y-61432037D01*
X47407454Y-61379790D01*
X47387121Y-61312760D01*
X47354101Y-61250984D01*
X47348844Y-61244578D01*
X47320795Y-61210400D01*
X47320790Y-61210395D01*
X47309663Y-61196837D01*
X47296105Y-61185710D01*
X46931498Y-60821105D01*
X46920363Y-60807537D01*
X46866216Y-60763099D01*
X46804440Y-60730079D01*
X46737410Y-60709746D01*
X46685163Y-60704600D01*
X46685155Y-60704600D01*
X46667700Y-60702881D01*
X46650245Y-60704600D01*
X38902555Y-60704600D01*
X38885100Y-60702881D01*
X38867644Y-60704600D01*
X38867637Y-60704600D01*
X38821666Y-60709128D01*
X38815389Y-60709746D01*
X38795056Y-60715914D01*
X38748360Y-60730079D01*
X38686584Y-60763099D01*
X38632437Y-60807537D01*
X38621306Y-60821100D01*
X37261207Y-62181200D01*
X37178165Y-62181200D01*
X37075113Y-62201698D01*
X36978040Y-62241907D01*
X36890677Y-62300281D01*
X36816381Y-62374577D01*
X36758007Y-62461940D01*
X36717798Y-62559013D01*
X36702696Y-62634935D01*
X36668772Y-62624644D01*
X36614000Y-62619249D01*
X35014000Y-62619249D01*
X34959228Y-62624644D01*
X34906561Y-62640620D01*
X34858023Y-62666564D01*
X34815479Y-62701479D01*
X34780564Y-62744023D01*
X34754620Y-62792561D01*
X34738644Y-62845228D01*
X34733249Y-62900000D01*
X34733249Y-65080000D01*
X34738644Y-65134772D01*
X34754620Y-65187439D01*
X34780564Y-65235977D01*
X34815479Y-65278521D01*
X34858023Y-65313436D01*
X34906561Y-65339380D01*
X34959228Y-65355356D01*
X35014000Y-65360751D01*
X35996700Y-65360751D01*
X35996701Y-69401005D01*
X33937207Y-71460500D01*
X33854165Y-71460500D01*
X33751113Y-71480998D01*
X33654040Y-71521207D01*
X33566677Y-71579581D01*
X33492381Y-71653877D01*
X33434007Y-71741240D01*
X33393798Y-71838313D01*
X33373300Y-71941365D01*
X33373300Y-72046435D01*
X33393798Y-72149487D01*
X33407514Y-72182600D01*
X33165254Y-72182600D01*
X31959405Y-70976751D01*
X31972000Y-70976751D01*
X32026772Y-70971356D01*
X32079439Y-70955380D01*
X32127977Y-70929436D01*
X32170521Y-70894521D01*
X32205436Y-70851977D01*
X32231380Y-70803439D01*
X32247356Y-70750772D01*
X32252751Y-70696000D01*
X32252751Y-68496000D01*
X32247356Y-68441228D01*
X32231380Y-68388561D01*
X32205436Y-68340023D01*
X32170521Y-68297479D01*
X32127977Y-68262564D01*
X32079439Y-68236620D01*
X32026772Y-68220644D01*
X31972000Y-68215249D01*
X30922000Y-68215249D01*
X30867228Y-68220644D01*
X30814561Y-68236620D01*
X30766023Y-68262564D01*
X30752751Y-68273456D01*
X30752751Y-67596000D01*
X30747356Y-67541228D01*
X30731380Y-67488561D01*
X30705436Y-67440023D01*
X30670521Y-67397479D01*
X30627977Y-67362564D01*
X30579439Y-67336620D01*
X30526772Y-67320644D01*
X30472000Y-67315249D01*
X30397627Y-67315249D01*
X30398154Y-67313511D01*
X30399818Y-67296615D01*
X30403300Y-67261263D01*
X30403300Y-67261256D01*
X30405019Y-67243800D01*
X30403300Y-67226345D01*
X30403300Y-66696442D01*
X30462019Y-66637723D01*
X30520393Y-66550360D01*
X30560602Y-66453287D01*
X30581100Y-66350235D01*
X30581100Y-66245165D01*
X30560602Y-66142113D01*
X30520393Y-66045040D01*
X30462019Y-65957677D01*
X30387723Y-65883381D01*
X30300360Y-65825007D01*
X30281004Y-65816989D01*
X35655294Y-60442700D01*
X76326407Y-60442700D01*
X76493235Y-60609528D01*
X76351110Y-60534524D01*
X76203901Y-60579175D01*
X75941080Y-60704359D01*
X75707731Y-60878412D01*
X75512822Y-61094645D01*
X75363843Y-61344748D01*
X75266519Y-61619109D01*
X75387185Y-61848998D01*
X75294264Y-61848998D01*
X75253998Y-61646566D01*
X75168862Y-61441028D01*
X75045263Y-61256049D01*
X74887951Y-61098737D01*
X74702972Y-60975138D01*
X74497434Y-60890002D01*
X74279236Y-60846600D01*
X74056764Y-60846600D01*
X73838566Y-60890002D01*
X73633028Y-60975138D01*
X73448049Y-61098737D01*
X73290737Y-61256049D01*
X73167138Y-61441028D01*
X73082002Y-61646566D01*
X73038600Y-61864764D01*
X73038600Y-62087236D01*
X73082002Y-62305434D01*
X73167138Y-62510972D01*
X73290737Y-62695951D01*
X73448049Y-62853263D01*
X73633028Y-62976862D01*
X73838566Y-63061998D01*
X74056764Y-63105400D01*
X74279236Y-63105400D01*
X74497434Y-63061998D01*
X74676806Y-62987700D01*
X75072306Y-63383200D01*
X75083437Y-63396763D01*
X75137584Y-63441201D01*
X75199360Y-63474221D01*
X75235824Y-63485282D01*
X75266389Y-63494554D01*
X75272666Y-63495172D01*
X75318637Y-63499700D01*
X75318644Y-63499700D01*
X75336100Y-63501419D01*
X75353555Y-63499700D01*
X77125845Y-63499700D01*
X77143300Y-63501419D01*
X77160755Y-63499700D01*
X77160763Y-63499700D01*
X77213010Y-63494554D01*
X77280040Y-63474221D01*
X77341816Y-63441201D01*
X77395963Y-63396763D01*
X77407099Y-63383195D01*
X78083810Y-62706485D01*
X78097362Y-62695363D01*
X78108485Y-62681810D01*
X78108495Y-62681800D01*
X78141800Y-62641217D01*
X78141802Y-62641215D01*
X78174821Y-62579440D01*
X78195154Y-62512410D01*
X78200300Y-62460163D01*
X78200300Y-62460154D01*
X78202019Y-62442701D01*
X78200300Y-62425248D01*
X78200300Y-61475555D01*
X78202019Y-61458100D01*
X78200300Y-61440645D01*
X78200300Y-61440637D01*
X78195154Y-61388390D01*
X78174821Y-61321360D01*
X78141801Y-61259584D01*
X78097363Y-61205437D01*
X78083800Y-61194306D01*
X76737499Y-59848006D01*
X76726363Y-59834437D01*
X76672216Y-59789999D01*
X76610440Y-59756979D01*
X76555785Y-59740400D01*
X78435600Y-59740400D01*
X78435601Y-100787600D01*
G36*
X73729119Y-83440313D02*
G01*
X73680677Y-83472681D01*
X73606381Y-83546977D01*
X73548007Y-83634340D01*
X73507798Y-83731413D01*
X73487300Y-83834465D01*
X73487300Y-83939535D01*
X73507798Y-84042587D01*
X73548007Y-84139660D01*
X73606381Y-84227023D01*
X73680677Y-84301319D01*
X73768040Y-84359693D01*
X73865113Y-84399902D01*
X73968165Y-84420400D01*
X74073235Y-84420400D01*
X74176287Y-84399902D01*
X74273360Y-84359693D01*
X74360723Y-84301319D01*
X74370172Y-84291870D01*
X74385479Y-84310521D01*
X74428023Y-84345436D01*
X74476561Y-84371380D01*
X74529228Y-84387356D01*
X74584000Y-84392751D01*
X74814431Y-84392751D01*
X74843321Y-84450824D01*
X74919811Y-84549795D01*
X75014140Y-84631941D01*
X75122682Y-84694107D01*
X75241267Y-84733903D01*
X75352250Y-84747000D01*
X75511000Y-84588250D01*
X75511000Y-83985000D01*
X75437000Y-83985000D01*
X75437000Y-83789000D01*
X75511000Y-83789000D01*
X75511000Y-83740000D01*
X75657000Y-83740000D01*
X75657000Y-83789000D01*
X75705000Y-83789000D01*
X75705000Y-83985000D01*
X75657000Y-83985000D01*
X75657000Y-84588250D01*
X75705000Y-84636250D01*
X75705001Y-92915459D01*
X75681977Y-92896564D01*
X75633439Y-92870620D01*
X75580772Y-92854644D01*
X75526000Y-92849249D01*
X73826000Y-92849249D01*
X73771228Y-92854644D01*
X73718561Y-92870620D01*
X73670023Y-92896564D01*
X73627479Y-92931479D01*
X73592564Y-92974023D01*
X73566620Y-93022561D01*
X73550644Y-93075228D01*
X73545249Y-93130000D01*
X73545249Y-93472855D01*
X70723999Y-90651606D01*
X70712863Y-90638037D01*
X70658716Y-90593599D01*
X70596940Y-90560579D01*
X70529910Y-90540246D01*
X70477663Y-90535100D01*
X70477655Y-90535100D01*
X70460200Y-90533381D01*
X70442745Y-90535100D01*
X66178655Y-90535100D01*
X66161200Y-90533381D01*
X66143744Y-90535100D01*
X66143737Y-90535100D01*
X66097766Y-90539628D01*
X66091489Y-90540246D01*
X66062302Y-90549100D01*
X66024460Y-90560579D01*
X65962684Y-90593599D01*
X65908537Y-90638037D01*
X65897406Y-90651600D01*
X65463307Y-91085700D01*
X63180350Y-91085700D01*
X63202102Y-91033187D01*
X63222600Y-90930135D01*
X63222600Y-90825065D01*
X63202102Y-90722013D01*
X63181786Y-90672965D01*
X63229228Y-90687356D01*
X63284000Y-90692751D01*
X64284000Y-90692751D01*
X64338772Y-90687356D01*
X64391439Y-90671380D01*
X64439977Y-90645436D01*
X64482521Y-90610521D01*
X64517436Y-90567977D01*
X64543380Y-90519439D01*
X64559356Y-90466772D01*
X64564751Y-90412000D01*
X64564751Y-88912000D01*
X64559356Y-88857228D01*
X64543380Y-88804561D01*
X64517436Y-88756023D01*
X64482521Y-88713479D01*
X64439977Y-88678564D01*
X64391439Y-88652620D01*
X64338772Y-88636644D01*
X64295293Y-88632361D01*
X64754994Y-88172660D01*
X69909000Y-88172660D01*
X69909000Y-88611340D01*
X69994582Y-89041592D01*
X70162458Y-89446880D01*
X70406176Y-89811630D01*
X70716370Y-90121824D01*
X71081120Y-90365542D01*
X71486408Y-90533418D01*
X71916660Y-90619000D01*
X72355340Y-90619000D01*
X72785592Y-90533418D01*
X73190880Y-90365542D01*
X73555630Y-90121824D01*
X73865824Y-89811630D01*
X74109542Y-89446880D01*
X74277418Y-89041592D01*
X74363000Y-88611340D01*
X74363000Y-88172660D01*
X74277418Y-87742408D01*
X74109542Y-87337120D01*
X73865824Y-86972370D01*
X73555630Y-86662176D01*
X73190880Y-86418458D01*
X72785592Y-86250582D01*
X72355340Y-86165000D01*
X71916660Y-86165000D01*
X71486408Y-86250582D01*
X71081120Y-86418458D01*
X70716370Y-86662176D01*
X70406176Y-86972370D01*
X70162458Y-87337120D01*
X69994582Y-87742408D01*
X69909000Y-88172660D01*
X64754994Y-88172660D01*
X67617732Y-85309922D01*
X67631787Y-85298387D01*
X67677812Y-85242307D01*
X67712011Y-85178324D01*
X67730128Y-85118601D01*
X67733071Y-85108900D01*
X67735594Y-85083281D01*
X67738400Y-85054793D01*
X67738400Y-85054786D01*
X67740181Y-85036701D01*
X67738400Y-85018616D01*
X67738400Y-84038230D01*
X67748250Y-84039000D01*
X67907000Y-83880250D01*
X67907000Y-83277000D01*
X67858000Y-83277000D01*
X67858000Y-83131000D01*
X67907000Y-83131000D01*
X67907000Y-83057000D01*
X68103000Y-83057000D01*
X68103000Y-83131000D01*
X68152000Y-83131000D01*
X68152000Y-83277000D01*
X68103000Y-83277000D01*
X68103000Y-83880250D01*
X68261750Y-84039000D01*
X68336123Y-84033185D01*
X68456832Y-84000392D01*
X68568824Y-83944679D01*
X68667795Y-83868189D01*
X68749941Y-83773860D01*
X68812107Y-83665318D01*
X68851903Y-83546733D01*
X68865000Y-83435750D01*
X68760252Y-83331002D01*
X68865000Y-83331002D01*
X68865000Y-83326253D01*
X68875228Y-83329356D01*
X68930000Y-83334751D01*
X69380000Y-83334751D01*
X69434772Y-83329356D01*
X69487439Y-83313380D01*
X69535977Y-83287436D01*
X69578521Y-83252521D01*
X69613436Y-83209977D01*
X69639380Y-83161439D01*
X69639912Y-83159686D01*
X69656500Y-83161320D01*
X69673963Y-83159600D01*
X69726210Y-83154454D01*
X69793240Y-83134121D01*
X69855016Y-83101101D01*
X69909163Y-83056663D01*
X69953601Y-83002516D01*
X69986621Y-82940740D01*
X70006954Y-82873710D01*
X70013820Y-82804000D01*
X70012100Y-82786537D01*
X70012100Y-82063552D01*
X70013819Y-82046099D01*
X70012100Y-82028646D01*
X70012100Y-82028637D01*
X70006954Y-81976390D01*
X69986621Y-81909360D01*
X69953601Y-81847584D01*
X69942301Y-81833815D01*
X69920295Y-81807000D01*
X69920290Y-81806995D01*
X69909163Y-81793437D01*
X69895605Y-81782310D01*
X69289493Y-81176200D01*
X71465007Y-81176200D01*
X73729119Y-83440313D01*
G37*
X73729119Y-83440313D02*
X73680677Y-83472681D01*
X73606381Y-83546977D01*
X73548007Y-83634340D01*
X73507798Y-83731413D01*
X73487300Y-83834465D01*
X73487300Y-83939535D01*
X73507798Y-84042587D01*
X73548007Y-84139660D01*
X73606381Y-84227023D01*
X73680677Y-84301319D01*
X73768040Y-84359693D01*
X73865113Y-84399902D01*
X73968165Y-84420400D01*
X74073235Y-84420400D01*
X74176287Y-84399902D01*
X74273360Y-84359693D01*
X74360723Y-84301319D01*
X74370172Y-84291870D01*
X74385479Y-84310521D01*
X74428023Y-84345436D01*
X74476561Y-84371380D01*
X74529228Y-84387356D01*
X74584000Y-84392751D01*
X74814431Y-84392751D01*
X74843321Y-84450824D01*
X74919811Y-84549795D01*
X75014140Y-84631941D01*
X75122682Y-84694107D01*
X75241267Y-84733903D01*
X75352250Y-84747000D01*
X75511000Y-84588250D01*
X75511000Y-83985000D01*
X75437000Y-83985000D01*
X75437000Y-83789000D01*
X75511000Y-83789000D01*
X75511000Y-83740000D01*
X75657000Y-83740000D01*
X75657000Y-83789000D01*
X75705000Y-83789000D01*
X75705000Y-83985000D01*
X75657000Y-83985000D01*
X75657000Y-84588250D01*
X75705000Y-84636250D01*
X75705001Y-92915459D01*
X75681977Y-92896564D01*
X75633439Y-92870620D01*
X75580772Y-92854644D01*
X75526000Y-92849249D01*
X73826000Y-92849249D01*
X73771228Y-92854644D01*
X73718561Y-92870620D01*
X73670023Y-92896564D01*
X73627479Y-92931479D01*
X73592564Y-92974023D01*
X73566620Y-93022561D01*
X73550644Y-93075228D01*
X73545249Y-93130000D01*
X73545249Y-93472855D01*
X70723999Y-90651606D01*
X70712863Y-90638037D01*
X70658716Y-90593599D01*
X70596940Y-90560579D01*
X70529910Y-90540246D01*
X70477663Y-90535100D01*
X70477655Y-90535100D01*
X70460200Y-90533381D01*
X70442745Y-90535100D01*
X66178655Y-90535100D01*
X66161200Y-90533381D01*
X66143744Y-90535100D01*
X66143737Y-90535100D01*
X66097766Y-90539628D01*
X66091489Y-90540246D01*
X66062302Y-90549100D01*
X66024460Y-90560579D01*
X65962684Y-90593599D01*
X65908537Y-90638037D01*
X65897406Y-90651600D01*
X65463307Y-91085700D01*
X63180350Y-91085700D01*
X63202102Y-91033187D01*
X63222600Y-90930135D01*
X63222600Y-90825065D01*
X63202102Y-90722013D01*
X63181786Y-90672965D01*
X63229228Y-90687356D01*
X63284000Y-90692751D01*
X64284000Y-90692751D01*
X64338772Y-90687356D01*
X64391439Y-90671380D01*
X64439977Y-90645436D01*
X64482521Y-90610521D01*
X64517436Y-90567977D01*
X64543380Y-90519439D01*
X64559356Y-90466772D01*
X64564751Y-90412000D01*
X64564751Y-88912000D01*
X64559356Y-88857228D01*
X64543380Y-88804561D01*
X64517436Y-88756023D01*
X64482521Y-88713479D01*
X64439977Y-88678564D01*
X64391439Y-88652620D01*
X64338772Y-88636644D01*
X64295293Y-88632361D01*
X64754994Y-88172660D01*
X69909000Y-88172660D01*
X69909000Y-88611340D01*
X69994582Y-89041592D01*
X70162458Y-89446880D01*
X70406176Y-89811630D01*
X70716370Y-90121824D01*
X71081120Y-90365542D01*
X71486408Y-90533418D01*
X71916660Y-90619000D01*
X72355340Y-90619000D01*
X72785592Y-90533418D01*
X73190880Y-90365542D01*
X73555630Y-90121824D01*
X73865824Y-89811630D01*
X74109542Y-89446880D01*
X74277418Y-89041592D01*
X74363000Y-88611340D01*
X74363000Y-88172660D01*
X74277418Y-87742408D01*
X74109542Y-87337120D01*
X73865824Y-86972370D01*
X73555630Y-86662176D01*
X73190880Y-86418458D01*
X72785592Y-86250582D01*
X72355340Y-86165000D01*
X71916660Y-86165000D01*
X71486408Y-86250582D01*
X71081120Y-86418458D01*
X70716370Y-86662176D01*
X70406176Y-86972370D01*
X70162458Y-87337120D01*
X69994582Y-87742408D01*
X69909000Y-88172660D01*
X64754994Y-88172660D01*
X67617732Y-85309922D01*
X67631787Y-85298387D01*
X67677812Y-85242307D01*
X67712011Y-85178324D01*
X67730128Y-85118601D01*
X67733071Y-85108900D01*
X67735594Y-85083281D01*
X67738400Y-85054793D01*
X67738400Y-85054786D01*
X67740181Y-85036701D01*
X67738400Y-85018616D01*
X67738400Y-84038230D01*
X67748250Y-84039000D01*
X67907000Y-83880250D01*
X67907000Y-83277000D01*
X67858000Y-83277000D01*
X67858000Y-83131000D01*
X67907000Y-83131000D01*
X67907000Y-83057000D01*
X68103000Y-83057000D01*
X68103000Y-83131000D01*
X68152000Y-83131000D01*
X68152000Y-83277000D01*
X68103000Y-83277000D01*
X68103000Y-83880250D01*
X68261750Y-84039000D01*
X68336123Y-84033185D01*
X68456832Y-84000392D01*
X68568824Y-83944679D01*
X68667795Y-83868189D01*
X68749941Y-83773860D01*
X68812107Y-83665318D01*
X68851903Y-83546733D01*
X68865000Y-83435750D01*
X68760252Y-83331002D01*
X68865000Y-83331002D01*
X68865000Y-83326253D01*
X68875228Y-83329356D01*
X68930000Y-83334751D01*
X69380000Y-83334751D01*
X69434772Y-83329356D01*
X69487439Y-83313380D01*
X69535977Y-83287436D01*
X69578521Y-83252521D01*
X69613436Y-83209977D01*
X69639380Y-83161439D01*
X69639912Y-83159686D01*
X69656500Y-83161320D01*
X69673963Y-83159600D01*
X69726210Y-83154454D01*
X69793240Y-83134121D01*
X69855016Y-83101101D01*
X69909163Y-83056663D01*
X69953601Y-83002516D01*
X69986621Y-82940740D01*
X70006954Y-82873710D01*
X70013820Y-82804000D01*
X70012100Y-82786537D01*
X70012100Y-82063552D01*
X70013819Y-82046099D01*
X70012100Y-82028646D01*
X70012100Y-82028637D01*
X70006954Y-81976390D01*
X69986621Y-81909360D01*
X69953601Y-81847584D01*
X69942301Y-81833815D01*
X69920295Y-81807000D01*
X69920290Y-81806995D01*
X69909163Y-81793437D01*
X69895605Y-81782310D01*
X69289493Y-81176200D01*
X71465007Y-81176200D01*
X73729119Y-83440313D01*
G36*
X69056799Y-75844400D02*
G01*
X69660049Y-75844400D01*
X69818799Y-75685650D01*
X69821421Y-75212300D01*
X70014107Y-75212300D01*
X70645109Y-75843302D01*
X70581660Y-75800907D01*
X70484587Y-75760698D01*
X70381535Y-75740200D01*
X70276465Y-75740200D01*
X70173413Y-75760698D01*
X70076340Y-75800907D01*
X69988977Y-75859281D01*
X69914681Y-75933577D01*
X69856307Y-76020940D01*
X69816098Y-76118013D01*
X69795600Y-76221065D01*
X69795600Y-76233951D01*
X69660049Y-76098400D01*
X69056799Y-76098400D01*
X69056799Y-77285850D01*
X69215549Y-77444600D01*
X69316864Y-77433643D01*
X69436052Y-77395692D01*
X69470812Y-77376494D01*
X68876107Y-77971200D01*
X67669855Y-77971200D01*
X67652400Y-77969481D01*
X67634945Y-77971200D01*
X67634937Y-77971200D01*
X67582690Y-77976346D01*
X67515660Y-77996679D01*
X67467233Y-78022564D01*
X67453884Y-78029699D01*
X67414916Y-78061680D01*
X67399737Y-78074137D01*
X67388606Y-78087700D01*
X66955058Y-78521249D01*
X66939436Y-78492023D01*
X66904521Y-78449479D01*
X66861977Y-78414564D01*
X66813439Y-78388620D01*
X66760772Y-78372644D01*
X66706000Y-78367249D01*
X66256000Y-78367249D01*
X66201228Y-78372644D01*
X66148561Y-78388620D01*
X66100023Y-78414564D01*
X66066692Y-78441918D01*
X66050960Y-78431407D01*
X65953887Y-78391198D01*
X65850835Y-78370700D01*
X65745765Y-78370700D01*
X65642713Y-78391198D01*
X65545640Y-78431407D01*
X65458277Y-78489781D01*
X65383981Y-78564077D01*
X65325607Y-78651440D01*
X65285398Y-78748513D01*
X65264900Y-78851565D01*
X65264900Y-78956635D01*
X65285398Y-79059687D01*
X65296788Y-79087184D01*
X65277113Y-79091098D01*
X65180040Y-79131307D01*
X65092677Y-79189681D01*
X65018381Y-79263977D01*
X64960007Y-79351340D01*
X64919798Y-79448413D01*
X64899300Y-79551465D01*
X64899300Y-79656535D01*
X64919798Y-79759587D01*
X64960007Y-79856660D01*
X65018381Y-79944023D01*
X65092677Y-80018319D01*
X65180040Y-80076693D01*
X65277113Y-80116902D01*
X65380165Y-80137400D01*
X65485235Y-80137400D01*
X65588287Y-80116902D01*
X65685360Y-80076693D01*
X65772723Y-80018319D01*
X65823315Y-79967727D01*
X65842760Y-79978121D01*
X65909790Y-79998454D01*
X65962037Y-80003600D01*
X65962046Y-80003600D01*
X65979499Y-80005319D01*
X65996952Y-80003600D01*
X66022362Y-80003600D01*
X66022564Y-80003977D01*
X66057479Y-80046521D01*
X66100023Y-80081436D01*
X66148561Y-80107380D01*
X66201228Y-80123356D01*
X66256000Y-80128751D01*
X66706000Y-80128751D01*
X66760772Y-80123356D01*
X66813439Y-80107380D01*
X66861977Y-80081436D01*
X66904521Y-80046521D01*
X66939436Y-80003977D01*
X66939638Y-80003600D01*
X66965037Y-80003600D01*
X66982500Y-80005320D01*
X66999963Y-80003600D01*
X67052210Y-79998454D01*
X67119240Y-79978121D01*
X67181016Y-79945101D01*
X67235163Y-79900663D01*
X67279601Y-79846516D01*
X67312621Y-79784740D01*
X67319036Y-79763591D01*
X67351228Y-79773356D01*
X67406000Y-79778751D01*
X67856000Y-79778751D01*
X67910772Y-79773356D01*
X67963439Y-79757380D01*
X68011977Y-79731436D01*
X68054521Y-79696521D01*
X68089436Y-79653977D01*
X68115380Y-79605439D01*
X68115938Y-79603600D01*
X70935545Y-79603600D01*
X70953000Y-79605319D01*
X70970455Y-79603600D01*
X70970463Y-79603600D01*
X71022710Y-79598454D01*
X71089740Y-79578121D01*
X71151516Y-79545101D01*
X71205663Y-79500663D01*
X71216799Y-79487094D01*
X74694531Y-76009364D01*
X74739587Y-76000402D01*
X74836660Y-75960193D01*
X74924023Y-75901819D01*
X74982742Y-75843100D01*
X76207845Y-75843100D01*
X76225300Y-75844819D01*
X76242755Y-75843100D01*
X76242763Y-75843100D01*
X76295010Y-75837954D01*
X76362040Y-75817621D01*
X76423816Y-75784601D01*
X76477963Y-75740163D01*
X76489098Y-75726595D01*
X76968109Y-75247586D01*
X76969901Y-75246115D01*
X76969901Y-76160044D01*
X76563763Y-76566183D01*
X76549713Y-76577714D01*
X76538183Y-76591763D01*
X76538179Y-76591767D01*
X76524381Y-76608580D01*
X76503688Y-76633794D01*
X76469489Y-76697777D01*
X76457489Y-76737337D01*
X76448429Y-76767201D01*
X76448135Y-76770189D01*
X76443100Y-76821308D01*
X76443100Y-76821315D01*
X76442387Y-76828559D01*
X76326572Y-76944374D01*
X76326566Y-76944379D01*
X76312524Y-76955902D01*
X76300990Y-76969955D01*
X75673160Y-77597786D01*
X75665907Y-77598500D01*
X74702093Y-77598500D01*
X74684000Y-77596718D01*
X74665907Y-77598500D01*
X74202093Y-77598500D01*
X74184000Y-77596718D01*
X74165907Y-77598500D01*
X74111801Y-77603829D01*
X74042376Y-77624889D01*
X73978393Y-77659088D01*
X73922313Y-77705113D01*
X73876288Y-77761193D01*
X73842089Y-77825176D01*
X73821029Y-77894601D01*
X73813918Y-77966800D01*
X73815701Y-77984902D01*
X73815701Y-78053194D01*
X73810479Y-78057479D01*
X73775564Y-78100023D01*
X73749620Y-78148561D01*
X73733644Y-78201228D01*
X73728249Y-78256000D01*
X73728249Y-78800249D01*
X73684000Y-78800249D01*
X73629228Y-78805644D01*
X73576561Y-78821620D01*
X73528023Y-78847564D01*
X73485479Y-78882479D01*
X73470772Y-78900400D01*
X73424963Y-78900400D01*
X73407500Y-78898680D01*
X73390037Y-78900400D01*
X73337790Y-78905546D01*
X73270760Y-78925879D01*
X73208984Y-78958899D01*
X73154837Y-79003337D01*
X73110399Y-79057484D01*
X73077379Y-79119260D01*
X73057046Y-79186290D01*
X73050180Y-79256000D01*
X73051900Y-79273464D01*
X73051901Y-79738527D01*
X73050180Y-79756000D01*
X73051901Y-79773473D01*
X73051900Y-80248800D01*
X73002155Y-80248800D01*
X72984699Y-80247081D01*
X72967244Y-80248800D01*
X72967237Y-80248800D01*
X72927790Y-80252685D01*
X72867535Y-80240700D01*
X72762465Y-80240700D01*
X72659413Y-80261198D01*
X72562340Y-80301407D01*
X72474977Y-80359781D01*
X72400681Y-80434077D01*
X72342307Y-80521440D01*
X72302098Y-80618513D01*
X72281600Y-80721565D01*
X72281600Y-80826635D01*
X72302098Y-80929687D01*
X72342307Y-81026760D01*
X72384500Y-81089907D01*
X71876099Y-80581506D01*
X71864963Y-80567937D01*
X71810816Y-80523499D01*
X71749040Y-80490479D01*
X71682010Y-80470146D01*
X71629763Y-80465000D01*
X71629755Y-80465000D01*
X71612300Y-80463281D01*
X71594845Y-80465000D01*
X65534355Y-80465000D01*
X65516899Y-80463281D01*
X65499444Y-80465000D01*
X65499437Y-80465000D01*
X65454087Y-80469467D01*
X65447189Y-80470146D01*
X65435078Y-80473820D01*
X65380160Y-80490479D01*
X65318384Y-80523499D01*
X65318382Y-80523500D01*
X65318383Y-80523500D01*
X65277800Y-80556805D01*
X65277795Y-80556810D01*
X65264237Y-80567937D01*
X65253110Y-80581495D01*
X63945207Y-81889400D01*
X63609542Y-81889400D01*
X63550823Y-81830681D01*
X63463460Y-81772307D01*
X63366387Y-81732098D01*
X63263335Y-81711600D01*
X63158265Y-81711600D01*
X63055213Y-81732098D01*
X62958140Y-81772307D01*
X62870777Y-81830681D01*
X62796481Y-81904977D01*
X62738107Y-81992340D01*
X62697898Y-82089413D01*
X62677400Y-82192465D01*
X62677400Y-82297535D01*
X62697898Y-82400587D01*
X62738107Y-82497660D01*
X62796481Y-82585023D01*
X62870777Y-82659319D01*
X62958140Y-82717693D01*
X63055213Y-82757902D01*
X63158265Y-82778400D01*
X63263335Y-82778400D01*
X63366387Y-82757902D01*
X63463460Y-82717693D01*
X63550823Y-82659319D01*
X63609542Y-82600600D01*
X63867207Y-82600600D01*
X64467305Y-83200700D01*
X64297042Y-83200700D01*
X64253523Y-83157181D01*
X64166160Y-83098807D01*
X64069087Y-83058598D01*
X63966035Y-83038100D01*
X63860965Y-83038100D01*
X63757913Y-83058598D01*
X63660840Y-83098807D01*
X63573477Y-83157181D01*
X63499181Y-83231477D01*
X63440807Y-83318840D01*
X63400598Y-83415913D01*
X63380100Y-83518965D01*
X63380100Y-83624035D01*
X63400598Y-83727087D01*
X63411166Y-83752600D01*
X63239094Y-83752600D01*
X61042699Y-81556206D01*
X61031563Y-81542637D01*
X60977416Y-81498199D01*
X60915640Y-81465179D01*
X60848610Y-81444846D01*
X60796363Y-81439700D01*
X60796355Y-81439700D01*
X60778900Y-81437981D01*
X60761445Y-81439700D01*
X59838342Y-81439700D01*
X59779623Y-81380981D01*
X59692260Y-81322607D01*
X59595187Y-81282398D01*
X59492135Y-81261900D01*
X59387065Y-81261900D01*
X59284013Y-81282398D01*
X59186940Y-81322607D01*
X59099577Y-81380981D01*
X59025281Y-81455277D01*
X58966907Y-81542640D01*
X58926698Y-81639713D01*
X58906200Y-81742765D01*
X58906200Y-81817495D01*
X58871035Y-81810500D01*
X58765965Y-81810500D01*
X58662913Y-81830998D01*
X58565840Y-81871207D01*
X58478477Y-81929581D01*
X58404181Y-82003877D01*
X58345807Y-82091240D01*
X58305598Y-82188313D01*
X58285100Y-82291365D01*
X58285100Y-82396435D01*
X58302390Y-82483360D01*
X58209000Y-82576750D01*
X58209000Y-83251000D01*
X58229000Y-83251000D01*
X58229000Y-83505000D01*
X58209000Y-83505000D01*
X58209000Y-83525000D01*
X57955000Y-83525000D01*
X57955000Y-83505000D01*
X57075750Y-83505000D01*
X56917000Y-83663750D01*
X56913928Y-83703000D01*
X56926188Y-83827482D01*
X56962498Y-83947180D01*
X57021463Y-84057494D01*
X57100815Y-84154185D01*
X57197506Y-84233537D01*
X57271249Y-84272954D01*
X57271249Y-84383046D01*
X57197506Y-84422463D01*
X57100815Y-84501815D01*
X57021463Y-84598506D01*
X56962498Y-84708820D01*
X56926188Y-84828518D01*
X56913928Y-84953000D01*
X56917000Y-84992250D01*
X57075750Y-85151000D01*
X57955000Y-85151000D01*
X57955000Y-85131000D01*
X58209000Y-85131000D01*
X58209000Y-85151000D01*
X58229000Y-85151000D01*
X58229000Y-85405000D01*
X58209000Y-85405000D01*
X58209000Y-85425000D01*
X57955000Y-85425000D01*
X57955000Y-85405000D01*
X57075750Y-85405000D01*
X57059250Y-85421500D01*
X53538045Y-85421500D01*
X53524393Y-85388540D01*
X53466019Y-85301177D01*
X53391723Y-85226881D01*
X53304360Y-85168507D01*
X53207287Y-85128298D01*
X53104235Y-85107800D01*
X52999165Y-85107800D01*
X52896113Y-85128298D01*
X52799040Y-85168507D01*
X52711677Y-85226881D01*
X52637381Y-85301177D01*
X52579007Y-85388540D01*
X52538798Y-85485613D01*
X52518300Y-85588665D01*
X52518300Y-85693735D01*
X52538798Y-85796787D01*
X52579007Y-85893860D01*
X52637381Y-85981223D01*
X52711677Y-86055519D01*
X52799040Y-86113893D01*
X52896113Y-86154102D01*
X52999165Y-86174600D01*
X53104235Y-86174600D01*
X53207287Y-86154102D01*
X53258956Y-86132700D01*
X56979807Y-86132700D01*
X57530100Y-86682994D01*
X57530100Y-86766035D01*
X57550598Y-86869087D01*
X57590807Y-86966160D01*
X57649181Y-87053523D01*
X57723477Y-87127819D01*
X57810840Y-87186193D01*
X57907913Y-87226402D01*
X58010965Y-87246900D01*
X58116035Y-87246900D01*
X58219087Y-87226402D01*
X58316160Y-87186193D01*
X58403523Y-87127819D01*
X58477819Y-87053523D01*
X58536193Y-86966160D01*
X58576402Y-86869087D01*
X58596900Y-86766035D01*
X58596900Y-86660965D01*
X58576402Y-86557913D01*
X58536193Y-86460840D01*
X58477819Y-86373477D01*
X58403523Y-86299181D01*
X58316160Y-86240807D01*
X58219087Y-86200598D01*
X58209002Y-86198592D01*
X58209002Y-86079252D01*
X58367750Y-86238000D01*
X58612000Y-86241072D01*
X58736482Y-86228812D01*
X58856180Y-86192502D01*
X58966494Y-86133537D01*
X59063185Y-86054185D01*
X59142537Y-85957494D01*
X59144105Y-85954560D01*
X59662683Y-86473138D01*
X59674213Y-86487187D01*
X59688262Y-86498717D01*
X59688266Y-86498721D01*
X59705079Y-86512519D01*
X59730293Y-86533212D01*
X59754067Y-86545919D01*
X59794275Y-86567411D01*
X59839567Y-86581150D01*
X59863701Y-86588471D01*
X59917807Y-86593800D01*
X59917815Y-86593800D01*
X59935900Y-86595581D01*
X59953985Y-86593800D01*
X60414058Y-86593800D01*
X60460077Y-86639819D01*
X60547440Y-86698193D01*
X60644513Y-86738402D01*
X60747565Y-86758900D01*
X60812646Y-86758900D01*
X62684995Y-88631249D01*
X62253954Y-88631249D01*
X62214537Y-88557506D01*
X62135185Y-88460815D01*
X62038494Y-88381463D01*
X61928180Y-88322498D01*
X61808482Y-88286188D01*
X61684000Y-88273928D01*
X61469750Y-88277000D01*
X61311000Y-88435750D01*
X61311000Y-89535000D01*
X61331000Y-89535000D01*
X61331000Y-89789000D01*
X61311000Y-89789000D01*
X61311000Y-89809000D01*
X61057000Y-89809000D01*
X61057000Y-89789000D01*
X60207750Y-89789000D01*
X60049000Y-89947750D01*
X60046148Y-90378700D01*
X54822095Y-90378700D01*
X54439698Y-89996305D01*
X54428563Y-89982737D01*
X54374416Y-89938299D01*
X54312640Y-89905279D01*
X54245610Y-89884946D01*
X54193363Y-89879800D01*
X54193355Y-89879800D01*
X54175900Y-89878081D01*
X54158445Y-89879800D01*
X46317194Y-89879800D01*
X45985976Y-89548583D01*
X46018060Y-89535293D01*
X46105423Y-89476919D01*
X46164142Y-89418200D01*
X46555945Y-89418200D01*
X46573400Y-89419919D01*
X46590855Y-89418200D01*
X46590863Y-89418200D01*
X46643110Y-89413054D01*
X46710140Y-89392721D01*
X46771916Y-89359701D01*
X46826063Y-89315263D01*
X46837199Y-89301694D01*
X47226893Y-88912000D01*
X60045928Y-88912000D01*
X60049000Y-89376250D01*
X60207750Y-89535000D01*
X61057000Y-89535000D01*
X61057000Y-88435750D01*
X60898250Y-88277000D01*
X60684000Y-88273928D01*
X60559518Y-88286188D01*
X60439820Y-88322498D01*
X60329506Y-88381463D01*
X60232815Y-88460815D01*
X60153463Y-88557506D01*
X60094498Y-88667820D01*
X60058188Y-88787518D01*
X60045928Y-88912000D01*
X47226893Y-88912000D01*
X47751194Y-88387700D01*
X47930566Y-88461998D01*
X48148764Y-88505400D01*
X48371236Y-88505400D01*
X48589434Y-88461998D01*
X48794972Y-88376862D01*
X48979951Y-88253263D01*
X49137263Y-88095951D01*
X49260862Y-87910972D01*
X49345998Y-87705434D01*
X49389400Y-87487236D01*
X49389400Y-87264764D01*
X49670600Y-87264764D01*
X49670600Y-87487236D01*
X49714002Y-87705434D01*
X49799138Y-87910972D01*
X49922737Y-88095951D01*
X50080049Y-88253263D01*
X50265028Y-88376862D01*
X50470566Y-88461998D01*
X50688764Y-88505400D01*
X50911236Y-88505400D01*
X51129434Y-88461998D01*
X51334972Y-88376862D01*
X51519951Y-88253263D01*
X51677263Y-88095951D01*
X51800862Y-87910972D01*
X51885998Y-87705434D01*
X51929400Y-87487236D01*
X51929400Y-87264764D01*
X52210600Y-87264764D01*
X52210600Y-87487236D01*
X52254002Y-87705434D01*
X52339138Y-87910972D01*
X52462737Y-88095951D01*
X52620049Y-88253263D01*
X52805028Y-88376862D01*
X53010566Y-88461998D01*
X53228764Y-88505400D01*
X53451236Y-88505400D01*
X53669434Y-88461998D01*
X53874972Y-88376862D01*
X54059951Y-88253263D01*
X54217263Y-88095951D01*
X54340862Y-87910972D01*
X54425998Y-87705434D01*
X54469400Y-87487236D01*
X54469400Y-87264764D01*
X54425998Y-87046566D01*
X54340862Y-86841028D01*
X54217263Y-86656049D01*
X54059951Y-86498737D01*
X53874972Y-86375138D01*
X53669434Y-86290002D01*
X53451236Y-86246600D01*
X53228764Y-86246600D01*
X53010566Y-86290002D01*
X52805028Y-86375138D01*
X52620049Y-86498737D01*
X52462737Y-86656049D01*
X52339138Y-86841028D01*
X52254002Y-87046566D01*
X52210600Y-87264764D01*
X51929400Y-87264764D01*
X51885998Y-87046566D01*
X51800862Y-86841028D01*
X51677263Y-86656049D01*
X51519951Y-86498737D01*
X51334972Y-86375138D01*
X51129434Y-86290002D01*
X50911236Y-86246600D01*
X50688764Y-86246600D01*
X50470566Y-86290002D01*
X50265028Y-86375138D01*
X50080049Y-86498737D01*
X49922737Y-86656049D01*
X49799138Y-86841028D01*
X49714002Y-87046566D01*
X49670600Y-87264764D01*
X49389400Y-87264764D01*
X49345998Y-87046566D01*
X49260862Y-86841028D01*
X49137263Y-86656049D01*
X48979951Y-86498737D01*
X48794972Y-86375138D01*
X48589434Y-86290002D01*
X48371236Y-86246600D01*
X48148764Y-86246600D01*
X47930566Y-86290002D01*
X47725028Y-86375138D01*
X47540049Y-86498737D01*
X47382737Y-86656049D01*
X47259138Y-86841028D01*
X47205654Y-86970151D01*
X47208072Y-86526000D01*
X47195812Y-86401518D01*
X47159502Y-86281820D01*
X47100537Y-86171506D01*
X47021185Y-86074815D01*
X46924494Y-85995463D01*
X46814180Y-85936498D01*
X46694482Y-85900188D01*
X46570000Y-85887928D01*
X46005750Y-85891000D01*
X45847002Y-86049748D01*
X45847002Y-85931491D01*
X47139660Y-84638834D01*
X47147707Y-84658260D01*
X47206081Y-84745623D01*
X47280377Y-84819919D01*
X47367740Y-84878293D01*
X47464813Y-84918502D01*
X47567865Y-84939000D01*
X47672935Y-84939000D01*
X47775987Y-84918502D01*
X47873060Y-84878293D01*
X47910257Y-84853439D01*
X47955281Y-84920823D01*
X48029577Y-84995119D01*
X48116940Y-85053493D01*
X48214013Y-85093702D01*
X48317065Y-85114200D01*
X48422135Y-85114200D01*
X48525187Y-85093702D01*
X48622260Y-85053493D01*
X48709623Y-84995119D01*
X48783919Y-84920823D01*
X48842293Y-84833460D01*
X48882502Y-84736387D01*
X48903000Y-84633335D01*
X48903000Y-84550293D01*
X49773105Y-83680190D01*
X49786663Y-83669063D01*
X49797790Y-83655505D01*
X49797795Y-83655500D01*
X49831100Y-83614917D01*
X49832631Y-83612054D01*
X49847236Y-83584729D01*
X51038204Y-84775698D01*
X51049337Y-84789263D01*
X51103484Y-84833701D01*
X51165260Y-84866721D01*
X51232290Y-84887054D01*
X51284537Y-84892200D01*
X51284545Y-84892200D01*
X51302000Y-84893919D01*
X51319455Y-84892200D01*
X53344000Y-84892200D01*
X53344000Y-84921035D01*
X53364498Y-85024087D01*
X53404707Y-85121160D01*
X53463081Y-85208523D01*
X53537377Y-85282819D01*
X53624740Y-85341193D01*
X53721813Y-85381402D01*
X53824865Y-85401900D01*
X53929935Y-85401900D01*
X54032987Y-85381402D01*
X54130060Y-85341193D01*
X54217423Y-85282819D01*
X54291719Y-85208523D01*
X54350093Y-85121160D01*
X54390302Y-85024087D01*
X54410800Y-84921035D01*
X54410800Y-84815965D01*
X54390302Y-84712913D01*
X54350093Y-84615840D01*
X54291719Y-84528477D01*
X54217423Y-84454181D01*
X54130060Y-84395807D01*
X54032987Y-84355598D01*
X53929935Y-84335100D01*
X53846893Y-84335100D01*
X53809298Y-84297505D01*
X53798163Y-84283937D01*
X53744016Y-84239499D01*
X53682240Y-84206479D01*
X53615210Y-84186146D01*
X53562963Y-84181000D01*
X53562955Y-84181000D01*
X53545500Y-84179281D01*
X53528045Y-84181000D01*
X51956719Y-84181000D01*
X51992293Y-84127760D01*
X52032502Y-84030687D01*
X52053000Y-83927635D01*
X52053000Y-83822565D01*
X52032502Y-83719513D01*
X51992293Y-83622440D01*
X51985183Y-83611799D01*
X52010276Y-83625211D01*
X52079701Y-83646271D01*
X52133807Y-83651600D01*
X52133815Y-83651600D01*
X52151900Y-83653381D01*
X52169985Y-83651600D01*
X53628215Y-83651600D01*
X53646300Y-83653381D01*
X53664385Y-83651600D01*
X53664393Y-83651600D01*
X53718499Y-83646271D01*
X53787924Y-83625211D01*
X53851907Y-83591012D01*
X53907987Y-83544987D01*
X53919522Y-83530932D01*
X54397454Y-83053000D01*
X56913928Y-83053000D01*
X56917000Y-83092250D01*
X57075750Y-83251000D01*
X57955000Y-83251000D01*
X57955000Y-82576750D01*
X57796250Y-82418000D01*
X57552000Y-82414928D01*
X57427518Y-82427188D01*
X57307820Y-82463498D01*
X57197506Y-82522463D01*
X57100815Y-82601815D01*
X57021463Y-82698506D01*
X56962498Y-82808820D01*
X56926188Y-82928518D01*
X56913928Y-83053000D01*
X54397454Y-83053000D01*
X54993555Y-82456900D01*
X55058635Y-82456900D01*
X55161687Y-82436402D01*
X55258760Y-82396193D01*
X55346123Y-82337819D01*
X55420419Y-82263523D01*
X55478793Y-82176160D01*
X55519002Y-82079087D01*
X55539500Y-81976035D01*
X55539500Y-81870965D01*
X55519002Y-81767913D01*
X55478793Y-81670840D01*
X55420419Y-81583477D01*
X55346123Y-81509181D01*
X55258760Y-81450807D01*
X55161687Y-81410598D01*
X55058635Y-81390100D01*
X54953565Y-81390100D01*
X54850513Y-81410598D01*
X54753440Y-81450807D01*
X54666077Y-81509181D01*
X54591781Y-81583477D01*
X54533407Y-81670840D01*
X54493198Y-81767913D01*
X54472700Y-81870965D01*
X54472700Y-81936045D01*
X53650284Y-82758461D01*
X53655700Y-82731235D01*
X53655700Y-82626165D01*
X53635202Y-82523113D01*
X53594993Y-82426040D01*
X53536619Y-82338677D01*
X53462323Y-82264381D01*
X53374960Y-82206007D01*
X53348502Y-82195048D01*
X53348502Y-82091252D01*
X53507250Y-82250000D01*
X53644742Y-82252913D01*
X53769467Y-82243437D01*
X53889946Y-82209811D01*
X54001550Y-82153326D01*
X54099990Y-82076154D01*
X54181484Y-81981260D01*
X54242898Y-81872291D01*
X54281874Y-81753435D01*
X54294000Y-81648750D01*
X54135250Y-81490000D01*
X54294000Y-81331250D01*
X54281874Y-81226565D01*
X54242898Y-81107709D01*
X54181484Y-80998740D01*
X54099990Y-80903846D01*
X54025692Y-80845600D01*
X59850745Y-80845600D01*
X59868200Y-80847319D01*
X59885655Y-80845600D01*
X59885663Y-80845600D01*
X59937910Y-80840454D01*
X60004940Y-80820121D01*
X60066716Y-80787101D01*
X60120863Y-80742663D01*
X60131999Y-80729094D01*
X60734694Y-80126400D01*
X60817735Y-80126400D01*
X60920787Y-80105902D01*
X61017860Y-80065693D01*
X61105223Y-80007319D01*
X61179519Y-79933023D01*
X61237893Y-79845660D01*
X61278102Y-79748587D01*
X61298600Y-79645535D01*
X61298600Y-79540465D01*
X61278102Y-79437413D01*
X61237893Y-79340340D01*
X61179519Y-79252977D01*
X61105223Y-79178681D01*
X61017860Y-79120307D01*
X60920787Y-79080098D01*
X60817735Y-79059600D01*
X60712665Y-79059600D01*
X60609613Y-79080098D01*
X60512540Y-79120307D01*
X60425177Y-79178681D01*
X60350881Y-79252977D01*
X60292507Y-79340340D01*
X60252298Y-79437413D01*
X60231800Y-79540465D01*
X60231800Y-79623506D01*
X59720907Y-80134400D01*
X59249593Y-80134400D01*
X60593794Y-78790200D01*
X60676835Y-78790200D01*
X60779887Y-78769702D01*
X60876960Y-78729493D01*
X60964323Y-78671119D01*
X61038619Y-78596823D01*
X61096993Y-78509460D01*
X61137202Y-78412387D01*
X61157700Y-78309335D01*
X61157700Y-78204265D01*
X61137202Y-78101213D01*
X61096993Y-78004140D01*
X61038619Y-77916777D01*
X60964323Y-77842481D01*
X60876960Y-77784107D01*
X60779887Y-77743898D01*
X60676835Y-77723400D01*
X60571765Y-77723400D01*
X60468713Y-77743898D01*
X60371640Y-77784107D01*
X60284277Y-77842481D01*
X60209981Y-77916777D01*
X60151607Y-78004140D01*
X60111398Y-78101213D01*
X60090900Y-78204265D01*
X60090900Y-78287306D01*
X58743807Y-79634400D01*
X55864942Y-79634400D01*
X55929519Y-79569823D01*
X55987893Y-79482460D01*
X56028102Y-79385387D01*
X56048600Y-79282335D01*
X56048600Y-79177265D01*
X56028102Y-79074213D01*
X55987893Y-78977140D01*
X55929519Y-78889777D01*
X55855223Y-78815481D01*
X55767860Y-78757107D01*
X55670787Y-78716898D01*
X55567735Y-78696400D01*
X55462665Y-78696400D01*
X55383488Y-78712149D01*
X55416402Y-78632687D01*
X55436900Y-78529635D01*
X55436900Y-78424565D01*
X55416402Y-78321513D01*
X55376193Y-78224440D01*
X55317819Y-78137077D01*
X55243523Y-78062781D01*
X55156160Y-78004407D01*
X55059087Y-77964198D01*
X54956035Y-77943700D01*
X54850965Y-77943700D01*
X54747913Y-77964198D01*
X54650840Y-78004407D01*
X54603258Y-78036200D01*
X54134302Y-78036200D01*
X54181484Y-77981260D01*
X54242898Y-77872291D01*
X54281874Y-77753435D01*
X54294000Y-77648750D01*
X54135250Y-77490000D01*
X54279650Y-77345600D01*
X62871758Y-77345600D01*
X62930477Y-77404319D01*
X63017840Y-77462693D01*
X63114913Y-77502902D01*
X63217965Y-77523400D01*
X63323035Y-77523400D01*
X63426087Y-77502902D01*
X63523160Y-77462693D01*
X63610523Y-77404319D01*
X63684819Y-77330023D01*
X63743193Y-77242660D01*
X63783402Y-77145587D01*
X63797984Y-77072277D01*
X64403606Y-77677900D01*
X64414737Y-77691463D01*
X64468884Y-77735901D01*
X64530660Y-77768921D01*
X64597690Y-77789254D01*
X64649937Y-77794400D01*
X64649945Y-77794400D01*
X64667400Y-77796119D01*
X64684855Y-77794400D01*
X67985845Y-77794400D01*
X68003300Y-77796119D01*
X68020755Y-77794400D01*
X68020763Y-77794400D01*
X68073010Y-77789254D01*
X68140040Y-77768921D01*
X68201816Y-77735901D01*
X68255963Y-77691463D01*
X68267098Y-77677895D01*
X68558782Y-77386212D01*
X68575946Y-77395692D01*
X68695134Y-77433643D01*
X68796449Y-77444600D01*
X68955199Y-77285850D01*
X68955199Y-76098400D01*
X68858999Y-76098400D01*
X68858999Y-75844400D01*
X68955199Y-75844400D01*
X68955199Y-75212300D01*
X69056799Y-75212300D01*
X69056799Y-75844400D01*
G37*
X69056799Y-75844400D02*
X69660049Y-75844400D01*
X69818799Y-75685650D01*
X69821421Y-75212300D01*
X70014107Y-75212300D01*
X70645109Y-75843302D01*
X70581660Y-75800907D01*
X70484587Y-75760698D01*
X70381535Y-75740200D01*
X70276465Y-75740200D01*
X70173413Y-75760698D01*
X70076340Y-75800907D01*
X69988977Y-75859281D01*
X69914681Y-75933577D01*
X69856307Y-76020940D01*
X69816098Y-76118013D01*
X69795600Y-76221065D01*
X69795600Y-76233951D01*
X69660049Y-76098400D01*
X69056799Y-76098400D01*
X69056799Y-77285850D01*
X69215549Y-77444600D01*
X69316864Y-77433643D01*
X69436052Y-77395692D01*
X69470812Y-77376494D01*
X68876107Y-77971200D01*
X67669855Y-77971200D01*
X67652400Y-77969481D01*
X67634945Y-77971200D01*
X67634937Y-77971200D01*
X67582690Y-77976346D01*
X67515660Y-77996679D01*
X67467233Y-78022564D01*
X67453884Y-78029699D01*
X67414916Y-78061680D01*
X67399737Y-78074137D01*
X67388606Y-78087700D01*
X66955058Y-78521249D01*
X66939436Y-78492023D01*
X66904521Y-78449479D01*
X66861977Y-78414564D01*
X66813439Y-78388620D01*
X66760772Y-78372644D01*
X66706000Y-78367249D01*
X66256000Y-78367249D01*
X66201228Y-78372644D01*
X66148561Y-78388620D01*
X66100023Y-78414564D01*
X66066692Y-78441918D01*
X66050960Y-78431407D01*
X65953887Y-78391198D01*
X65850835Y-78370700D01*
X65745765Y-78370700D01*
X65642713Y-78391198D01*
X65545640Y-78431407D01*
X65458277Y-78489781D01*
X65383981Y-78564077D01*
X65325607Y-78651440D01*
X65285398Y-78748513D01*
X65264900Y-78851565D01*
X65264900Y-78956635D01*
X65285398Y-79059687D01*
X65296788Y-79087184D01*
X65277113Y-79091098D01*
X65180040Y-79131307D01*
X65092677Y-79189681D01*
X65018381Y-79263977D01*
X64960007Y-79351340D01*
X64919798Y-79448413D01*
X64899300Y-79551465D01*
X64899300Y-79656535D01*
X64919798Y-79759587D01*
X64960007Y-79856660D01*
X65018381Y-79944023D01*
X65092677Y-80018319D01*
X65180040Y-80076693D01*
X65277113Y-80116902D01*
X65380165Y-80137400D01*
X65485235Y-80137400D01*
X65588287Y-80116902D01*
X65685360Y-80076693D01*
X65772723Y-80018319D01*
X65823315Y-79967727D01*
X65842760Y-79978121D01*
X65909790Y-79998454D01*
X65962037Y-80003600D01*
X65962046Y-80003600D01*
X65979499Y-80005319D01*
X65996952Y-80003600D01*
X66022362Y-80003600D01*
X66022564Y-80003977D01*
X66057479Y-80046521D01*
X66100023Y-80081436D01*
X66148561Y-80107380D01*
X66201228Y-80123356D01*
X66256000Y-80128751D01*
X66706000Y-80128751D01*
X66760772Y-80123356D01*
X66813439Y-80107380D01*
X66861977Y-80081436D01*
X66904521Y-80046521D01*
X66939436Y-80003977D01*
X66939638Y-80003600D01*
X66965037Y-80003600D01*
X66982500Y-80005320D01*
X66999963Y-80003600D01*
X67052210Y-79998454D01*
X67119240Y-79978121D01*
X67181016Y-79945101D01*
X67235163Y-79900663D01*
X67279601Y-79846516D01*
X67312621Y-79784740D01*
X67319036Y-79763591D01*
X67351228Y-79773356D01*
X67406000Y-79778751D01*
X67856000Y-79778751D01*
X67910772Y-79773356D01*
X67963439Y-79757380D01*
X68011977Y-79731436D01*
X68054521Y-79696521D01*
X68089436Y-79653977D01*
X68115380Y-79605439D01*
X68115938Y-79603600D01*
X70935545Y-79603600D01*
X70953000Y-79605319D01*
X70970455Y-79603600D01*
X70970463Y-79603600D01*
X71022710Y-79598454D01*
X71089740Y-79578121D01*
X71151516Y-79545101D01*
X71205663Y-79500663D01*
X71216799Y-79487094D01*
X74694531Y-76009364D01*
X74739587Y-76000402D01*
X74836660Y-75960193D01*
X74924023Y-75901819D01*
X74982742Y-75843100D01*
X76207845Y-75843100D01*
X76225300Y-75844819D01*
X76242755Y-75843100D01*
X76242763Y-75843100D01*
X76295010Y-75837954D01*
X76362040Y-75817621D01*
X76423816Y-75784601D01*
X76477963Y-75740163D01*
X76489098Y-75726595D01*
X76968109Y-75247586D01*
X76969901Y-75246115D01*
X76969901Y-76160044D01*
X76563763Y-76566183D01*
X76549713Y-76577714D01*
X76538183Y-76591763D01*
X76538179Y-76591767D01*
X76524381Y-76608580D01*
X76503688Y-76633794D01*
X76469489Y-76697777D01*
X76457489Y-76737337D01*
X76448429Y-76767201D01*
X76448135Y-76770189D01*
X76443100Y-76821308D01*
X76443100Y-76821315D01*
X76442387Y-76828559D01*
X76326572Y-76944374D01*
X76326566Y-76944379D01*
X76312524Y-76955902D01*
X76300990Y-76969955D01*
X75673160Y-77597786D01*
X75665907Y-77598500D01*
X74702093Y-77598500D01*
X74684000Y-77596718D01*
X74665907Y-77598500D01*
X74202093Y-77598500D01*
X74184000Y-77596718D01*
X74165907Y-77598500D01*
X74111801Y-77603829D01*
X74042376Y-77624889D01*
X73978393Y-77659088D01*
X73922313Y-77705113D01*
X73876288Y-77761193D01*
X73842089Y-77825176D01*
X73821029Y-77894601D01*
X73813918Y-77966800D01*
X73815701Y-77984902D01*
X73815701Y-78053194D01*
X73810479Y-78057479D01*
X73775564Y-78100023D01*
X73749620Y-78148561D01*
X73733644Y-78201228D01*
X73728249Y-78256000D01*
X73728249Y-78800249D01*
X73684000Y-78800249D01*
X73629228Y-78805644D01*
X73576561Y-78821620D01*
X73528023Y-78847564D01*
X73485479Y-78882479D01*
X73470772Y-78900400D01*
X73424963Y-78900400D01*
X73407500Y-78898680D01*
X73390037Y-78900400D01*
X73337790Y-78905546D01*
X73270760Y-78925879D01*
X73208984Y-78958899D01*
X73154837Y-79003337D01*
X73110399Y-79057484D01*
X73077379Y-79119260D01*
X73057046Y-79186290D01*
X73050180Y-79256000D01*
X73051900Y-79273464D01*
X73051901Y-79738527D01*
X73050180Y-79756000D01*
X73051901Y-79773473D01*
X73051900Y-80248800D01*
X73002155Y-80248800D01*
X72984699Y-80247081D01*
X72967244Y-80248800D01*
X72967237Y-80248800D01*
X72927790Y-80252685D01*
X72867535Y-80240700D01*
X72762465Y-80240700D01*
X72659413Y-80261198D01*
X72562340Y-80301407D01*
X72474977Y-80359781D01*
X72400681Y-80434077D01*
X72342307Y-80521440D01*
X72302098Y-80618513D01*
X72281600Y-80721565D01*
X72281600Y-80826635D01*
X72302098Y-80929687D01*
X72342307Y-81026760D01*
X72384500Y-81089907D01*
X71876099Y-80581506D01*
X71864963Y-80567937D01*
X71810816Y-80523499D01*
X71749040Y-80490479D01*
X71682010Y-80470146D01*
X71629763Y-80465000D01*
X71629755Y-80465000D01*
X71612300Y-80463281D01*
X71594845Y-80465000D01*
X65534355Y-80465000D01*
X65516899Y-80463281D01*
X65499444Y-80465000D01*
X65499437Y-80465000D01*
X65454087Y-80469467D01*
X65447189Y-80470146D01*
X65435078Y-80473820D01*
X65380160Y-80490479D01*
X65318384Y-80523499D01*
X65318382Y-80523500D01*
X65318383Y-80523500D01*
X65277800Y-80556805D01*
X65277795Y-80556810D01*
X65264237Y-80567937D01*
X65253110Y-80581495D01*
X63945207Y-81889400D01*
X63609542Y-81889400D01*
X63550823Y-81830681D01*
X63463460Y-81772307D01*
X63366387Y-81732098D01*
X63263335Y-81711600D01*
X63158265Y-81711600D01*
X63055213Y-81732098D01*
X62958140Y-81772307D01*
X62870777Y-81830681D01*
X62796481Y-81904977D01*
X62738107Y-81992340D01*
X62697898Y-82089413D01*
X62677400Y-82192465D01*
X62677400Y-82297535D01*
X62697898Y-82400587D01*
X62738107Y-82497660D01*
X62796481Y-82585023D01*
X62870777Y-82659319D01*
X62958140Y-82717693D01*
X63055213Y-82757902D01*
X63158265Y-82778400D01*
X63263335Y-82778400D01*
X63366387Y-82757902D01*
X63463460Y-82717693D01*
X63550823Y-82659319D01*
X63609542Y-82600600D01*
X63867207Y-82600600D01*
X64467305Y-83200700D01*
X64297042Y-83200700D01*
X64253523Y-83157181D01*
X64166160Y-83098807D01*
X64069087Y-83058598D01*
X63966035Y-83038100D01*
X63860965Y-83038100D01*
X63757913Y-83058598D01*
X63660840Y-83098807D01*
X63573477Y-83157181D01*
X63499181Y-83231477D01*
X63440807Y-83318840D01*
X63400598Y-83415913D01*
X63380100Y-83518965D01*
X63380100Y-83624035D01*
X63400598Y-83727087D01*
X63411166Y-83752600D01*
X63239094Y-83752600D01*
X61042699Y-81556206D01*
X61031563Y-81542637D01*
X60977416Y-81498199D01*
X60915640Y-81465179D01*
X60848610Y-81444846D01*
X60796363Y-81439700D01*
X60796355Y-81439700D01*
X60778900Y-81437981D01*
X60761445Y-81439700D01*
X59838342Y-81439700D01*
X59779623Y-81380981D01*
X59692260Y-81322607D01*
X59595187Y-81282398D01*
X59492135Y-81261900D01*
X59387065Y-81261900D01*
X59284013Y-81282398D01*
X59186940Y-81322607D01*
X59099577Y-81380981D01*
X59025281Y-81455277D01*
X58966907Y-81542640D01*
X58926698Y-81639713D01*
X58906200Y-81742765D01*
X58906200Y-81817495D01*
X58871035Y-81810500D01*
X58765965Y-81810500D01*
X58662913Y-81830998D01*
X58565840Y-81871207D01*
X58478477Y-81929581D01*
X58404181Y-82003877D01*
X58345807Y-82091240D01*
X58305598Y-82188313D01*
X58285100Y-82291365D01*
X58285100Y-82396435D01*
X58302390Y-82483360D01*
X58209000Y-82576750D01*
X58209000Y-83251000D01*
X58229000Y-83251000D01*
X58229000Y-83505000D01*
X58209000Y-83505000D01*
X58209000Y-83525000D01*
X57955000Y-83525000D01*
X57955000Y-83505000D01*
X57075750Y-83505000D01*
X56917000Y-83663750D01*
X56913928Y-83703000D01*
X56926188Y-83827482D01*
X56962498Y-83947180D01*
X57021463Y-84057494D01*
X57100815Y-84154185D01*
X57197506Y-84233537D01*
X57271249Y-84272954D01*
X57271249Y-84383046D01*
X57197506Y-84422463D01*
X57100815Y-84501815D01*
X57021463Y-84598506D01*
X56962498Y-84708820D01*
X56926188Y-84828518D01*
X56913928Y-84953000D01*
X56917000Y-84992250D01*
X57075750Y-85151000D01*
X57955000Y-85151000D01*
X57955000Y-85131000D01*
X58209000Y-85131000D01*
X58209000Y-85151000D01*
X58229000Y-85151000D01*
X58229000Y-85405000D01*
X58209000Y-85405000D01*
X58209000Y-85425000D01*
X57955000Y-85425000D01*
X57955000Y-85405000D01*
X57075750Y-85405000D01*
X57059250Y-85421500D01*
X53538045Y-85421500D01*
X53524393Y-85388540D01*
X53466019Y-85301177D01*
X53391723Y-85226881D01*
X53304360Y-85168507D01*
X53207287Y-85128298D01*
X53104235Y-85107800D01*
X52999165Y-85107800D01*
X52896113Y-85128298D01*
X52799040Y-85168507D01*
X52711677Y-85226881D01*
X52637381Y-85301177D01*
X52579007Y-85388540D01*
X52538798Y-85485613D01*
X52518300Y-85588665D01*
X52518300Y-85693735D01*
X52538798Y-85796787D01*
X52579007Y-85893860D01*
X52637381Y-85981223D01*
X52711677Y-86055519D01*
X52799040Y-86113893D01*
X52896113Y-86154102D01*
X52999165Y-86174600D01*
X53104235Y-86174600D01*
X53207287Y-86154102D01*
X53258956Y-86132700D01*
X56979807Y-86132700D01*
X57530100Y-86682994D01*
X57530100Y-86766035D01*
X57550598Y-86869087D01*
X57590807Y-86966160D01*
X57649181Y-87053523D01*
X57723477Y-87127819D01*
X57810840Y-87186193D01*
X57907913Y-87226402D01*
X58010965Y-87246900D01*
X58116035Y-87246900D01*
X58219087Y-87226402D01*
X58316160Y-87186193D01*
X58403523Y-87127819D01*
X58477819Y-87053523D01*
X58536193Y-86966160D01*
X58576402Y-86869087D01*
X58596900Y-86766035D01*
X58596900Y-86660965D01*
X58576402Y-86557913D01*
X58536193Y-86460840D01*
X58477819Y-86373477D01*
X58403523Y-86299181D01*
X58316160Y-86240807D01*
X58219087Y-86200598D01*
X58209002Y-86198592D01*
X58209002Y-86079252D01*
X58367750Y-86238000D01*
X58612000Y-86241072D01*
X58736482Y-86228812D01*
X58856180Y-86192502D01*
X58966494Y-86133537D01*
X59063185Y-86054185D01*
X59142537Y-85957494D01*
X59144105Y-85954560D01*
X59662683Y-86473138D01*
X59674213Y-86487187D01*
X59688262Y-86498717D01*
X59688266Y-86498721D01*
X59705079Y-86512519D01*
X59730293Y-86533212D01*
X59754067Y-86545919D01*
X59794275Y-86567411D01*
X59839567Y-86581150D01*
X59863701Y-86588471D01*
X59917807Y-86593800D01*
X59917815Y-86593800D01*
X59935900Y-86595581D01*
X59953985Y-86593800D01*
X60414058Y-86593800D01*
X60460077Y-86639819D01*
X60547440Y-86698193D01*
X60644513Y-86738402D01*
X60747565Y-86758900D01*
X60812646Y-86758900D01*
X62684995Y-88631249D01*
X62253954Y-88631249D01*
X62214537Y-88557506D01*
X62135185Y-88460815D01*
X62038494Y-88381463D01*
X61928180Y-88322498D01*
X61808482Y-88286188D01*
X61684000Y-88273928D01*
X61469750Y-88277000D01*
X61311000Y-88435750D01*
X61311000Y-89535000D01*
X61331000Y-89535000D01*
X61331000Y-89789000D01*
X61311000Y-89789000D01*
X61311000Y-89809000D01*
X61057000Y-89809000D01*
X61057000Y-89789000D01*
X60207750Y-89789000D01*
X60049000Y-89947750D01*
X60046148Y-90378700D01*
X54822095Y-90378700D01*
X54439698Y-89996305D01*
X54428563Y-89982737D01*
X54374416Y-89938299D01*
X54312640Y-89905279D01*
X54245610Y-89884946D01*
X54193363Y-89879800D01*
X54193355Y-89879800D01*
X54175900Y-89878081D01*
X54158445Y-89879800D01*
X46317194Y-89879800D01*
X45985976Y-89548583D01*
X46018060Y-89535293D01*
X46105423Y-89476919D01*
X46164142Y-89418200D01*
X46555945Y-89418200D01*
X46573400Y-89419919D01*
X46590855Y-89418200D01*
X46590863Y-89418200D01*
X46643110Y-89413054D01*
X46710140Y-89392721D01*
X46771916Y-89359701D01*
X46826063Y-89315263D01*
X46837199Y-89301694D01*
X47226893Y-88912000D01*
X60045928Y-88912000D01*
X60049000Y-89376250D01*
X60207750Y-89535000D01*
X61057000Y-89535000D01*
X61057000Y-88435750D01*
X60898250Y-88277000D01*
X60684000Y-88273928D01*
X60559518Y-88286188D01*
X60439820Y-88322498D01*
X60329506Y-88381463D01*
X60232815Y-88460815D01*
X60153463Y-88557506D01*
X60094498Y-88667820D01*
X60058188Y-88787518D01*
X60045928Y-88912000D01*
X47226893Y-88912000D01*
X47751194Y-88387700D01*
X47930566Y-88461998D01*
X48148764Y-88505400D01*
X48371236Y-88505400D01*
X48589434Y-88461998D01*
X48794972Y-88376862D01*
X48979951Y-88253263D01*
X49137263Y-88095951D01*
X49260862Y-87910972D01*
X49345998Y-87705434D01*
X49389400Y-87487236D01*
X49389400Y-87264764D01*
X49670600Y-87264764D01*
X49670600Y-87487236D01*
X49714002Y-87705434D01*
X49799138Y-87910972D01*
X49922737Y-88095951D01*
X50080049Y-88253263D01*
X50265028Y-88376862D01*
X50470566Y-88461998D01*
X50688764Y-88505400D01*
X50911236Y-88505400D01*
X51129434Y-88461998D01*
X51334972Y-88376862D01*
X51519951Y-88253263D01*
X51677263Y-88095951D01*
X51800862Y-87910972D01*
X51885998Y-87705434D01*
X51929400Y-87487236D01*
X51929400Y-87264764D01*
X52210600Y-87264764D01*
X52210600Y-87487236D01*
X52254002Y-87705434D01*
X52339138Y-87910972D01*
X52462737Y-88095951D01*
X52620049Y-88253263D01*
X52805028Y-88376862D01*
X53010566Y-88461998D01*
X53228764Y-88505400D01*
X53451236Y-88505400D01*
X53669434Y-88461998D01*
X53874972Y-88376862D01*
X54059951Y-88253263D01*
X54217263Y-88095951D01*
X54340862Y-87910972D01*
X54425998Y-87705434D01*
X54469400Y-87487236D01*
X54469400Y-87264764D01*
X54425998Y-87046566D01*
X54340862Y-86841028D01*
X54217263Y-86656049D01*
X54059951Y-86498737D01*
X53874972Y-86375138D01*
X53669434Y-86290002D01*
X53451236Y-86246600D01*
X53228764Y-86246600D01*
X53010566Y-86290002D01*
X52805028Y-86375138D01*
X52620049Y-86498737D01*
X52462737Y-86656049D01*
X52339138Y-86841028D01*
X52254002Y-87046566D01*
X52210600Y-87264764D01*
X51929400Y-87264764D01*
X51885998Y-87046566D01*
X51800862Y-86841028D01*
X51677263Y-86656049D01*
X51519951Y-86498737D01*
X51334972Y-86375138D01*
X51129434Y-86290002D01*
X50911236Y-86246600D01*
X50688764Y-86246600D01*
X50470566Y-86290002D01*
X50265028Y-86375138D01*
X50080049Y-86498737D01*
X49922737Y-86656049D01*
X49799138Y-86841028D01*
X49714002Y-87046566D01*
X49670600Y-87264764D01*
X49389400Y-87264764D01*
X49345998Y-87046566D01*
X49260862Y-86841028D01*
X49137263Y-86656049D01*
X48979951Y-86498737D01*
X48794972Y-86375138D01*
X48589434Y-86290002D01*
X48371236Y-86246600D01*
X48148764Y-86246600D01*
X47930566Y-86290002D01*
X47725028Y-86375138D01*
X47540049Y-86498737D01*
X47382737Y-86656049D01*
X47259138Y-86841028D01*
X47205654Y-86970151D01*
X47208072Y-86526000D01*
X47195812Y-86401518D01*
X47159502Y-86281820D01*
X47100537Y-86171506D01*
X47021185Y-86074815D01*
X46924494Y-85995463D01*
X46814180Y-85936498D01*
X46694482Y-85900188D01*
X46570000Y-85887928D01*
X46005750Y-85891000D01*
X45847002Y-86049748D01*
X45847002Y-85931491D01*
X47139660Y-84638834D01*
X47147707Y-84658260D01*
X47206081Y-84745623D01*
X47280377Y-84819919D01*
X47367740Y-84878293D01*
X47464813Y-84918502D01*
X47567865Y-84939000D01*
X47672935Y-84939000D01*
X47775987Y-84918502D01*
X47873060Y-84878293D01*
X47910257Y-84853439D01*
X47955281Y-84920823D01*
X48029577Y-84995119D01*
X48116940Y-85053493D01*
X48214013Y-85093702D01*
X48317065Y-85114200D01*
X48422135Y-85114200D01*
X48525187Y-85093702D01*
X48622260Y-85053493D01*
X48709623Y-84995119D01*
X48783919Y-84920823D01*
X48842293Y-84833460D01*
X48882502Y-84736387D01*
X48903000Y-84633335D01*
X48903000Y-84550293D01*
X49773105Y-83680190D01*
X49786663Y-83669063D01*
X49797790Y-83655505D01*
X49797795Y-83655500D01*
X49831100Y-83614917D01*
X49832631Y-83612054D01*
X49847236Y-83584729D01*
X51038204Y-84775698D01*
X51049337Y-84789263D01*
X51103484Y-84833701D01*
X51165260Y-84866721D01*
X51232290Y-84887054D01*
X51284537Y-84892200D01*
X51284545Y-84892200D01*
X51302000Y-84893919D01*
X51319455Y-84892200D01*
X53344000Y-84892200D01*
X53344000Y-84921035D01*
X53364498Y-85024087D01*
X53404707Y-85121160D01*
X53463081Y-85208523D01*
X53537377Y-85282819D01*
X53624740Y-85341193D01*
X53721813Y-85381402D01*
X53824865Y-85401900D01*
X53929935Y-85401900D01*
X54032987Y-85381402D01*
X54130060Y-85341193D01*
X54217423Y-85282819D01*
X54291719Y-85208523D01*
X54350093Y-85121160D01*
X54390302Y-85024087D01*
X54410800Y-84921035D01*
X54410800Y-84815965D01*
X54390302Y-84712913D01*
X54350093Y-84615840D01*
X54291719Y-84528477D01*
X54217423Y-84454181D01*
X54130060Y-84395807D01*
X54032987Y-84355598D01*
X53929935Y-84335100D01*
X53846893Y-84335100D01*
X53809298Y-84297505D01*
X53798163Y-84283937D01*
X53744016Y-84239499D01*
X53682240Y-84206479D01*
X53615210Y-84186146D01*
X53562963Y-84181000D01*
X53562955Y-84181000D01*
X53545500Y-84179281D01*
X53528045Y-84181000D01*
X51956719Y-84181000D01*
X51992293Y-84127760D01*
X52032502Y-84030687D01*
X52053000Y-83927635D01*
X52053000Y-83822565D01*
X52032502Y-83719513D01*
X51992293Y-83622440D01*
X51985183Y-83611799D01*
X52010276Y-83625211D01*
X52079701Y-83646271D01*
X52133807Y-83651600D01*
X52133815Y-83651600D01*
X52151900Y-83653381D01*
X52169985Y-83651600D01*
X53628215Y-83651600D01*
X53646300Y-83653381D01*
X53664385Y-83651600D01*
X53664393Y-83651600D01*
X53718499Y-83646271D01*
X53787924Y-83625211D01*
X53851907Y-83591012D01*
X53907987Y-83544987D01*
X53919522Y-83530932D01*
X54397454Y-83053000D01*
X56913928Y-83053000D01*
X56917000Y-83092250D01*
X57075750Y-83251000D01*
X57955000Y-83251000D01*
X57955000Y-82576750D01*
X57796250Y-82418000D01*
X57552000Y-82414928D01*
X57427518Y-82427188D01*
X57307820Y-82463498D01*
X57197506Y-82522463D01*
X57100815Y-82601815D01*
X57021463Y-82698506D01*
X56962498Y-82808820D01*
X56926188Y-82928518D01*
X56913928Y-83053000D01*
X54397454Y-83053000D01*
X54993555Y-82456900D01*
X55058635Y-82456900D01*
X55161687Y-82436402D01*
X55258760Y-82396193D01*
X55346123Y-82337819D01*
X55420419Y-82263523D01*
X55478793Y-82176160D01*
X55519002Y-82079087D01*
X55539500Y-81976035D01*
X55539500Y-81870965D01*
X55519002Y-81767913D01*
X55478793Y-81670840D01*
X55420419Y-81583477D01*
X55346123Y-81509181D01*
X55258760Y-81450807D01*
X55161687Y-81410598D01*
X55058635Y-81390100D01*
X54953565Y-81390100D01*
X54850513Y-81410598D01*
X54753440Y-81450807D01*
X54666077Y-81509181D01*
X54591781Y-81583477D01*
X54533407Y-81670840D01*
X54493198Y-81767913D01*
X54472700Y-81870965D01*
X54472700Y-81936045D01*
X53650284Y-82758461D01*
X53655700Y-82731235D01*
X53655700Y-82626165D01*
X53635202Y-82523113D01*
X53594993Y-82426040D01*
X53536619Y-82338677D01*
X53462323Y-82264381D01*
X53374960Y-82206007D01*
X53348502Y-82195048D01*
X53348502Y-82091252D01*
X53507250Y-82250000D01*
X53644742Y-82252913D01*
X53769467Y-82243437D01*
X53889946Y-82209811D01*
X54001550Y-82153326D01*
X54099990Y-82076154D01*
X54181484Y-81981260D01*
X54242898Y-81872291D01*
X54281874Y-81753435D01*
X54294000Y-81648750D01*
X54135250Y-81490000D01*
X54294000Y-81331250D01*
X54281874Y-81226565D01*
X54242898Y-81107709D01*
X54181484Y-80998740D01*
X54099990Y-80903846D01*
X54025692Y-80845600D01*
X59850745Y-80845600D01*
X59868200Y-80847319D01*
X59885655Y-80845600D01*
X59885663Y-80845600D01*
X59937910Y-80840454D01*
X60004940Y-80820121D01*
X60066716Y-80787101D01*
X60120863Y-80742663D01*
X60131999Y-80729094D01*
X60734694Y-80126400D01*
X60817735Y-80126400D01*
X60920787Y-80105902D01*
X61017860Y-80065693D01*
X61105223Y-80007319D01*
X61179519Y-79933023D01*
X61237893Y-79845660D01*
X61278102Y-79748587D01*
X61298600Y-79645535D01*
X61298600Y-79540465D01*
X61278102Y-79437413D01*
X61237893Y-79340340D01*
X61179519Y-79252977D01*
X61105223Y-79178681D01*
X61017860Y-79120307D01*
X60920787Y-79080098D01*
X60817735Y-79059600D01*
X60712665Y-79059600D01*
X60609613Y-79080098D01*
X60512540Y-79120307D01*
X60425177Y-79178681D01*
X60350881Y-79252977D01*
X60292507Y-79340340D01*
X60252298Y-79437413D01*
X60231800Y-79540465D01*
X60231800Y-79623506D01*
X59720907Y-80134400D01*
X59249593Y-80134400D01*
X60593794Y-78790200D01*
X60676835Y-78790200D01*
X60779887Y-78769702D01*
X60876960Y-78729493D01*
X60964323Y-78671119D01*
X61038619Y-78596823D01*
X61096993Y-78509460D01*
X61137202Y-78412387D01*
X61157700Y-78309335D01*
X61157700Y-78204265D01*
X61137202Y-78101213D01*
X61096993Y-78004140D01*
X61038619Y-77916777D01*
X60964323Y-77842481D01*
X60876960Y-77784107D01*
X60779887Y-77743898D01*
X60676835Y-77723400D01*
X60571765Y-77723400D01*
X60468713Y-77743898D01*
X60371640Y-77784107D01*
X60284277Y-77842481D01*
X60209981Y-77916777D01*
X60151607Y-78004140D01*
X60111398Y-78101213D01*
X60090900Y-78204265D01*
X60090900Y-78287306D01*
X58743807Y-79634400D01*
X55864942Y-79634400D01*
X55929519Y-79569823D01*
X55987893Y-79482460D01*
X56028102Y-79385387D01*
X56048600Y-79282335D01*
X56048600Y-79177265D01*
X56028102Y-79074213D01*
X55987893Y-78977140D01*
X55929519Y-78889777D01*
X55855223Y-78815481D01*
X55767860Y-78757107D01*
X55670787Y-78716898D01*
X55567735Y-78696400D01*
X55462665Y-78696400D01*
X55383488Y-78712149D01*
X55416402Y-78632687D01*
X55436900Y-78529635D01*
X55436900Y-78424565D01*
X55416402Y-78321513D01*
X55376193Y-78224440D01*
X55317819Y-78137077D01*
X55243523Y-78062781D01*
X55156160Y-78004407D01*
X55059087Y-77964198D01*
X54956035Y-77943700D01*
X54850965Y-77943700D01*
X54747913Y-77964198D01*
X54650840Y-78004407D01*
X54603258Y-78036200D01*
X54134302Y-78036200D01*
X54181484Y-77981260D01*
X54242898Y-77872291D01*
X54281874Y-77753435D01*
X54294000Y-77648750D01*
X54135250Y-77490000D01*
X54279650Y-77345600D01*
X62871758Y-77345600D01*
X62930477Y-77404319D01*
X63017840Y-77462693D01*
X63114913Y-77502902D01*
X63217965Y-77523400D01*
X63323035Y-77523400D01*
X63426087Y-77502902D01*
X63523160Y-77462693D01*
X63610523Y-77404319D01*
X63684819Y-77330023D01*
X63743193Y-77242660D01*
X63783402Y-77145587D01*
X63797984Y-77072277D01*
X64403606Y-77677900D01*
X64414737Y-77691463D01*
X64468884Y-77735901D01*
X64530660Y-77768921D01*
X64597690Y-77789254D01*
X64649937Y-77794400D01*
X64649945Y-77794400D01*
X64667400Y-77796119D01*
X64684855Y-77794400D01*
X67985845Y-77794400D01*
X68003300Y-77796119D01*
X68020755Y-77794400D01*
X68020763Y-77794400D01*
X68073010Y-77789254D01*
X68140040Y-77768921D01*
X68201816Y-77735901D01*
X68255963Y-77691463D01*
X68267098Y-77677895D01*
X68558782Y-77386212D01*
X68575946Y-77395692D01*
X68695134Y-77433643D01*
X68796449Y-77444600D01*
X68955199Y-77285850D01*
X68955199Y-76098400D01*
X68858999Y-76098400D01*
X68858999Y-75844400D01*
X68955199Y-75844400D01*
X68955199Y-75212300D01*
X69056799Y-75212300D01*
X69056799Y-75844400D01*
G36*
X41399607Y-81498500D02*
G01*
X41316565Y-81498500D01*
X41213513Y-81518998D01*
X41116440Y-81559207D01*
X41029077Y-81617581D01*
X40954781Y-81691877D01*
X40896407Y-81779240D01*
X40856198Y-81876313D01*
X40835700Y-81979365D01*
X40835700Y-82084435D01*
X40856198Y-82187487D01*
X40896407Y-82284560D01*
X40954781Y-82371923D01*
X41029077Y-82446219D01*
X41116440Y-82504593D01*
X41213513Y-82544802D01*
X41316565Y-82565300D01*
X41421635Y-82565300D01*
X41524687Y-82544802D01*
X41621760Y-82504593D01*
X41709123Y-82446219D01*
X41783419Y-82371923D01*
X41841793Y-82284560D01*
X41882002Y-82187487D01*
X41902500Y-82084435D01*
X41902500Y-82001393D01*
X43058294Y-80845600D01*
X45542308Y-80845600D01*
X45468010Y-80903846D01*
X45386516Y-80998740D01*
X45325102Y-81107709D01*
X45286126Y-81226565D01*
X45274000Y-81331250D01*
X45432750Y-81490000D01*
X45274000Y-81648750D01*
X45286126Y-81753435D01*
X45325102Y-81872291D01*
X45386516Y-81981260D01*
X45468010Y-82076154D01*
X45566450Y-82153326D01*
X45678054Y-82209811D01*
X45798533Y-82243437D01*
X45923258Y-82252913D01*
X46060750Y-82250000D01*
X46219500Y-82091250D01*
X46219500Y-81395751D01*
X46473500Y-81395751D01*
X46473500Y-82091250D01*
X46628249Y-82245999D01*
X46628249Y-82552500D01*
X46634844Y-82619465D01*
X46654377Y-82683856D01*
X46678401Y-82728801D01*
X46678401Y-83096505D01*
X46553940Y-83220967D01*
X46545893Y-83201540D01*
X46487519Y-83114177D01*
X46413223Y-83039881D01*
X46325860Y-82981507D01*
X46228787Y-82941298D01*
X46125735Y-82920800D01*
X46020665Y-82920800D01*
X45917613Y-82941298D01*
X45820540Y-82981507D01*
X45733177Y-83039881D01*
X45674458Y-83098600D01*
X45614152Y-83098600D01*
X45596699Y-83096881D01*
X45579246Y-83098600D01*
X45579237Y-83098600D01*
X45526990Y-83103746D01*
X45459960Y-83124079D01*
X45398184Y-83157099D01*
X45398182Y-83157100D01*
X45398183Y-83157100D01*
X45357600Y-83190405D01*
X45357595Y-83190410D01*
X45344037Y-83201537D01*
X45332910Y-83215095D01*
X43021701Y-85526306D01*
X43008138Y-85537437D01*
X42963700Y-85591584D01*
X42963071Y-85592761D01*
X42930680Y-85653359D01*
X42910346Y-85720390D01*
X42903481Y-85790100D01*
X42905201Y-85807565D01*
X42905200Y-87015758D01*
X42846481Y-87074477D01*
X42788107Y-87161840D01*
X42747898Y-87258913D01*
X42727400Y-87361965D01*
X42727400Y-87467035D01*
X42747898Y-87570087D01*
X42788107Y-87667160D01*
X42846481Y-87754523D01*
X42920777Y-87828819D01*
X43008140Y-87887193D01*
X43105213Y-87927402D01*
X43208265Y-87947900D01*
X43313335Y-87947900D01*
X43416387Y-87927402D01*
X43493101Y-87895626D01*
X43493101Y-88584346D01*
X38096654Y-83187900D01*
X38140735Y-83187900D01*
X38243787Y-83167402D01*
X38340860Y-83127193D01*
X38428223Y-83068819D01*
X38502519Y-82994523D01*
X38560893Y-82907160D01*
X38601102Y-82810087D01*
X38621600Y-82707035D01*
X38621600Y-82623993D01*
X40899994Y-80345600D01*
X42552506Y-80345600D01*
X41399607Y-81498500D01*
G37*
X41399607Y-81498500D02*
X41316565Y-81498500D01*
X41213513Y-81518998D01*
X41116440Y-81559207D01*
X41029077Y-81617581D01*
X40954781Y-81691877D01*
X40896407Y-81779240D01*
X40856198Y-81876313D01*
X40835700Y-81979365D01*
X40835700Y-82084435D01*
X40856198Y-82187487D01*
X40896407Y-82284560D01*
X40954781Y-82371923D01*
X41029077Y-82446219D01*
X41116440Y-82504593D01*
X41213513Y-82544802D01*
X41316565Y-82565300D01*
X41421635Y-82565300D01*
X41524687Y-82544802D01*
X41621760Y-82504593D01*
X41709123Y-82446219D01*
X41783419Y-82371923D01*
X41841793Y-82284560D01*
X41882002Y-82187487D01*
X41902500Y-82084435D01*
X41902500Y-82001393D01*
X43058294Y-80845600D01*
X45542308Y-80845600D01*
X45468010Y-80903846D01*
X45386516Y-80998740D01*
X45325102Y-81107709D01*
X45286126Y-81226565D01*
X45274000Y-81331250D01*
X45432750Y-81490000D01*
X45274000Y-81648750D01*
X45286126Y-81753435D01*
X45325102Y-81872291D01*
X45386516Y-81981260D01*
X45468010Y-82076154D01*
X45566450Y-82153326D01*
X45678054Y-82209811D01*
X45798533Y-82243437D01*
X45923258Y-82252913D01*
X46060750Y-82250000D01*
X46219500Y-82091250D01*
X46219500Y-81395751D01*
X46473500Y-81395751D01*
X46473500Y-82091250D01*
X46628249Y-82245999D01*
X46628249Y-82552500D01*
X46634844Y-82619465D01*
X46654377Y-82683856D01*
X46678401Y-82728801D01*
X46678401Y-83096505D01*
X46553940Y-83220967D01*
X46545893Y-83201540D01*
X46487519Y-83114177D01*
X46413223Y-83039881D01*
X46325860Y-82981507D01*
X46228787Y-82941298D01*
X46125735Y-82920800D01*
X46020665Y-82920800D01*
X45917613Y-82941298D01*
X45820540Y-82981507D01*
X45733177Y-83039881D01*
X45674458Y-83098600D01*
X45614152Y-83098600D01*
X45596699Y-83096881D01*
X45579246Y-83098600D01*
X45579237Y-83098600D01*
X45526990Y-83103746D01*
X45459960Y-83124079D01*
X45398184Y-83157099D01*
X45398182Y-83157100D01*
X45398183Y-83157100D01*
X45357600Y-83190405D01*
X45357595Y-83190410D01*
X45344037Y-83201537D01*
X45332910Y-83215095D01*
X43021701Y-85526306D01*
X43008138Y-85537437D01*
X42963700Y-85591584D01*
X42963071Y-85592761D01*
X42930680Y-85653359D01*
X42910346Y-85720390D01*
X42903481Y-85790100D01*
X42905201Y-85807565D01*
X42905200Y-87015758D01*
X42846481Y-87074477D01*
X42788107Y-87161840D01*
X42747898Y-87258913D01*
X42727400Y-87361965D01*
X42727400Y-87467035D01*
X42747898Y-87570087D01*
X42788107Y-87667160D01*
X42846481Y-87754523D01*
X42920777Y-87828819D01*
X43008140Y-87887193D01*
X43105213Y-87927402D01*
X43208265Y-87947900D01*
X43313335Y-87947900D01*
X43416387Y-87927402D01*
X43493101Y-87895626D01*
X43493101Y-88584346D01*
X38096654Y-83187900D01*
X38140735Y-83187900D01*
X38243787Y-83167402D01*
X38340860Y-83127193D01*
X38428223Y-83068819D01*
X38502519Y-82994523D01*
X38560893Y-82907160D01*
X38601102Y-82810087D01*
X38621600Y-82707035D01*
X38621600Y-82623993D01*
X40899994Y-80345600D01*
X42552506Y-80345600D01*
X41399607Y-81498500D01*
G36*
X45847000Y-87249000D02*
G01*
X45867000Y-87249000D01*
X45867000Y-87503000D01*
X45847000Y-87503000D01*
X45847000Y-87523000D01*
X45593000Y-87523000D01*
X45593000Y-87503000D01*
X45573000Y-87503000D01*
X45573000Y-87249000D01*
X45593000Y-87249000D01*
X45593000Y-87229000D01*
X45847000Y-87229000D01*
X45847000Y-87249000D01*
G37*
X45847000Y-87249000D02*
X45867000Y-87249000D01*
X45867000Y-87503000D01*
X45847000Y-87503000D01*
X45847000Y-87523000D01*
X45593000Y-87523000D01*
X45593000Y-87503000D01*
X45573000Y-87503000D01*
X45573000Y-87249000D01*
X45593000Y-87249000D01*
X45593000Y-87229000D01*
X45847000Y-87229000D01*
X45847000Y-87249000D01*
G36*
X41519306Y-79634400D02*
G01*
X40770155Y-79634400D01*
X40752699Y-79632681D01*
X40735244Y-79634400D01*
X40735237Y-79634400D01*
X40689887Y-79638867D01*
X40682989Y-79639546D01*
X40659739Y-79646599D01*
X40615960Y-79659879D01*
X40554184Y-79692899D01*
X40554182Y-79692900D01*
X40554183Y-79692900D01*
X40515985Y-79724249D01*
X40500037Y-79737337D01*
X40488906Y-79750900D01*
X38118707Y-82121100D01*
X38035665Y-82121100D01*
X37932613Y-82141598D01*
X37835540Y-82181807D01*
X37748177Y-82240181D01*
X37673881Y-82314477D01*
X37615507Y-82401840D01*
X37575298Y-82498913D01*
X37554800Y-82601965D01*
X37554800Y-82646046D01*
X37011500Y-82102746D01*
X37011500Y-81880777D01*
X37062000Y-81885751D01*
X38122000Y-81885751D01*
X38176772Y-81880356D01*
X38229439Y-81864380D01*
X38277977Y-81838436D01*
X38320521Y-81803521D01*
X38355436Y-81760977D01*
X38381380Y-81712439D01*
X38397356Y-81659772D01*
X38402751Y-81605000D01*
X38402751Y-80955000D01*
X38397356Y-80900228D01*
X38381380Y-80847561D01*
X38355436Y-80799023D01*
X38320521Y-80756479D01*
X38277977Y-80721564D01*
X38229439Y-80695620D01*
X38176772Y-80679644D01*
X38122000Y-80674249D01*
X37062000Y-80674249D01*
X37011500Y-80679223D01*
X37011500Y-80338098D01*
X37062000Y-80343072D01*
X37306250Y-80340000D01*
X37465000Y-80181250D01*
X37465000Y-79507000D01*
X37719000Y-79507000D01*
X37719000Y-80181250D01*
X37877750Y-80340000D01*
X38122000Y-80343072D01*
X38246482Y-80330812D01*
X38366180Y-80294502D01*
X38476494Y-80235537D01*
X38573185Y-80156185D01*
X38652537Y-80059494D01*
X38711502Y-79949180D01*
X38747812Y-79829482D01*
X38760072Y-79705000D01*
X38757000Y-79665750D01*
X38598250Y-79507000D01*
X37719000Y-79507000D01*
X37465000Y-79507000D01*
X37445000Y-79507000D01*
X37445000Y-79253000D01*
X37465000Y-79253000D01*
X37465000Y-79233000D01*
X37719000Y-79233000D01*
X37719000Y-79253000D01*
X38598250Y-79253000D01*
X38736550Y-79114700D01*
X40999607Y-79114700D01*
X41519306Y-79634400D01*
G37*
X41519306Y-79634400D02*
X40770155Y-79634400D01*
X40752699Y-79632681D01*
X40735244Y-79634400D01*
X40735237Y-79634400D01*
X40689887Y-79638867D01*
X40682989Y-79639546D01*
X40659739Y-79646599D01*
X40615960Y-79659879D01*
X40554184Y-79692899D01*
X40554182Y-79692900D01*
X40554183Y-79692900D01*
X40515985Y-79724249D01*
X40500037Y-79737337D01*
X40488906Y-79750900D01*
X38118707Y-82121100D01*
X38035665Y-82121100D01*
X37932613Y-82141598D01*
X37835540Y-82181807D01*
X37748177Y-82240181D01*
X37673881Y-82314477D01*
X37615507Y-82401840D01*
X37575298Y-82498913D01*
X37554800Y-82601965D01*
X37554800Y-82646046D01*
X37011500Y-82102746D01*
X37011500Y-81880777D01*
X37062000Y-81885751D01*
X38122000Y-81885751D01*
X38176772Y-81880356D01*
X38229439Y-81864380D01*
X38277977Y-81838436D01*
X38320521Y-81803521D01*
X38355436Y-81760977D01*
X38381380Y-81712439D01*
X38397356Y-81659772D01*
X38402751Y-81605000D01*
X38402751Y-80955000D01*
X38397356Y-80900228D01*
X38381380Y-80847561D01*
X38355436Y-80799023D01*
X38320521Y-80756479D01*
X38277977Y-80721564D01*
X38229439Y-80695620D01*
X38176772Y-80679644D01*
X38122000Y-80674249D01*
X37062000Y-80674249D01*
X37011500Y-80679223D01*
X37011500Y-80338098D01*
X37062000Y-80343072D01*
X37306250Y-80340000D01*
X37465000Y-80181250D01*
X37465000Y-79507000D01*
X37719000Y-79507000D01*
X37719000Y-80181250D01*
X37877750Y-80340000D01*
X38122000Y-80343072D01*
X38246482Y-80330812D01*
X38366180Y-80294502D01*
X38476494Y-80235537D01*
X38573185Y-80156185D01*
X38652537Y-80059494D01*
X38711502Y-79949180D01*
X38747812Y-79829482D01*
X38760072Y-79705000D01*
X38757000Y-79665750D01*
X38598250Y-79507000D01*
X37719000Y-79507000D01*
X37465000Y-79507000D01*
X37445000Y-79507000D01*
X37445000Y-79253000D01*
X37465000Y-79253000D01*
X37465000Y-79233000D01*
X37719000Y-79233000D01*
X37719000Y-79253000D01*
X38598250Y-79253000D01*
X38736550Y-79114700D01*
X40999607Y-79114700D01*
X41519306Y-79634400D01*
G36*
X52441450Y-82153326D02*
G01*
X52553054Y-82209811D01*
X52659000Y-82239381D01*
X52659000Y-82304500D01*
X52439751Y-82304500D01*
X52439751Y-82151994D01*
X52441450Y-82153326D01*
G37*
X52441450Y-82153326D02*
X52553054Y-82209811D01*
X52659000Y-82239381D01*
X52659000Y-82304500D01*
X52439751Y-82304500D01*
X52439751Y-82151994D01*
X52441450Y-82153326D01*
G36*
X53348500Y-81615000D02*
G01*
X53283381Y-81615000D01*
X53253811Y-81509054D01*
X53197326Y-81397450D01*
X53195994Y-81395751D01*
X53348500Y-81395751D01*
X53348500Y-81615000D01*
G37*
X53348500Y-81615000D02*
X53283381Y-81615000D01*
X53253811Y-81509054D01*
X53197326Y-81397450D01*
X53195994Y-81395751D01*
X53348500Y-81395751D01*
X53348500Y-81615000D01*
G36*
X53348500Y-77584249D02*
G01*
X53094500Y-77584249D01*
X53094500Y-77395751D01*
X53348500Y-77395751D01*
X53348500Y-77584249D01*
G37*
X53348500Y-77584249D02*
X53094500Y-77584249D01*
X53094500Y-77395751D01*
X53348500Y-77395751D01*
X53348500Y-77584249D01*
G36*
X69856307Y-76526260D02*
G01*
X69914681Y-76613623D01*
X69973400Y-76672342D01*
X69973400Y-76873905D01*
X69749791Y-77097515D01*
X69776599Y-77045660D01*
X69811261Y-76925474D01*
X69821811Y-76800836D01*
X69819802Y-76438128D01*
X69856307Y-76526260D01*
G37*
X69856307Y-76526260D02*
X69914681Y-76613623D01*
X69973400Y-76672342D01*
X69973400Y-76873905D01*
X69749791Y-77097515D01*
X69776599Y-77045660D01*
X69811261Y-76925474D01*
X69821811Y-76800836D01*
X69819802Y-76438128D01*
X69856307Y-76526260D01*
G36*
X46370674Y-74522450D02*
G01*
X46314189Y-74634054D01*
X46280563Y-74754533D01*
X46271087Y-74879258D01*
X46274000Y-75016750D01*
X46432750Y-75175500D01*
X47128249Y-75175500D01*
X47128249Y-75429500D01*
X46432750Y-75429500D01*
X46360822Y-75501428D01*
X45357293Y-74497900D01*
X46389920Y-74497900D01*
X46370674Y-74522450D01*
G37*
X46370674Y-74522450D02*
X46314189Y-74634054D01*
X46280563Y-74754533D01*
X46271087Y-74879258D01*
X46274000Y-75016750D01*
X46432750Y-75175500D01*
X47128249Y-75175500D01*
X47128249Y-75429500D01*
X46432750Y-75429500D01*
X46360822Y-75501428D01*
X45357293Y-74497900D01*
X46389920Y-74497900D01*
X46370674Y-74522450D01*
G36*
X46005000Y-62303000D02*
G01*
X46054000Y-62303000D01*
X46054000Y-62449000D01*
X46005000Y-62449000D01*
X46005000Y-62523000D01*
X45809000Y-62523000D01*
X45809000Y-62449000D01*
X45760000Y-62449000D01*
X45760000Y-62303000D01*
X45809000Y-62303000D01*
X45809000Y-62229000D01*
X46005000Y-62229000D01*
X46005000Y-62303000D01*
G37*
X46005000Y-62303000D02*
X46054000Y-62303000D01*
X46054000Y-62449000D01*
X46005000Y-62449000D01*
X46005000Y-62523000D01*
X45809000Y-62523000D01*
X45809000Y-62449000D01*
X45760000Y-62449000D01*
X45760000Y-62303000D01*
X45809000Y-62303000D01*
X45809000Y-62229000D01*
X46005000Y-62229000D01*
X46005000Y-62303000D01*
G36*
X76835000Y-61849000D02*
G01*
X76855000Y-61849000D01*
X76855000Y-62103000D01*
X76835000Y-62103000D01*
X76835000Y-62123000D01*
X76581000Y-62123000D01*
X76581000Y-62103000D01*
X76561000Y-62103000D01*
X76561000Y-61849000D01*
X76581000Y-61849000D01*
X76581000Y-61829000D01*
X76835000Y-61829000D01*
X76835000Y-61849000D01*
G37*
X76835000Y-61849000D02*
X76855000Y-61849000D01*
X76855000Y-62103000D01*
X76835000Y-62103000D01*
X76835000Y-62123000D01*
X76581000Y-62123000D01*
X76581000Y-62103000D01*
X76561000Y-62103000D01*
X76561000Y-61849000D01*
X76581000Y-61849000D01*
X76581000Y-61829000D01*
X76835000Y-61829000D01*
X76835000Y-61849000D01*
M02*
