G04 #@! TF.GenerationSoftware,KiCad,Pcbnew,(5.1.6)-1*
G04 #@! TF.CreationDate,2020-09-08T19:34:43-04:00*
G04 #@! TF.ProjectId,PayloadPrototypeBoard,5061796c-6f61-4645-9072-6f746f747970,rev?*
G04 #@! TF.SameCoordinates,Original*
G04 #@! TF.FileFunction,Legend,Bot*
G04 #@! TF.FilePolarity,Positive*
%FSLAX46Y46*%
G04 Gerber Fmt 4.6, Leading zero omitted, Abs format (unit mm)*
G04 Created by KiCad (PCBNEW (5.1.6)-1) date 2020-09-08 19:34:43*
%MOMM*%
%LPD*%
G01*
G04 APERTURE LIST*
%ADD10C,0.152400*%
%ADD11C,0.120000*%
G04 APERTURE END LIST*
D10*
X69487142Y-64721014D02*
X69487142Y-63959014D01*
X69196857Y-63959014D01*
X69124285Y-63995300D01*
X69088000Y-64031585D01*
X69051714Y-64104157D01*
X69051714Y-64213014D01*
X69088000Y-64285585D01*
X69124285Y-64321871D01*
X69196857Y-64358157D01*
X69487142Y-64358157D01*
X68398571Y-64721014D02*
X68398571Y-64321871D01*
X68434857Y-64249300D01*
X68507428Y-64213014D01*
X68652571Y-64213014D01*
X68725142Y-64249300D01*
X68398571Y-64684728D02*
X68471142Y-64721014D01*
X68652571Y-64721014D01*
X68725142Y-64684728D01*
X68761428Y-64612157D01*
X68761428Y-64539585D01*
X68725142Y-64467014D01*
X68652571Y-64430728D01*
X68471142Y-64430728D01*
X68398571Y-64394442D01*
X68108285Y-64213014D02*
X67926857Y-64721014D01*
X67745428Y-64213014D02*
X67926857Y-64721014D01*
X67999428Y-64902442D01*
X68035714Y-64938728D01*
X68108285Y-64975014D01*
X67346285Y-64721014D02*
X67418857Y-64684728D01*
X67455142Y-64612157D01*
X67455142Y-63959014D01*
X66947142Y-64721014D02*
X67019714Y-64684728D01*
X67056000Y-64648442D01*
X67092285Y-64575871D01*
X67092285Y-64358157D01*
X67056000Y-64285585D01*
X67019714Y-64249300D01*
X66947142Y-64213014D01*
X66838285Y-64213014D01*
X66765714Y-64249300D01*
X66729428Y-64285585D01*
X66693142Y-64358157D01*
X66693142Y-64575871D01*
X66729428Y-64648442D01*
X66765714Y-64684728D01*
X66838285Y-64721014D01*
X66947142Y-64721014D01*
X66040000Y-64721014D02*
X66040000Y-64321871D01*
X66076285Y-64249300D01*
X66148857Y-64213014D01*
X66294000Y-64213014D01*
X66366571Y-64249300D01*
X66040000Y-64684728D02*
X66112571Y-64721014D01*
X66294000Y-64721014D01*
X66366571Y-64684728D01*
X66402857Y-64612157D01*
X66402857Y-64539585D01*
X66366571Y-64467014D01*
X66294000Y-64430728D01*
X66112571Y-64430728D01*
X66040000Y-64394442D01*
X65350571Y-64721014D02*
X65350571Y-63959014D01*
X65350571Y-64684728D02*
X65423142Y-64721014D01*
X65568285Y-64721014D01*
X65640857Y-64684728D01*
X65677142Y-64648442D01*
X65713428Y-64575871D01*
X65713428Y-64358157D01*
X65677142Y-64285585D01*
X65640857Y-64249300D01*
X65568285Y-64213014D01*
X65423142Y-64213014D01*
X65350571Y-64249300D01*
X64407142Y-64721014D02*
X64407142Y-63959014D01*
X64116857Y-63959014D01*
X64044285Y-63995300D01*
X64008000Y-64031585D01*
X63971714Y-64104157D01*
X63971714Y-64213014D01*
X64008000Y-64285585D01*
X64044285Y-64321871D01*
X64116857Y-64358157D01*
X64407142Y-64358157D01*
X63645142Y-64721014D02*
X63645142Y-64213014D01*
X63645142Y-64358157D02*
X63608857Y-64285585D01*
X63572571Y-64249300D01*
X63500000Y-64213014D01*
X63427428Y-64213014D01*
X63064571Y-64721014D02*
X63137142Y-64684728D01*
X63173428Y-64648442D01*
X63209714Y-64575871D01*
X63209714Y-64358157D01*
X63173428Y-64285585D01*
X63137142Y-64249300D01*
X63064571Y-64213014D01*
X62955714Y-64213014D01*
X62883142Y-64249300D01*
X62846857Y-64285585D01*
X62810571Y-64358157D01*
X62810571Y-64575871D01*
X62846857Y-64648442D01*
X62883142Y-64684728D01*
X62955714Y-64721014D01*
X63064571Y-64721014D01*
X62592857Y-64213014D02*
X62302571Y-64213014D01*
X62484000Y-63959014D02*
X62484000Y-64612157D01*
X62447714Y-64684728D01*
X62375142Y-64721014D01*
X62302571Y-64721014D01*
X61939714Y-64721014D02*
X62012285Y-64684728D01*
X62048571Y-64648442D01*
X62084857Y-64575871D01*
X62084857Y-64358157D01*
X62048571Y-64285585D01*
X62012285Y-64249300D01*
X61939714Y-64213014D01*
X61830857Y-64213014D01*
X61758285Y-64249300D01*
X61722000Y-64285585D01*
X61685714Y-64358157D01*
X61685714Y-64575871D01*
X61722000Y-64648442D01*
X61758285Y-64684728D01*
X61830857Y-64721014D01*
X61939714Y-64721014D01*
X61468000Y-64213014D02*
X61177714Y-64213014D01*
X61359142Y-63959014D02*
X61359142Y-64612157D01*
X61322857Y-64684728D01*
X61250285Y-64721014D01*
X61177714Y-64721014D01*
X60996285Y-64213014D02*
X60814857Y-64721014D01*
X60633428Y-64213014D02*
X60814857Y-64721014D01*
X60887428Y-64902442D01*
X60923714Y-64938728D01*
X60996285Y-64975014D01*
X60343142Y-64213014D02*
X60343142Y-64975014D01*
X60343142Y-64249300D02*
X60270571Y-64213014D01*
X60125428Y-64213014D01*
X60052857Y-64249300D01*
X60016571Y-64285585D01*
X59980285Y-64358157D01*
X59980285Y-64575871D01*
X60016571Y-64648442D01*
X60052857Y-64684728D01*
X60125428Y-64721014D01*
X60270571Y-64721014D01*
X60343142Y-64684728D01*
X59363428Y-64684728D02*
X59436000Y-64721014D01*
X59581142Y-64721014D01*
X59653714Y-64684728D01*
X59690000Y-64612157D01*
X59690000Y-64321871D01*
X59653714Y-64249300D01*
X59581142Y-64213014D01*
X59436000Y-64213014D01*
X59363428Y-64249300D01*
X59327142Y-64321871D01*
X59327142Y-64394442D01*
X59690000Y-64467014D01*
X58166000Y-64321871D02*
X58057142Y-64358157D01*
X58020857Y-64394442D01*
X57984571Y-64467014D01*
X57984571Y-64575871D01*
X58020857Y-64648442D01*
X58057142Y-64684728D01*
X58129714Y-64721014D01*
X58420000Y-64721014D01*
X58420000Y-63959014D01*
X58166000Y-63959014D01*
X58093428Y-63995300D01*
X58057142Y-64031585D01*
X58020857Y-64104157D01*
X58020857Y-64176728D01*
X58057142Y-64249300D01*
X58093428Y-64285585D01*
X58166000Y-64321871D01*
X58420000Y-64321871D01*
X57549142Y-64721014D02*
X57621714Y-64684728D01*
X57658000Y-64648442D01*
X57694285Y-64575871D01*
X57694285Y-64358157D01*
X57658000Y-64285585D01*
X57621714Y-64249300D01*
X57549142Y-64213014D01*
X57440285Y-64213014D01*
X57367714Y-64249300D01*
X57331428Y-64285585D01*
X57295142Y-64358157D01*
X57295142Y-64575871D01*
X57331428Y-64648442D01*
X57367714Y-64684728D01*
X57440285Y-64721014D01*
X57549142Y-64721014D01*
X56642000Y-64721014D02*
X56642000Y-64321871D01*
X56678285Y-64249300D01*
X56750857Y-64213014D01*
X56896000Y-64213014D01*
X56968571Y-64249300D01*
X56642000Y-64684728D02*
X56714571Y-64721014D01*
X56896000Y-64721014D01*
X56968571Y-64684728D01*
X57004857Y-64612157D01*
X57004857Y-64539585D01*
X56968571Y-64467014D01*
X56896000Y-64430728D01*
X56714571Y-64430728D01*
X56642000Y-64394442D01*
X56279142Y-64721014D02*
X56279142Y-64213014D01*
X56279142Y-64358157D02*
X56242857Y-64285585D01*
X56206571Y-64249300D01*
X56134000Y-64213014D01*
X56061428Y-64213014D01*
X55480857Y-64721014D02*
X55480857Y-63959014D01*
X55480857Y-64684728D02*
X55553428Y-64721014D01*
X55698571Y-64721014D01*
X55771142Y-64684728D01*
X55807428Y-64648442D01*
X55843714Y-64575871D01*
X55843714Y-64358157D01*
X55807428Y-64285585D01*
X55771142Y-64249300D01*
X55698571Y-64213014D01*
X55553428Y-64213014D01*
X55480857Y-64249300D01*
X54646285Y-63959014D02*
X54392285Y-64721014D01*
X54138285Y-63959014D01*
X53739142Y-63959014D02*
X53666571Y-63959014D01*
X53594000Y-63995300D01*
X53557714Y-64031585D01*
X53521428Y-64104157D01*
X53485142Y-64249300D01*
X53485142Y-64430728D01*
X53521428Y-64575871D01*
X53557714Y-64648442D01*
X53594000Y-64684728D01*
X53666571Y-64721014D01*
X53739142Y-64721014D01*
X53811714Y-64684728D01*
X53848000Y-64648442D01*
X53884285Y-64575871D01*
X53920571Y-64430728D01*
X53920571Y-64249300D01*
X53884285Y-64104157D01*
X53848000Y-64031585D01*
X53811714Y-63995300D01*
X53739142Y-63959014D01*
X53158571Y-64648442D02*
X53122285Y-64684728D01*
X53158571Y-64721014D01*
X53194857Y-64684728D01*
X53158571Y-64648442D01*
X53158571Y-64721014D01*
X52396571Y-64721014D02*
X52832000Y-64721014D01*
X52614285Y-64721014D02*
X52614285Y-63959014D01*
X52686857Y-64067871D01*
X52759428Y-64140442D01*
X52832000Y-64176728D01*
X67074142Y-65254414D02*
X67074142Y-65798700D01*
X67110428Y-65907557D01*
X67183000Y-65980128D01*
X67291857Y-66016414D01*
X67364428Y-66016414D01*
X66421000Y-65980128D02*
X66493571Y-66016414D01*
X66638714Y-66016414D01*
X66711285Y-65980128D01*
X66747571Y-65907557D01*
X66747571Y-65617271D01*
X66711285Y-65544700D01*
X66638714Y-65508414D01*
X66493571Y-65508414D01*
X66421000Y-65544700D01*
X66384714Y-65617271D01*
X66384714Y-65689842D01*
X66747571Y-65762414D01*
X66058142Y-66016414D02*
X66058142Y-65508414D01*
X66058142Y-65653557D02*
X66021857Y-65580985D01*
X65985571Y-65544700D01*
X65913000Y-65508414D01*
X65840428Y-65508414D01*
X65296142Y-65980128D02*
X65368714Y-66016414D01*
X65513857Y-66016414D01*
X65586428Y-65980128D01*
X65622714Y-65907557D01*
X65622714Y-65617271D01*
X65586428Y-65544700D01*
X65513857Y-65508414D01*
X65368714Y-65508414D01*
X65296142Y-65544700D01*
X65259857Y-65617271D01*
X65259857Y-65689842D01*
X65622714Y-65762414D01*
X64933285Y-66016414D02*
X64933285Y-65508414D01*
X64933285Y-65580985D02*
X64897000Y-65544700D01*
X64824428Y-65508414D01*
X64715571Y-65508414D01*
X64643000Y-65544700D01*
X64606714Y-65617271D01*
X64606714Y-66016414D01*
X64606714Y-65617271D02*
X64570428Y-65544700D01*
X64497857Y-65508414D01*
X64389000Y-65508414D01*
X64316428Y-65544700D01*
X64280142Y-65617271D01*
X64280142Y-66016414D01*
X63989857Y-65508414D02*
X63808428Y-66016414D01*
X63627000Y-65508414D02*
X63808428Y-66016414D01*
X63881000Y-66197842D01*
X63917285Y-66234128D01*
X63989857Y-66270414D01*
X62756142Y-66016414D02*
X62756142Y-65254414D01*
X62574714Y-65254414D01*
X62465857Y-65290700D01*
X62393285Y-65363271D01*
X62357000Y-65435842D01*
X62320714Y-65580985D01*
X62320714Y-65689842D01*
X62357000Y-65834985D01*
X62393285Y-65907557D01*
X62465857Y-65980128D01*
X62574714Y-66016414D01*
X62756142Y-66016414D01*
X61667571Y-65508414D02*
X61667571Y-66016414D01*
X61994142Y-65508414D02*
X61994142Y-65907557D01*
X61957857Y-65980128D01*
X61885285Y-66016414D01*
X61776428Y-66016414D01*
X61703857Y-65980128D01*
X61667571Y-65943842D01*
X61304714Y-65508414D02*
X61304714Y-66016414D01*
X61304714Y-65580985D02*
X61268428Y-65544700D01*
X61195857Y-65508414D01*
X61087000Y-65508414D01*
X61014428Y-65544700D01*
X60978142Y-65617271D01*
X60978142Y-66016414D01*
X60615285Y-65508414D02*
X60615285Y-66016414D01*
X60615285Y-65580985D02*
X60579000Y-65544700D01*
X60506428Y-65508414D01*
X60397571Y-65508414D01*
X60325000Y-65544700D01*
X60288714Y-65617271D01*
X60288714Y-66016414D01*
X59635571Y-65980128D02*
X59708142Y-66016414D01*
X59853285Y-66016414D01*
X59925857Y-65980128D01*
X59962142Y-65907557D01*
X59962142Y-65617271D01*
X59925857Y-65544700D01*
X59853285Y-65508414D01*
X59708142Y-65508414D01*
X59635571Y-65544700D01*
X59599285Y-65617271D01*
X59599285Y-65689842D01*
X59962142Y-65762414D01*
X58655857Y-66016414D02*
X58510714Y-66016414D01*
X58438142Y-65980128D01*
X58401857Y-65943842D01*
X58329285Y-65834985D01*
X58293000Y-65689842D01*
X58293000Y-65399557D01*
X58329285Y-65326985D01*
X58365571Y-65290700D01*
X58438142Y-65254414D01*
X58583285Y-65254414D01*
X58655857Y-65290700D01*
X58692142Y-65326985D01*
X58728428Y-65399557D01*
X58728428Y-65580985D01*
X58692142Y-65653557D01*
X58655857Y-65689842D01*
X58583285Y-65726128D01*
X58438142Y-65726128D01*
X58365571Y-65689842D01*
X58329285Y-65653557D01*
X58293000Y-65580985D01*
X57422142Y-65218128D02*
X58075285Y-66197842D01*
X57204428Y-65326985D02*
X57168142Y-65290700D01*
X57095571Y-65254414D01*
X56914142Y-65254414D01*
X56841571Y-65290700D01*
X56805285Y-65326985D01*
X56769000Y-65399557D01*
X56769000Y-65472128D01*
X56805285Y-65580985D01*
X57240714Y-66016414D01*
X56769000Y-66016414D01*
X56297285Y-65254414D02*
X56224714Y-65254414D01*
X56152142Y-65290700D01*
X56115857Y-65326985D01*
X56079571Y-65399557D01*
X56043285Y-65544700D01*
X56043285Y-65726128D01*
X56079571Y-65871271D01*
X56115857Y-65943842D01*
X56152142Y-65980128D01*
X56224714Y-66016414D01*
X56297285Y-66016414D01*
X56369857Y-65980128D01*
X56406142Y-65943842D01*
X56442428Y-65871271D01*
X56478714Y-65726128D01*
X56478714Y-65544700D01*
X56442428Y-65399557D01*
X56406142Y-65326985D01*
X56369857Y-65290700D01*
X56297285Y-65254414D01*
X55753000Y-65326985D02*
X55716714Y-65290700D01*
X55644142Y-65254414D01*
X55462714Y-65254414D01*
X55390142Y-65290700D01*
X55353857Y-65326985D01*
X55317571Y-65399557D01*
X55317571Y-65472128D01*
X55353857Y-65580985D01*
X55789285Y-66016414D01*
X55317571Y-66016414D01*
X54845857Y-65254414D02*
X54773285Y-65254414D01*
X54700714Y-65290700D01*
X54664428Y-65326985D01*
X54628142Y-65399557D01*
X54591857Y-65544700D01*
X54591857Y-65726128D01*
X54628142Y-65871271D01*
X54664428Y-65943842D01*
X54700714Y-65980128D01*
X54773285Y-66016414D01*
X54845857Y-66016414D01*
X54918428Y-65980128D01*
X54954714Y-65943842D01*
X54991000Y-65871271D01*
X55027285Y-65726128D01*
X55027285Y-65544700D01*
X54991000Y-65399557D01*
X54954714Y-65326985D01*
X54918428Y-65290700D01*
X54845857Y-65254414D01*
D11*
X43310000Y-77188000D02*
X43310000Y-78088000D01*
X43660000Y-77188000D02*
X43310000Y-77188000D01*
X27460000Y-60988000D02*
X27860000Y-60988000D01*
X27460000Y-77188000D02*
X27460000Y-60988000D01*
X27860000Y-77188000D02*
X27460000Y-77188000D01*
X43660000Y-60988000D02*
X43260000Y-60988000D01*
X43660000Y-77188000D02*
X43660000Y-60988000D01*
X51306000Y-98643221D02*
X51306000Y-98968779D01*
X52326000Y-98643221D02*
X52326000Y-98968779D01*
X52326000Y-94071221D02*
X52326000Y-94396779D01*
X51306000Y-94071221D02*
X51306000Y-94396779D01*
X41053936Y-84434000D02*
X42258064Y-84434000D01*
X41053936Y-86254000D02*
X42258064Y-86254000D01*
X42258064Y-81386000D02*
X41053936Y-81386000D01*
X42258064Y-83206000D02*
X41053936Y-83206000D01*
D10*
X38782171Y-68623542D02*
X39275657Y-68623542D01*
X39333714Y-68652571D01*
X39362742Y-68681600D01*
X39391771Y-68739657D01*
X39391771Y-68855771D01*
X39362742Y-68913828D01*
X39333714Y-68942857D01*
X39275657Y-68971885D01*
X38782171Y-68971885D01*
X38782171Y-69204114D02*
X38782171Y-69610514D01*
X39391771Y-69349257D01*
X50509714Y-98414114D02*
X50538742Y-98385085D01*
X50567771Y-98298000D01*
X50567771Y-98239942D01*
X50538742Y-98152857D01*
X50480685Y-98094800D01*
X50422628Y-98065771D01*
X50306514Y-98036742D01*
X50219428Y-98036742D01*
X50103314Y-98065771D01*
X50045257Y-98094800D01*
X49987200Y-98152857D01*
X49958171Y-98239942D01*
X49958171Y-98298000D01*
X49987200Y-98385085D01*
X50016228Y-98414114D01*
X50567771Y-98994685D02*
X50567771Y-98646342D01*
X50567771Y-98820514D02*
X49958171Y-98820514D01*
X50045257Y-98762457D01*
X50103314Y-98704400D01*
X50132342Y-98646342D01*
X50161371Y-99517200D02*
X50567771Y-99517200D01*
X49929142Y-99372057D02*
X50364571Y-99226914D01*
X50364571Y-99604285D01*
X58521600Y-68797714D02*
X58550628Y-68826742D01*
X58637714Y-68855771D01*
X58695771Y-68855771D01*
X58782857Y-68826742D01*
X58840914Y-68768685D01*
X58869942Y-68710628D01*
X58898971Y-68594514D01*
X58898971Y-68507428D01*
X58869942Y-68391314D01*
X58840914Y-68333257D01*
X58782857Y-68275200D01*
X58695771Y-68246171D01*
X58637714Y-68246171D01*
X58550628Y-68275200D01*
X58521600Y-68304228D01*
X57941028Y-68855771D02*
X58289371Y-68855771D01*
X58115200Y-68855771D02*
X58115200Y-68246171D01*
X58173257Y-68333257D01*
X58231314Y-68391314D01*
X58289371Y-68420342D01*
X50255714Y-77622400D02*
X50284742Y-77593371D01*
X50313771Y-77506285D01*
X50313771Y-77448228D01*
X50284742Y-77361142D01*
X50226685Y-77303085D01*
X50168628Y-77274057D01*
X50052514Y-77245028D01*
X49965428Y-77245028D01*
X49849314Y-77274057D01*
X49791257Y-77303085D01*
X49733200Y-77361142D01*
X49704171Y-77448228D01*
X49704171Y-77506285D01*
X49733200Y-77593371D01*
X49762228Y-77622400D01*
X49762228Y-77854628D02*
X49733200Y-77883657D01*
X49704171Y-77941714D01*
X49704171Y-78086857D01*
X49733200Y-78144914D01*
X49762228Y-78173942D01*
X49820285Y-78202971D01*
X49878342Y-78202971D01*
X49965428Y-78173942D01*
X50313771Y-77825600D01*
X50313771Y-78202971D01*
X46699714Y-81178400D02*
X46728742Y-81149371D01*
X46757771Y-81062285D01*
X46757771Y-81004228D01*
X46728742Y-80917142D01*
X46670685Y-80859085D01*
X46612628Y-80830057D01*
X46496514Y-80801028D01*
X46409428Y-80801028D01*
X46293314Y-80830057D01*
X46235257Y-80859085D01*
X46177200Y-80917142D01*
X46148171Y-81004228D01*
X46148171Y-81062285D01*
X46177200Y-81149371D01*
X46206228Y-81178400D01*
X46148171Y-81381600D02*
X46148171Y-81758971D01*
X46380400Y-81555771D01*
X46380400Y-81642857D01*
X46409428Y-81700914D01*
X46438457Y-81729942D01*
X46496514Y-81758971D01*
X46641657Y-81758971D01*
X46699714Y-81729942D01*
X46728742Y-81700914D01*
X46757771Y-81642857D01*
X46757771Y-81468685D01*
X46728742Y-81410628D01*
X46699714Y-81381600D01*
X52933600Y-68831714D02*
X52962628Y-68860742D01*
X53049714Y-68889771D01*
X53107771Y-68889771D01*
X53194857Y-68860742D01*
X53252914Y-68802685D01*
X53281942Y-68744628D01*
X53310971Y-68628514D01*
X53310971Y-68541428D01*
X53281942Y-68425314D01*
X53252914Y-68367257D01*
X53194857Y-68309200D01*
X53107771Y-68280171D01*
X53049714Y-68280171D01*
X52962628Y-68309200D01*
X52933600Y-68338228D01*
X52411085Y-68483371D02*
X52411085Y-68889771D01*
X52556228Y-68251142D02*
X52701371Y-68686571D01*
X52324000Y-68686571D01*
X47853600Y-64733714D02*
X47882628Y-64762742D01*
X47969714Y-64791771D01*
X48027771Y-64791771D01*
X48114857Y-64762742D01*
X48172914Y-64704685D01*
X48201942Y-64646628D01*
X48230971Y-64530514D01*
X48230971Y-64443428D01*
X48201942Y-64327314D01*
X48172914Y-64269257D01*
X48114857Y-64211200D01*
X48027771Y-64182171D01*
X47969714Y-64182171D01*
X47882628Y-64211200D01*
X47853600Y-64240228D01*
X47302057Y-64182171D02*
X47592342Y-64182171D01*
X47621371Y-64472457D01*
X47592342Y-64443428D01*
X47534285Y-64414400D01*
X47389142Y-64414400D01*
X47331085Y-64443428D01*
X47302057Y-64472457D01*
X47273028Y-64530514D01*
X47273028Y-64675657D01*
X47302057Y-64733714D01*
X47331085Y-64762742D01*
X47389142Y-64791771D01*
X47534285Y-64791771D01*
X47592342Y-64762742D01*
X47621371Y-64733714D01*
X52425600Y-82513714D02*
X52454628Y-82542742D01*
X52541714Y-82571771D01*
X52599771Y-82571771D01*
X52686857Y-82542742D01*
X52744914Y-82484685D01*
X52773942Y-82426628D01*
X52802971Y-82310514D01*
X52802971Y-82223428D01*
X52773942Y-82107314D01*
X52744914Y-82049257D01*
X52686857Y-81991200D01*
X52599771Y-81962171D01*
X52541714Y-81962171D01*
X52454628Y-81991200D01*
X52425600Y-82020228D01*
X51903085Y-81962171D02*
X52019200Y-81962171D01*
X52077257Y-81991200D01*
X52106285Y-82020228D01*
X52164342Y-82107314D01*
X52193371Y-82223428D01*
X52193371Y-82455657D01*
X52164342Y-82513714D01*
X52135314Y-82542742D01*
X52077257Y-82571771D01*
X51961142Y-82571771D01*
X51903085Y-82542742D01*
X51874057Y-82513714D01*
X51845028Y-82455657D01*
X51845028Y-82310514D01*
X51874057Y-82252457D01*
X51903085Y-82223428D01*
X51961142Y-82194400D01*
X52077257Y-82194400D01*
X52135314Y-82223428D01*
X52164342Y-82252457D01*
X52193371Y-82310514D01*
X52425600Y-79973714D02*
X52454628Y-80002742D01*
X52541714Y-80031771D01*
X52599771Y-80031771D01*
X52686857Y-80002742D01*
X52744914Y-79944685D01*
X52773942Y-79886628D01*
X52802971Y-79770514D01*
X52802971Y-79683428D01*
X52773942Y-79567314D01*
X52744914Y-79509257D01*
X52686857Y-79451200D01*
X52599771Y-79422171D01*
X52541714Y-79422171D01*
X52454628Y-79451200D01*
X52425600Y-79480228D01*
X52222400Y-79422171D02*
X51816000Y-79422171D01*
X52077257Y-80031771D01*
X59029600Y-71845714D02*
X59058628Y-71874742D01*
X59145714Y-71903771D01*
X59203771Y-71903771D01*
X59290857Y-71874742D01*
X59348914Y-71816685D01*
X59377942Y-71758628D01*
X59406971Y-71642514D01*
X59406971Y-71555428D01*
X59377942Y-71439314D01*
X59348914Y-71381257D01*
X59290857Y-71323200D01*
X59203771Y-71294171D01*
X59145714Y-71294171D01*
X59058628Y-71323200D01*
X59029600Y-71352228D01*
X58681257Y-71555428D02*
X58739314Y-71526400D01*
X58768342Y-71497371D01*
X58797371Y-71439314D01*
X58797371Y-71410285D01*
X58768342Y-71352228D01*
X58739314Y-71323200D01*
X58681257Y-71294171D01*
X58565142Y-71294171D01*
X58507085Y-71323200D01*
X58478057Y-71352228D01*
X58449028Y-71410285D01*
X58449028Y-71439314D01*
X58478057Y-71497371D01*
X58507085Y-71526400D01*
X58565142Y-71555428D01*
X58681257Y-71555428D01*
X58739314Y-71584457D01*
X58768342Y-71613485D01*
X58797371Y-71671542D01*
X58797371Y-71787657D01*
X58768342Y-71845714D01*
X58739314Y-71874742D01*
X58681257Y-71903771D01*
X58565142Y-71903771D01*
X58507085Y-71874742D01*
X58478057Y-71845714D01*
X58449028Y-71787657D01*
X58449028Y-71671542D01*
X58478057Y-71613485D01*
X58507085Y-71584457D01*
X58565142Y-71555428D01*
X53049714Y-77622400D02*
X53078742Y-77593371D01*
X53107771Y-77506285D01*
X53107771Y-77448228D01*
X53078742Y-77361142D01*
X53020685Y-77303085D01*
X52962628Y-77274057D01*
X52846514Y-77245028D01*
X52759428Y-77245028D01*
X52643314Y-77274057D01*
X52585257Y-77303085D01*
X52527200Y-77361142D01*
X52498171Y-77448228D01*
X52498171Y-77506285D01*
X52527200Y-77593371D01*
X52556228Y-77622400D01*
X53107771Y-77912685D02*
X53107771Y-78028800D01*
X53078742Y-78086857D01*
X53049714Y-78115885D01*
X52962628Y-78173942D01*
X52846514Y-78202971D01*
X52614285Y-78202971D01*
X52556228Y-78173942D01*
X52527200Y-78144914D01*
X52498171Y-78086857D01*
X52498171Y-77970742D01*
X52527200Y-77912685D01*
X52556228Y-77883657D01*
X52614285Y-77854628D01*
X52759428Y-77854628D01*
X52817485Y-77883657D01*
X52846514Y-77912685D01*
X52875542Y-77970742D01*
X52875542Y-78086857D01*
X52846514Y-78144914D01*
X52817485Y-78173942D01*
X52759428Y-78202971D01*
X47635885Y-77941714D02*
X47664914Y-77970742D01*
X47752000Y-77999771D01*
X47810057Y-77999771D01*
X47897142Y-77970742D01*
X47955200Y-77912685D01*
X47984228Y-77854628D01*
X48013257Y-77738514D01*
X48013257Y-77651428D01*
X47984228Y-77535314D01*
X47955200Y-77477257D01*
X47897142Y-77419200D01*
X47810057Y-77390171D01*
X47752000Y-77390171D01*
X47664914Y-77419200D01*
X47635885Y-77448228D01*
X47055314Y-77999771D02*
X47403657Y-77999771D01*
X47229485Y-77999771D02*
X47229485Y-77390171D01*
X47287542Y-77477257D01*
X47345600Y-77535314D01*
X47403657Y-77564342D01*
X46677942Y-77390171D02*
X46619885Y-77390171D01*
X46561828Y-77419200D01*
X46532800Y-77448228D01*
X46503771Y-77506285D01*
X46474742Y-77622400D01*
X46474742Y-77767542D01*
X46503771Y-77883657D01*
X46532800Y-77941714D01*
X46561828Y-77970742D01*
X46619885Y-77999771D01*
X46677942Y-77999771D01*
X46736000Y-77970742D01*
X46765028Y-77941714D01*
X46794057Y-77883657D01*
X46823085Y-77767542D01*
X46823085Y-77622400D01*
X46794057Y-77506285D01*
X46765028Y-77448228D01*
X46736000Y-77419200D01*
X46677942Y-77390171D01*
X59065885Y-73369714D02*
X59094914Y-73398742D01*
X59182000Y-73427771D01*
X59240057Y-73427771D01*
X59327142Y-73398742D01*
X59385200Y-73340685D01*
X59414228Y-73282628D01*
X59443257Y-73166514D01*
X59443257Y-73079428D01*
X59414228Y-72963314D01*
X59385200Y-72905257D01*
X59327142Y-72847200D01*
X59240057Y-72818171D01*
X59182000Y-72818171D01*
X59094914Y-72847200D01*
X59065885Y-72876228D01*
X58485314Y-73427771D02*
X58833657Y-73427771D01*
X58659485Y-73427771D02*
X58659485Y-72818171D01*
X58717542Y-72905257D01*
X58775600Y-72963314D01*
X58833657Y-72992342D01*
X57904742Y-73427771D02*
X58253085Y-73427771D01*
X58078914Y-73427771D02*
X58078914Y-72818171D01*
X58136971Y-72905257D01*
X58195028Y-72963314D01*
X58253085Y-72992342D01*
X49239714Y-80888114D02*
X49268742Y-80859085D01*
X49297771Y-80772000D01*
X49297771Y-80713942D01*
X49268742Y-80626857D01*
X49210685Y-80568800D01*
X49152628Y-80539771D01*
X49036514Y-80510742D01*
X48949428Y-80510742D01*
X48833314Y-80539771D01*
X48775257Y-80568800D01*
X48717200Y-80626857D01*
X48688171Y-80713942D01*
X48688171Y-80772000D01*
X48717200Y-80859085D01*
X48746228Y-80888114D01*
X49297771Y-81468685D02*
X49297771Y-81120342D01*
X49297771Y-81294514D02*
X48688171Y-81294514D01*
X48775257Y-81236457D01*
X48833314Y-81178400D01*
X48862342Y-81120342D01*
X48746228Y-81700914D02*
X48717200Y-81729942D01*
X48688171Y-81788000D01*
X48688171Y-81933142D01*
X48717200Y-81991200D01*
X48746228Y-82020228D01*
X48804285Y-82049257D01*
X48862342Y-82049257D01*
X48949428Y-82020228D01*
X49297771Y-81671885D01*
X49297771Y-82049257D01*
X47635885Y-75655714D02*
X47664914Y-75684742D01*
X47752000Y-75713771D01*
X47810057Y-75713771D01*
X47897142Y-75684742D01*
X47955200Y-75626685D01*
X47984228Y-75568628D01*
X48013257Y-75452514D01*
X48013257Y-75365428D01*
X47984228Y-75249314D01*
X47955200Y-75191257D01*
X47897142Y-75133200D01*
X47810057Y-75104171D01*
X47752000Y-75104171D01*
X47664914Y-75133200D01*
X47635885Y-75162228D01*
X47055314Y-75713771D02*
X47403657Y-75713771D01*
X47229485Y-75713771D02*
X47229485Y-75104171D01*
X47287542Y-75191257D01*
X47345600Y-75249314D01*
X47403657Y-75278342D01*
X46852114Y-75104171D02*
X46474742Y-75104171D01*
X46677942Y-75336400D01*
X46590857Y-75336400D01*
X46532800Y-75365428D01*
X46503771Y-75394457D01*
X46474742Y-75452514D01*
X46474742Y-75597657D01*
X46503771Y-75655714D01*
X46532800Y-75684742D01*
X46590857Y-75713771D01*
X46765028Y-75713771D01*
X46823085Y-75684742D01*
X46852114Y-75655714D01*
X34727714Y-79872114D02*
X34756742Y-79843085D01*
X34785771Y-79756000D01*
X34785771Y-79697942D01*
X34756742Y-79610857D01*
X34698685Y-79552800D01*
X34640628Y-79523771D01*
X34524514Y-79494742D01*
X34437428Y-79494742D01*
X34321314Y-79523771D01*
X34263257Y-79552800D01*
X34205200Y-79610857D01*
X34176171Y-79697942D01*
X34176171Y-79756000D01*
X34205200Y-79843085D01*
X34234228Y-79872114D01*
X34785771Y-80452685D02*
X34785771Y-80104342D01*
X34785771Y-80278514D02*
X34176171Y-80278514D01*
X34263257Y-80220457D01*
X34321314Y-80162400D01*
X34350342Y-80104342D01*
X34176171Y-80975200D02*
X34176171Y-80859085D01*
X34205200Y-80801028D01*
X34234228Y-80772000D01*
X34321314Y-80713942D01*
X34437428Y-80684914D01*
X34669657Y-80684914D01*
X34727714Y-80713942D01*
X34756742Y-80742971D01*
X34785771Y-80801028D01*
X34785771Y-80917142D01*
X34756742Y-80975200D01*
X34727714Y-81004228D01*
X34669657Y-81033257D01*
X34524514Y-81033257D01*
X34466457Y-81004228D01*
X34437428Y-80975200D01*
X34408400Y-80917142D01*
X34408400Y-80801028D01*
X34437428Y-80742971D01*
X34466457Y-80713942D01*
X34524514Y-80684914D01*
X57079714Y-83936114D02*
X57108742Y-83907085D01*
X57137771Y-83820000D01*
X57137771Y-83761942D01*
X57108742Y-83674857D01*
X57050685Y-83616800D01*
X56992628Y-83587771D01*
X56876514Y-83558742D01*
X56789428Y-83558742D01*
X56673314Y-83587771D01*
X56615257Y-83616800D01*
X56557200Y-83674857D01*
X56528171Y-83761942D01*
X56528171Y-83820000D01*
X56557200Y-83907085D01*
X56586228Y-83936114D01*
X56586228Y-84168342D02*
X56557200Y-84197371D01*
X56528171Y-84255428D01*
X56528171Y-84400571D01*
X56557200Y-84458628D01*
X56586228Y-84487657D01*
X56644285Y-84516685D01*
X56702342Y-84516685D01*
X56789428Y-84487657D01*
X57137771Y-84139314D01*
X57137771Y-84516685D01*
X56528171Y-84894057D02*
X56528171Y-84952114D01*
X56557200Y-85010171D01*
X56586228Y-85039200D01*
X56644285Y-85068228D01*
X56760400Y-85097257D01*
X56905542Y-85097257D01*
X57021657Y-85068228D01*
X57079714Y-85039200D01*
X57108742Y-85010171D01*
X57137771Y-84952114D01*
X57137771Y-84894057D01*
X57108742Y-84836000D01*
X57079714Y-84806971D01*
X57021657Y-84777942D01*
X56905542Y-84748914D01*
X56760400Y-84748914D01*
X56644285Y-84777942D01*
X56586228Y-84806971D01*
X56557200Y-84836000D01*
X56528171Y-84894057D01*
X59619714Y-83936114D02*
X59648742Y-83907085D01*
X59677771Y-83820000D01*
X59677771Y-83761942D01*
X59648742Y-83674857D01*
X59590685Y-83616800D01*
X59532628Y-83587771D01*
X59416514Y-83558742D01*
X59329428Y-83558742D01*
X59213314Y-83587771D01*
X59155257Y-83616800D01*
X59097200Y-83674857D01*
X59068171Y-83761942D01*
X59068171Y-83820000D01*
X59097200Y-83907085D01*
X59126228Y-83936114D01*
X59126228Y-84168342D02*
X59097200Y-84197371D01*
X59068171Y-84255428D01*
X59068171Y-84400571D01*
X59097200Y-84458628D01*
X59126228Y-84487657D01*
X59184285Y-84516685D01*
X59242342Y-84516685D01*
X59329428Y-84487657D01*
X59677771Y-84139314D01*
X59677771Y-84516685D01*
X59677771Y-85097257D02*
X59677771Y-84748914D01*
X59677771Y-84923085D02*
X59068171Y-84923085D01*
X59155257Y-84865028D01*
X59213314Y-84806971D01*
X59242342Y-84748914D01*
X68971885Y-74859714D02*
X69000914Y-74888742D01*
X69088000Y-74917771D01*
X69146057Y-74917771D01*
X69233142Y-74888742D01*
X69291200Y-74830685D01*
X69320228Y-74772628D01*
X69349257Y-74656514D01*
X69349257Y-74569428D01*
X69320228Y-74453314D01*
X69291200Y-74395257D01*
X69233142Y-74337200D01*
X69146057Y-74308171D01*
X69088000Y-74308171D01*
X69000914Y-74337200D01*
X68971885Y-74366228D01*
X68739657Y-74366228D02*
X68710628Y-74337200D01*
X68652571Y-74308171D01*
X68507428Y-74308171D01*
X68449371Y-74337200D01*
X68420342Y-74366228D01*
X68391314Y-74424285D01*
X68391314Y-74482342D01*
X68420342Y-74569428D01*
X68768685Y-74917771D01*
X68391314Y-74917771D01*
X68159085Y-74366228D02*
X68130057Y-74337200D01*
X68072000Y-74308171D01*
X67926857Y-74308171D01*
X67868800Y-74337200D01*
X67839771Y-74366228D01*
X67810742Y-74424285D01*
X67810742Y-74482342D01*
X67839771Y-74569428D01*
X68188114Y-74917771D01*
X67810742Y-74917771D01*
X65923885Y-71371714D02*
X65952914Y-71400742D01*
X66040000Y-71429771D01*
X66098057Y-71429771D01*
X66185142Y-71400742D01*
X66243200Y-71342685D01*
X66272228Y-71284628D01*
X66301257Y-71168514D01*
X66301257Y-71081428D01*
X66272228Y-70965314D01*
X66243200Y-70907257D01*
X66185142Y-70849200D01*
X66098057Y-70820171D01*
X66040000Y-70820171D01*
X65952914Y-70849200D01*
X65923885Y-70878228D01*
X65691657Y-70878228D02*
X65662628Y-70849200D01*
X65604571Y-70820171D01*
X65459428Y-70820171D01*
X65401371Y-70849200D01*
X65372342Y-70878228D01*
X65343314Y-70936285D01*
X65343314Y-70994342D01*
X65372342Y-71081428D01*
X65720685Y-71429771D01*
X65343314Y-71429771D01*
X65140114Y-70820171D02*
X64762742Y-70820171D01*
X64965942Y-71052400D01*
X64878857Y-71052400D01*
X64820800Y-71081428D01*
X64791771Y-71110457D01*
X64762742Y-71168514D01*
X64762742Y-71313657D01*
X64791771Y-71371714D01*
X64820800Y-71400742D01*
X64878857Y-71429771D01*
X65053028Y-71429771D01*
X65111085Y-71400742D01*
X65140114Y-71371714D01*
X75401714Y-74538114D02*
X75430742Y-74509085D01*
X75459771Y-74422000D01*
X75459771Y-74363942D01*
X75430742Y-74276857D01*
X75372685Y-74218800D01*
X75314628Y-74189771D01*
X75198514Y-74160742D01*
X75111428Y-74160742D01*
X74995314Y-74189771D01*
X74937257Y-74218800D01*
X74879200Y-74276857D01*
X74850171Y-74363942D01*
X74850171Y-74422000D01*
X74879200Y-74509085D01*
X74908228Y-74538114D01*
X74908228Y-74770342D02*
X74879200Y-74799371D01*
X74850171Y-74857428D01*
X74850171Y-75002571D01*
X74879200Y-75060628D01*
X74908228Y-75089657D01*
X74966285Y-75118685D01*
X75024342Y-75118685D01*
X75111428Y-75089657D01*
X75459771Y-74741314D01*
X75459771Y-75118685D01*
X75053371Y-75641200D02*
X75459771Y-75641200D01*
X74821142Y-75496057D02*
X75256571Y-75350914D01*
X75256571Y-75728285D01*
X76925714Y-74538114D02*
X76954742Y-74509085D01*
X76983771Y-74422000D01*
X76983771Y-74363942D01*
X76954742Y-74276857D01*
X76896685Y-74218800D01*
X76838628Y-74189771D01*
X76722514Y-74160742D01*
X76635428Y-74160742D01*
X76519314Y-74189771D01*
X76461257Y-74218800D01*
X76403200Y-74276857D01*
X76374171Y-74363942D01*
X76374171Y-74422000D01*
X76403200Y-74509085D01*
X76432228Y-74538114D01*
X76432228Y-74770342D02*
X76403200Y-74799371D01*
X76374171Y-74857428D01*
X76374171Y-75002571D01*
X76403200Y-75060628D01*
X76432228Y-75089657D01*
X76490285Y-75118685D01*
X76548342Y-75118685D01*
X76635428Y-75089657D01*
X76983771Y-74741314D01*
X76983771Y-75118685D01*
X76374171Y-75670228D02*
X76374171Y-75379942D01*
X76664457Y-75350914D01*
X76635428Y-75379942D01*
X76606400Y-75438000D01*
X76606400Y-75583142D01*
X76635428Y-75641200D01*
X76664457Y-75670228D01*
X76722514Y-75699257D01*
X76867657Y-75699257D01*
X76925714Y-75670228D01*
X76954742Y-75641200D01*
X76983771Y-75583142D01*
X76983771Y-75438000D01*
X76954742Y-75379942D01*
X76925714Y-75350914D01*
X73877714Y-74538114D02*
X73906742Y-74509085D01*
X73935771Y-74422000D01*
X73935771Y-74363942D01*
X73906742Y-74276857D01*
X73848685Y-74218800D01*
X73790628Y-74189771D01*
X73674514Y-74160742D01*
X73587428Y-74160742D01*
X73471314Y-74189771D01*
X73413257Y-74218800D01*
X73355200Y-74276857D01*
X73326171Y-74363942D01*
X73326171Y-74422000D01*
X73355200Y-74509085D01*
X73384228Y-74538114D01*
X73384228Y-74770342D02*
X73355200Y-74799371D01*
X73326171Y-74857428D01*
X73326171Y-75002571D01*
X73355200Y-75060628D01*
X73384228Y-75089657D01*
X73442285Y-75118685D01*
X73500342Y-75118685D01*
X73587428Y-75089657D01*
X73935771Y-74741314D01*
X73935771Y-75118685D01*
X73326171Y-75641200D02*
X73326171Y-75525085D01*
X73355200Y-75467028D01*
X73384228Y-75438000D01*
X73471314Y-75379942D01*
X73587428Y-75350914D01*
X73819657Y-75350914D01*
X73877714Y-75379942D01*
X73906742Y-75408971D01*
X73935771Y-75467028D01*
X73935771Y-75583142D01*
X73906742Y-75641200D01*
X73877714Y-75670228D01*
X73819657Y-75699257D01*
X73674514Y-75699257D01*
X73616457Y-75670228D01*
X73587428Y-75641200D01*
X73558400Y-75583142D01*
X73558400Y-75467028D01*
X73587428Y-75408971D01*
X73616457Y-75379942D01*
X73674514Y-75350914D01*
X76925714Y-79364114D02*
X76954742Y-79335085D01*
X76983771Y-79248000D01*
X76983771Y-79189942D01*
X76954742Y-79102857D01*
X76896685Y-79044800D01*
X76838628Y-79015771D01*
X76722514Y-78986742D01*
X76635428Y-78986742D01*
X76519314Y-79015771D01*
X76461257Y-79044800D01*
X76403200Y-79102857D01*
X76374171Y-79189942D01*
X76374171Y-79248000D01*
X76403200Y-79335085D01*
X76432228Y-79364114D01*
X76432228Y-79596342D02*
X76403200Y-79625371D01*
X76374171Y-79683428D01*
X76374171Y-79828571D01*
X76403200Y-79886628D01*
X76432228Y-79915657D01*
X76490285Y-79944685D01*
X76548342Y-79944685D01*
X76635428Y-79915657D01*
X76983771Y-79567314D01*
X76983771Y-79944685D01*
X76374171Y-80147885D02*
X76374171Y-80554285D01*
X76983771Y-80293028D01*
X73911714Y-79364114D02*
X73940742Y-79335085D01*
X73969771Y-79248000D01*
X73969771Y-79189942D01*
X73940742Y-79102857D01*
X73882685Y-79044800D01*
X73824628Y-79015771D01*
X73708514Y-78986742D01*
X73621428Y-78986742D01*
X73505314Y-79015771D01*
X73447257Y-79044800D01*
X73389200Y-79102857D01*
X73360171Y-79189942D01*
X73360171Y-79248000D01*
X73389200Y-79335085D01*
X73418228Y-79364114D01*
X73418228Y-79596342D02*
X73389200Y-79625371D01*
X73360171Y-79683428D01*
X73360171Y-79828571D01*
X73389200Y-79886628D01*
X73418228Y-79915657D01*
X73476285Y-79944685D01*
X73534342Y-79944685D01*
X73621428Y-79915657D01*
X73969771Y-79567314D01*
X73969771Y-79944685D01*
X73621428Y-80293028D02*
X73592400Y-80234971D01*
X73563371Y-80205942D01*
X73505314Y-80176914D01*
X73476285Y-80176914D01*
X73418228Y-80205942D01*
X73389200Y-80234971D01*
X73360171Y-80293028D01*
X73360171Y-80409142D01*
X73389200Y-80467200D01*
X73418228Y-80496228D01*
X73476285Y-80525257D01*
X73505314Y-80525257D01*
X73563371Y-80496228D01*
X73592400Y-80467200D01*
X73621428Y-80409142D01*
X73621428Y-80293028D01*
X73650457Y-80234971D01*
X73679485Y-80205942D01*
X73737542Y-80176914D01*
X73853657Y-80176914D01*
X73911714Y-80205942D01*
X73940742Y-80234971D01*
X73969771Y-80293028D01*
X73969771Y-80409142D01*
X73940742Y-80467200D01*
X73911714Y-80496228D01*
X73853657Y-80525257D01*
X73737542Y-80525257D01*
X73679485Y-80496228D01*
X73650457Y-80467200D01*
X73621428Y-80409142D01*
X64733714Y-84190114D02*
X64762742Y-84161085D01*
X64791771Y-84074000D01*
X64791771Y-84015942D01*
X64762742Y-83928857D01*
X64704685Y-83870800D01*
X64646628Y-83841771D01*
X64530514Y-83812742D01*
X64443428Y-83812742D01*
X64327314Y-83841771D01*
X64269257Y-83870800D01*
X64211200Y-83928857D01*
X64182171Y-84015942D01*
X64182171Y-84074000D01*
X64211200Y-84161085D01*
X64240228Y-84190114D01*
X64240228Y-84422342D02*
X64211200Y-84451371D01*
X64182171Y-84509428D01*
X64182171Y-84654571D01*
X64211200Y-84712628D01*
X64240228Y-84741657D01*
X64298285Y-84770685D01*
X64356342Y-84770685D01*
X64443428Y-84741657D01*
X64791771Y-84393314D01*
X64791771Y-84770685D01*
X64791771Y-85060971D02*
X64791771Y-85177085D01*
X64762742Y-85235142D01*
X64733714Y-85264171D01*
X64646628Y-85322228D01*
X64530514Y-85351257D01*
X64298285Y-85351257D01*
X64240228Y-85322228D01*
X64211200Y-85293200D01*
X64182171Y-85235142D01*
X64182171Y-85119028D01*
X64211200Y-85060971D01*
X64240228Y-85031942D01*
X64298285Y-85002914D01*
X64443428Y-85002914D01*
X64501485Y-85031942D01*
X64530514Y-85060971D01*
X64559542Y-85119028D01*
X64559542Y-85235142D01*
X64530514Y-85293200D01*
X64501485Y-85322228D01*
X64443428Y-85351257D01*
X66257714Y-84190114D02*
X66286742Y-84161085D01*
X66315771Y-84074000D01*
X66315771Y-84015942D01*
X66286742Y-83928857D01*
X66228685Y-83870800D01*
X66170628Y-83841771D01*
X66054514Y-83812742D01*
X65967428Y-83812742D01*
X65851314Y-83841771D01*
X65793257Y-83870800D01*
X65735200Y-83928857D01*
X65706171Y-84015942D01*
X65706171Y-84074000D01*
X65735200Y-84161085D01*
X65764228Y-84190114D01*
X65706171Y-84393314D02*
X65706171Y-84770685D01*
X65938400Y-84567485D01*
X65938400Y-84654571D01*
X65967428Y-84712628D01*
X65996457Y-84741657D01*
X66054514Y-84770685D01*
X66199657Y-84770685D01*
X66257714Y-84741657D01*
X66286742Y-84712628D01*
X66315771Y-84654571D01*
X66315771Y-84480400D01*
X66286742Y-84422342D01*
X66257714Y-84393314D01*
X65706171Y-85148057D02*
X65706171Y-85206114D01*
X65735200Y-85264171D01*
X65764228Y-85293200D01*
X65822285Y-85322228D01*
X65938400Y-85351257D01*
X66083542Y-85351257D01*
X66199657Y-85322228D01*
X66257714Y-85293200D01*
X66286742Y-85264171D01*
X66315771Y-85206114D01*
X66315771Y-85148057D01*
X66286742Y-85090000D01*
X66257714Y-85060971D01*
X66199657Y-85031942D01*
X66083542Y-85002914D01*
X65938400Y-85002914D01*
X65822285Y-85031942D01*
X65764228Y-85060971D01*
X65735200Y-85090000D01*
X65706171Y-85148057D01*
X50603714Y-93842114D02*
X50632742Y-93813085D01*
X50661771Y-93726000D01*
X50661771Y-93667942D01*
X50632742Y-93580857D01*
X50574685Y-93522800D01*
X50516628Y-93493771D01*
X50400514Y-93464742D01*
X50313428Y-93464742D01*
X50197314Y-93493771D01*
X50139257Y-93522800D01*
X50081200Y-93580857D01*
X50052171Y-93667942D01*
X50052171Y-93726000D01*
X50081200Y-93813085D01*
X50110228Y-93842114D01*
X50661771Y-94422685D02*
X50661771Y-94074342D01*
X50661771Y-94248514D02*
X50052171Y-94248514D01*
X50139257Y-94190457D01*
X50197314Y-94132400D01*
X50226342Y-94074342D01*
X50052171Y-94625885D02*
X50052171Y-95032285D01*
X50661771Y-94771028D01*
X36759714Y-79872114D02*
X36788742Y-79843085D01*
X36817771Y-79756000D01*
X36817771Y-79697942D01*
X36788742Y-79610857D01*
X36730685Y-79552800D01*
X36672628Y-79523771D01*
X36556514Y-79494742D01*
X36469428Y-79494742D01*
X36353314Y-79523771D01*
X36295257Y-79552800D01*
X36237200Y-79610857D01*
X36208171Y-79697942D01*
X36208171Y-79756000D01*
X36237200Y-79843085D01*
X36266228Y-79872114D01*
X36817771Y-80452685D02*
X36817771Y-80104342D01*
X36817771Y-80278514D02*
X36208171Y-80278514D01*
X36295257Y-80220457D01*
X36353314Y-80162400D01*
X36382342Y-80104342D01*
X36817771Y-80742971D02*
X36817771Y-80859085D01*
X36788742Y-80917142D01*
X36759714Y-80946171D01*
X36672628Y-81004228D01*
X36556514Y-81033257D01*
X36324285Y-81033257D01*
X36266228Y-81004228D01*
X36237200Y-80975200D01*
X36208171Y-80917142D01*
X36208171Y-80801028D01*
X36237200Y-80742971D01*
X36266228Y-80713942D01*
X36324285Y-80684914D01*
X36469428Y-80684914D01*
X36527485Y-80713942D01*
X36556514Y-80742971D01*
X36585542Y-80801028D01*
X36585542Y-80917142D01*
X36556514Y-80975200D01*
X36527485Y-81004228D01*
X36469428Y-81033257D01*
X47853600Y-66823771D02*
X48056800Y-66533485D01*
X48201942Y-66823771D02*
X48201942Y-66214171D01*
X47969714Y-66214171D01*
X47911657Y-66243200D01*
X47882628Y-66272228D01*
X47853600Y-66330285D01*
X47853600Y-66417371D01*
X47882628Y-66475428D01*
X47911657Y-66504457D01*
X47969714Y-66533485D01*
X48201942Y-66533485D01*
X47273028Y-66823771D02*
X47621371Y-66823771D01*
X47447200Y-66823771D02*
X47447200Y-66214171D01*
X47505257Y-66301257D01*
X47563314Y-66359314D01*
X47621371Y-66388342D01*
X47853600Y-71395771D02*
X48056800Y-71105485D01*
X48201942Y-71395771D02*
X48201942Y-70786171D01*
X47969714Y-70786171D01*
X47911657Y-70815200D01*
X47882628Y-70844228D01*
X47853600Y-70902285D01*
X47853600Y-70989371D01*
X47882628Y-71047428D01*
X47911657Y-71076457D01*
X47969714Y-71105485D01*
X48201942Y-71105485D01*
X47621371Y-70844228D02*
X47592342Y-70815200D01*
X47534285Y-70786171D01*
X47389142Y-70786171D01*
X47331085Y-70815200D01*
X47302057Y-70844228D01*
X47273028Y-70902285D01*
X47273028Y-70960342D01*
X47302057Y-71047428D01*
X47650400Y-71395771D01*
X47273028Y-71395771D01*
X47853600Y-69871771D02*
X48056800Y-69581485D01*
X48201942Y-69871771D02*
X48201942Y-69262171D01*
X47969714Y-69262171D01*
X47911657Y-69291200D01*
X47882628Y-69320228D01*
X47853600Y-69378285D01*
X47853600Y-69465371D01*
X47882628Y-69523428D01*
X47911657Y-69552457D01*
X47969714Y-69581485D01*
X48201942Y-69581485D01*
X47650400Y-69262171D02*
X47273028Y-69262171D01*
X47476228Y-69494400D01*
X47389142Y-69494400D01*
X47331085Y-69523428D01*
X47302057Y-69552457D01*
X47273028Y-69610514D01*
X47273028Y-69755657D01*
X47302057Y-69813714D01*
X47331085Y-69842742D01*
X47389142Y-69871771D01*
X47563314Y-69871771D01*
X47621371Y-69842742D01*
X47650400Y-69813714D01*
X47853600Y-68347771D02*
X48056800Y-68057485D01*
X48201942Y-68347771D02*
X48201942Y-67738171D01*
X47969714Y-67738171D01*
X47911657Y-67767200D01*
X47882628Y-67796228D01*
X47853600Y-67854285D01*
X47853600Y-67941371D01*
X47882628Y-67999428D01*
X47911657Y-68028457D01*
X47969714Y-68057485D01*
X48201942Y-68057485D01*
X47331085Y-67941371D02*
X47331085Y-68347771D01*
X47476228Y-67709142D02*
X47621371Y-68144571D01*
X47244000Y-68144571D01*
X62585600Y-88887771D02*
X62788800Y-88597485D01*
X62933942Y-88887771D02*
X62933942Y-88278171D01*
X62701714Y-88278171D01*
X62643657Y-88307200D01*
X62614628Y-88336228D01*
X62585600Y-88394285D01*
X62585600Y-88481371D01*
X62614628Y-88539428D01*
X62643657Y-88568457D01*
X62701714Y-88597485D01*
X62933942Y-88597485D01*
X62034057Y-88278171D02*
X62324342Y-88278171D01*
X62353371Y-88568457D01*
X62324342Y-88539428D01*
X62266285Y-88510400D01*
X62121142Y-88510400D01*
X62063085Y-88539428D01*
X62034057Y-88568457D01*
X62005028Y-88626514D01*
X62005028Y-88771657D01*
X62034057Y-88829714D01*
X62063085Y-88858742D01*
X62121142Y-88887771D01*
X62266285Y-88887771D01*
X62324342Y-88858742D01*
X62353371Y-88829714D01*
X29197771Y-83718400D02*
X28907485Y-83515200D01*
X29197771Y-83370057D02*
X28588171Y-83370057D01*
X28588171Y-83602285D01*
X28617200Y-83660342D01*
X28646228Y-83689371D01*
X28704285Y-83718400D01*
X28791371Y-83718400D01*
X28849428Y-83689371D01*
X28878457Y-83660342D01*
X28907485Y-83602285D01*
X28907485Y-83370057D01*
X28588171Y-84240914D02*
X28588171Y-84124800D01*
X28617200Y-84066742D01*
X28646228Y-84037714D01*
X28733314Y-83979657D01*
X28849428Y-83950628D01*
X29081657Y-83950628D01*
X29139714Y-83979657D01*
X29168742Y-84008685D01*
X29197771Y-84066742D01*
X29197771Y-84182857D01*
X29168742Y-84240914D01*
X29139714Y-84269942D01*
X29081657Y-84298971D01*
X28936514Y-84298971D01*
X28878457Y-84269942D01*
X28849428Y-84240914D01*
X28820400Y-84182857D01*
X28820400Y-84066742D01*
X28849428Y-84008685D01*
X28878457Y-83979657D01*
X28936514Y-83950628D01*
X65633600Y-74917771D02*
X65836800Y-74627485D01*
X65981942Y-74917771D02*
X65981942Y-74308171D01*
X65749714Y-74308171D01*
X65691657Y-74337200D01*
X65662628Y-74366228D01*
X65633600Y-74424285D01*
X65633600Y-74511371D01*
X65662628Y-74569428D01*
X65691657Y-74598457D01*
X65749714Y-74627485D01*
X65981942Y-74627485D01*
X65430400Y-74308171D02*
X65024000Y-74308171D01*
X65285257Y-74917771D01*
X45487771Y-63398400D02*
X45197485Y-63195200D01*
X45487771Y-63050057D02*
X44878171Y-63050057D01*
X44878171Y-63282285D01*
X44907200Y-63340342D01*
X44936228Y-63369371D01*
X44994285Y-63398400D01*
X45081371Y-63398400D01*
X45139428Y-63369371D01*
X45168457Y-63340342D01*
X45197485Y-63282285D01*
X45197485Y-63050057D01*
X45139428Y-63746742D02*
X45110400Y-63688685D01*
X45081371Y-63659657D01*
X45023314Y-63630628D01*
X44994285Y-63630628D01*
X44936228Y-63659657D01*
X44907200Y-63688685D01*
X44878171Y-63746742D01*
X44878171Y-63862857D01*
X44907200Y-63920914D01*
X44936228Y-63949942D01*
X44994285Y-63978971D01*
X45023314Y-63978971D01*
X45081371Y-63949942D01*
X45110400Y-63920914D01*
X45139428Y-63862857D01*
X45139428Y-63746742D01*
X45168457Y-63688685D01*
X45197485Y-63659657D01*
X45255542Y-63630628D01*
X45371657Y-63630628D01*
X45429714Y-63659657D01*
X45458742Y-63688685D01*
X45487771Y-63746742D01*
X45487771Y-63862857D01*
X45458742Y-63920914D01*
X45429714Y-63949942D01*
X45371657Y-63978971D01*
X45255542Y-63978971D01*
X45197485Y-63949942D01*
X45168457Y-63920914D01*
X45139428Y-63862857D01*
X48569771Y-61874400D02*
X48279485Y-61671200D01*
X48569771Y-61526057D02*
X47960171Y-61526057D01*
X47960171Y-61758285D01*
X47989200Y-61816342D01*
X48018228Y-61845371D01*
X48076285Y-61874400D01*
X48163371Y-61874400D01*
X48221428Y-61845371D01*
X48250457Y-61816342D01*
X48279485Y-61758285D01*
X48279485Y-61526057D01*
X48569771Y-62164685D02*
X48569771Y-62280800D01*
X48540742Y-62338857D01*
X48511714Y-62367885D01*
X48424628Y-62425942D01*
X48308514Y-62454971D01*
X48076285Y-62454971D01*
X48018228Y-62425942D01*
X47989200Y-62396914D01*
X47960171Y-62338857D01*
X47960171Y-62222742D01*
X47989200Y-62164685D01*
X48018228Y-62135657D01*
X48076285Y-62106628D01*
X48221428Y-62106628D01*
X48279485Y-62135657D01*
X48308514Y-62164685D01*
X48337542Y-62222742D01*
X48337542Y-62338857D01*
X48308514Y-62396914D01*
X48279485Y-62425942D01*
X48221428Y-62454971D01*
X68313771Y-78856114D02*
X68023485Y-78652914D01*
X68313771Y-78507771D02*
X67704171Y-78507771D01*
X67704171Y-78740000D01*
X67733200Y-78798057D01*
X67762228Y-78827085D01*
X67820285Y-78856114D01*
X67907371Y-78856114D01*
X67965428Y-78827085D01*
X67994457Y-78798057D01*
X68023485Y-78740000D01*
X68023485Y-78507771D01*
X68313771Y-79436685D02*
X68313771Y-79088342D01*
X68313771Y-79262514D02*
X67704171Y-79262514D01*
X67791257Y-79204457D01*
X67849314Y-79146400D01*
X67878342Y-79088342D01*
X67762228Y-79668914D02*
X67733200Y-79697942D01*
X67704171Y-79756000D01*
X67704171Y-79901142D01*
X67733200Y-79959200D01*
X67762228Y-79988228D01*
X67820285Y-80017257D01*
X67878342Y-80017257D01*
X67965428Y-79988228D01*
X68313771Y-79639885D01*
X68313771Y-80017257D01*
X66095771Y-78856114D02*
X65805485Y-78652914D01*
X66095771Y-78507771D02*
X65486171Y-78507771D01*
X65486171Y-78740000D01*
X65515200Y-78798057D01*
X65544228Y-78827085D01*
X65602285Y-78856114D01*
X65689371Y-78856114D01*
X65747428Y-78827085D01*
X65776457Y-78798057D01*
X65805485Y-78740000D01*
X65805485Y-78507771D01*
X66095771Y-79436685D02*
X66095771Y-79088342D01*
X66095771Y-79262514D02*
X65486171Y-79262514D01*
X65573257Y-79204457D01*
X65631314Y-79146400D01*
X65660342Y-79088342D01*
X65486171Y-79639885D02*
X65486171Y-80017257D01*
X65718400Y-79814057D01*
X65718400Y-79901142D01*
X65747428Y-79959200D01*
X65776457Y-79988228D01*
X65834514Y-80017257D01*
X65979657Y-80017257D01*
X66037714Y-79988228D01*
X66066742Y-79959200D01*
X66095771Y-79901142D01*
X66095771Y-79726971D01*
X66066742Y-79668914D01*
X66037714Y-79639885D01*
X76475771Y-84698114D02*
X76185485Y-84494914D01*
X76475771Y-84349771D02*
X75866171Y-84349771D01*
X75866171Y-84582000D01*
X75895200Y-84640057D01*
X75924228Y-84669085D01*
X75982285Y-84698114D01*
X76069371Y-84698114D01*
X76127428Y-84669085D01*
X76156457Y-84640057D01*
X76185485Y-84582000D01*
X76185485Y-84349771D01*
X76475771Y-85278685D02*
X76475771Y-84930342D01*
X76475771Y-85104514D02*
X75866171Y-85104514D01*
X75953257Y-85046457D01*
X76011314Y-84988400D01*
X76040342Y-84930342D01*
X76069371Y-85801200D02*
X76475771Y-85801200D01*
X75837142Y-85656057D02*
X76272571Y-85510914D01*
X76272571Y-85888285D01*
X74951771Y-84698114D02*
X74661485Y-84494914D01*
X74951771Y-84349771D02*
X74342171Y-84349771D01*
X74342171Y-84582000D01*
X74371200Y-84640057D01*
X74400228Y-84669085D01*
X74458285Y-84698114D01*
X74545371Y-84698114D01*
X74603428Y-84669085D01*
X74632457Y-84640057D01*
X74661485Y-84582000D01*
X74661485Y-84349771D01*
X74951771Y-85278685D02*
X74951771Y-84930342D01*
X74951771Y-85104514D02*
X74342171Y-85104514D01*
X74429257Y-85046457D01*
X74487314Y-84988400D01*
X74516342Y-84930342D01*
X74342171Y-85830228D02*
X74342171Y-85539942D01*
X74632457Y-85510914D01*
X74603428Y-85539942D01*
X74574400Y-85598000D01*
X74574400Y-85743142D01*
X74603428Y-85801200D01*
X74632457Y-85830228D01*
X74690514Y-85859257D01*
X74835657Y-85859257D01*
X74893714Y-85830228D01*
X74922742Y-85801200D01*
X74951771Y-85743142D01*
X74951771Y-85598000D01*
X74922742Y-85539942D01*
X74893714Y-85510914D01*
X68347771Y-84190114D02*
X68057485Y-83986914D01*
X68347771Y-83841771D02*
X67738171Y-83841771D01*
X67738171Y-84074000D01*
X67767200Y-84132057D01*
X67796228Y-84161085D01*
X67854285Y-84190114D01*
X67941371Y-84190114D01*
X67999428Y-84161085D01*
X68028457Y-84132057D01*
X68057485Y-84074000D01*
X68057485Y-83841771D01*
X68347771Y-84770685D02*
X68347771Y-84422342D01*
X68347771Y-84596514D02*
X67738171Y-84596514D01*
X67825257Y-84538457D01*
X67883314Y-84480400D01*
X67912342Y-84422342D01*
X67738171Y-85293200D02*
X67738171Y-85177085D01*
X67767200Y-85119028D01*
X67796228Y-85090000D01*
X67883314Y-85031942D01*
X67999428Y-85002914D01*
X68231657Y-85002914D01*
X68289714Y-85031942D01*
X68318742Y-85060971D01*
X68347771Y-85119028D01*
X68347771Y-85235142D01*
X68318742Y-85293200D01*
X68289714Y-85322228D01*
X68231657Y-85351257D01*
X68086514Y-85351257D01*
X68028457Y-85322228D01*
X67999428Y-85293200D01*
X67970400Y-85235142D01*
X67970400Y-85119028D01*
X67999428Y-85060971D01*
X68028457Y-85031942D01*
X68086514Y-85002914D01*
X69871771Y-84190114D02*
X69581485Y-83986914D01*
X69871771Y-83841771D02*
X69262171Y-83841771D01*
X69262171Y-84074000D01*
X69291200Y-84132057D01*
X69320228Y-84161085D01*
X69378285Y-84190114D01*
X69465371Y-84190114D01*
X69523428Y-84161085D01*
X69552457Y-84132057D01*
X69581485Y-84074000D01*
X69581485Y-83841771D01*
X69871771Y-84770685D02*
X69871771Y-84422342D01*
X69871771Y-84596514D02*
X69262171Y-84596514D01*
X69349257Y-84538457D01*
X69407314Y-84480400D01*
X69436342Y-84422342D01*
X69262171Y-84973885D02*
X69262171Y-85380285D01*
X69871771Y-85119028D01*
X42047885Y-87439771D02*
X42251085Y-87149485D01*
X42396228Y-87439771D02*
X42396228Y-86830171D01*
X42164000Y-86830171D01*
X42105942Y-86859200D01*
X42076914Y-86888228D01*
X42047885Y-86946285D01*
X42047885Y-87033371D01*
X42076914Y-87091428D01*
X42105942Y-87120457D01*
X42164000Y-87149485D01*
X42396228Y-87149485D01*
X41467314Y-87439771D02*
X41815657Y-87439771D01*
X41641485Y-87439771D02*
X41641485Y-86830171D01*
X41699542Y-86917257D01*
X41757600Y-86975314D01*
X41815657Y-87004342D01*
X41089942Y-86830171D02*
X41031885Y-86830171D01*
X40973828Y-86859200D01*
X40944800Y-86888228D01*
X40915771Y-86946285D01*
X40886742Y-87062400D01*
X40886742Y-87207542D01*
X40915771Y-87323657D01*
X40944800Y-87381714D01*
X40973828Y-87410742D01*
X41031885Y-87439771D01*
X41089942Y-87439771D01*
X41148000Y-87410742D01*
X41177028Y-87381714D01*
X41206057Y-87323657D01*
X41235085Y-87207542D01*
X41235085Y-87062400D01*
X41206057Y-86946285D01*
X41177028Y-86888228D01*
X41148000Y-86859200D01*
X41089942Y-86830171D01*
X42047885Y-80751771D02*
X42251085Y-80461485D01*
X42396228Y-80751771D02*
X42396228Y-80142171D01*
X42164000Y-80142171D01*
X42105942Y-80171200D01*
X42076914Y-80200228D01*
X42047885Y-80258285D01*
X42047885Y-80345371D01*
X42076914Y-80403428D01*
X42105942Y-80432457D01*
X42164000Y-80461485D01*
X42396228Y-80461485D01*
X41467314Y-80751771D02*
X41815657Y-80751771D01*
X41641485Y-80751771D02*
X41641485Y-80142171D01*
X41699542Y-80229257D01*
X41757600Y-80287314D01*
X41815657Y-80316342D01*
X40886742Y-80751771D02*
X41235085Y-80751771D01*
X41060914Y-80751771D02*
X41060914Y-80142171D01*
X41118971Y-80229257D01*
X41177028Y-80287314D01*
X41235085Y-80316342D01*
M02*
