M48
; DRILL file {KiCad (5.1.6)-1} date 09/08/20 19:34:45
; FORMAT={-:-/ absolute / inch / decimal}
; #@! TF.CreationDate,2020-09-08T19:34:45-04:00
; #@! TF.GenerationSoftware,Kicad,Pcbnew,(5.1.6)-1
; #@! TF.FileFunction,Plated,1,2,PTH
FMAT,2
INCH
T1C0.0100
T2C0.0197
T3C0.0217
T4C0.0315
T5C0.0394
T6C0.0866
T7C0.1063
%
G90
G05
T1
X1.183Y-2.6101
X1.2256Y-3.2961
X1.3246Y-3.0836
X1.3349Y-2.8344
X1.3606Y-2.9596
X1.4Y-3.0534
X1.4321Y-3.1252
X1.4658Y-2.4691
X1.4995Y-3.2541
X1.5223Y-3.1247
X1.5646Y-2.8418
X1.5804Y-2.7739
X1.6273Y-2.9065
X1.6277Y-2.8018
X1.6287Y-3.2296
X1.6843Y-2.5939
X1.7032Y-3.4415
X1.7309Y-2.8054
X1.752Y-2.9708
X1.7571Y-2.4699
X1.7603Y-2.5667
X1.7676Y-3.366
X1.7719Y-2.7874
X1.773Y-3.0692
X1.7762Y-2.6154
X1.7809Y-2.666
X1.7855Y-2.7615
X1.7963Y-2.8633
X1.8018Y-3.5064
X1.8048Y-3.3142
X1.8074Y-2.4981
X1.8139Y-3.2856
X1.8247Y-3.2315
X1.8289Y-2.9637
X1.8304Y-2.4753
X1.8578Y-2.919
X1.8594Y-2.6391
X1.8695Y-2.8277
X1.8748Y-3.3231
X1.9043Y-3.33
X1.9112Y-3.2734
X1.9336Y-3.6453
X1.9723Y-2.9119
X1.9726Y-2.8492
X1.9936Y-3.2711
X2.0041Y-2.912
X2.0283Y-3.3022
X2.0394Y-2.9075
X2.0403Y-2.602
X2.0886Y-3.3717
X2.0914Y-3.2551
X2.1096Y-2.7225
X2.1096Y-2.9424
X2.1177Y-3.2318
X2.1185Y-3.607
X2.1212Y-3.3413
X2.1307Y-3.1077
X2.1616Y-3.0896
X2.1656Y-3.2253
X2.1856Y-3.1193
X2.2084Y-2.9874
X2.2475Y-2.6958
X2.2507Y-2.6417
X2.286Y-3.4139
X2.3157Y-3.2419
X2.3401Y-2.9035
X2.3401Y-3.2203
X2.3469Y-3.2513
X2.372Y-2.8534
X2.3868Y-3.081
X2.3923Y-3.1336
X2.3926Y-2.794
X2.3937Y-3.3947
X2.4108Y-2.9553
X2.4183Y-3.2765
X2.4681Y-3.5779
X2.4767Y-2.9627
X2.4886Y-3.238
X2.49Y-2.8481
X2.491Y-3.0311
X2.5092Y-2.9459
X2.5163Y-3.2902
X2.549Y-2.8786
X2.5674Y-2.94
X2.5761Y-3.134
X2.5887Y-3.2039
X2.5905Y-3.1065
X2.6033Y-2.9073
X2.6589Y-3.6139
X2.6879Y-3.3017
X2.6879Y-3.5996
X2.7127Y-3.2321
X2.7418Y-2.7718
X2.7455Y-3.0262
X2.7689Y-3.0029
X2.7741Y-2.8467
X2.8025Y-2.8319
X2.8325Y-2.8001
X2.8489Y-3.0338
X2.8588Y-2.9675
X2.8667Y-3.1801
X2.9142Y-3.3026
X2.9364Y-2.9097
X2.9364Y-2.9719
X2.9598Y-3.2257
X2.9765Y-3.1294
X2.9861Y-2.9004
X3.0245Y-3.0804
X3.0381Y-3.1092
T4
X1.65Y-3.55
X1.65Y-3.6287
X1.65Y-3.81
X1.65Y-3.8887
T5
X2.49Y-3.7
X2.49Y-3.8
X2.49Y-3.9
X1.43Y-3.62
X1.43Y-3.72
X1.43Y-3.82
X2.64Y-3.7
X2.64Y-3.8
X2.64Y-3.9
X2.94Y-3.7
X2.94Y-3.8
X2.94Y-3.9
X2.19Y-3.7
X2.19Y-3.8
X2.19Y-3.9
X2.0Y-2.44
X2.1Y-2.44
X2.2Y-2.44
X2.3Y-2.44
X2.4Y-2.44
X2.5Y-2.44
X2.79Y-3.7
X2.79Y-3.8
X2.79Y-3.9
X2.34Y-3.7
X2.34Y-3.8
X2.34Y-3.9
X1.8Y-3.44
X1.9Y-3.44
X2.0Y-3.44
X2.1Y-3.44
X2.72Y-2.44
X2.82Y-2.44
X2.92Y-2.44
X3.02Y-2.44
T6
X2.84Y-2.64
X1.44Y-3.38
X2.84Y-3.48
T7
X1.2Y-3.62
X1.2Y-3.8169
T2
G00X1.1765Y-3.15
M15
G01X1.1509Y-3.15
M16
G05
G00X1.1765Y-3.4256
M15
G01X1.1509Y-3.4256
M16
G05
T3
G00X1.27Y-3.1835
M15
G01X1.27Y-3.1953
M16
G05
G00X1.27Y-3.3803
M15
G01X1.27Y-3.3921
M16
G05
T0
M30
