G04 #@! TF.GenerationSoftware,KiCad,Pcbnew,(5.1.6)-1*
G04 #@! TF.CreationDate,2020-09-08T19:34:43-04:00*
G04 #@! TF.ProjectId,PayloadPrototypeBoard,5061796c-6f61-4645-9072-6f746f747970,rev?*
G04 #@! TF.SameCoordinates,Original*
G04 #@! TF.FileFunction,Soldermask,Bot*
G04 #@! TF.FilePolarity,Negative*
%FSLAX46Y46*%
G04 Gerber Fmt 4.6, Leading zero omitted, Abs format (unit mm)*
G04 Created by KiCad (PCBNEW (5.1.6)-1) date 2020-09-08 19:34:43*
%MOMM*%
%LPD*%
G01*
G04 APERTURE LIST*
%ADD10C,0.100000*%
G04 APERTURE END LIST*
D10*
G36*
X52165674Y-99109643D02*
G01*
X52206667Y-99122078D01*
X52244448Y-99142273D01*
X52277556Y-99169444D01*
X52304727Y-99202552D01*
X52324922Y-99240333D01*
X52337357Y-99281326D01*
X52341800Y-99326441D01*
X52341800Y-99860559D01*
X52337357Y-99905674D01*
X52324922Y-99946667D01*
X52304727Y-99984448D01*
X52277556Y-100017556D01*
X52244448Y-100044727D01*
X52206667Y-100064922D01*
X52165674Y-100077357D01*
X52120559Y-100081800D01*
X51511441Y-100081800D01*
X51466326Y-100077357D01*
X51425333Y-100064922D01*
X51387552Y-100044727D01*
X51354444Y-100017556D01*
X51327273Y-99984448D01*
X51307078Y-99946667D01*
X51294643Y-99905674D01*
X51290200Y-99860559D01*
X51290200Y-99326441D01*
X51294643Y-99281326D01*
X51307078Y-99240333D01*
X51327273Y-99202552D01*
X51354444Y-99169444D01*
X51387552Y-99142273D01*
X51425333Y-99122078D01*
X51466326Y-99109643D01*
X51511441Y-99105200D01*
X52120559Y-99105200D01*
X52165674Y-99109643D01*
G37*
G36*
X67318754Y-98193817D02*
G01*
X67482689Y-98261721D01*
X67630227Y-98360303D01*
X67755697Y-98485773D01*
X67854279Y-98633311D01*
X67922183Y-98797246D01*
X67956800Y-98971279D01*
X67956800Y-99148721D01*
X67922183Y-99322754D01*
X67854279Y-99486689D01*
X67755697Y-99634227D01*
X67630227Y-99759697D01*
X67482689Y-99858279D01*
X67318754Y-99926183D01*
X67144721Y-99960800D01*
X66967279Y-99960800D01*
X66793246Y-99926183D01*
X66629311Y-99858279D01*
X66481773Y-99759697D01*
X66356303Y-99634227D01*
X66257721Y-99486689D01*
X66189817Y-99322754D01*
X66155200Y-99148721D01*
X66155200Y-98971279D01*
X66189817Y-98797246D01*
X66257721Y-98633311D01*
X66356303Y-98485773D01*
X66481773Y-98360303D01*
X66629311Y-98261721D01*
X66793246Y-98193817D01*
X66967279Y-98159200D01*
X67144721Y-98159200D01*
X67318754Y-98193817D01*
G37*
G36*
X71128754Y-98193817D02*
G01*
X71292689Y-98261721D01*
X71440227Y-98360303D01*
X71565697Y-98485773D01*
X71664279Y-98633311D01*
X71732183Y-98797246D01*
X71766800Y-98971279D01*
X71766800Y-99148721D01*
X71732183Y-99322754D01*
X71664279Y-99486689D01*
X71565697Y-99634227D01*
X71440227Y-99759697D01*
X71292689Y-99858279D01*
X71128754Y-99926183D01*
X70954721Y-99960800D01*
X70777279Y-99960800D01*
X70603246Y-99926183D01*
X70439311Y-99858279D01*
X70291773Y-99759697D01*
X70166303Y-99634227D01*
X70067721Y-99486689D01*
X69999817Y-99322754D01*
X69965200Y-99148721D01*
X69965200Y-98971279D01*
X69999817Y-98797246D01*
X70067721Y-98633311D01*
X70166303Y-98485773D01*
X70291773Y-98360303D01*
X70439311Y-98261721D01*
X70603246Y-98193817D01*
X70777279Y-98159200D01*
X70954721Y-98159200D01*
X71128754Y-98193817D01*
G37*
G36*
X63508754Y-98193817D02*
G01*
X63672689Y-98261721D01*
X63820227Y-98360303D01*
X63945697Y-98485773D01*
X64044279Y-98633311D01*
X64112183Y-98797246D01*
X64146800Y-98971279D01*
X64146800Y-99148721D01*
X64112183Y-99322754D01*
X64044279Y-99486689D01*
X63945697Y-99634227D01*
X63820227Y-99759697D01*
X63672689Y-99858279D01*
X63508754Y-99926183D01*
X63334721Y-99960800D01*
X63157279Y-99960800D01*
X62983246Y-99926183D01*
X62819311Y-99858279D01*
X62671773Y-99759697D01*
X62546303Y-99634227D01*
X62447721Y-99486689D01*
X62379817Y-99322754D01*
X62345200Y-99148721D01*
X62345200Y-98971279D01*
X62379817Y-98797246D01*
X62447721Y-98633311D01*
X62546303Y-98485773D01*
X62671773Y-98360303D01*
X62819311Y-98261721D01*
X62983246Y-98193817D01*
X63157279Y-98159200D01*
X63334721Y-98159200D01*
X63508754Y-98193817D01*
G37*
G36*
X59698754Y-98193817D02*
G01*
X59862689Y-98261721D01*
X60010227Y-98360303D01*
X60135697Y-98485773D01*
X60234279Y-98633311D01*
X60302183Y-98797246D01*
X60336800Y-98971279D01*
X60336800Y-99148721D01*
X60302183Y-99322754D01*
X60234279Y-99486689D01*
X60135697Y-99634227D01*
X60010227Y-99759697D01*
X59862689Y-99858279D01*
X59698754Y-99926183D01*
X59524721Y-99960800D01*
X59347279Y-99960800D01*
X59173246Y-99926183D01*
X59009311Y-99858279D01*
X58861773Y-99759697D01*
X58736303Y-99634227D01*
X58637721Y-99486689D01*
X58569817Y-99322754D01*
X58535200Y-99148721D01*
X58535200Y-98971279D01*
X58569817Y-98797246D01*
X58637721Y-98633311D01*
X58736303Y-98485773D01*
X58861773Y-98360303D01*
X59009311Y-98261721D01*
X59173246Y-98193817D01*
X59347279Y-98159200D01*
X59524721Y-98159200D01*
X59698754Y-98193817D01*
G37*
G36*
X55888754Y-98193817D02*
G01*
X56052689Y-98261721D01*
X56200227Y-98360303D01*
X56325697Y-98485773D01*
X56424279Y-98633311D01*
X56492183Y-98797246D01*
X56526800Y-98971279D01*
X56526800Y-99148721D01*
X56492183Y-99322754D01*
X56424279Y-99486689D01*
X56325697Y-99634227D01*
X56200227Y-99759697D01*
X56052689Y-99858279D01*
X55888754Y-99926183D01*
X55714721Y-99960800D01*
X55537279Y-99960800D01*
X55363246Y-99926183D01*
X55199311Y-99858279D01*
X55051773Y-99759697D01*
X54926303Y-99634227D01*
X54827721Y-99486689D01*
X54759817Y-99322754D01*
X54725200Y-99148721D01*
X54725200Y-98971279D01*
X54759817Y-98797246D01*
X54827721Y-98633311D01*
X54926303Y-98485773D01*
X55051773Y-98360303D01*
X55199311Y-98261721D01*
X55363246Y-98193817D01*
X55537279Y-98159200D01*
X55714721Y-98159200D01*
X55888754Y-98193817D01*
G37*
G36*
X74938754Y-98193817D02*
G01*
X75102689Y-98261721D01*
X75250227Y-98360303D01*
X75375697Y-98485773D01*
X75474279Y-98633311D01*
X75542183Y-98797246D01*
X75576800Y-98971279D01*
X75576800Y-99148721D01*
X75542183Y-99322754D01*
X75474279Y-99486689D01*
X75375697Y-99634227D01*
X75250227Y-99759697D01*
X75102689Y-99858279D01*
X74938754Y-99926183D01*
X74764721Y-99960800D01*
X74587279Y-99960800D01*
X74413246Y-99926183D01*
X74249311Y-99858279D01*
X74101773Y-99759697D01*
X73976303Y-99634227D01*
X73877721Y-99486689D01*
X73809817Y-99322754D01*
X73775200Y-99148721D01*
X73775200Y-98971279D01*
X73809817Y-98797246D01*
X73877721Y-98633311D01*
X73976303Y-98485773D01*
X74101773Y-98360303D01*
X74249311Y-98261721D01*
X74413246Y-98193817D01*
X74587279Y-98159200D01*
X74764721Y-98159200D01*
X74938754Y-98193817D01*
G37*
G36*
X42158169Y-97955895D02*
G01*
X42313005Y-98020031D01*
X42452354Y-98113140D01*
X42570860Y-98231646D01*
X42663969Y-98370995D01*
X42728105Y-98525831D01*
X42760800Y-98690203D01*
X42760800Y-98857797D01*
X42728105Y-99022169D01*
X42663969Y-99177005D01*
X42570860Y-99316354D01*
X42452354Y-99434860D01*
X42313005Y-99527969D01*
X42158169Y-99592105D01*
X41993797Y-99624800D01*
X41826203Y-99624800D01*
X41661831Y-99592105D01*
X41506995Y-99527969D01*
X41367646Y-99434860D01*
X41249140Y-99316354D01*
X41156031Y-99177005D01*
X41091895Y-99022169D01*
X41059200Y-98857797D01*
X41059200Y-98690203D01*
X41091895Y-98525831D01*
X41156031Y-98370995D01*
X41249140Y-98231646D01*
X41367646Y-98113140D01*
X41506995Y-98020031D01*
X41661831Y-97955895D01*
X41826203Y-97923200D01*
X41993797Y-97923200D01*
X42158169Y-97955895D01*
G37*
G36*
X31078197Y-94976011D02*
G01*
X31451419Y-95130604D01*
X31787310Y-95355040D01*
X32072960Y-95640690D01*
X32297396Y-95976581D01*
X32451989Y-96349803D01*
X32530800Y-96746014D01*
X32530800Y-97149986D01*
X32451989Y-97546197D01*
X32297396Y-97919419D01*
X32072960Y-98255310D01*
X31787310Y-98540960D01*
X31451419Y-98765396D01*
X31078197Y-98919989D01*
X30681986Y-98998800D01*
X30278014Y-98998800D01*
X29881803Y-98919989D01*
X29508581Y-98765396D01*
X29172690Y-98540960D01*
X28887040Y-98255310D01*
X28662604Y-97919419D01*
X28508011Y-97546197D01*
X28429200Y-97149986D01*
X28429200Y-96746014D01*
X28508011Y-96349803D01*
X28662604Y-95976581D01*
X28887040Y-95640690D01*
X29172690Y-95355040D01*
X29508581Y-95130604D01*
X29881803Y-94976011D01*
X30278014Y-94897200D01*
X30681986Y-94897200D01*
X31078197Y-94976011D01*
G37*
G36*
X52165674Y-97534643D02*
G01*
X52206667Y-97547078D01*
X52244448Y-97567273D01*
X52277556Y-97594444D01*
X52304727Y-97627552D01*
X52324922Y-97665333D01*
X52337357Y-97706326D01*
X52341800Y-97751441D01*
X52341800Y-98285559D01*
X52337357Y-98330674D01*
X52324922Y-98371667D01*
X52304727Y-98409448D01*
X52277556Y-98442556D01*
X52244448Y-98469727D01*
X52206667Y-98489922D01*
X52165674Y-98502357D01*
X52120559Y-98506800D01*
X51511441Y-98506800D01*
X51466326Y-98502357D01*
X51425333Y-98489922D01*
X51387552Y-98469727D01*
X51354444Y-98442556D01*
X51327273Y-98409448D01*
X51307078Y-98371667D01*
X51294643Y-98330674D01*
X51290200Y-98285559D01*
X51290200Y-97751441D01*
X51294643Y-97706326D01*
X51307078Y-97665333D01*
X51327273Y-97627552D01*
X51354444Y-97594444D01*
X51387552Y-97567273D01*
X51425333Y-97547078D01*
X51466326Y-97534643D01*
X51511441Y-97530200D01*
X52120559Y-97530200D01*
X52165674Y-97534643D01*
G37*
G36*
X36628508Y-96017582D02*
G01*
X36819741Y-96096793D01*
X36991847Y-96211791D01*
X37138209Y-96358153D01*
X37253207Y-96530259D01*
X37332418Y-96721492D01*
X37372800Y-96924505D01*
X37372800Y-97131495D01*
X37332418Y-97334508D01*
X37253207Y-97525741D01*
X37138209Y-97697847D01*
X36991847Y-97844209D01*
X36819741Y-97959207D01*
X36628508Y-98038418D01*
X36425495Y-98078800D01*
X36218505Y-98078800D01*
X36015492Y-98038418D01*
X35824259Y-97959207D01*
X35652153Y-97844209D01*
X35505791Y-97697847D01*
X35390793Y-97525741D01*
X35311582Y-97334508D01*
X35271200Y-97131495D01*
X35271200Y-96924505D01*
X35311582Y-96721492D01*
X35390793Y-96530259D01*
X35505791Y-96358153D01*
X35652153Y-96211791D01*
X35824259Y-96096793D01*
X36015492Y-96017582D01*
X36218505Y-95977200D01*
X36425495Y-95977200D01*
X36628508Y-96017582D01*
G37*
G36*
X42760800Y-97624800D02*
G01*
X41059200Y-97624800D01*
X41059200Y-95923200D01*
X42760800Y-95923200D01*
X42760800Y-97624800D01*
G37*
G36*
X74938754Y-95653817D02*
G01*
X75102689Y-95721721D01*
X75250227Y-95820303D01*
X75375697Y-95945773D01*
X75474279Y-96093311D01*
X75542183Y-96257246D01*
X75576800Y-96431279D01*
X75576800Y-96608721D01*
X75542183Y-96782754D01*
X75474279Y-96946689D01*
X75375697Y-97094227D01*
X75250227Y-97219697D01*
X75102689Y-97318279D01*
X74938754Y-97386183D01*
X74764721Y-97420800D01*
X74587279Y-97420800D01*
X74413246Y-97386183D01*
X74249311Y-97318279D01*
X74101773Y-97219697D01*
X73976303Y-97094227D01*
X73877721Y-96946689D01*
X73809817Y-96782754D01*
X73775200Y-96608721D01*
X73775200Y-96431279D01*
X73809817Y-96257246D01*
X73877721Y-96093311D01*
X73976303Y-95945773D01*
X74101773Y-95820303D01*
X74249311Y-95721721D01*
X74413246Y-95653817D01*
X74587279Y-95619200D01*
X74764721Y-95619200D01*
X74938754Y-95653817D01*
G37*
G36*
X71128754Y-95653817D02*
G01*
X71292689Y-95721721D01*
X71440227Y-95820303D01*
X71565697Y-95945773D01*
X71664279Y-96093311D01*
X71732183Y-96257246D01*
X71766800Y-96431279D01*
X71766800Y-96608721D01*
X71732183Y-96782754D01*
X71664279Y-96946689D01*
X71565697Y-97094227D01*
X71440227Y-97219697D01*
X71292689Y-97318279D01*
X71128754Y-97386183D01*
X70954721Y-97420800D01*
X70777279Y-97420800D01*
X70603246Y-97386183D01*
X70439311Y-97318279D01*
X70291773Y-97219697D01*
X70166303Y-97094227D01*
X70067721Y-96946689D01*
X69999817Y-96782754D01*
X69965200Y-96608721D01*
X69965200Y-96431279D01*
X69999817Y-96257246D01*
X70067721Y-96093311D01*
X70166303Y-95945773D01*
X70291773Y-95820303D01*
X70439311Y-95721721D01*
X70603246Y-95653817D01*
X70777279Y-95619200D01*
X70954721Y-95619200D01*
X71128754Y-95653817D01*
G37*
G36*
X67318754Y-95653817D02*
G01*
X67482689Y-95721721D01*
X67630227Y-95820303D01*
X67755697Y-95945773D01*
X67854279Y-96093311D01*
X67922183Y-96257246D01*
X67956800Y-96431279D01*
X67956800Y-96608721D01*
X67922183Y-96782754D01*
X67854279Y-96946689D01*
X67755697Y-97094227D01*
X67630227Y-97219697D01*
X67482689Y-97318279D01*
X67318754Y-97386183D01*
X67144721Y-97420800D01*
X66967279Y-97420800D01*
X66793246Y-97386183D01*
X66629311Y-97318279D01*
X66481773Y-97219697D01*
X66356303Y-97094227D01*
X66257721Y-96946689D01*
X66189817Y-96782754D01*
X66155200Y-96608721D01*
X66155200Y-96431279D01*
X66189817Y-96257246D01*
X66257721Y-96093311D01*
X66356303Y-95945773D01*
X66481773Y-95820303D01*
X66629311Y-95721721D01*
X66793246Y-95653817D01*
X66967279Y-95619200D01*
X67144721Y-95619200D01*
X67318754Y-95653817D01*
G37*
G36*
X63508754Y-95653817D02*
G01*
X63672689Y-95721721D01*
X63820227Y-95820303D01*
X63945697Y-95945773D01*
X64044279Y-96093311D01*
X64112183Y-96257246D01*
X64146800Y-96431279D01*
X64146800Y-96608721D01*
X64112183Y-96782754D01*
X64044279Y-96946689D01*
X63945697Y-97094227D01*
X63820227Y-97219697D01*
X63672689Y-97318279D01*
X63508754Y-97386183D01*
X63334721Y-97420800D01*
X63157279Y-97420800D01*
X62983246Y-97386183D01*
X62819311Y-97318279D01*
X62671773Y-97219697D01*
X62546303Y-97094227D01*
X62447721Y-96946689D01*
X62379817Y-96782754D01*
X62345200Y-96608721D01*
X62345200Y-96431279D01*
X62379817Y-96257246D01*
X62447721Y-96093311D01*
X62546303Y-95945773D01*
X62671773Y-95820303D01*
X62819311Y-95721721D01*
X62983246Y-95653817D01*
X63157279Y-95619200D01*
X63334721Y-95619200D01*
X63508754Y-95653817D01*
G37*
G36*
X55888754Y-95653817D02*
G01*
X56052689Y-95721721D01*
X56200227Y-95820303D01*
X56325697Y-95945773D01*
X56424279Y-96093311D01*
X56492183Y-96257246D01*
X56526800Y-96431279D01*
X56526800Y-96608721D01*
X56492183Y-96782754D01*
X56424279Y-96946689D01*
X56325697Y-97094227D01*
X56200227Y-97219697D01*
X56052689Y-97318279D01*
X55888754Y-97386183D01*
X55714721Y-97420800D01*
X55537279Y-97420800D01*
X55363246Y-97386183D01*
X55199311Y-97318279D01*
X55051773Y-97219697D01*
X54926303Y-97094227D01*
X54827721Y-96946689D01*
X54759817Y-96782754D01*
X54725200Y-96608721D01*
X54725200Y-96431279D01*
X54759817Y-96257246D01*
X54827721Y-96093311D01*
X54926303Y-95945773D01*
X55051773Y-95820303D01*
X55199311Y-95721721D01*
X55363246Y-95653817D01*
X55537279Y-95619200D01*
X55714721Y-95619200D01*
X55888754Y-95653817D01*
G37*
G36*
X59698754Y-95653817D02*
G01*
X59862689Y-95721721D01*
X60010227Y-95820303D01*
X60135697Y-95945773D01*
X60234279Y-96093311D01*
X60302183Y-96257246D01*
X60336800Y-96431279D01*
X60336800Y-96608721D01*
X60302183Y-96782754D01*
X60234279Y-96946689D01*
X60135697Y-97094227D01*
X60010227Y-97219697D01*
X59862689Y-97318279D01*
X59698754Y-97386183D01*
X59524721Y-97420800D01*
X59347279Y-97420800D01*
X59173246Y-97386183D01*
X59009311Y-97318279D01*
X58861773Y-97219697D01*
X58736303Y-97094227D01*
X58637721Y-96946689D01*
X58569817Y-96782754D01*
X58535200Y-96608721D01*
X58535200Y-96431279D01*
X58569817Y-96257246D01*
X58637721Y-96093311D01*
X58736303Y-95945773D01*
X58861773Y-95820303D01*
X59009311Y-95721721D01*
X59173246Y-95653817D01*
X59347279Y-95619200D01*
X59524721Y-95619200D01*
X59698754Y-95653817D01*
G37*
G36*
X36628508Y-93477582D02*
G01*
X36819741Y-93556793D01*
X36991847Y-93671791D01*
X37138209Y-93818153D01*
X37253207Y-93990259D01*
X37332418Y-94181492D01*
X37372800Y-94384505D01*
X37372800Y-94591495D01*
X37332418Y-94794508D01*
X37253207Y-94985741D01*
X37138209Y-95157847D01*
X36991847Y-95304209D01*
X36819741Y-95419207D01*
X36628508Y-95498418D01*
X36425495Y-95538800D01*
X36218505Y-95538800D01*
X36015492Y-95498418D01*
X35824259Y-95419207D01*
X35652153Y-95304209D01*
X35505791Y-95157847D01*
X35390793Y-94985741D01*
X35311582Y-94794508D01*
X35271200Y-94591495D01*
X35271200Y-94384505D01*
X35311582Y-94181492D01*
X35390793Y-93990259D01*
X35505791Y-93818153D01*
X35652153Y-93671791D01*
X35824259Y-93556793D01*
X36015492Y-93477582D01*
X36218505Y-93437200D01*
X36425495Y-93437200D01*
X36628508Y-93477582D01*
G37*
G36*
X52165674Y-94537643D02*
G01*
X52206667Y-94550078D01*
X52244448Y-94570273D01*
X52277556Y-94597444D01*
X52304727Y-94630552D01*
X52324922Y-94668333D01*
X52337357Y-94709326D01*
X52341800Y-94754441D01*
X52341800Y-95288559D01*
X52337357Y-95333674D01*
X52324922Y-95374667D01*
X52304727Y-95412448D01*
X52277556Y-95445556D01*
X52244448Y-95472727D01*
X52206667Y-95492922D01*
X52165674Y-95505357D01*
X52120559Y-95509800D01*
X51511441Y-95509800D01*
X51466326Y-95505357D01*
X51425333Y-95492922D01*
X51387552Y-95472727D01*
X51354444Y-95445556D01*
X51327273Y-95412448D01*
X51307078Y-95374667D01*
X51294643Y-95333674D01*
X51290200Y-95288559D01*
X51290200Y-94754441D01*
X51294643Y-94709326D01*
X51307078Y-94668333D01*
X51327273Y-94630552D01*
X51354444Y-94597444D01*
X51387552Y-94570273D01*
X51425333Y-94550078D01*
X51466326Y-94537643D01*
X51511441Y-94533200D01*
X52120559Y-94533200D01*
X52165674Y-94537643D01*
G37*
G36*
X56526800Y-94880800D02*
G01*
X54725200Y-94880800D01*
X54725200Y-93079200D01*
X56526800Y-93079200D01*
X56526800Y-94880800D01*
G37*
G36*
X71766800Y-94880800D02*
G01*
X69965200Y-94880800D01*
X69965200Y-93079200D01*
X71766800Y-93079200D01*
X71766800Y-94880800D01*
G37*
G36*
X67956800Y-94880800D02*
G01*
X66155200Y-94880800D01*
X66155200Y-93079200D01*
X67956800Y-93079200D01*
X67956800Y-94880800D01*
G37*
G36*
X64146800Y-94880800D02*
G01*
X62345200Y-94880800D01*
X62345200Y-93079200D01*
X64146800Y-93079200D01*
X64146800Y-94880800D01*
G37*
G36*
X75576800Y-94880800D02*
G01*
X73775200Y-94880800D01*
X73775200Y-93079200D01*
X75576800Y-93079200D01*
X75576800Y-94880800D01*
G37*
G36*
X60336800Y-94880800D02*
G01*
X58535200Y-94880800D01*
X58535200Y-93079200D01*
X60336800Y-93079200D01*
X60336800Y-94880800D01*
G37*
G36*
X52165674Y-92962643D02*
G01*
X52206667Y-92975078D01*
X52244448Y-92995273D01*
X52277556Y-93022444D01*
X52304727Y-93055552D01*
X52324922Y-93093333D01*
X52337357Y-93134326D01*
X52341800Y-93179441D01*
X52341800Y-93713559D01*
X52337357Y-93758674D01*
X52324922Y-93799667D01*
X52304727Y-93837448D01*
X52277556Y-93870556D01*
X52244448Y-93897727D01*
X52206667Y-93917922D01*
X52165674Y-93930357D01*
X52120559Y-93934800D01*
X51511441Y-93934800D01*
X51466326Y-93930357D01*
X51425333Y-93917922D01*
X51387552Y-93897727D01*
X51354444Y-93870556D01*
X51327273Y-93837448D01*
X51307078Y-93799667D01*
X51294643Y-93758674D01*
X51290200Y-93713559D01*
X51290200Y-93179441D01*
X51294643Y-93134326D01*
X51307078Y-93093333D01*
X51327273Y-93055552D01*
X51354444Y-93022444D01*
X51387552Y-92995273D01*
X51425333Y-92975078D01*
X51466326Y-92962643D01*
X51511441Y-92958200D01*
X52120559Y-92958200D01*
X52165674Y-92962643D01*
G37*
G36*
X32430800Y-93898800D02*
G01*
X28529200Y-93898800D01*
X28529200Y-89997200D01*
X32430800Y-89997200D01*
X32430800Y-93898800D01*
G37*
G36*
X42158169Y-91351895D02*
G01*
X42313005Y-91416031D01*
X42452354Y-91509140D01*
X42570860Y-91627646D01*
X42663969Y-91766995D01*
X42728105Y-91921831D01*
X42760800Y-92086203D01*
X42760800Y-92253797D01*
X42728105Y-92418169D01*
X42663969Y-92573005D01*
X42570860Y-92712354D01*
X42452354Y-92830860D01*
X42313005Y-92923969D01*
X42158169Y-92988105D01*
X41993797Y-93020800D01*
X41826203Y-93020800D01*
X41661831Y-92988105D01*
X41506995Y-92923969D01*
X41367646Y-92830860D01*
X41249140Y-92712354D01*
X41156031Y-92573005D01*
X41091895Y-92418169D01*
X41059200Y-92253797D01*
X41059200Y-92086203D01*
X41091895Y-91921831D01*
X41156031Y-91766995D01*
X41249140Y-91627646D01*
X41367646Y-91509140D01*
X41506995Y-91416031D01*
X41661831Y-91351895D01*
X41826203Y-91319200D01*
X41993797Y-91319200D01*
X42158169Y-91351895D01*
G37*
G36*
X37372800Y-92998800D02*
G01*
X35271200Y-92998800D01*
X35271200Y-90897200D01*
X37372800Y-90897200D01*
X37372800Y-92998800D01*
G37*
G36*
X42760800Y-91020800D02*
G01*
X41059200Y-91020800D01*
X41059200Y-89319200D01*
X42760800Y-89319200D01*
X42760800Y-91020800D01*
G37*
G36*
X72705028Y-86516168D02*
G01*
X73060051Y-86663223D01*
X73379564Y-86876715D01*
X73651285Y-87148436D01*
X73864777Y-87467949D01*
X74011832Y-87822972D01*
X74086800Y-88199863D01*
X74086800Y-88584137D01*
X74011832Y-88961028D01*
X73864777Y-89316051D01*
X73651285Y-89635564D01*
X73379564Y-89907285D01*
X73060051Y-90120777D01*
X72705028Y-90267832D01*
X72328137Y-90342800D01*
X71943863Y-90342800D01*
X71566972Y-90267832D01*
X71211949Y-90120777D01*
X70892436Y-89907285D01*
X70620715Y-89635564D01*
X70407223Y-89316051D01*
X70260168Y-88961028D01*
X70185200Y-88584137D01*
X70185200Y-88199863D01*
X70260168Y-87822972D01*
X70407223Y-87467949D01*
X70620715Y-87148436D01*
X70892436Y-86876715D01*
X71211949Y-86663223D01*
X71566972Y-86516168D01*
X71943863Y-86441200D01*
X72328137Y-86441200D01*
X72705028Y-86516168D01*
G37*
G36*
X62364257Y-89413362D02*
G01*
X62382976Y-89419040D01*
X62400222Y-89428259D01*
X62415337Y-89440663D01*
X62427740Y-89455776D01*
X62439199Y-89477214D01*
X62444732Y-89485494D01*
X62451773Y-89492535D01*
X62460054Y-89498068D01*
X62469254Y-89501879D01*
X62479021Y-89503821D01*
X62488979Y-89503821D01*
X62498746Y-89501879D01*
X62507947Y-89498068D01*
X62516227Y-89492535D01*
X62523268Y-89485494D01*
X62528801Y-89477214D01*
X62540260Y-89455776D01*
X62552663Y-89440663D01*
X62567778Y-89428259D01*
X62585024Y-89419040D01*
X62603743Y-89413362D01*
X62625693Y-89411200D01*
X62982307Y-89411200D01*
X63004257Y-89413362D01*
X63022976Y-89419040D01*
X63040222Y-89428259D01*
X63055337Y-89440663D01*
X63067741Y-89455778D01*
X63076960Y-89473024D01*
X63082638Y-89491743D01*
X63084800Y-89513693D01*
X63084800Y-89810307D01*
X63082638Y-89832257D01*
X63076960Y-89850976D01*
X63067741Y-89868222D01*
X63055337Y-89883337D01*
X63040222Y-89895741D01*
X63022976Y-89904960D01*
X63004257Y-89910638D01*
X62982307Y-89912800D01*
X62625693Y-89912800D01*
X62603743Y-89910638D01*
X62585024Y-89904960D01*
X62567778Y-89895741D01*
X62552663Y-89883337D01*
X62540260Y-89868224D01*
X62528801Y-89846786D01*
X62523268Y-89838506D01*
X62516227Y-89831465D01*
X62507946Y-89825932D01*
X62498746Y-89822121D01*
X62488979Y-89820179D01*
X62479021Y-89820179D01*
X62469254Y-89822121D01*
X62460053Y-89825932D01*
X62451773Y-89831465D01*
X62444732Y-89838506D01*
X62439199Y-89846786D01*
X62427740Y-89868224D01*
X62415337Y-89883337D01*
X62400222Y-89895741D01*
X62382976Y-89904960D01*
X62364257Y-89910638D01*
X62342307Y-89912800D01*
X61985693Y-89912800D01*
X61963743Y-89910638D01*
X61945024Y-89904960D01*
X61927778Y-89895741D01*
X61912663Y-89883337D01*
X61900259Y-89868222D01*
X61891040Y-89850976D01*
X61885362Y-89832257D01*
X61883200Y-89810307D01*
X61883200Y-89513693D01*
X61885362Y-89491743D01*
X61891040Y-89473024D01*
X61900259Y-89455778D01*
X61912663Y-89440663D01*
X61927778Y-89428259D01*
X61945024Y-89419040D01*
X61963743Y-89413362D01*
X61985693Y-89411200D01*
X62342307Y-89411200D01*
X62364257Y-89413362D01*
G37*
G36*
X51062754Y-86509817D02*
G01*
X51226689Y-86577721D01*
X51374227Y-86676303D01*
X51499697Y-86801773D01*
X51598279Y-86949311D01*
X51666183Y-87113246D01*
X51700800Y-87287279D01*
X51700800Y-87464721D01*
X51666183Y-87638754D01*
X51598279Y-87802689D01*
X51499697Y-87950227D01*
X51374227Y-88075697D01*
X51226689Y-88174279D01*
X51062754Y-88242183D01*
X50888721Y-88276800D01*
X50711279Y-88276800D01*
X50537246Y-88242183D01*
X50373311Y-88174279D01*
X50225773Y-88075697D01*
X50100303Y-87950227D01*
X50001721Y-87802689D01*
X49933817Y-87638754D01*
X49899200Y-87464721D01*
X49899200Y-87287279D01*
X49933817Y-87113246D01*
X50001721Y-86949311D01*
X50100303Y-86801773D01*
X50225773Y-86676303D01*
X50373311Y-86577721D01*
X50537246Y-86509817D01*
X50711279Y-86475200D01*
X50888721Y-86475200D01*
X51062754Y-86509817D01*
G37*
G36*
X53602754Y-86509817D02*
G01*
X53766689Y-86577721D01*
X53914227Y-86676303D01*
X54039697Y-86801773D01*
X54138279Y-86949311D01*
X54206183Y-87113246D01*
X54240800Y-87287279D01*
X54240800Y-87464721D01*
X54206183Y-87638754D01*
X54138279Y-87802689D01*
X54039697Y-87950227D01*
X53914227Y-88075697D01*
X53766689Y-88174279D01*
X53602754Y-88242183D01*
X53428721Y-88276800D01*
X53251279Y-88276800D01*
X53077246Y-88242183D01*
X52913311Y-88174279D01*
X52765773Y-88075697D01*
X52640303Y-87950227D01*
X52541721Y-87802689D01*
X52473817Y-87638754D01*
X52439200Y-87464721D01*
X52439200Y-87287279D01*
X52473817Y-87113246D01*
X52541721Y-86949311D01*
X52640303Y-86801773D01*
X52765773Y-86676303D01*
X52913311Y-86577721D01*
X53077246Y-86509817D01*
X53251279Y-86475200D01*
X53428721Y-86475200D01*
X53602754Y-86509817D01*
G37*
G36*
X46620800Y-88276800D02*
G01*
X44819200Y-88276800D01*
X44819200Y-86475200D01*
X46620800Y-86475200D01*
X46620800Y-88276800D01*
G37*
G36*
X48522754Y-86509817D02*
G01*
X48686689Y-86577721D01*
X48834227Y-86676303D01*
X48959697Y-86801773D01*
X49058279Y-86949311D01*
X49126183Y-87113246D01*
X49160800Y-87287279D01*
X49160800Y-87464721D01*
X49126183Y-87638754D01*
X49058279Y-87802689D01*
X48959697Y-87950227D01*
X48834227Y-88075697D01*
X48686689Y-88174279D01*
X48522754Y-88242183D01*
X48348721Y-88276800D01*
X48171279Y-88276800D01*
X47997246Y-88242183D01*
X47833311Y-88174279D01*
X47685773Y-88075697D01*
X47560303Y-87950227D01*
X47461721Y-87802689D01*
X47393817Y-87638754D01*
X47359200Y-87464721D01*
X47359200Y-87287279D01*
X47393817Y-87113246D01*
X47461721Y-86949311D01*
X47560303Y-86801773D01*
X47685773Y-86676303D01*
X47833311Y-86577721D01*
X47997246Y-86509817D01*
X48171279Y-86475200D01*
X48348721Y-86475200D01*
X48522754Y-86509817D01*
G37*
G36*
X37145028Y-83976168D02*
G01*
X37500051Y-84123223D01*
X37819564Y-84336715D01*
X38091285Y-84608436D01*
X38304777Y-84927949D01*
X38451832Y-85282972D01*
X38526800Y-85659863D01*
X38526800Y-86044137D01*
X38451832Y-86421028D01*
X38304777Y-86776051D01*
X38091285Y-87095564D01*
X37819564Y-87367285D01*
X37500051Y-87580777D01*
X37145028Y-87727832D01*
X36768137Y-87802800D01*
X36383863Y-87802800D01*
X36006972Y-87727832D01*
X35651949Y-87580777D01*
X35332436Y-87367285D01*
X35060715Y-87095564D01*
X34847223Y-86776051D01*
X34700168Y-86421028D01*
X34625200Y-86044137D01*
X34625200Y-85659863D01*
X34700168Y-85282972D01*
X34847223Y-84927949D01*
X35060715Y-84608436D01*
X35332436Y-84336715D01*
X35651949Y-84123223D01*
X36006972Y-83976168D01*
X36383863Y-83901200D01*
X36768137Y-83901200D01*
X37145028Y-83976168D01*
G37*
G36*
X29875758Y-86460746D02*
G01*
X29940970Y-86467169D01*
X29940972Y-86467170D01*
X29940976Y-86467170D01*
X30044802Y-86498665D01*
X30140489Y-86549811D01*
X30224359Y-86618641D01*
X30293189Y-86702511D01*
X30344335Y-86798198D01*
X30375830Y-86902024D01*
X30375830Y-86902028D01*
X30375831Y-86902030D01*
X30386465Y-87010000D01*
X30378038Y-87095564D01*
X30375830Y-87117976D01*
X30344335Y-87221802D01*
X30293189Y-87317489D01*
X30224359Y-87401359D01*
X30140489Y-87470189D01*
X30044802Y-87521335D01*
X29940976Y-87552830D01*
X29940972Y-87552830D01*
X29940970Y-87552831D01*
X29875758Y-87559254D01*
X29860057Y-87560800D01*
X29255943Y-87560800D01*
X29240242Y-87559254D01*
X29175030Y-87552831D01*
X29175028Y-87552830D01*
X29175024Y-87552830D01*
X29071198Y-87521335D01*
X28975511Y-87470189D01*
X28891641Y-87401359D01*
X28822811Y-87317489D01*
X28771665Y-87221802D01*
X28740170Y-87117976D01*
X28737963Y-87095564D01*
X28729535Y-87010000D01*
X28740169Y-86902030D01*
X28740170Y-86902028D01*
X28740170Y-86902024D01*
X28771665Y-86798198D01*
X28822811Y-86702511D01*
X28891641Y-86618641D01*
X28975511Y-86549811D01*
X29071198Y-86498665D01*
X29175024Y-86467170D01*
X29175028Y-86467170D01*
X29175030Y-86467169D01*
X29240242Y-86460746D01*
X29255943Y-86459200D01*
X29860057Y-86459200D01*
X29875758Y-86460746D01*
G37*
G36*
X32361075Y-85341808D02*
G01*
X32460188Y-85371874D01*
X32551532Y-85420698D01*
X32631596Y-85486404D01*
X32697302Y-85566468D01*
X32746126Y-85657813D01*
X32776192Y-85756926D01*
X32783800Y-85834171D01*
X32783800Y-86185830D01*
X32776192Y-86263075D01*
X32746126Y-86362188D01*
X32697302Y-86453532D01*
X32631596Y-86533596D01*
X32551532Y-86599302D01*
X32460187Y-86648126D01*
X32361074Y-86678192D01*
X32258000Y-86688344D01*
X32154925Y-86678192D01*
X32055812Y-86648126D01*
X31964468Y-86599302D01*
X31884404Y-86533596D01*
X31818698Y-86453532D01*
X31769874Y-86362187D01*
X31739808Y-86263074D01*
X31732200Y-86185829D01*
X31732200Y-85834170D01*
X31739808Y-85756925D01*
X31758908Y-85693962D01*
X31769874Y-85657813D01*
X31794287Y-85612140D01*
X31818699Y-85566468D01*
X31884405Y-85486404D01*
X31964469Y-85420698D01*
X32055813Y-85371874D01*
X32154926Y-85341808D01*
X32258000Y-85331656D01*
X32361075Y-85341808D01*
G37*
G36*
X43538699Y-84423049D02*
G01*
X43583648Y-84436684D01*
X43625072Y-84458826D01*
X43661379Y-84488621D01*
X43691174Y-84524928D01*
X43713316Y-84566352D01*
X43726951Y-84611301D01*
X43731800Y-84660533D01*
X43731800Y-86027467D01*
X43726951Y-86076699D01*
X43713316Y-86121648D01*
X43691174Y-86163072D01*
X43661379Y-86199379D01*
X43625072Y-86229174D01*
X43583648Y-86251316D01*
X43538699Y-86264951D01*
X43489467Y-86269800D01*
X42622533Y-86269800D01*
X42573301Y-86264951D01*
X42528352Y-86251316D01*
X42486928Y-86229174D01*
X42450621Y-86199379D01*
X42420826Y-86163072D01*
X42398684Y-86121648D01*
X42385049Y-86076699D01*
X42380200Y-86027467D01*
X42380200Y-84660533D01*
X42385049Y-84611301D01*
X42398684Y-84566352D01*
X42420826Y-84524928D01*
X42450621Y-84488621D01*
X42486928Y-84458826D01*
X42528352Y-84436684D01*
X42573301Y-84423049D01*
X42622533Y-84418200D01*
X43489467Y-84418200D01*
X43538699Y-84423049D01*
G37*
G36*
X40738699Y-84423049D02*
G01*
X40783648Y-84436684D01*
X40825072Y-84458826D01*
X40861379Y-84488621D01*
X40891174Y-84524928D01*
X40913316Y-84566352D01*
X40926951Y-84611301D01*
X40931800Y-84660533D01*
X40931800Y-86027467D01*
X40926951Y-86076699D01*
X40913316Y-86121648D01*
X40891174Y-86163072D01*
X40861379Y-86199379D01*
X40825072Y-86229174D01*
X40783648Y-86251316D01*
X40738699Y-86264951D01*
X40689467Y-86269800D01*
X39822533Y-86269800D01*
X39773301Y-86264951D01*
X39728352Y-86251316D01*
X39686928Y-86229174D01*
X39650621Y-86199379D01*
X39620826Y-86163072D01*
X39598684Y-86121648D01*
X39585049Y-86076699D01*
X39580200Y-86027467D01*
X39580200Y-84660533D01*
X39585049Y-84611301D01*
X39598684Y-84566352D01*
X39620826Y-84524928D01*
X39650621Y-84488621D01*
X39686928Y-84458826D01*
X39728352Y-84436684D01*
X39773301Y-84423049D01*
X39822533Y-84418200D01*
X40689467Y-84418200D01*
X40738699Y-84423049D01*
G37*
G36*
X60622257Y-83729362D02*
G01*
X60640976Y-83735040D01*
X60658222Y-83744259D01*
X60673337Y-83756663D01*
X60685741Y-83771778D01*
X60694960Y-83789024D01*
X60700638Y-83807743D01*
X60702800Y-83829693D01*
X60702800Y-84186307D01*
X60700638Y-84208257D01*
X60694960Y-84226976D01*
X60685741Y-84244222D01*
X60673337Y-84259337D01*
X60658224Y-84271740D01*
X60636786Y-84283199D01*
X60628506Y-84288732D01*
X60621465Y-84295773D01*
X60615932Y-84304054D01*
X60612121Y-84313254D01*
X60610179Y-84323021D01*
X60610179Y-84332979D01*
X60612121Y-84342746D01*
X60615932Y-84351947D01*
X60621465Y-84360227D01*
X60628506Y-84367268D01*
X60636786Y-84372801D01*
X60658224Y-84384260D01*
X60673337Y-84396663D01*
X60685741Y-84411778D01*
X60694960Y-84429024D01*
X60700638Y-84447743D01*
X60702800Y-84469693D01*
X60702800Y-84826307D01*
X60700638Y-84848257D01*
X60694960Y-84866976D01*
X60685741Y-84884222D01*
X60673337Y-84899337D01*
X60658222Y-84911741D01*
X60640976Y-84920960D01*
X60622257Y-84926638D01*
X60600307Y-84928800D01*
X60303693Y-84928800D01*
X60281743Y-84926638D01*
X60263024Y-84920960D01*
X60245778Y-84911741D01*
X60230663Y-84899337D01*
X60218259Y-84884222D01*
X60209040Y-84866976D01*
X60203362Y-84848257D01*
X60201200Y-84826307D01*
X60201200Y-84469693D01*
X60203362Y-84447743D01*
X60209040Y-84429024D01*
X60218259Y-84411778D01*
X60230663Y-84396663D01*
X60245776Y-84384260D01*
X60267214Y-84372801D01*
X60275494Y-84367268D01*
X60282535Y-84360227D01*
X60288068Y-84351946D01*
X60291879Y-84342746D01*
X60293821Y-84332979D01*
X60293821Y-84323021D01*
X60291879Y-84313254D01*
X60288068Y-84304053D01*
X60282535Y-84295773D01*
X60275494Y-84288732D01*
X60267214Y-84283199D01*
X60245776Y-84271740D01*
X60230663Y-84259337D01*
X60218259Y-84244222D01*
X60209040Y-84226976D01*
X60203362Y-84208257D01*
X60201200Y-84186307D01*
X60201200Y-83829693D01*
X60203362Y-83807743D01*
X60209040Y-83789024D01*
X60218259Y-83771778D01*
X60230663Y-83756663D01*
X60245778Y-83744259D01*
X60263024Y-83735040D01*
X60281743Y-83729362D01*
X60303693Y-83727200D01*
X60600307Y-83727200D01*
X60622257Y-83729362D01*
G37*
G36*
X58082257Y-83729362D02*
G01*
X58100976Y-83735040D01*
X58118222Y-83744259D01*
X58133337Y-83756663D01*
X58145741Y-83771778D01*
X58154960Y-83789024D01*
X58160638Y-83807743D01*
X58162800Y-83829693D01*
X58162800Y-84186307D01*
X58160638Y-84208257D01*
X58154960Y-84226976D01*
X58145741Y-84244222D01*
X58133337Y-84259337D01*
X58118224Y-84271740D01*
X58096786Y-84283199D01*
X58088506Y-84288732D01*
X58081465Y-84295773D01*
X58075932Y-84304054D01*
X58072121Y-84313254D01*
X58070179Y-84323021D01*
X58070179Y-84332979D01*
X58072121Y-84342746D01*
X58075932Y-84351947D01*
X58081465Y-84360227D01*
X58088506Y-84367268D01*
X58096786Y-84372801D01*
X58118224Y-84384260D01*
X58133337Y-84396663D01*
X58145741Y-84411778D01*
X58154960Y-84429024D01*
X58160638Y-84447743D01*
X58162800Y-84469693D01*
X58162800Y-84826307D01*
X58160638Y-84848257D01*
X58154960Y-84866976D01*
X58145741Y-84884222D01*
X58133337Y-84899337D01*
X58118222Y-84911741D01*
X58100976Y-84920960D01*
X58082257Y-84926638D01*
X58060307Y-84928800D01*
X57763693Y-84928800D01*
X57741743Y-84926638D01*
X57723024Y-84920960D01*
X57705778Y-84911741D01*
X57690663Y-84899337D01*
X57678259Y-84884222D01*
X57669040Y-84866976D01*
X57663362Y-84848257D01*
X57661200Y-84826307D01*
X57661200Y-84469693D01*
X57663362Y-84447743D01*
X57669040Y-84429024D01*
X57678259Y-84411778D01*
X57690663Y-84396663D01*
X57705776Y-84384260D01*
X57727214Y-84372801D01*
X57735494Y-84367268D01*
X57742535Y-84360227D01*
X57748068Y-84351946D01*
X57751879Y-84342746D01*
X57753821Y-84332979D01*
X57753821Y-84323021D01*
X57751879Y-84313254D01*
X57748068Y-84304053D01*
X57742535Y-84295773D01*
X57735494Y-84288732D01*
X57727214Y-84283199D01*
X57705776Y-84271740D01*
X57690663Y-84259337D01*
X57678259Y-84244222D01*
X57669040Y-84226976D01*
X57663362Y-84208257D01*
X57661200Y-84186307D01*
X57661200Y-83829693D01*
X57663362Y-83807743D01*
X57669040Y-83789024D01*
X57678259Y-83771778D01*
X57690663Y-83756663D01*
X57705778Y-83744259D01*
X57723024Y-83735040D01*
X57741743Y-83729362D01*
X57763693Y-83727200D01*
X58060307Y-83727200D01*
X58082257Y-83729362D01*
G37*
G36*
X30142257Y-83221362D02*
G01*
X30160976Y-83227040D01*
X30178222Y-83236259D01*
X30193337Y-83248663D01*
X30205741Y-83263778D01*
X30214960Y-83281024D01*
X30220638Y-83299743D01*
X30222800Y-83321693D01*
X30222800Y-83678307D01*
X30220638Y-83700257D01*
X30214960Y-83718976D01*
X30205741Y-83736222D01*
X30193337Y-83751337D01*
X30178224Y-83763740D01*
X30156786Y-83775199D01*
X30148506Y-83780732D01*
X30141465Y-83787773D01*
X30135932Y-83796054D01*
X30132121Y-83805254D01*
X30130179Y-83815021D01*
X30130179Y-83824979D01*
X30132121Y-83834746D01*
X30135932Y-83843947D01*
X30141465Y-83852227D01*
X30148506Y-83859268D01*
X30156786Y-83864801D01*
X30178224Y-83876260D01*
X30193337Y-83888663D01*
X30205741Y-83903778D01*
X30214960Y-83921024D01*
X30220638Y-83939743D01*
X30222800Y-83961693D01*
X30222800Y-84318307D01*
X30220638Y-84340257D01*
X30214960Y-84358976D01*
X30205741Y-84376222D01*
X30193337Y-84391337D01*
X30178222Y-84403741D01*
X30160976Y-84412960D01*
X30142257Y-84418638D01*
X30120307Y-84420800D01*
X29823693Y-84420800D01*
X29801743Y-84418638D01*
X29783024Y-84412960D01*
X29765778Y-84403741D01*
X29750663Y-84391337D01*
X29738259Y-84376222D01*
X29729040Y-84358976D01*
X29723362Y-84340257D01*
X29721200Y-84318307D01*
X29721200Y-83961693D01*
X29723362Y-83939743D01*
X29729040Y-83921024D01*
X29738259Y-83903778D01*
X29750663Y-83888663D01*
X29765776Y-83876260D01*
X29787214Y-83864801D01*
X29795494Y-83859268D01*
X29802535Y-83852227D01*
X29808068Y-83843946D01*
X29811879Y-83834746D01*
X29813821Y-83824979D01*
X29813821Y-83815021D01*
X29811879Y-83805254D01*
X29808068Y-83796053D01*
X29802535Y-83787773D01*
X29795494Y-83780732D01*
X29787214Y-83775199D01*
X29765776Y-83763740D01*
X29750663Y-83751337D01*
X29738259Y-83736222D01*
X29729040Y-83718976D01*
X29723362Y-83700257D01*
X29721200Y-83678307D01*
X29721200Y-83321693D01*
X29723362Y-83299743D01*
X29729040Y-83281024D01*
X29738259Y-83263778D01*
X29750663Y-83248663D01*
X29765778Y-83236259D01*
X29783024Y-83227040D01*
X29801743Y-83221362D01*
X29823693Y-83219200D01*
X30120307Y-83219200D01*
X30142257Y-83221362D01*
G37*
G36*
X74846257Y-82713362D02*
G01*
X74864976Y-82719040D01*
X74882222Y-82728259D01*
X74897337Y-82740663D01*
X74909741Y-82755778D01*
X74918960Y-82773024D01*
X74924638Y-82791743D01*
X74926800Y-82813693D01*
X74926800Y-83170307D01*
X74924638Y-83192257D01*
X74918960Y-83210976D01*
X74909741Y-83228222D01*
X74897337Y-83243337D01*
X74882224Y-83255740D01*
X74860786Y-83267199D01*
X74852506Y-83272732D01*
X74845465Y-83279773D01*
X74839932Y-83288054D01*
X74836121Y-83297254D01*
X74834179Y-83307021D01*
X74834179Y-83316979D01*
X74836121Y-83326746D01*
X74839932Y-83335947D01*
X74845465Y-83344227D01*
X74852506Y-83351268D01*
X74860786Y-83356801D01*
X74882224Y-83368260D01*
X74897337Y-83380663D01*
X74909741Y-83395778D01*
X74918960Y-83413024D01*
X74924638Y-83431743D01*
X74926800Y-83453693D01*
X74926800Y-83810307D01*
X74924638Y-83832257D01*
X74918960Y-83850976D01*
X74909741Y-83868222D01*
X74897337Y-83883337D01*
X74882222Y-83895741D01*
X74864976Y-83904960D01*
X74846257Y-83910638D01*
X74824307Y-83912800D01*
X74527693Y-83912800D01*
X74505743Y-83910638D01*
X74487024Y-83904960D01*
X74469778Y-83895741D01*
X74454663Y-83883337D01*
X74442259Y-83868222D01*
X74433040Y-83850976D01*
X74427362Y-83832257D01*
X74425200Y-83810307D01*
X74425200Y-83453693D01*
X74427362Y-83431743D01*
X74433040Y-83413024D01*
X74442259Y-83395778D01*
X74454663Y-83380663D01*
X74469776Y-83368260D01*
X74491214Y-83356801D01*
X74499494Y-83351268D01*
X74506535Y-83344227D01*
X74512068Y-83335946D01*
X74515879Y-83326746D01*
X74517821Y-83316979D01*
X74517821Y-83307021D01*
X74515879Y-83297254D01*
X74512068Y-83288053D01*
X74506535Y-83279773D01*
X74499494Y-83272732D01*
X74491214Y-83267199D01*
X74469776Y-83255740D01*
X74454663Y-83243337D01*
X74442259Y-83228222D01*
X74433040Y-83210976D01*
X74427362Y-83192257D01*
X74425200Y-83170307D01*
X74425200Y-82813693D01*
X74427362Y-82791743D01*
X74433040Y-82773024D01*
X74442259Y-82755778D01*
X74454663Y-82740663D01*
X74469778Y-82728259D01*
X74487024Y-82719040D01*
X74505743Y-82713362D01*
X74527693Y-82711200D01*
X74824307Y-82711200D01*
X74846257Y-82713362D01*
G37*
G36*
X76370257Y-82713362D02*
G01*
X76388976Y-82719040D01*
X76406222Y-82728259D01*
X76421337Y-82740663D01*
X76433741Y-82755778D01*
X76442960Y-82773024D01*
X76448638Y-82791743D01*
X76450800Y-82813693D01*
X76450800Y-83170307D01*
X76448638Y-83192257D01*
X76442960Y-83210976D01*
X76433741Y-83228222D01*
X76421337Y-83243337D01*
X76406224Y-83255740D01*
X76384786Y-83267199D01*
X76376506Y-83272732D01*
X76369465Y-83279773D01*
X76363932Y-83288054D01*
X76360121Y-83297254D01*
X76358179Y-83307021D01*
X76358179Y-83316979D01*
X76360121Y-83326746D01*
X76363932Y-83335947D01*
X76369465Y-83344227D01*
X76376506Y-83351268D01*
X76384786Y-83356801D01*
X76406224Y-83368260D01*
X76421337Y-83380663D01*
X76433741Y-83395778D01*
X76442960Y-83413024D01*
X76448638Y-83431743D01*
X76450800Y-83453693D01*
X76450800Y-83810307D01*
X76448638Y-83832257D01*
X76442960Y-83850976D01*
X76433741Y-83868222D01*
X76421337Y-83883337D01*
X76406222Y-83895741D01*
X76388976Y-83904960D01*
X76370257Y-83910638D01*
X76348307Y-83912800D01*
X76051693Y-83912800D01*
X76029743Y-83910638D01*
X76011024Y-83904960D01*
X75993778Y-83895741D01*
X75978663Y-83883337D01*
X75966259Y-83868222D01*
X75957040Y-83850976D01*
X75951362Y-83832257D01*
X75949200Y-83810307D01*
X75949200Y-83453693D01*
X75951362Y-83431743D01*
X75957040Y-83413024D01*
X75966259Y-83395778D01*
X75978663Y-83380663D01*
X75993776Y-83368260D01*
X76015214Y-83356801D01*
X76023494Y-83351268D01*
X76030535Y-83344227D01*
X76036068Y-83335946D01*
X76039879Y-83326746D01*
X76041821Y-83316979D01*
X76041821Y-83307021D01*
X76039879Y-83297254D01*
X76036068Y-83288053D01*
X76030535Y-83279773D01*
X76023494Y-83272732D01*
X76015214Y-83267199D01*
X75993776Y-83255740D01*
X75978663Y-83243337D01*
X75966259Y-83228222D01*
X75957040Y-83210976D01*
X75951362Y-83192257D01*
X75949200Y-83170307D01*
X75949200Y-82813693D01*
X75951362Y-82791743D01*
X75957040Y-82773024D01*
X75966259Y-82755778D01*
X75978663Y-82740663D01*
X75993778Y-82728259D01*
X76011024Y-82719040D01*
X76029743Y-82713362D01*
X76051693Y-82711200D01*
X76348307Y-82711200D01*
X76370257Y-82713362D01*
G37*
G36*
X66210257Y-82205362D02*
G01*
X66228976Y-82211040D01*
X66246222Y-82220259D01*
X66261337Y-82232663D01*
X66273741Y-82247778D01*
X66282960Y-82265024D01*
X66288638Y-82283743D01*
X66290800Y-82305693D01*
X66290800Y-82662307D01*
X66288638Y-82684257D01*
X66282960Y-82702976D01*
X66273741Y-82720222D01*
X66261337Y-82735337D01*
X66246224Y-82747740D01*
X66224786Y-82759199D01*
X66216506Y-82764732D01*
X66209465Y-82771773D01*
X66203932Y-82780054D01*
X66200121Y-82789254D01*
X66198179Y-82799021D01*
X66198179Y-82808979D01*
X66200121Y-82818746D01*
X66203932Y-82827947D01*
X66209465Y-82836227D01*
X66216506Y-82843268D01*
X66224786Y-82848801D01*
X66246224Y-82860260D01*
X66261337Y-82872663D01*
X66273741Y-82887778D01*
X66282960Y-82905024D01*
X66288638Y-82923743D01*
X66290800Y-82945693D01*
X66290800Y-83302307D01*
X66288638Y-83324257D01*
X66282960Y-83342976D01*
X66273741Y-83360222D01*
X66261337Y-83375337D01*
X66246222Y-83387741D01*
X66228976Y-83396960D01*
X66210257Y-83402638D01*
X66188307Y-83404800D01*
X65891693Y-83404800D01*
X65869743Y-83402638D01*
X65851024Y-83396960D01*
X65833778Y-83387741D01*
X65818663Y-83375337D01*
X65806259Y-83360222D01*
X65797040Y-83342976D01*
X65791362Y-83324257D01*
X65789200Y-83302307D01*
X65789200Y-82945693D01*
X65791362Y-82923743D01*
X65797040Y-82905024D01*
X65806259Y-82887778D01*
X65818663Y-82872663D01*
X65833776Y-82860260D01*
X65855214Y-82848801D01*
X65863494Y-82843268D01*
X65870535Y-82836227D01*
X65876068Y-82827946D01*
X65879879Y-82818746D01*
X65881821Y-82808979D01*
X65881821Y-82799021D01*
X65879879Y-82789254D01*
X65876068Y-82780053D01*
X65870535Y-82771773D01*
X65863494Y-82764732D01*
X65855214Y-82759199D01*
X65833776Y-82747740D01*
X65818663Y-82735337D01*
X65806259Y-82720222D01*
X65797040Y-82702976D01*
X65791362Y-82684257D01*
X65789200Y-82662307D01*
X65789200Y-82305693D01*
X65791362Y-82283743D01*
X65797040Y-82265024D01*
X65806259Y-82247778D01*
X65818663Y-82232663D01*
X65833778Y-82220259D01*
X65851024Y-82211040D01*
X65869743Y-82205362D01*
X65891693Y-82203200D01*
X66188307Y-82203200D01*
X66210257Y-82205362D01*
G37*
G36*
X64686257Y-82205362D02*
G01*
X64704976Y-82211040D01*
X64722222Y-82220259D01*
X64737337Y-82232663D01*
X64749741Y-82247778D01*
X64758960Y-82265024D01*
X64764638Y-82283743D01*
X64766800Y-82305693D01*
X64766800Y-82662307D01*
X64764638Y-82684257D01*
X64758960Y-82702976D01*
X64749741Y-82720222D01*
X64737337Y-82735337D01*
X64722224Y-82747740D01*
X64700786Y-82759199D01*
X64692506Y-82764732D01*
X64685465Y-82771773D01*
X64679932Y-82780054D01*
X64676121Y-82789254D01*
X64674179Y-82799021D01*
X64674179Y-82808979D01*
X64676121Y-82818746D01*
X64679932Y-82827947D01*
X64685465Y-82836227D01*
X64692506Y-82843268D01*
X64700786Y-82848801D01*
X64722224Y-82860260D01*
X64737337Y-82872663D01*
X64749741Y-82887778D01*
X64758960Y-82905024D01*
X64764638Y-82923743D01*
X64766800Y-82945693D01*
X64766800Y-83302307D01*
X64764638Y-83324257D01*
X64758960Y-83342976D01*
X64749741Y-83360222D01*
X64737337Y-83375337D01*
X64722222Y-83387741D01*
X64704976Y-83396960D01*
X64686257Y-83402638D01*
X64664307Y-83404800D01*
X64367693Y-83404800D01*
X64345743Y-83402638D01*
X64327024Y-83396960D01*
X64309778Y-83387741D01*
X64294663Y-83375337D01*
X64282259Y-83360222D01*
X64273040Y-83342976D01*
X64267362Y-83324257D01*
X64265200Y-83302307D01*
X64265200Y-82945693D01*
X64267362Y-82923743D01*
X64273040Y-82905024D01*
X64282259Y-82887778D01*
X64294663Y-82872663D01*
X64309776Y-82860260D01*
X64331214Y-82848801D01*
X64339494Y-82843268D01*
X64346535Y-82836227D01*
X64352068Y-82827946D01*
X64355879Y-82818746D01*
X64357821Y-82808979D01*
X64357821Y-82799021D01*
X64355879Y-82789254D01*
X64352068Y-82780053D01*
X64346535Y-82771773D01*
X64339494Y-82764732D01*
X64331214Y-82759199D01*
X64309776Y-82747740D01*
X64294663Y-82735337D01*
X64282259Y-82720222D01*
X64273040Y-82702976D01*
X64267362Y-82684257D01*
X64265200Y-82662307D01*
X64265200Y-82305693D01*
X64267362Y-82283743D01*
X64273040Y-82265024D01*
X64282259Y-82247778D01*
X64294663Y-82232663D01*
X64309778Y-82220259D01*
X64327024Y-82211040D01*
X64345743Y-82205362D01*
X64367693Y-82203200D01*
X64664307Y-82203200D01*
X64686257Y-82205362D01*
G37*
G36*
X68242257Y-82205362D02*
G01*
X68260976Y-82211040D01*
X68278222Y-82220259D01*
X68293337Y-82232663D01*
X68305741Y-82247778D01*
X68314960Y-82265024D01*
X68320638Y-82283743D01*
X68322800Y-82305693D01*
X68322800Y-82662307D01*
X68320638Y-82684257D01*
X68314960Y-82702976D01*
X68305741Y-82720222D01*
X68293337Y-82735337D01*
X68278224Y-82747740D01*
X68256786Y-82759199D01*
X68248506Y-82764732D01*
X68241465Y-82771773D01*
X68235932Y-82780054D01*
X68232121Y-82789254D01*
X68230179Y-82799021D01*
X68230179Y-82808979D01*
X68232121Y-82818746D01*
X68235932Y-82827947D01*
X68241465Y-82836227D01*
X68248506Y-82843268D01*
X68256786Y-82848801D01*
X68278224Y-82860260D01*
X68293337Y-82872663D01*
X68305741Y-82887778D01*
X68314960Y-82905024D01*
X68320638Y-82923743D01*
X68322800Y-82945693D01*
X68322800Y-83302307D01*
X68320638Y-83324257D01*
X68314960Y-83342976D01*
X68305741Y-83360222D01*
X68293337Y-83375337D01*
X68278222Y-83387741D01*
X68260976Y-83396960D01*
X68242257Y-83402638D01*
X68220307Y-83404800D01*
X67923693Y-83404800D01*
X67901743Y-83402638D01*
X67883024Y-83396960D01*
X67865778Y-83387741D01*
X67850663Y-83375337D01*
X67838259Y-83360222D01*
X67829040Y-83342976D01*
X67823362Y-83324257D01*
X67821200Y-83302307D01*
X67821200Y-82945693D01*
X67823362Y-82923743D01*
X67829040Y-82905024D01*
X67838259Y-82887778D01*
X67850663Y-82872663D01*
X67865776Y-82860260D01*
X67887214Y-82848801D01*
X67895494Y-82843268D01*
X67902535Y-82836227D01*
X67908068Y-82827946D01*
X67911879Y-82818746D01*
X67913821Y-82808979D01*
X67913821Y-82799021D01*
X67911879Y-82789254D01*
X67908068Y-82780053D01*
X67902535Y-82771773D01*
X67895494Y-82764732D01*
X67887214Y-82759199D01*
X67865776Y-82747740D01*
X67850663Y-82735337D01*
X67838259Y-82720222D01*
X67829040Y-82702976D01*
X67823362Y-82684257D01*
X67821200Y-82662307D01*
X67821200Y-82305693D01*
X67823362Y-82283743D01*
X67829040Y-82265024D01*
X67838259Y-82247778D01*
X67850663Y-82232663D01*
X67865778Y-82220259D01*
X67883024Y-82211040D01*
X67901743Y-82205362D01*
X67923693Y-82203200D01*
X68220307Y-82203200D01*
X68242257Y-82205362D01*
G37*
G36*
X69766257Y-82205362D02*
G01*
X69784976Y-82211040D01*
X69802222Y-82220259D01*
X69817337Y-82232663D01*
X69829741Y-82247778D01*
X69838960Y-82265024D01*
X69844638Y-82283743D01*
X69846800Y-82305693D01*
X69846800Y-82662307D01*
X69844638Y-82684257D01*
X69838960Y-82702976D01*
X69829741Y-82720222D01*
X69817337Y-82735337D01*
X69802224Y-82747740D01*
X69780786Y-82759199D01*
X69772506Y-82764732D01*
X69765465Y-82771773D01*
X69759932Y-82780054D01*
X69756121Y-82789254D01*
X69754179Y-82799021D01*
X69754179Y-82808979D01*
X69756121Y-82818746D01*
X69759932Y-82827947D01*
X69765465Y-82836227D01*
X69772506Y-82843268D01*
X69780786Y-82848801D01*
X69802224Y-82860260D01*
X69817337Y-82872663D01*
X69829741Y-82887778D01*
X69838960Y-82905024D01*
X69844638Y-82923743D01*
X69846800Y-82945693D01*
X69846800Y-83302307D01*
X69844638Y-83324257D01*
X69838960Y-83342976D01*
X69829741Y-83360222D01*
X69817337Y-83375337D01*
X69802222Y-83387741D01*
X69784976Y-83396960D01*
X69766257Y-83402638D01*
X69744307Y-83404800D01*
X69447693Y-83404800D01*
X69425743Y-83402638D01*
X69407024Y-83396960D01*
X69389778Y-83387741D01*
X69374663Y-83375337D01*
X69362259Y-83360222D01*
X69353040Y-83342976D01*
X69347362Y-83324257D01*
X69345200Y-83302307D01*
X69345200Y-82945693D01*
X69347362Y-82923743D01*
X69353040Y-82905024D01*
X69362259Y-82887778D01*
X69374663Y-82872663D01*
X69389776Y-82860260D01*
X69411214Y-82848801D01*
X69419494Y-82843268D01*
X69426535Y-82836227D01*
X69432068Y-82827946D01*
X69435879Y-82818746D01*
X69437821Y-82808979D01*
X69437821Y-82799021D01*
X69435879Y-82789254D01*
X69432068Y-82780053D01*
X69426535Y-82771773D01*
X69419494Y-82764732D01*
X69411214Y-82759199D01*
X69389776Y-82747740D01*
X69374663Y-82735337D01*
X69362259Y-82720222D01*
X69353040Y-82702976D01*
X69347362Y-82684257D01*
X69345200Y-82662307D01*
X69345200Y-82305693D01*
X69347362Y-82283743D01*
X69353040Y-82265024D01*
X69362259Y-82247778D01*
X69374663Y-82232663D01*
X69389778Y-82220259D01*
X69407024Y-82211040D01*
X69425743Y-82205362D01*
X69447693Y-82203200D01*
X69744307Y-82203200D01*
X69766257Y-82205362D01*
G37*
G36*
X40738699Y-81375049D02*
G01*
X40783648Y-81388684D01*
X40825072Y-81410826D01*
X40861379Y-81440621D01*
X40891174Y-81476928D01*
X40913316Y-81518352D01*
X40926951Y-81563301D01*
X40931800Y-81612533D01*
X40931800Y-82979467D01*
X40926951Y-83028699D01*
X40913316Y-83073648D01*
X40891174Y-83115072D01*
X40861379Y-83151379D01*
X40825072Y-83181174D01*
X40783648Y-83203316D01*
X40738699Y-83216951D01*
X40689467Y-83221800D01*
X39822533Y-83221800D01*
X39773301Y-83216951D01*
X39728352Y-83203316D01*
X39686928Y-83181174D01*
X39650621Y-83151379D01*
X39620826Y-83115072D01*
X39598684Y-83073648D01*
X39585049Y-83028699D01*
X39580200Y-82979467D01*
X39580200Y-81612533D01*
X39585049Y-81563301D01*
X39598684Y-81518352D01*
X39620826Y-81476928D01*
X39650621Y-81440621D01*
X39686928Y-81410826D01*
X39728352Y-81388684D01*
X39773301Y-81375049D01*
X39822533Y-81370200D01*
X40689467Y-81370200D01*
X40738699Y-81375049D01*
G37*
G36*
X43538699Y-81375049D02*
G01*
X43583648Y-81388684D01*
X43625072Y-81410826D01*
X43661379Y-81440621D01*
X43691174Y-81476928D01*
X43713316Y-81518352D01*
X43726951Y-81563301D01*
X43731800Y-81612533D01*
X43731800Y-82979467D01*
X43726951Y-83028699D01*
X43713316Y-83073648D01*
X43691174Y-83115072D01*
X43661379Y-83151379D01*
X43625072Y-83181174D01*
X43583648Y-83203316D01*
X43538699Y-83216951D01*
X43489467Y-83221800D01*
X42622533Y-83221800D01*
X42573301Y-83216951D01*
X42528352Y-83203316D01*
X42486928Y-83181174D01*
X42450621Y-83151379D01*
X42420826Y-83115072D01*
X42398684Y-83073648D01*
X42385049Y-83028699D01*
X42380200Y-82979467D01*
X42380200Y-81612533D01*
X42385049Y-81563301D01*
X42398684Y-81518352D01*
X42420826Y-81476928D01*
X42450621Y-81440621D01*
X42486928Y-81410826D01*
X42528352Y-81388684D01*
X42573301Y-81375049D01*
X42622533Y-81370200D01*
X43489467Y-81370200D01*
X43538699Y-81375049D01*
G37*
G36*
X47414257Y-80681362D02*
G01*
X47432976Y-80687040D01*
X47450222Y-80696259D01*
X47465337Y-80708663D01*
X47477741Y-80723778D01*
X47486960Y-80741024D01*
X47492638Y-80759743D01*
X47494800Y-80781693D01*
X47494800Y-81138307D01*
X47492638Y-81160257D01*
X47486960Y-81178976D01*
X47477741Y-81196222D01*
X47465337Y-81211337D01*
X47450224Y-81223740D01*
X47428786Y-81235199D01*
X47420506Y-81240732D01*
X47413465Y-81247773D01*
X47407932Y-81256054D01*
X47404121Y-81265254D01*
X47402179Y-81275021D01*
X47402179Y-81284979D01*
X47404121Y-81294746D01*
X47407932Y-81303947D01*
X47413465Y-81312227D01*
X47420506Y-81319268D01*
X47428786Y-81324801D01*
X47450224Y-81336260D01*
X47465337Y-81348663D01*
X47477741Y-81363778D01*
X47486960Y-81381024D01*
X47492638Y-81399743D01*
X47494800Y-81421693D01*
X47494800Y-81778307D01*
X47492638Y-81800257D01*
X47486960Y-81818976D01*
X47477741Y-81836222D01*
X47465337Y-81851337D01*
X47450222Y-81863741D01*
X47432976Y-81872960D01*
X47414257Y-81878638D01*
X47392307Y-81880800D01*
X47095693Y-81880800D01*
X47073743Y-81878638D01*
X47055024Y-81872960D01*
X47037778Y-81863741D01*
X47022663Y-81851337D01*
X47010259Y-81836222D01*
X47001040Y-81818976D01*
X46995362Y-81800257D01*
X46993200Y-81778307D01*
X46993200Y-81421693D01*
X46995362Y-81399743D01*
X47001040Y-81381024D01*
X47010259Y-81363778D01*
X47022663Y-81348663D01*
X47037776Y-81336260D01*
X47059214Y-81324801D01*
X47067494Y-81319268D01*
X47074535Y-81312227D01*
X47080068Y-81303946D01*
X47083879Y-81294746D01*
X47085821Y-81284979D01*
X47085821Y-81275021D01*
X47083879Y-81265254D01*
X47080068Y-81256053D01*
X47074535Y-81247773D01*
X47067494Y-81240732D01*
X47059214Y-81235199D01*
X47037776Y-81223740D01*
X47022663Y-81211337D01*
X47010259Y-81196222D01*
X47001040Y-81178976D01*
X46995362Y-81160257D01*
X46993200Y-81138307D01*
X46993200Y-80781693D01*
X46995362Y-80759743D01*
X47001040Y-80741024D01*
X47010259Y-80723778D01*
X47022663Y-80708663D01*
X47037778Y-80696259D01*
X47055024Y-80687040D01*
X47073743Y-80681362D01*
X47095693Y-80679200D01*
X47392307Y-80679200D01*
X47414257Y-80681362D01*
G37*
G36*
X48176257Y-80681362D02*
G01*
X48194976Y-80687040D01*
X48212222Y-80696259D01*
X48227337Y-80708663D01*
X48239741Y-80723778D01*
X48248960Y-80741024D01*
X48254638Y-80759743D01*
X48256800Y-80781693D01*
X48256800Y-81138307D01*
X48254638Y-81160257D01*
X48248960Y-81178976D01*
X48239741Y-81196222D01*
X48227337Y-81211337D01*
X48212224Y-81223740D01*
X48190786Y-81235199D01*
X48182506Y-81240732D01*
X48175465Y-81247773D01*
X48169932Y-81256054D01*
X48166121Y-81265254D01*
X48164179Y-81275021D01*
X48164179Y-81284979D01*
X48166121Y-81294746D01*
X48169932Y-81303947D01*
X48175465Y-81312227D01*
X48182506Y-81319268D01*
X48190786Y-81324801D01*
X48212224Y-81336260D01*
X48227337Y-81348663D01*
X48239741Y-81363778D01*
X48248960Y-81381024D01*
X48254638Y-81399743D01*
X48256800Y-81421693D01*
X48256800Y-81778307D01*
X48254638Y-81800257D01*
X48248960Y-81818976D01*
X48239741Y-81836222D01*
X48227337Y-81851337D01*
X48212222Y-81863741D01*
X48194976Y-81872960D01*
X48176257Y-81878638D01*
X48154307Y-81880800D01*
X47857693Y-81880800D01*
X47835743Y-81878638D01*
X47817024Y-81872960D01*
X47799778Y-81863741D01*
X47784663Y-81851337D01*
X47772259Y-81836222D01*
X47763040Y-81818976D01*
X47757362Y-81800257D01*
X47755200Y-81778307D01*
X47755200Y-81421693D01*
X47757362Y-81399743D01*
X47763040Y-81381024D01*
X47772259Y-81363778D01*
X47784663Y-81348663D01*
X47799776Y-81336260D01*
X47821214Y-81324801D01*
X47829494Y-81319268D01*
X47836535Y-81312227D01*
X47842068Y-81303946D01*
X47845879Y-81294746D01*
X47847821Y-81284979D01*
X47847821Y-81275021D01*
X47845879Y-81265254D01*
X47842068Y-81256053D01*
X47836535Y-81247773D01*
X47829494Y-81240732D01*
X47821214Y-81235199D01*
X47799776Y-81223740D01*
X47784663Y-81211337D01*
X47772259Y-81196222D01*
X47763040Y-81178976D01*
X47757362Y-81160257D01*
X47755200Y-81138307D01*
X47755200Y-80781693D01*
X47757362Y-80759743D01*
X47763040Y-80741024D01*
X47772259Y-80723778D01*
X47784663Y-80708663D01*
X47799778Y-80696259D01*
X47817024Y-80687040D01*
X47835743Y-80681362D01*
X47857693Y-80679200D01*
X48154307Y-80679200D01*
X48176257Y-80681362D01*
G37*
G36*
X32361075Y-80341808D02*
G01*
X32460188Y-80371874D01*
X32551532Y-80420698D01*
X32631596Y-80486404D01*
X32697302Y-80566468D01*
X32746126Y-80657813D01*
X32776192Y-80756926D01*
X32783800Y-80834171D01*
X32783800Y-81185830D01*
X32776192Y-81263075D01*
X32746126Y-81362188D01*
X32697302Y-81453532D01*
X32631596Y-81533596D01*
X32551532Y-81599302D01*
X32460187Y-81648126D01*
X32361074Y-81678192D01*
X32258000Y-81688344D01*
X32154925Y-81678192D01*
X32055812Y-81648126D01*
X31964468Y-81599302D01*
X31884404Y-81533596D01*
X31818698Y-81453532D01*
X31769874Y-81362187D01*
X31739808Y-81263074D01*
X31732200Y-81185829D01*
X31732200Y-80834170D01*
X31739808Y-80756925D01*
X31762558Y-80681932D01*
X31769874Y-80657813D01*
X31794287Y-80612140D01*
X31818699Y-80566468D01*
X31884405Y-80486404D01*
X31964469Y-80420698D01*
X32055813Y-80371874D01*
X32154926Y-80341808D01*
X32258000Y-80331656D01*
X32361075Y-80341808D01*
G37*
G36*
X52204257Y-81031362D02*
G01*
X52222976Y-81037040D01*
X52240222Y-81046259D01*
X52255337Y-81058663D01*
X52267740Y-81073776D01*
X52279199Y-81095214D01*
X52284732Y-81103494D01*
X52291773Y-81110535D01*
X52300054Y-81116068D01*
X52309254Y-81119879D01*
X52319021Y-81121821D01*
X52328979Y-81121821D01*
X52338746Y-81119879D01*
X52347947Y-81116068D01*
X52356227Y-81110535D01*
X52363268Y-81103494D01*
X52368801Y-81095214D01*
X52380260Y-81073776D01*
X52392663Y-81058663D01*
X52407778Y-81046259D01*
X52425024Y-81037040D01*
X52443743Y-81031362D01*
X52465693Y-81029200D01*
X52822307Y-81029200D01*
X52844257Y-81031362D01*
X52862976Y-81037040D01*
X52880222Y-81046259D01*
X52895337Y-81058663D01*
X52907741Y-81073778D01*
X52916960Y-81091024D01*
X52922638Y-81109743D01*
X52924800Y-81131693D01*
X52924800Y-81428307D01*
X52922638Y-81450257D01*
X52916960Y-81468976D01*
X52907741Y-81486222D01*
X52895337Y-81501337D01*
X52880222Y-81513741D01*
X52862976Y-81522960D01*
X52844257Y-81528638D01*
X52822307Y-81530800D01*
X52465693Y-81530800D01*
X52443743Y-81528638D01*
X52425024Y-81522960D01*
X52407778Y-81513741D01*
X52392663Y-81501337D01*
X52380260Y-81486224D01*
X52368801Y-81464786D01*
X52363268Y-81456506D01*
X52356227Y-81449465D01*
X52347946Y-81443932D01*
X52338746Y-81440121D01*
X52328979Y-81438179D01*
X52319021Y-81438179D01*
X52309254Y-81440121D01*
X52300053Y-81443932D01*
X52291773Y-81449465D01*
X52284732Y-81456506D01*
X52279199Y-81464786D01*
X52267740Y-81486224D01*
X52255337Y-81501337D01*
X52240222Y-81513741D01*
X52222976Y-81522960D01*
X52204257Y-81528638D01*
X52182307Y-81530800D01*
X51825693Y-81530800D01*
X51803743Y-81528638D01*
X51785024Y-81522960D01*
X51767778Y-81513741D01*
X51752663Y-81501337D01*
X51740259Y-81486222D01*
X51731040Y-81468976D01*
X51725362Y-81450257D01*
X51723200Y-81428307D01*
X51723200Y-81131693D01*
X51725362Y-81109743D01*
X51731040Y-81091024D01*
X51740259Y-81073778D01*
X51752663Y-81058663D01*
X51767778Y-81046259D01*
X51785024Y-81037040D01*
X51803743Y-81031362D01*
X51825693Y-81029200D01*
X52182307Y-81029200D01*
X52204257Y-81031362D01*
G37*
G36*
X37762257Y-79665362D02*
G01*
X37780976Y-79671040D01*
X37798222Y-79680259D01*
X37813337Y-79692663D01*
X37825741Y-79707778D01*
X37834960Y-79725024D01*
X37840638Y-79743743D01*
X37842800Y-79765693D01*
X37842800Y-80122307D01*
X37840638Y-80144257D01*
X37834960Y-80162976D01*
X37825741Y-80180222D01*
X37813337Y-80195337D01*
X37798224Y-80207740D01*
X37776786Y-80219199D01*
X37768506Y-80224732D01*
X37761465Y-80231773D01*
X37755932Y-80240054D01*
X37752121Y-80249254D01*
X37750179Y-80259021D01*
X37750179Y-80268979D01*
X37752121Y-80278746D01*
X37755932Y-80287947D01*
X37761465Y-80296227D01*
X37768506Y-80303268D01*
X37776786Y-80308801D01*
X37798224Y-80320260D01*
X37813337Y-80332663D01*
X37825741Y-80347778D01*
X37834960Y-80365024D01*
X37840638Y-80383743D01*
X37842800Y-80405693D01*
X37842800Y-80762307D01*
X37840638Y-80784257D01*
X37834960Y-80802976D01*
X37825741Y-80820222D01*
X37813337Y-80835337D01*
X37798222Y-80847741D01*
X37780976Y-80856960D01*
X37762257Y-80862638D01*
X37740307Y-80864800D01*
X37443693Y-80864800D01*
X37421743Y-80862638D01*
X37403024Y-80856960D01*
X37385778Y-80847741D01*
X37370663Y-80835337D01*
X37358259Y-80820222D01*
X37349040Y-80802976D01*
X37343362Y-80784257D01*
X37341200Y-80762307D01*
X37341200Y-80405693D01*
X37343362Y-80383743D01*
X37349040Y-80365024D01*
X37358259Y-80347778D01*
X37370663Y-80332663D01*
X37385776Y-80320260D01*
X37407214Y-80308801D01*
X37415494Y-80303268D01*
X37422535Y-80296227D01*
X37428068Y-80287946D01*
X37431879Y-80278746D01*
X37433821Y-80268979D01*
X37433821Y-80259021D01*
X37431879Y-80249254D01*
X37428068Y-80240053D01*
X37422535Y-80231773D01*
X37415494Y-80224732D01*
X37407214Y-80219199D01*
X37385776Y-80207740D01*
X37370663Y-80195337D01*
X37358259Y-80180222D01*
X37349040Y-80162976D01*
X37343362Y-80144257D01*
X37341200Y-80122307D01*
X37341200Y-79765693D01*
X37343362Y-79743743D01*
X37349040Y-79725024D01*
X37358259Y-79707778D01*
X37370663Y-79692663D01*
X37385778Y-79680259D01*
X37403024Y-79671040D01*
X37421743Y-79665362D01*
X37443693Y-79663200D01*
X37740307Y-79663200D01*
X37762257Y-79665362D01*
G37*
G36*
X35730257Y-79665362D02*
G01*
X35748976Y-79671040D01*
X35766222Y-79680259D01*
X35781337Y-79692663D01*
X35793741Y-79707778D01*
X35802960Y-79725024D01*
X35808638Y-79743743D01*
X35810800Y-79765693D01*
X35810800Y-80122307D01*
X35808638Y-80144257D01*
X35802960Y-80162976D01*
X35793741Y-80180222D01*
X35781337Y-80195337D01*
X35766224Y-80207740D01*
X35744786Y-80219199D01*
X35736506Y-80224732D01*
X35729465Y-80231773D01*
X35723932Y-80240054D01*
X35720121Y-80249254D01*
X35718179Y-80259021D01*
X35718179Y-80268979D01*
X35720121Y-80278746D01*
X35723932Y-80287947D01*
X35729465Y-80296227D01*
X35736506Y-80303268D01*
X35744786Y-80308801D01*
X35766224Y-80320260D01*
X35781337Y-80332663D01*
X35793741Y-80347778D01*
X35802960Y-80365024D01*
X35808638Y-80383743D01*
X35810800Y-80405693D01*
X35810800Y-80762307D01*
X35808638Y-80784257D01*
X35802960Y-80802976D01*
X35793741Y-80820222D01*
X35781337Y-80835337D01*
X35766222Y-80847741D01*
X35748976Y-80856960D01*
X35730257Y-80862638D01*
X35708307Y-80864800D01*
X35411693Y-80864800D01*
X35389743Y-80862638D01*
X35371024Y-80856960D01*
X35353778Y-80847741D01*
X35338663Y-80835337D01*
X35326259Y-80820222D01*
X35317040Y-80802976D01*
X35311362Y-80784257D01*
X35309200Y-80762307D01*
X35309200Y-80405693D01*
X35311362Y-80383743D01*
X35317040Y-80365024D01*
X35326259Y-80347778D01*
X35338663Y-80332663D01*
X35353776Y-80320260D01*
X35375214Y-80308801D01*
X35383494Y-80303268D01*
X35390535Y-80296227D01*
X35396068Y-80287946D01*
X35399879Y-80278746D01*
X35401821Y-80268979D01*
X35401821Y-80259021D01*
X35399879Y-80249254D01*
X35396068Y-80240053D01*
X35390535Y-80231773D01*
X35383494Y-80224732D01*
X35375214Y-80219199D01*
X35353776Y-80207740D01*
X35338663Y-80195337D01*
X35326259Y-80180222D01*
X35317040Y-80162976D01*
X35311362Y-80144257D01*
X35309200Y-80122307D01*
X35309200Y-79765693D01*
X35311362Y-79743743D01*
X35317040Y-79725024D01*
X35326259Y-79707778D01*
X35338663Y-79692663D01*
X35353778Y-79680259D01*
X35371024Y-79671040D01*
X35389743Y-79665362D01*
X35411693Y-79663200D01*
X35708307Y-79663200D01*
X35730257Y-79665362D01*
G37*
G36*
X52204257Y-80269362D02*
G01*
X52222976Y-80275040D01*
X52240222Y-80284259D01*
X52255337Y-80296663D01*
X52267740Y-80311776D01*
X52279199Y-80333214D01*
X52284732Y-80341494D01*
X52291773Y-80348535D01*
X52300054Y-80354068D01*
X52309254Y-80357879D01*
X52319021Y-80359821D01*
X52328979Y-80359821D01*
X52338746Y-80357879D01*
X52347947Y-80354068D01*
X52356227Y-80348535D01*
X52363268Y-80341494D01*
X52368801Y-80333214D01*
X52380260Y-80311776D01*
X52392663Y-80296663D01*
X52407778Y-80284259D01*
X52425024Y-80275040D01*
X52443743Y-80269362D01*
X52465693Y-80267200D01*
X52822307Y-80267200D01*
X52844257Y-80269362D01*
X52862976Y-80275040D01*
X52880222Y-80284259D01*
X52895337Y-80296663D01*
X52907741Y-80311778D01*
X52916960Y-80329024D01*
X52922638Y-80347743D01*
X52924800Y-80369693D01*
X52924800Y-80666307D01*
X52922638Y-80688257D01*
X52916960Y-80706976D01*
X52907741Y-80724222D01*
X52895337Y-80739337D01*
X52880222Y-80751741D01*
X52862976Y-80760960D01*
X52844257Y-80766638D01*
X52822307Y-80768800D01*
X52465693Y-80768800D01*
X52443743Y-80766638D01*
X52425024Y-80760960D01*
X52407778Y-80751741D01*
X52392663Y-80739337D01*
X52380260Y-80724224D01*
X52368801Y-80702786D01*
X52363268Y-80694506D01*
X52356227Y-80687465D01*
X52347946Y-80681932D01*
X52338746Y-80678121D01*
X52328979Y-80676179D01*
X52319021Y-80676179D01*
X52309254Y-80678121D01*
X52300053Y-80681932D01*
X52291773Y-80687465D01*
X52284732Y-80694506D01*
X52279199Y-80702786D01*
X52267740Y-80724224D01*
X52255337Y-80739337D01*
X52240222Y-80751741D01*
X52222976Y-80760960D01*
X52204257Y-80766638D01*
X52182307Y-80768800D01*
X51825693Y-80768800D01*
X51803743Y-80766638D01*
X51785024Y-80760960D01*
X51767778Y-80751741D01*
X51752663Y-80739337D01*
X51740259Y-80724222D01*
X51731040Y-80706976D01*
X51725362Y-80688257D01*
X51723200Y-80666307D01*
X51723200Y-80369693D01*
X51725362Y-80347743D01*
X51731040Y-80329024D01*
X51740259Y-80311778D01*
X51752663Y-80296663D01*
X51767778Y-80284259D01*
X51785024Y-80275040D01*
X51803743Y-80269362D01*
X51825693Y-80267200D01*
X52182307Y-80267200D01*
X52204257Y-80269362D01*
G37*
G36*
X29875758Y-79460746D02*
G01*
X29940970Y-79467169D01*
X29940972Y-79467170D01*
X29940976Y-79467170D01*
X30044802Y-79498665D01*
X30140489Y-79549811D01*
X30224359Y-79618641D01*
X30293189Y-79702511D01*
X30344335Y-79798198D01*
X30375830Y-79902024D01*
X30386465Y-80010000D01*
X30375830Y-80117976D01*
X30344335Y-80221802D01*
X30293189Y-80317489D01*
X30224359Y-80401359D01*
X30140489Y-80470189D01*
X30044802Y-80521335D01*
X29940976Y-80552830D01*
X29940972Y-80552830D01*
X29940970Y-80552831D01*
X29875758Y-80559254D01*
X29860057Y-80560800D01*
X29255943Y-80560800D01*
X29240242Y-80559254D01*
X29175030Y-80552831D01*
X29175028Y-80552830D01*
X29175024Y-80552830D01*
X29071198Y-80521335D01*
X28975511Y-80470189D01*
X28891641Y-80401359D01*
X28822811Y-80317489D01*
X28771665Y-80221802D01*
X28740170Y-80117976D01*
X28729535Y-80010000D01*
X28740170Y-79902024D01*
X28771665Y-79798198D01*
X28822811Y-79702511D01*
X28891641Y-79618641D01*
X28975511Y-79549811D01*
X29071198Y-79498665D01*
X29175024Y-79467170D01*
X29175028Y-79467170D01*
X29175030Y-79467169D01*
X29240242Y-79460746D01*
X29255943Y-79459200D01*
X29860057Y-79459200D01*
X29875758Y-79460746D01*
G37*
G36*
X72814257Y-79157362D02*
G01*
X72832976Y-79163040D01*
X72850222Y-79172259D01*
X72865337Y-79184663D01*
X72877741Y-79199778D01*
X72886960Y-79217024D01*
X72892638Y-79235743D01*
X72894800Y-79257693D01*
X72894800Y-79614307D01*
X72892638Y-79636257D01*
X72886960Y-79654976D01*
X72877741Y-79672222D01*
X72865337Y-79687337D01*
X72850224Y-79699740D01*
X72828786Y-79711199D01*
X72820506Y-79716732D01*
X72813465Y-79723773D01*
X72807932Y-79732054D01*
X72804121Y-79741254D01*
X72802179Y-79751021D01*
X72802179Y-79760979D01*
X72804121Y-79770746D01*
X72807932Y-79779947D01*
X72813465Y-79788227D01*
X72820506Y-79795268D01*
X72828786Y-79800801D01*
X72850224Y-79812260D01*
X72865337Y-79824663D01*
X72877741Y-79839778D01*
X72886960Y-79857024D01*
X72892638Y-79875743D01*
X72894800Y-79897693D01*
X72894800Y-80254307D01*
X72892638Y-80276257D01*
X72886960Y-80294976D01*
X72877741Y-80312222D01*
X72865337Y-80327337D01*
X72850222Y-80339741D01*
X72832976Y-80348960D01*
X72814257Y-80354638D01*
X72792307Y-80356800D01*
X72495693Y-80356800D01*
X72473743Y-80354638D01*
X72455024Y-80348960D01*
X72437778Y-80339741D01*
X72422663Y-80327337D01*
X72410259Y-80312222D01*
X72401040Y-80294976D01*
X72395362Y-80276257D01*
X72393200Y-80254307D01*
X72393200Y-79897693D01*
X72395362Y-79875743D01*
X72401040Y-79857024D01*
X72410259Y-79839778D01*
X72422663Y-79824663D01*
X72437776Y-79812260D01*
X72459214Y-79800801D01*
X72467494Y-79795268D01*
X72474535Y-79788227D01*
X72480068Y-79779946D01*
X72483879Y-79770746D01*
X72485821Y-79760979D01*
X72485821Y-79751021D01*
X72483879Y-79741254D01*
X72480068Y-79732053D01*
X72474535Y-79723773D01*
X72467494Y-79716732D01*
X72459214Y-79711199D01*
X72437776Y-79699740D01*
X72422663Y-79687337D01*
X72410259Y-79672222D01*
X72401040Y-79654976D01*
X72395362Y-79636257D01*
X72393200Y-79614307D01*
X72393200Y-79257693D01*
X72395362Y-79235743D01*
X72401040Y-79217024D01*
X72410259Y-79199778D01*
X72422663Y-79184663D01*
X72437778Y-79172259D01*
X72455024Y-79163040D01*
X72473743Y-79157362D01*
X72495693Y-79155200D01*
X72792307Y-79155200D01*
X72814257Y-79157362D01*
G37*
G36*
X77894257Y-79157362D02*
G01*
X77912976Y-79163040D01*
X77930222Y-79172259D01*
X77945337Y-79184663D01*
X77957741Y-79199778D01*
X77966960Y-79217024D01*
X77972638Y-79235743D01*
X77974800Y-79257693D01*
X77974800Y-79614307D01*
X77972638Y-79636257D01*
X77966960Y-79654976D01*
X77957741Y-79672222D01*
X77945337Y-79687337D01*
X77930224Y-79699740D01*
X77908786Y-79711199D01*
X77900506Y-79716732D01*
X77893465Y-79723773D01*
X77887932Y-79732054D01*
X77884121Y-79741254D01*
X77882179Y-79751021D01*
X77882179Y-79760979D01*
X77884121Y-79770746D01*
X77887932Y-79779947D01*
X77893465Y-79788227D01*
X77900506Y-79795268D01*
X77908786Y-79800801D01*
X77930224Y-79812260D01*
X77945337Y-79824663D01*
X77957741Y-79839778D01*
X77966960Y-79857024D01*
X77972638Y-79875743D01*
X77974800Y-79897693D01*
X77974800Y-80254307D01*
X77972638Y-80276257D01*
X77966960Y-80294976D01*
X77957741Y-80312222D01*
X77945337Y-80327337D01*
X77930222Y-80339741D01*
X77912976Y-80348960D01*
X77894257Y-80354638D01*
X77872307Y-80356800D01*
X77575693Y-80356800D01*
X77553743Y-80354638D01*
X77535024Y-80348960D01*
X77517778Y-80339741D01*
X77502663Y-80327337D01*
X77490259Y-80312222D01*
X77481040Y-80294976D01*
X77475362Y-80276257D01*
X77473200Y-80254307D01*
X77473200Y-79897693D01*
X77475362Y-79875743D01*
X77481040Y-79857024D01*
X77490259Y-79839778D01*
X77502663Y-79824663D01*
X77517776Y-79812260D01*
X77539214Y-79800801D01*
X77547494Y-79795268D01*
X77554535Y-79788227D01*
X77560068Y-79779946D01*
X77563879Y-79770746D01*
X77565821Y-79760979D01*
X77565821Y-79751021D01*
X77563879Y-79741254D01*
X77560068Y-79732053D01*
X77554535Y-79723773D01*
X77547494Y-79716732D01*
X77539214Y-79711199D01*
X77517776Y-79699740D01*
X77502663Y-79687337D01*
X77490259Y-79672222D01*
X77481040Y-79654976D01*
X77475362Y-79636257D01*
X77473200Y-79614307D01*
X77473200Y-79257693D01*
X77475362Y-79235743D01*
X77481040Y-79217024D01*
X77490259Y-79199778D01*
X77502663Y-79184663D01*
X77517778Y-79172259D01*
X77535024Y-79163040D01*
X77553743Y-79157362D01*
X77575693Y-79155200D01*
X77872307Y-79155200D01*
X77894257Y-79157362D01*
G37*
G36*
X64940257Y-78649362D02*
G01*
X64958976Y-78655040D01*
X64976222Y-78664259D01*
X64991337Y-78676663D01*
X65003741Y-78691778D01*
X65012960Y-78709024D01*
X65018638Y-78727743D01*
X65020800Y-78749693D01*
X65020800Y-79106307D01*
X65018638Y-79128257D01*
X65012960Y-79146976D01*
X65003741Y-79164222D01*
X64991337Y-79179337D01*
X64976224Y-79191740D01*
X64954786Y-79203199D01*
X64946506Y-79208732D01*
X64939465Y-79215773D01*
X64933932Y-79224054D01*
X64930121Y-79233254D01*
X64928179Y-79243021D01*
X64928179Y-79252979D01*
X64930121Y-79262746D01*
X64933932Y-79271947D01*
X64939465Y-79280227D01*
X64946506Y-79287268D01*
X64954786Y-79292801D01*
X64976224Y-79304260D01*
X64991337Y-79316663D01*
X65003741Y-79331778D01*
X65012960Y-79349024D01*
X65018638Y-79367743D01*
X65020800Y-79389693D01*
X65020800Y-79746307D01*
X65018638Y-79768257D01*
X65012960Y-79786976D01*
X65003741Y-79804222D01*
X64991337Y-79819337D01*
X64976222Y-79831741D01*
X64958976Y-79840960D01*
X64940257Y-79846638D01*
X64918307Y-79848800D01*
X64621693Y-79848800D01*
X64599743Y-79846638D01*
X64581024Y-79840960D01*
X64563778Y-79831741D01*
X64548663Y-79819337D01*
X64536259Y-79804222D01*
X64527040Y-79786976D01*
X64521362Y-79768257D01*
X64519200Y-79746307D01*
X64519200Y-79389693D01*
X64521362Y-79367743D01*
X64527040Y-79349024D01*
X64536259Y-79331778D01*
X64548663Y-79316663D01*
X64563776Y-79304260D01*
X64585214Y-79292801D01*
X64593494Y-79287268D01*
X64600535Y-79280227D01*
X64606068Y-79271946D01*
X64609879Y-79262746D01*
X64611821Y-79252979D01*
X64611821Y-79243021D01*
X64609879Y-79233254D01*
X64606068Y-79224053D01*
X64600535Y-79215773D01*
X64593494Y-79208732D01*
X64585214Y-79203199D01*
X64563776Y-79191740D01*
X64548663Y-79179337D01*
X64536259Y-79164222D01*
X64527040Y-79146976D01*
X64521362Y-79128257D01*
X64519200Y-79106307D01*
X64519200Y-78749693D01*
X64521362Y-78727743D01*
X64527040Y-78709024D01*
X64536259Y-78691778D01*
X64548663Y-78676663D01*
X64563778Y-78664259D01*
X64581024Y-78655040D01*
X64599743Y-78649362D01*
X64621693Y-78647200D01*
X64918307Y-78647200D01*
X64940257Y-78649362D01*
G37*
G36*
X69258257Y-78649362D02*
G01*
X69276976Y-78655040D01*
X69294222Y-78664259D01*
X69309337Y-78676663D01*
X69321741Y-78691778D01*
X69330960Y-78709024D01*
X69336638Y-78727743D01*
X69338800Y-78749693D01*
X69338800Y-79106307D01*
X69336638Y-79128257D01*
X69330960Y-79146976D01*
X69321741Y-79164222D01*
X69309337Y-79179337D01*
X69294224Y-79191740D01*
X69272786Y-79203199D01*
X69264506Y-79208732D01*
X69257465Y-79215773D01*
X69251932Y-79224054D01*
X69248121Y-79233254D01*
X69246179Y-79243021D01*
X69246179Y-79252979D01*
X69248121Y-79262746D01*
X69251932Y-79271947D01*
X69257465Y-79280227D01*
X69264506Y-79287268D01*
X69272786Y-79292801D01*
X69294224Y-79304260D01*
X69309337Y-79316663D01*
X69321741Y-79331778D01*
X69330960Y-79349024D01*
X69336638Y-79367743D01*
X69338800Y-79389693D01*
X69338800Y-79746307D01*
X69336638Y-79768257D01*
X69330960Y-79786976D01*
X69321741Y-79804222D01*
X69309337Y-79819337D01*
X69294222Y-79831741D01*
X69276976Y-79840960D01*
X69258257Y-79846638D01*
X69236307Y-79848800D01*
X68939693Y-79848800D01*
X68917743Y-79846638D01*
X68899024Y-79840960D01*
X68881778Y-79831741D01*
X68866663Y-79819337D01*
X68854259Y-79804222D01*
X68845040Y-79786976D01*
X68839362Y-79768257D01*
X68837200Y-79746307D01*
X68837200Y-79389693D01*
X68839362Y-79367743D01*
X68845040Y-79349024D01*
X68854259Y-79331778D01*
X68866663Y-79316663D01*
X68881776Y-79304260D01*
X68903214Y-79292801D01*
X68911494Y-79287268D01*
X68918535Y-79280227D01*
X68924068Y-79271946D01*
X68927879Y-79262746D01*
X68929821Y-79252979D01*
X68929821Y-79243021D01*
X68927879Y-79233254D01*
X68924068Y-79224053D01*
X68918535Y-79215773D01*
X68911494Y-79208732D01*
X68903214Y-79203199D01*
X68881776Y-79191740D01*
X68866663Y-79179337D01*
X68854259Y-79164222D01*
X68845040Y-79146976D01*
X68839362Y-79128257D01*
X68837200Y-79106307D01*
X68837200Y-78749693D01*
X68839362Y-78727743D01*
X68845040Y-78709024D01*
X68854259Y-78691778D01*
X68866663Y-78676663D01*
X68881778Y-78664259D01*
X68899024Y-78655040D01*
X68917743Y-78649362D01*
X68939693Y-78647200D01*
X69236307Y-78647200D01*
X69258257Y-78649362D01*
G37*
G36*
X51986257Y-77125362D02*
G01*
X52004976Y-77131040D01*
X52022222Y-77140259D01*
X52037337Y-77152663D01*
X52049741Y-77167778D01*
X52058960Y-77185024D01*
X52064638Y-77203743D01*
X52066800Y-77225693D01*
X52066800Y-77582307D01*
X52064638Y-77604257D01*
X52058960Y-77622976D01*
X52049741Y-77640222D01*
X52037337Y-77655337D01*
X52022224Y-77667740D01*
X52000786Y-77679199D01*
X51992506Y-77684732D01*
X51985465Y-77691773D01*
X51979932Y-77700054D01*
X51976121Y-77709254D01*
X51974179Y-77719021D01*
X51974179Y-77728979D01*
X51976121Y-77738746D01*
X51979932Y-77747947D01*
X51985465Y-77756227D01*
X51992506Y-77763268D01*
X52000786Y-77768801D01*
X52022224Y-77780260D01*
X52037337Y-77792663D01*
X52049741Y-77807778D01*
X52058960Y-77825024D01*
X52064638Y-77843743D01*
X52066800Y-77865693D01*
X52066800Y-78222307D01*
X52064638Y-78244257D01*
X52058960Y-78262976D01*
X52049741Y-78280222D01*
X52037337Y-78295337D01*
X52022222Y-78307741D01*
X52004976Y-78316960D01*
X51986257Y-78322638D01*
X51964307Y-78324800D01*
X51667693Y-78324800D01*
X51645743Y-78322638D01*
X51627024Y-78316960D01*
X51609778Y-78307741D01*
X51594663Y-78295337D01*
X51582259Y-78280222D01*
X51573040Y-78262976D01*
X51567362Y-78244257D01*
X51565200Y-78222307D01*
X51565200Y-77865693D01*
X51567362Y-77843743D01*
X51573040Y-77825024D01*
X51582259Y-77807778D01*
X51594663Y-77792663D01*
X51609776Y-77780260D01*
X51631214Y-77768801D01*
X51639494Y-77763268D01*
X51646535Y-77756227D01*
X51652068Y-77747946D01*
X51655879Y-77738746D01*
X51657821Y-77728979D01*
X51657821Y-77719021D01*
X51655879Y-77709254D01*
X51652068Y-77700053D01*
X51646535Y-77691773D01*
X51639494Y-77684732D01*
X51631214Y-77679199D01*
X51609776Y-77667740D01*
X51594663Y-77655337D01*
X51582259Y-77640222D01*
X51573040Y-77622976D01*
X51567362Y-77604257D01*
X51565200Y-77582307D01*
X51565200Y-77225693D01*
X51567362Y-77203743D01*
X51573040Y-77185024D01*
X51582259Y-77167778D01*
X51594663Y-77152663D01*
X51609778Y-77140259D01*
X51627024Y-77131040D01*
X51645743Y-77125362D01*
X51667693Y-77123200D01*
X51964307Y-77123200D01*
X51986257Y-77125362D01*
G37*
G36*
X51224257Y-77125362D02*
G01*
X51242976Y-77131040D01*
X51260222Y-77140259D01*
X51275337Y-77152663D01*
X51287741Y-77167778D01*
X51296960Y-77185024D01*
X51302638Y-77203743D01*
X51304800Y-77225693D01*
X51304800Y-77582307D01*
X51302638Y-77604257D01*
X51296960Y-77622976D01*
X51287741Y-77640222D01*
X51275337Y-77655337D01*
X51260224Y-77667740D01*
X51238786Y-77679199D01*
X51230506Y-77684732D01*
X51223465Y-77691773D01*
X51217932Y-77700054D01*
X51214121Y-77709254D01*
X51212179Y-77719021D01*
X51212179Y-77728979D01*
X51214121Y-77738746D01*
X51217932Y-77747947D01*
X51223465Y-77756227D01*
X51230506Y-77763268D01*
X51238786Y-77768801D01*
X51260224Y-77780260D01*
X51275337Y-77792663D01*
X51287741Y-77807778D01*
X51296960Y-77825024D01*
X51302638Y-77843743D01*
X51304800Y-77865693D01*
X51304800Y-78222307D01*
X51302638Y-78244257D01*
X51296960Y-78262976D01*
X51287741Y-78280222D01*
X51275337Y-78295337D01*
X51260222Y-78307741D01*
X51242976Y-78316960D01*
X51224257Y-78322638D01*
X51202307Y-78324800D01*
X50905693Y-78324800D01*
X50883743Y-78322638D01*
X50865024Y-78316960D01*
X50847778Y-78307741D01*
X50832663Y-78295337D01*
X50820259Y-78280222D01*
X50811040Y-78262976D01*
X50805362Y-78244257D01*
X50803200Y-78222307D01*
X50803200Y-77865693D01*
X50805362Y-77843743D01*
X50811040Y-77825024D01*
X50820259Y-77807778D01*
X50832663Y-77792663D01*
X50847776Y-77780260D01*
X50869214Y-77768801D01*
X50877494Y-77763268D01*
X50884535Y-77756227D01*
X50890068Y-77747946D01*
X50893879Y-77738746D01*
X50895821Y-77728979D01*
X50895821Y-77719021D01*
X50893879Y-77709254D01*
X50890068Y-77700053D01*
X50884535Y-77691773D01*
X50877494Y-77684732D01*
X50869214Y-77679199D01*
X50847776Y-77667740D01*
X50832663Y-77655337D01*
X50820259Y-77640222D01*
X50811040Y-77622976D01*
X50805362Y-77604257D01*
X50803200Y-77582307D01*
X50803200Y-77225693D01*
X50805362Y-77203743D01*
X50811040Y-77185024D01*
X50820259Y-77167778D01*
X50832663Y-77152663D01*
X50847778Y-77140259D01*
X50865024Y-77131040D01*
X50883743Y-77125362D01*
X50905693Y-77123200D01*
X51202307Y-77123200D01*
X51224257Y-77125362D01*
G37*
G36*
X29110800Y-78138800D02*
G01*
X28009200Y-78138800D01*
X28009200Y-76037200D01*
X29110800Y-76037200D01*
X29110800Y-78138800D01*
G37*
G36*
X33110800Y-78138800D02*
G01*
X32009200Y-78138800D01*
X32009200Y-76037200D01*
X33110800Y-76037200D01*
X33110800Y-78138800D01*
G37*
G36*
X31110800Y-78138800D02*
G01*
X30009200Y-78138800D01*
X30009200Y-76037200D01*
X31110800Y-76037200D01*
X31110800Y-78138800D01*
G37*
G36*
X39110800Y-78138800D02*
G01*
X38009200Y-78138800D01*
X38009200Y-76037200D01*
X39110800Y-76037200D01*
X39110800Y-78138800D01*
G37*
G36*
X43110800Y-78138800D02*
G01*
X42009200Y-78138800D01*
X42009200Y-76037200D01*
X43110800Y-76037200D01*
X43110800Y-78138800D01*
G37*
G36*
X35110800Y-78138800D02*
G01*
X34009200Y-78138800D01*
X34009200Y-76037200D01*
X35110800Y-76037200D01*
X35110800Y-78138800D01*
G37*
G36*
X37110800Y-78138800D02*
G01*
X36009200Y-78138800D01*
X36009200Y-76037200D01*
X37110800Y-76037200D01*
X37110800Y-78138800D01*
G37*
G36*
X41110800Y-78138800D02*
G01*
X40009200Y-78138800D01*
X40009200Y-76037200D01*
X41110800Y-76037200D01*
X41110800Y-78138800D01*
G37*
G36*
X47124257Y-76713362D02*
G01*
X47142976Y-76719040D01*
X47160222Y-76728259D01*
X47175337Y-76740663D01*
X47187740Y-76755776D01*
X47199199Y-76777214D01*
X47204732Y-76785494D01*
X47211773Y-76792535D01*
X47220054Y-76798068D01*
X47229254Y-76801879D01*
X47239021Y-76803821D01*
X47248979Y-76803821D01*
X47258746Y-76801879D01*
X47267947Y-76798068D01*
X47276227Y-76792535D01*
X47283268Y-76785494D01*
X47288801Y-76777214D01*
X47300260Y-76755776D01*
X47312663Y-76740663D01*
X47327778Y-76728259D01*
X47345024Y-76719040D01*
X47363743Y-76713362D01*
X47385693Y-76711200D01*
X47742307Y-76711200D01*
X47764257Y-76713362D01*
X47782976Y-76719040D01*
X47800222Y-76728259D01*
X47815337Y-76740663D01*
X47827741Y-76755778D01*
X47836960Y-76773024D01*
X47842638Y-76791743D01*
X47844800Y-76813693D01*
X47844800Y-77110307D01*
X47842638Y-77132257D01*
X47836960Y-77150976D01*
X47827741Y-77168222D01*
X47815337Y-77183337D01*
X47800222Y-77195741D01*
X47782976Y-77204960D01*
X47764257Y-77210638D01*
X47742307Y-77212800D01*
X47385693Y-77212800D01*
X47363743Y-77210638D01*
X47345024Y-77204960D01*
X47327778Y-77195741D01*
X47312663Y-77183337D01*
X47300260Y-77168224D01*
X47288801Y-77146786D01*
X47283268Y-77138506D01*
X47276227Y-77131465D01*
X47267946Y-77125932D01*
X47258746Y-77122121D01*
X47248979Y-77120179D01*
X47239021Y-77120179D01*
X47229254Y-77122121D01*
X47220053Y-77125932D01*
X47211773Y-77131465D01*
X47204732Y-77138506D01*
X47199199Y-77146786D01*
X47187740Y-77168224D01*
X47175337Y-77183337D01*
X47160222Y-77195741D01*
X47142976Y-77204960D01*
X47124257Y-77210638D01*
X47102307Y-77212800D01*
X46745693Y-77212800D01*
X46723743Y-77210638D01*
X46705024Y-77204960D01*
X46687778Y-77195741D01*
X46672663Y-77183337D01*
X46660259Y-77168222D01*
X46651040Y-77150976D01*
X46645362Y-77132257D01*
X46643200Y-77110307D01*
X46643200Y-76813693D01*
X46645362Y-76791743D01*
X46651040Y-76773024D01*
X46660259Y-76755778D01*
X46672663Y-76740663D01*
X46687778Y-76728259D01*
X46705024Y-76719040D01*
X46723743Y-76713362D01*
X46745693Y-76711200D01*
X47102307Y-76711200D01*
X47124257Y-76713362D01*
G37*
G36*
X47124257Y-75951362D02*
G01*
X47142976Y-75957040D01*
X47160222Y-75966259D01*
X47175337Y-75978663D01*
X47187740Y-75993776D01*
X47199199Y-76015214D01*
X47204732Y-76023494D01*
X47211773Y-76030535D01*
X47220054Y-76036068D01*
X47229254Y-76039879D01*
X47239021Y-76041821D01*
X47248979Y-76041821D01*
X47258746Y-76039879D01*
X47267947Y-76036068D01*
X47276227Y-76030535D01*
X47283268Y-76023494D01*
X47288801Y-76015214D01*
X47300260Y-75993776D01*
X47312663Y-75978663D01*
X47327778Y-75966259D01*
X47345024Y-75957040D01*
X47363743Y-75951362D01*
X47385693Y-75949200D01*
X47742307Y-75949200D01*
X47764257Y-75951362D01*
X47782976Y-75957040D01*
X47800222Y-75966259D01*
X47815337Y-75978663D01*
X47827741Y-75993778D01*
X47836960Y-76011024D01*
X47842638Y-76029743D01*
X47844800Y-76051693D01*
X47844800Y-76348307D01*
X47842638Y-76370257D01*
X47836960Y-76388976D01*
X47827741Y-76406222D01*
X47815337Y-76421337D01*
X47800222Y-76433741D01*
X47782976Y-76442960D01*
X47764257Y-76448638D01*
X47742307Y-76450800D01*
X47385693Y-76450800D01*
X47363743Y-76448638D01*
X47345024Y-76442960D01*
X47327778Y-76433741D01*
X47312663Y-76421337D01*
X47300260Y-76406224D01*
X47288801Y-76384786D01*
X47283268Y-76376506D01*
X47276227Y-76369465D01*
X47267946Y-76363932D01*
X47258746Y-76360121D01*
X47248979Y-76358179D01*
X47239021Y-76358179D01*
X47229254Y-76360121D01*
X47220053Y-76363932D01*
X47211773Y-76369465D01*
X47204732Y-76376506D01*
X47199199Y-76384786D01*
X47187740Y-76406224D01*
X47175337Y-76421337D01*
X47160222Y-76433741D01*
X47142976Y-76442960D01*
X47124257Y-76448638D01*
X47102307Y-76450800D01*
X46745693Y-76450800D01*
X46723743Y-76448638D01*
X46705024Y-76442960D01*
X46687778Y-76433741D01*
X46672663Y-76421337D01*
X46660259Y-76406222D01*
X46651040Y-76388976D01*
X46645362Y-76370257D01*
X46643200Y-76348307D01*
X46643200Y-76051693D01*
X46645362Y-76029743D01*
X46651040Y-76011024D01*
X46660259Y-75993778D01*
X46672663Y-75978663D01*
X46687778Y-75966259D01*
X46705024Y-75957040D01*
X46723743Y-75951362D01*
X46745693Y-75949200D01*
X47102307Y-75949200D01*
X47124257Y-75951362D01*
G37*
G36*
X65412257Y-75443362D02*
G01*
X65430976Y-75449040D01*
X65448222Y-75458259D01*
X65463337Y-75470663D01*
X65475740Y-75485776D01*
X65487199Y-75507214D01*
X65492732Y-75515494D01*
X65499773Y-75522535D01*
X65508054Y-75528068D01*
X65517254Y-75531879D01*
X65527021Y-75533821D01*
X65536979Y-75533821D01*
X65546746Y-75531879D01*
X65555947Y-75528068D01*
X65564227Y-75522535D01*
X65571268Y-75515494D01*
X65576801Y-75507214D01*
X65588260Y-75485776D01*
X65600663Y-75470663D01*
X65615778Y-75458259D01*
X65633024Y-75449040D01*
X65651743Y-75443362D01*
X65673693Y-75441200D01*
X66030307Y-75441200D01*
X66052257Y-75443362D01*
X66070976Y-75449040D01*
X66088222Y-75458259D01*
X66103337Y-75470663D01*
X66115741Y-75485778D01*
X66124960Y-75503024D01*
X66130638Y-75521743D01*
X66132800Y-75543693D01*
X66132800Y-75840307D01*
X66130638Y-75862257D01*
X66124960Y-75880976D01*
X66115741Y-75898222D01*
X66103337Y-75913337D01*
X66088222Y-75925741D01*
X66070976Y-75934960D01*
X66052257Y-75940638D01*
X66030307Y-75942800D01*
X65673693Y-75942800D01*
X65651743Y-75940638D01*
X65633024Y-75934960D01*
X65615778Y-75925741D01*
X65600663Y-75913337D01*
X65588260Y-75898224D01*
X65576801Y-75876786D01*
X65571268Y-75868506D01*
X65564227Y-75861465D01*
X65555946Y-75855932D01*
X65546746Y-75852121D01*
X65536979Y-75850179D01*
X65527021Y-75850179D01*
X65517254Y-75852121D01*
X65508053Y-75855932D01*
X65499773Y-75861465D01*
X65492732Y-75868506D01*
X65487199Y-75876786D01*
X65475740Y-75898224D01*
X65463337Y-75913337D01*
X65448222Y-75925741D01*
X65430976Y-75934960D01*
X65412257Y-75940638D01*
X65390307Y-75942800D01*
X65033693Y-75942800D01*
X65011743Y-75940638D01*
X64993024Y-75934960D01*
X64975778Y-75925741D01*
X64960663Y-75913337D01*
X64948259Y-75898222D01*
X64939040Y-75880976D01*
X64933362Y-75862257D01*
X64931200Y-75840307D01*
X64931200Y-75543693D01*
X64933362Y-75521743D01*
X64939040Y-75503024D01*
X64948259Y-75485778D01*
X64960663Y-75470663D01*
X64975778Y-75458259D01*
X64993024Y-75449040D01*
X65011743Y-75443362D01*
X65033693Y-75441200D01*
X65390307Y-75441200D01*
X65412257Y-75443362D01*
G37*
G36*
X68460257Y-75443362D02*
G01*
X68478976Y-75449040D01*
X68496222Y-75458259D01*
X68511337Y-75470663D01*
X68523740Y-75485776D01*
X68535199Y-75507214D01*
X68540732Y-75515494D01*
X68547773Y-75522535D01*
X68556054Y-75528068D01*
X68565254Y-75531879D01*
X68575021Y-75533821D01*
X68584979Y-75533821D01*
X68594746Y-75531879D01*
X68603947Y-75528068D01*
X68612227Y-75522535D01*
X68619268Y-75515494D01*
X68624801Y-75507214D01*
X68636260Y-75485776D01*
X68648663Y-75470663D01*
X68663778Y-75458259D01*
X68681024Y-75449040D01*
X68699743Y-75443362D01*
X68721693Y-75441200D01*
X69078307Y-75441200D01*
X69100257Y-75443362D01*
X69118976Y-75449040D01*
X69136222Y-75458259D01*
X69151337Y-75470663D01*
X69163741Y-75485778D01*
X69172960Y-75503024D01*
X69178638Y-75521743D01*
X69180800Y-75543693D01*
X69180800Y-75840307D01*
X69178638Y-75862257D01*
X69172960Y-75880976D01*
X69163741Y-75898222D01*
X69151337Y-75913337D01*
X69136222Y-75925741D01*
X69118976Y-75934960D01*
X69100257Y-75940638D01*
X69078307Y-75942800D01*
X68721693Y-75942800D01*
X68699743Y-75940638D01*
X68681024Y-75934960D01*
X68663778Y-75925741D01*
X68648663Y-75913337D01*
X68636260Y-75898224D01*
X68624801Y-75876786D01*
X68619268Y-75868506D01*
X68612227Y-75861465D01*
X68603946Y-75855932D01*
X68594746Y-75852121D01*
X68584979Y-75850179D01*
X68575021Y-75850179D01*
X68565254Y-75852121D01*
X68556053Y-75855932D01*
X68547773Y-75861465D01*
X68540732Y-75868506D01*
X68535199Y-75876786D01*
X68523740Y-75898224D01*
X68511337Y-75913337D01*
X68496222Y-75925741D01*
X68478976Y-75934960D01*
X68460257Y-75940638D01*
X68438307Y-75942800D01*
X68081693Y-75942800D01*
X68059743Y-75940638D01*
X68041024Y-75934960D01*
X68023778Y-75925741D01*
X68008663Y-75913337D01*
X67996259Y-75898222D01*
X67987040Y-75880976D01*
X67981362Y-75862257D01*
X67979200Y-75840307D01*
X67979200Y-75543693D01*
X67981362Y-75521743D01*
X67987040Y-75503024D01*
X67996259Y-75485778D01*
X68008663Y-75470663D01*
X68023778Y-75458259D01*
X68041024Y-75449040D01*
X68059743Y-75443362D01*
X68081693Y-75441200D01*
X68438307Y-75441200D01*
X68460257Y-75443362D01*
G37*
G36*
X75354257Y-72553362D02*
G01*
X75372976Y-72559040D01*
X75390222Y-72568259D01*
X75405337Y-72580663D01*
X75417741Y-72595778D01*
X75426960Y-72613024D01*
X75432638Y-72631743D01*
X75434800Y-72653693D01*
X75434800Y-73010307D01*
X75432638Y-73032257D01*
X75426960Y-73050976D01*
X75417741Y-73068222D01*
X75405337Y-73083337D01*
X75390224Y-73095740D01*
X75368786Y-73107199D01*
X75360506Y-73112732D01*
X75353465Y-73119773D01*
X75347932Y-73128054D01*
X75344121Y-73137254D01*
X75342179Y-73147021D01*
X75342179Y-73156979D01*
X75344121Y-73166746D01*
X75347932Y-73175947D01*
X75353465Y-73184227D01*
X75360506Y-73191268D01*
X75368786Y-73196801D01*
X75390224Y-73208260D01*
X75405337Y-73220663D01*
X75417741Y-73235778D01*
X75426960Y-73253024D01*
X75432638Y-73271743D01*
X75434800Y-73293693D01*
X75434800Y-73650307D01*
X75432638Y-73672257D01*
X75426960Y-73690976D01*
X75417741Y-73708222D01*
X75405337Y-73723337D01*
X75390222Y-73735741D01*
X75372976Y-73744960D01*
X75354257Y-73750638D01*
X75332307Y-73752800D01*
X75035693Y-73752800D01*
X75013743Y-73750638D01*
X74995024Y-73744960D01*
X74977778Y-73735741D01*
X74962663Y-73723337D01*
X74950259Y-73708222D01*
X74941040Y-73690976D01*
X74935362Y-73672257D01*
X74933200Y-73650307D01*
X74933200Y-73293693D01*
X74935362Y-73271743D01*
X74941040Y-73253024D01*
X74950259Y-73235778D01*
X74962663Y-73220663D01*
X74977776Y-73208260D01*
X74999214Y-73196801D01*
X75007494Y-73191268D01*
X75014535Y-73184227D01*
X75020068Y-73175946D01*
X75023879Y-73166746D01*
X75025821Y-73156979D01*
X75025821Y-73147021D01*
X75023879Y-73137254D01*
X75020068Y-73128053D01*
X75014535Y-73119773D01*
X75007494Y-73112732D01*
X74999214Y-73107199D01*
X74977776Y-73095740D01*
X74962663Y-73083337D01*
X74950259Y-73068222D01*
X74941040Y-73050976D01*
X74935362Y-73032257D01*
X74933200Y-73010307D01*
X74933200Y-72653693D01*
X74935362Y-72631743D01*
X74941040Y-72613024D01*
X74950259Y-72595778D01*
X74962663Y-72580663D01*
X74977778Y-72568259D01*
X74995024Y-72559040D01*
X75013743Y-72553362D01*
X75035693Y-72551200D01*
X75332307Y-72551200D01*
X75354257Y-72553362D01*
G37*
G36*
X73830257Y-72553362D02*
G01*
X73848976Y-72559040D01*
X73866222Y-72568259D01*
X73881337Y-72580663D01*
X73893741Y-72595778D01*
X73902960Y-72613024D01*
X73908638Y-72631743D01*
X73910800Y-72653693D01*
X73910800Y-73010307D01*
X73908638Y-73032257D01*
X73902960Y-73050976D01*
X73893741Y-73068222D01*
X73881337Y-73083337D01*
X73866224Y-73095740D01*
X73844786Y-73107199D01*
X73836506Y-73112732D01*
X73829465Y-73119773D01*
X73823932Y-73128054D01*
X73820121Y-73137254D01*
X73818179Y-73147021D01*
X73818179Y-73156979D01*
X73820121Y-73166746D01*
X73823932Y-73175947D01*
X73829465Y-73184227D01*
X73836506Y-73191268D01*
X73844786Y-73196801D01*
X73866224Y-73208260D01*
X73881337Y-73220663D01*
X73893741Y-73235778D01*
X73902960Y-73253024D01*
X73908638Y-73271743D01*
X73910800Y-73293693D01*
X73910800Y-73650307D01*
X73908638Y-73672257D01*
X73902960Y-73690976D01*
X73893741Y-73708222D01*
X73881337Y-73723337D01*
X73866222Y-73735741D01*
X73848976Y-73744960D01*
X73830257Y-73750638D01*
X73808307Y-73752800D01*
X73511693Y-73752800D01*
X73489743Y-73750638D01*
X73471024Y-73744960D01*
X73453778Y-73735741D01*
X73438663Y-73723337D01*
X73426259Y-73708222D01*
X73417040Y-73690976D01*
X73411362Y-73672257D01*
X73409200Y-73650307D01*
X73409200Y-73293693D01*
X73411362Y-73271743D01*
X73417040Y-73253024D01*
X73426259Y-73235778D01*
X73438663Y-73220663D01*
X73453776Y-73208260D01*
X73475214Y-73196801D01*
X73483494Y-73191268D01*
X73490535Y-73184227D01*
X73496068Y-73175946D01*
X73499879Y-73166746D01*
X73501821Y-73156979D01*
X73501821Y-73147021D01*
X73499879Y-73137254D01*
X73496068Y-73128053D01*
X73490535Y-73119773D01*
X73483494Y-73112732D01*
X73475214Y-73107199D01*
X73453776Y-73095740D01*
X73438663Y-73083337D01*
X73426259Y-73068222D01*
X73417040Y-73050976D01*
X73411362Y-73032257D01*
X73409200Y-73010307D01*
X73409200Y-72653693D01*
X73411362Y-72631743D01*
X73417040Y-72613024D01*
X73426259Y-72595778D01*
X73438663Y-72580663D01*
X73453778Y-72568259D01*
X73471024Y-72559040D01*
X73489743Y-72553362D01*
X73511693Y-72551200D01*
X73808307Y-72551200D01*
X73830257Y-72553362D01*
G37*
G36*
X76878257Y-72553362D02*
G01*
X76896976Y-72559040D01*
X76914222Y-72568259D01*
X76929337Y-72580663D01*
X76941741Y-72595778D01*
X76950960Y-72613024D01*
X76956638Y-72631743D01*
X76958800Y-72653693D01*
X76958800Y-73010307D01*
X76956638Y-73032257D01*
X76950960Y-73050976D01*
X76941741Y-73068222D01*
X76929337Y-73083337D01*
X76914224Y-73095740D01*
X76892786Y-73107199D01*
X76884506Y-73112732D01*
X76877465Y-73119773D01*
X76871932Y-73128054D01*
X76868121Y-73137254D01*
X76866179Y-73147021D01*
X76866179Y-73156979D01*
X76868121Y-73166746D01*
X76871932Y-73175947D01*
X76877465Y-73184227D01*
X76884506Y-73191268D01*
X76892786Y-73196801D01*
X76914224Y-73208260D01*
X76929337Y-73220663D01*
X76941741Y-73235778D01*
X76950960Y-73253024D01*
X76956638Y-73271743D01*
X76958800Y-73293693D01*
X76958800Y-73650307D01*
X76956638Y-73672257D01*
X76950960Y-73690976D01*
X76941741Y-73708222D01*
X76929337Y-73723337D01*
X76914222Y-73735741D01*
X76896976Y-73744960D01*
X76878257Y-73750638D01*
X76856307Y-73752800D01*
X76559693Y-73752800D01*
X76537743Y-73750638D01*
X76519024Y-73744960D01*
X76501778Y-73735741D01*
X76486663Y-73723337D01*
X76474259Y-73708222D01*
X76465040Y-73690976D01*
X76459362Y-73672257D01*
X76457200Y-73650307D01*
X76457200Y-73293693D01*
X76459362Y-73271743D01*
X76465040Y-73253024D01*
X76474259Y-73235778D01*
X76486663Y-73220663D01*
X76501776Y-73208260D01*
X76523214Y-73196801D01*
X76531494Y-73191268D01*
X76538535Y-73184227D01*
X76544068Y-73175946D01*
X76547879Y-73166746D01*
X76549821Y-73156979D01*
X76549821Y-73147021D01*
X76547879Y-73137254D01*
X76544068Y-73128053D01*
X76538535Y-73119773D01*
X76531494Y-73112732D01*
X76523214Y-73107199D01*
X76501776Y-73095740D01*
X76486663Y-73083337D01*
X76474259Y-73068222D01*
X76465040Y-73050976D01*
X76459362Y-73032257D01*
X76457200Y-73010307D01*
X76457200Y-72653693D01*
X76459362Y-72631743D01*
X76465040Y-72613024D01*
X76474259Y-72595778D01*
X76486663Y-72580663D01*
X76501778Y-72568259D01*
X76519024Y-72559040D01*
X76537743Y-72553362D01*
X76559693Y-72551200D01*
X76856307Y-72551200D01*
X76878257Y-72553362D01*
G37*
G36*
X60332257Y-72903362D02*
G01*
X60350976Y-72909040D01*
X60368222Y-72918259D01*
X60383337Y-72930663D01*
X60395740Y-72945776D01*
X60407199Y-72967214D01*
X60412732Y-72975494D01*
X60419773Y-72982535D01*
X60428054Y-72988068D01*
X60437254Y-72991879D01*
X60447021Y-72993821D01*
X60456979Y-72993821D01*
X60466746Y-72991879D01*
X60475947Y-72988068D01*
X60484227Y-72982535D01*
X60491268Y-72975494D01*
X60496801Y-72967214D01*
X60508260Y-72945776D01*
X60520663Y-72930663D01*
X60535778Y-72918259D01*
X60553024Y-72909040D01*
X60571743Y-72903362D01*
X60593693Y-72901200D01*
X60950307Y-72901200D01*
X60972257Y-72903362D01*
X60990976Y-72909040D01*
X61008222Y-72918259D01*
X61023337Y-72930663D01*
X61035741Y-72945778D01*
X61044960Y-72963024D01*
X61050638Y-72981743D01*
X61052800Y-73003693D01*
X61052800Y-73300307D01*
X61050638Y-73322257D01*
X61044960Y-73340976D01*
X61035741Y-73358222D01*
X61023337Y-73373337D01*
X61008222Y-73385741D01*
X60990976Y-73394960D01*
X60972257Y-73400638D01*
X60950307Y-73402800D01*
X60593693Y-73402800D01*
X60571743Y-73400638D01*
X60553024Y-73394960D01*
X60535778Y-73385741D01*
X60520663Y-73373337D01*
X60508260Y-73358224D01*
X60496801Y-73336786D01*
X60491268Y-73328506D01*
X60484227Y-73321465D01*
X60475946Y-73315932D01*
X60466746Y-73312121D01*
X60456979Y-73310179D01*
X60447021Y-73310179D01*
X60437254Y-73312121D01*
X60428053Y-73315932D01*
X60419773Y-73321465D01*
X60412732Y-73328506D01*
X60407199Y-73336786D01*
X60395740Y-73358224D01*
X60383337Y-73373337D01*
X60368222Y-73385741D01*
X60350976Y-73394960D01*
X60332257Y-73400638D01*
X60310307Y-73402800D01*
X59953693Y-73402800D01*
X59931743Y-73400638D01*
X59913024Y-73394960D01*
X59895778Y-73385741D01*
X59880663Y-73373337D01*
X59868259Y-73358222D01*
X59859040Y-73340976D01*
X59853362Y-73322257D01*
X59851200Y-73300307D01*
X59851200Y-73003693D01*
X59853362Y-72981743D01*
X59859040Y-72963024D01*
X59868259Y-72945778D01*
X59880663Y-72930663D01*
X59895778Y-72918259D01*
X59913024Y-72909040D01*
X59931743Y-72903362D01*
X59953693Y-72901200D01*
X60310307Y-72901200D01*
X60332257Y-72903362D01*
G37*
G36*
X60332257Y-71379362D02*
G01*
X60350976Y-71385040D01*
X60368222Y-71394259D01*
X60383337Y-71406663D01*
X60395740Y-71421776D01*
X60407199Y-71443214D01*
X60412732Y-71451494D01*
X60419773Y-71458535D01*
X60428054Y-71464068D01*
X60437254Y-71467879D01*
X60447021Y-71469821D01*
X60456979Y-71469821D01*
X60466746Y-71467879D01*
X60475947Y-71464068D01*
X60484227Y-71458535D01*
X60491268Y-71451494D01*
X60496801Y-71443214D01*
X60508260Y-71421776D01*
X60520663Y-71406663D01*
X60535778Y-71394259D01*
X60553024Y-71385040D01*
X60571743Y-71379362D01*
X60593693Y-71377200D01*
X60950307Y-71377200D01*
X60972257Y-71379362D01*
X60990976Y-71385040D01*
X61008222Y-71394259D01*
X61023337Y-71406663D01*
X61035741Y-71421778D01*
X61044960Y-71439024D01*
X61050638Y-71457743D01*
X61052800Y-71479693D01*
X61052800Y-71776307D01*
X61050638Y-71798257D01*
X61044960Y-71816976D01*
X61035741Y-71834222D01*
X61023337Y-71849337D01*
X61008222Y-71861741D01*
X60990976Y-71870960D01*
X60972257Y-71876638D01*
X60950307Y-71878800D01*
X60593693Y-71878800D01*
X60571743Y-71876638D01*
X60553024Y-71870960D01*
X60535778Y-71861741D01*
X60520663Y-71849337D01*
X60508260Y-71834224D01*
X60496801Y-71812786D01*
X60491268Y-71804506D01*
X60484227Y-71797465D01*
X60475946Y-71791932D01*
X60466746Y-71788121D01*
X60456979Y-71786179D01*
X60447021Y-71786179D01*
X60437254Y-71788121D01*
X60428053Y-71791932D01*
X60419773Y-71797465D01*
X60412732Y-71804506D01*
X60407199Y-71812786D01*
X60395740Y-71834224D01*
X60383337Y-71849337D01*
X60368222Y-71861741D01*
X60350976Y-71870960D01*
X60332257Y-71876638D01*
X60310307Y-71878800D01*
X59953693Y-71878800D01*
X59931743Y-71876638D01*
X59913024Y-71870960D01*
X59895778Y-71861741D01*
X59880663Y-71849337D01*
X59868259Y-71834222D01*
X59859040Y-71816976D01*
X59853362Y-71798257D01*
X59851200Y-71776307D01*
X59851200Y-71479693D01*
X59853362Y-71457743D01*
X59859040Y-71439024D01*
X59868259Y-71421778D01*
X59880663Y-71406663D01*
X59895778Y-71394259D01*
X59913024Y-71385040D01*
X59931743Y-71379362D01*
X59953693Y-71377200D01*
X60310307Y-71377200D01*
X60332257Y-71379362D01*
G37*
G36*
X46108257Y-70871362D02*
G01*
X46126976Y-70877040D01*
X46144222Y-70886259D01*
X46159337Y-70898663D01*
X46171740Y-70913776D01*
X46183199Y-70935214D01*
X46188732Y-70943494D01*
X46195773Y-70950535D01*
X46204054Y-70956068D01*
X46213254Y-70959879D01*
X46223021Y-70961821D01*
X46232979Y-70961821D01*
X46242746Y-70959879D01*
X46251947Y-70956068D01*
X46260227Y-70950535D01*
X46267268Y-70943494D01*
X46272801Y-70935214D01*
X46284260Y-70913776D01*
X46296663Y-70898663D01*
X46311778Y-70886259D01*
X46329024Y-70877040D01*
X46347743Y-70871362D01*
X46369693Y-70869200D01*
X46726307Y-70869200D01*
X46748257Y-70871362D01*
X46766976Y-70877040D01*
X46784222Y-70886259D01*
X46799337Y-70898663D01*
X46811741Y-70913778D01*
X46820960Y-70931024D01*
X46826638Y-70949743D01*
X46828800Y-70971693D01*
X46828800Y-71268307D01*
X46826638Y-71290257D01*
X46820960Y-71308976D01*
X46811741Y-71326222D01*
X46799337Y-71341337D01*
X46784222Y-71353741D01*
X46766976Y-71362960D01*
X46748257Y-71368638D01*
X46726307Y-71370800D01*
X46369693Y-71370800D01*
X46347743Y-71368638D01*
X46329024Y-71362960D01*
X46311778Y-71353741D01*
X46296663Y-71341337D01*
X46284260Y-71326224D01*
X46272801Y-71304786D01*
X46267268Y-71296506D01*
X46260227Y-71289465D01*
X46251946Y-71283932D01*
X46242746Y-71280121D01*
X46232979Y-71278179D01*
X46223021Y-71278179D01*
X46213254Y-71280121D01*
X46204053Y-71283932D01*
X46195773Y-71289465D01*
X46188732Y-71296506D01*
X46183199Y-71304786D01*
X46171740Y-71326224D01*
X46159337Y-71341337D01*
X46144222Y-71353741D01*
X46126976Y-71362960D01*
X46108257Y-71368638D01*
X46086307Y-71370800D01*
X45729693Y-71370800D01*
X45707743Y-71368638D01*
X45689024Y-71362960D01*
X45671778Y-71353741D01*
X45656663Y-71341337D01*
X45644259Y-71326222D01*
X45635040Y-71308976D01*
X45629362Y-71290257D01*
X45627200Y-71268307D01*
X45627200Y-70971693D01*
X45629362Y-70949743D01*
X45635040Y-70931024D01*
X45644259Y-70913778D01*
X45656663Y-70898663D01*
X45671778Y-70886259D01*
X45689024Y-70877040D01*
X45707743Y-70871362D01*
X45729693Y-70869200D01*
X46086307Y-70869200D01*
X46108257Y-70871362D01*
G37*
G36*
X65412257Y-69855362D02*
G01*
X65430976Y-69861040D01*
X65448222Y-69870259D01*
X65463337Y-69882663D01*
X65475740Y-69897776D01*
X65487199Y-69919214D01*
X65492732Y-69927494D01*
X65499773Y-69934535D01*
X65508054Y-69940068D01*
X65517254Y-69943879D01*
X65527021Y-69945821D01*
X65536979Y-69945821D01*
X65546746Y-69943879D01*
X65555947Y-69940068D01*
X65564227Y-69934535D01*
X65571268Y-69927494D01*
X65576801Y-69919214D01*
X65588260Y-69897776D01*
X65600663Y-69882663D01*
X65615778Y-69870259D01*
X65633024Y-69861040D01*
X65651743Y-69855362D01*
X65673693Y-69853200D01*
X66030307Y-69853200D01*
X66052257Y-69855362D01*
X66070976Y-69861040D01*
X66088222Y-69870259D01*
X66103337Y-69882663D01*
X66115741Y-69897778D01*
X66124960Y-69915024D01*
X66130638Y-69933743D01*
X66132800Y-69955693D01*
X66132800Y-70252307D01*
X66130638Y-70274257D01*
X66124960Y-70292976D01*
X66115741Y-70310222D01*
X66103337Y-70325337D01*
X66088222Y-70337741D01*
X66070976Y-70346960D01*
X66052257Y-70352638D01*
X66030307Y-70354800D01*
X65673693Y-70354800D01*
X65651743Y-70352638D01*
X65633024Y-70346960D01*
X65615778Y-70337741D01*
X65600663Y-70325337D01*
X65588260Y-70310224D01*
X65576801Y-70288786D01*
X65571268Y-70280506D01*
X65564227Y-70273465D01*
X65555946Y-70267932D01*
X65546746Y-70264121D01*
X65536979Y-70262179D01*
X65527021Y-70262179D01*
X65517254Y-70264121D01*
X65508053Y-70267932D01*
X65499773Y-70273465D01*
X65492732Y-70280506D01*
X65487199Y-70288786D01*
X65475740Y-70310224D01*
X65463337Y-70325337D01*
X65448222Y-70337741D01*
X65430976Y-70346960D01*
X65412257Y-70352638D01*
X65390307Y-70354800D01*
X65033693Y-70354800D01*
X65011743Y-70352638D01*
X64993024Y-70346960D01*
X64975778Y-70337741D01*
X64960663Y-70325337D01*
X64948259Y-70310222D01*
X64939040Y-70292976D01*
X64933362Y-70274257D01*
X64931200Y-70252307D01*
X64931200Y-69955693D01*
X64933362Y-69933743D01*
X64939040Y-69915024D01*
X64948259Y-69897778D01*
X64960663Y-69882663D01*
X64975778Y-69870259D01*
X64993024Y-69861040D01*
X65011743Y-69855362D01*
X65033693Y-69853200D01*
X65390307Y-69853200D01*
X65412257Y-69855362D01*
G37*
G36*
X46108257Y-69347362D02*
G01*
X46126976Y-69353040D01*
X46144222Y-69362259D01*
X46159337Y-69374663D01*
X46171740Y-69389776D01*
X46183199Y-69411214D01*
X46188732Y-69419494D01*
X46195773Y-69426535D01*
X46204054Y-69432068D01*
X46213254Y-69435879D01*
X46223021Y-69437821D01*
X46232979Y-69437821D01*
X46242746Y-69435879D01*
X46251947Y-69432068D01*
X46260227Y-69426535D01*
X46267268Y-69419494D01*
X46272801Y-69411214D01*
X46284260Y-69389776D01*
X46296663Y-69374663D01*
X46311778Y-69362259D01*
X46329024Y-69353040D01*
X46347743Y-69347362D01*
X46369693Y-69345200D01*
X46726307Y-69345200D01*
X46748257Y-69347362D01*
X46766976Y-69353040D01*
X46784222Y-69362259D01*
X46799337Y-69374663D01*
X46811741Y-69389778D01*
X46820960Y-69407024D01*
X46826638Y-69425743D01*
X46828800Y-69447693D01*
X46828800Y-69744307D01*
X46826638Y-69766257D01*
X46820960Y-69784976D01*
X46811741Y-69802222D01*
X46799337Y-69817337D01*
X46784222Y-69829741D01*
X46766976Y-69838960D01*
X46748257Y-69844638D01*
X46726307Y-69846800D01*
X46369693Y-69846800D01*
X46347743Y-69844638D01*
X46329024Y-69838960D01*
X46311778Y-69829741D01*
X46296663Y-69817337D01*
X46284260Y-69802224D01*
X46272801Y-69780786D01*
X46267268Y-69772506D01*
X46260227Y-69765465D01*
X46251946Y-69759932D01*
X46242746Y-69756121D01*
X46232979Y-69754179D01*
X46223021Y-69754179D01*
X46213254Y-69756121D01*
X46204053Y-69759932D01*
X46195773Y-69765465D01*
X46188732Y-69772506D01*
X46183199Y-69780786D01*
X46171740Y-69802224D01*
X46159337Y-69817337D01*
X46144222Y-69829741D01*
X46126976Y-69838960D01*
X46108257Y-69844638D01*
X46086307Y-69846800D01*
X45729693Y-69846800D01*
X45707743Y-69844638D01*
X45689024Y-69838960D01*
X45671778Y-69829741D01*
X45656663Y-69817337D01*
X45644259Y-69802222D01*
X45635040Y-69784976D01*
X45629362Y-69766257D01*
X45627200Y-69744307D01*
X45627200Y-69447693D01*
X45629362Y-69425743D01*
X45635040Y-69407024D01*
X45644259Y-69389778D01*
X45656663Y-69374663D01*
X45671778Y-69362259D01*
X45689024Y-69353040D01*
X45707743Y-69347362D01*
X45729693Y-69345200D01*
X46086307Y-69345200D01*
X46108257Y-69347362D01*
G37*
G36*
X72705028Y-65180168D02*
G01*
X73060051Y-65327223D01*
X73379564Y-65540715D01*
X73651285Y-65812436D01*
X73864777Y-66131949D01*
X74011832Y-66486972D01*
X74086800Y-66863863D01*
X74086800Y-67248137D01*
X74011832Y-67625028D01*
X73864777Y-67980051D01*
X73651285Y-68299564D01*
X73379564Y-68571285D01*
X73060051Y-68784777D01*
X72705028Y-68931832D01*
X72328137Y-69006800D01*
X71943863Y-69006800D01*
X71566972Y-68931832D01*
X71211949Y-68784777D01*
X70892436Y-68571285D01*
X70620715Y-68299564D01*
X70407223Y-67980051D01*
X70260168Y-67625028D01*
X70185200Y-67248137D01*
X70185200Y-66863863D01*
X70260168Y-66486972D01*
X70407223Y-66131949D01*
X70620715Y-65812436D01*
X70892436Y-65540715D01*
X71211949Y-65327223D01*
X71566972Y-65180168D01*
X71943863Y-65105200D01*
X72328137Y-65105200D01*
X72705028Y-65180168D01*
G37*
G36*
X46108257Y-67823362D02*
G01*
X46126976Y-67829040D01*
X46144222Y-67838259D01*
X46159337Y-67850663D01*
X46171740Y-67865776D01*
X46183199Y-67887214D01*
X46188732Y-67895494D01*
X46195773Y-67902535D01*
X46204054Y-67908068D01*
X46213254Y-67911879D01*
X46223021Y-67913821D01*
X46232979Y-67913821D01*
X46242746Y-67911879D01*
X46251947Y-67908068D01*
X46260227Y-67902535D01*
X46267268Y-67895494D01*
X46272801Y-67887214D01*
X46284260Y-67865776D01*
X46296663Y-67850663D01*
X46311778Y-67838259D01*
X46329024Y-67829040D01*
X46347743Y-67823362D01*
X46369693Y-67821200D01*
X46726307Y-67821200D01*
X46748257Y-67823362D01*
X46766976Y-67829040D01*
X46784222Y-67838259D01*
X46799337Y-67850663D01*
X46811741Y-67865778D01*
X46820960Y-67883024D01*
X46826638Y-67901743D01*
X46828800Y-67923693D01*
X46828800Y-68220307D01*
X46826638Y-68242257D01*
X46820960Y-68260976D01*
X46811741Y-68278222D01*
X46799337Y-68293337D01*
X46784222Y-68305741D01*
X46766976Y-68314960D01*
X46748257Y-68320638D01*
X46726307Y-68322800D01*
X46369693Y-68322800D01*
X46347743Y-68320638D01*
X46329024Y-68314960D01*
X46311778Y-68305741D01*
X46296663Y-68293337D01*
X46284260Y-68278224D01*
X46272801Y-68256786D01*
X46267268Y-68248506D01*
X46260227Y-68241465D01*
X46251946Y-68235932D01*
X46242746Y-68232121D01*
X46232979Y-68230179D01*
X46223021Y-68230179D01*
X46213254Y-68232121D01*
X46204053Y-68235932D01*
X46195773Y-68241465D01*
X46188732Y-68248506D01*
X46183199Y-68256786D01*
X46171740Y-68278224D01*
X46159337Y-68293337D01*
X46144222Y-68305741D01*
X46126976Y-68314960D01*
X46108257Y-68320638D01*
X46086307Y-68322800D01*
X45729693Y-68322800D01*
X45707743Y-68320638D01*
X45689024Y-68314960D01*
X45671778Y-68305741D01*
X45656663Y-68293337D01*
X45644259Y-68278222D01*
X45635040Y-68260976D01*
X45629362Y-68242257D01*
X45627200Y-68220307D01*
X45627200Y-67923693D01*
X45629362Y-67901743D01*
X45635040Y-67883024D01*
X45644259Y-67865778D01*
X45656663Y-67850663D01*
X45671778Y-67838259D01*
X45689024Y-67829040D01*
X45707743Y-67823362D01*
X45729693Y-67821200D01*
X46086307Y-67821200D01*
X46108257Y-67823362D01*
G37*
G36*
X58300257Y-67315362D02*
G01*
X58318976Y-67321040D01*
X58336222Y-67330259D01*
X58351337Y-67342663D01*
X58363740Y-67357776D01*
X58375199Y-67379214D01*
X58380732Y-67387494D01*
X58387773Y-67394535D01*
X58396054Y-67400068D01*
X58405254Y-67403879D01*
X58415021Y-67405821D01*
X58424979Y-67405821D01*
X58434746Y-67403879D01*
X58443947Y-67400068D01*
X58452227Y-67394535D01*
X58459268Y-67387494D01*
X58464801Y-67379214D01*
X58476260Y-67357776D01*
X58488663Y-67342663D01*
X58503778Y-67330259D01*
X58521024Y-67321040D01*
X58539743Y-67315362D01*
X58561693Y-67313200D01*
X58918307Y-67313200D01*
X58940257Y-67315362D01*
X58958976Y-67321040D01*
X58976222Y-67330259D01*
X58991337Y-67342663D01*
X59003741Y-67357778D01*
X59012960Y-67375024D01*
X59018638Y-67393743D01*
X59020800Y-67415693D01*
X59020800Y-67712307D01*
X59018638Y-67734257D01*
X59012960Y-67752976D01*
X59003741Y-67770222D01*
X58991337Y-67785337D01*
X58976222Y-67797741D01*
X58958976Y-67806960D01*
X58940257Y-67812638D01*
X58918307Y-67814800D01*
X58561693Y-67814800D01*
X58539743Y-67812638D01*
X58521024Y-67806960D01*
X58503778Y-67797741D01*
X58488663Y-67785337D01*
X58476260Y-67770224D01*
X58464801Y-67748786D01*
X58459268Y-67740506D01*
X58452227Y-67733465D01*
X58443946Y-67727932D01*
X58434746Y-67724121D01*
X58424979Y-67722179D01*
X58415021Y-67722179D01*
X58405254Y-67724121D01*
X58396053Y-67727932D01*
X58387773Y-67733465D01*
X58380732Y-67740506D01*
X58375199Y-67748786D01*
X58363740Y-67770224D01*
X58351337Y-67785337D01*
X58336222Y-67797741D01*
X58318976Y-67806960D01*
X58300257Y-67812638D01*
X58278307Y-67814800D01*
X57921693Y-67814800D01*
X57899743Y-67812638D01*
X57881024Y-67806960D01*
X57863778Y-67797741D01*
X57848663Y-67785337D01*
X57836259Y-67770222D01*
X57827040Y-67752976D01*
X57821362Y-67734257D01*
X57819200Y-67712307D01*
X57819200Y-67415693D01*
X57821362Y-67393743D01*
X57827040Y-67375024D01*
X57836259Y-67357778D01*
X57848663Y-67342663D01*
X57863778Y-67330259D01*
X57881024Y-67321040D01*
X57899743Y-67315362D01*
X57921693Y-67313200D01*
X58278307Y-67313200D01*
X58300257Y-67315362D01*
G37*
G36*
X52712257Y-67315362D02*
G01*
X52730976Y-67321040D01*
X52748222Y-67330259D01*
X52763337Y-67342663D01*
X52775740Y-67357776D01*
X52787199Y-67379214D01*
X52792732Y-67387494D01*
X52799773Y-67394535D01*
X52808054Y-67400068D01*
X52817254Y-67403879D01*
X52827021Y-67405821D01*
X52836979Y-67405821D01*
X52846746Y-67403879D01*
X52855947Y-67400068D01*
X52864227Y-67394535D01*
X52871268Y-67387494D01*
X52876801Y-67379214D01*
X52888260Y-67357776D01*
X52900663Y-67342663D01*
X52915778Y-67330259D01*
X52933024Y-67321040D01*
X52951743Y-67315362D01*
X52973693Y-67313200D01*
X53330307Y-67313200D01*
X53352257Y-67315362D01*
X53370976Y-67321040D01*
X53388222Y-67330259D01*
X53403337Y-67342663D01*
X53415741Y-67357778D01*
X53424960Y-67375024D01*
X53430638Y-67393743D01*
X53432800Y-67415693D01*
X53432800Y-67712307D01*
X53430638Y-67734257D01*
X53424960Y-67752976D01*
X53415741Y-67770222D01*
X53403337Y-67785337D01*
X53388222Y-67797741D01*
X53370976Y-67806960D01*
X53352257Y-67812638D01*
X53330307Y-67814800D01*
X52973693Y-67814800D01*
X52951743Y-67812638D01*
X52933024Y-67806960D01*
X52915778Y-67797741D01*
X52900663Y-67785337D01*
X52888260Y-67770224D01*
X52876801Y-67748786D01*
X52871268Y-67740506D01*
X52864227Y-67733465D01*
X52855946Y-67727932D01*
X52846746Y-67724121D01*
X52836979Y-67722179D01*
X52827021Y-67722179D01*
X52817254Y-67724121D01*
X52808053Y-67727932D01*
X52799773Y-67733465D01*
X52792732Y-67740506D01*
X52787199Y-67748786D01*
X52775740Y-67770224D01*
X52763337Y-67785337D01*
X52748222Y-67797741D01*
X52730976Y-67806960D01*
X52712257Y-67812638D01*
X52690307Y-67814800D01*
X52333693Y-67814800D01*
X52311743Y-67812638D01*
X52293024Y-67806960D01*
X52275778Y-67797741D01*
X52260663Y-67785337D01*
X52248259Y-67770222D01*
X52239040Y-67752976D01*
X52233362Y-67734257D01*
X52231200Y-67712307D01*
X52231200Y-67415693D01*
X52233362Y-67393743D01*
X52239040Y-67375024D01*
X52248259Y-67357778D01*
X52260663Y-67342663D01*
X52275778Y-67330259D01*
X52293024Y-67321040D01*
X52311743Y-67315362D01*
X52333693Y-67313200D01*
X52690307Y-67313200D01*
X52712257Y-67315362D01*
G37*
G36*
X46108257Y-66299362D02*
G01*
X46126976Y-66305040D01*
X46144222Y-66314259D01*
X46159337Y-66326663D01*
X46171740Y-66341776D01*
X46183199Y-66363214D01*
X46188732Y-66371494D01*
X46195773Y-66378535D01*
X46204054Y-66384068D01*
X46213254Y-66387879D01*
X46223021Y-66389821D01*
X46232979Y-66389821D01*
X46242746Y-66387879D01*
X46251947Y-66384068D01*
X46260227Y-66378535D01*
X46267268Y-66371494D01*
X46272801Y-66363214D01*
X46284260Y-66341776D01*
X46296663Y-66326663D01*
X46311778Y-66314259D01*
X46329024Y-66305040D01*
X46347743Y-66299362D01*
X46369693Y-66297200D01*
X46726307Y-66297200D01*
X46748257Y-66299362D01*
X46766976Y-66305040D01*
X46784222Y-66314259D01*
X46799337Y-66326663D01*
X46811741Y-66341778D01*
X46820960Y-66359024D01*
X46826638Y-66377743D01*
X46828800Y-66399693D01*
X46828800Y-66696307D01*
X46826638Y-66718257D01*
X46820960Y-66736976D01*
X46811741Y-66754222D01*
X46799337Y-66769337D01*
X46784222Y-66781741D01*
X46766976Y-66790960D01*
X46748257Y-66796638D01*
X46726307Y-66798800D01*
X46369693Y-66798800D01*
X46347743Y-66796638D01*
X46329024Y-66790960D01*
X46311778Y-66781741D01*
X46296663Y-66769337D01*
X46284260Y-66754224D01*
X46272801Y-66732786D01*
X46267268Y-66724506D01*
X46260227Y-66717465D01*
X46251946Y-66711932D01*
X46242746Y-66708121D01*
X46232979Y-66706179D01*
X46223021Y-66706179D01*
X46213254Y-66708121D01*
X46204053Y-66711932D01*
X46195773Y-66717465D01*
X46188732Y-66724506D01*
X46183199Y-66732786D01*
X46171740Y-66754224D01*
X46159337Y-66769337D01*
X46144222Y-66781741D01*
X46126976Y-66790960D01*
X46108257Y-66796638D01*
X46086307Y-66798800D01*
X45729693Y-66798800D01*
X45707743Y-66796638D01*
X45689024Y-66790960D01*
X45671778Y-66781741D01*
X45656663Y-66769337D01*
X45644259Y-66754222D01*
X45635040Y-66736976D01*
X45629362Y-66718257D01*
X45627200Y-66696307D01*
X45627200Y-66399693D01*
X45629362Y-66377743D01*
X45635040Y-66359024D01*
X45644259Y-66341778D01*
X45656663Y-66326663D01*
X45671778Y-66314259D01*
X45689024Y-66305040D01*
X45707743Y-66299362D01*
X45729693Y-66297200D01*
X46086307Y-66297200D01*
X46108257Y-66299362D01*
G37*
G36*
X46108257Y-64267362D02*
G01*
X46126976Y-64273040D01*
X46144222Y-64282259D01*
X46159337Y-64294663D01*
X46171740Y-64309776D01*
X46183199Y-64331214D01*
X46188732Y-64339494D01*
X46195773Y-64346535D01*
X46204054Y-64352068D01*
X46213254Y-64355879D01*
X46223021Y-64357821D01*
X46232979Y-64357821D01*
X46242746Y-64355879D01*
X46251947Y-64352068D01*
X46260227Y-64346535D01*
X46267268Y-64339494D01*
X46272801Y-64331214D01*
X46284260Y-64309776D01*
X46296663Y-64294663D01*
X46311778Y-64282259D01*
X46329024Y-64273040D01*
X46347743Y-64267362D01*
X46369693Y-64265200D01*
X46726307Y-64265200D01*
X46748257Y-64267362D01*
X46766976Y-64273040D01*
X46784222Y-64282259D01*
X46799337Y-64294663D01*
X46811741Y-64309778D01*
X46820960Y-64327024D01*
X46826638Y-64345743D01*
X46828800Y-64367693D01*
X46828800Y-64664307D01*
X46826638Y-64686257D01*
X46820960Y-64704976D01*
X46811741Y-64722222D01*
X46799337Y-64737337D01*
X46784222Y-64749741D01*
X46766976Y-64758960D01*
X46748257Y-64764638D01*
X46726307Y-64766800D01*
X46369693Y-64766800D01*
X46347743Y-64764638D01*
X46329024Y-64758960D01*
X46311778Y-64749741D01*
X46296663Y-64737337D01*
X46284260Y-64722224D01*
X46272801Y-64700786D01*
X46267268Y-64692506D01*
X46260227Y-64685465D01*
X46251946Y-64679932D01*
X46242746Y-64676121D01*
X46232979Y-64674179D01*
X46223021Y-64674179D01*
X46213254Y-64676121D01*
X46204053Y-64679932D01*
X46195773Y-64685465D01*
X46188732Y-64692506D01*
X46183199Y-64700786D01*
X46171740Y-64722224D01*
X46159337Y-64737337D01*
X46144222Y-64749741D01*
X46126976Y-64758960D01*
X46108257Y-64764638D01*
X46086307Y-64766800D01*
X45729693Y-64766800D01*
X45707743Y-64764638D01*
X45689024Y-64758960D01*
X45671778Y-64749741D01*
X45656663Y-64737337D01*
X45644259Y-64722222D01*
X45635040Y-64704976D01*
X45629362Y-64686257D01*
X45627200Y-64664307D01*
X45627200Y-64367693D01*
X45629362Y-64345743D01*
X45635040Y-64327024D01*
X45644259Y-64309778D01*
X45656663Y-64294663D01*
X45671778Y-64282259D01*
X45689024Y-64273040D01*
X45707743Y-64267362D01*
X45729693Y-64265200D01*
X46086307Y-64265200D01*
X46108257Y-64267362D01*
G37*
G36*
X69988800Y-62876800D02*
G01*
X68187200Y-62876800D01*
X68187200Y-61075200D01*
X69988800Y-61075200D01*
X69988800Y-62876800D01*
G37*
G36*
X51062754Y-61109817D02*
G01*
X51226689Y-61177721D01*
X51374227Y-61276303D01*
X51499697Y-61401773D01*
X51598279Y-61549311D01*
X51666183Y-61713246D01*
X51700800Y-61887279D01*
X51700800Y-62064721D01*
X51666183Y-62238754D01*
X51598279Y-62402689D01*
X51499697Y-62550227D01*
X51374227Y-62675697D01*
X51226689Y-62774279D01*
X51062754Y-62842183D01*
X50888721Y-62876800D01*
X50711279Y-62876800D01*
X50537246Y-62842183D01*
X50373311Y-62774279D01*
X50225773Y-62675697D01*
X50100303Y-62550227D01*
X50001721Y-62402689D01*
X49933817Y-62238754D01*
X49899200Y-62064721D01*
X49899200Y-61887279D01*
X49933817Y-61713246D01*
X50001721Y-61549311D01*
X50100303Y-61401773D01*
X50225773Y-61276303D01*
X50373311Y-61177721D01*
X50537246Y-61109817D01*
X50711279Y-61075200D01*
X50888721Y-61075200D01*
X51062754Y-61109817D01*
G37*
G36*
X53602754Y-61109817D02*
G01*
X53766689Y-61177721D01*
X53914227Y-61276303D01*
X54039697Y-61401773D01*
X54138279Y-61549311D01*
X54206183Y-61713246D01*
X54240800Y-61887279D01*
X54240800Y-62064721D01*
X54206183Y-62238754D01*
X54138279Y-62402689D01*
X54039697Y-62550227D01*
X53914227Y-62675697D01*
X53766689Y-62774279D01*
X53602754Y-62842183D01*
X53428721Y-62876800D01*
X53251279Y-62876800D01*
X53077246Y-62842183D01*
X52913311Y-62774279D01*
X52765773Y-62675697D01*
X52640303Y-62550227D01*
X52541721Y-62402689D01*
X52473817Y-62238754D01*
X52439200Y-62064721D01*
X52439200Y-61887279D01*
X52473817Y-61713246D01*
X52541721Y-61549311D01*
X52640303Y-61401773D01*
X52765773Y-61276303D01*
X52913311Y-61177721D01*
X53077246Y-61109817D01*
X53251279Y-61075200D01*
X53428721Y-61075200D01*
X53602754Y-61109817D01*
G37*
G36*
X56142754Y-61109817D02*
G01*
X56306689Y-61177721D01*
X56454227Y-61276303D01*
X56579697Y-61401773D01*
X56678279Y-61549311D01*
X56746183Y-61713246D01*
X56780800Y-61887279D01*
X56780800Y-62064721D01*
X56746183Y-62238754D01*
X56678279Y-62402689D01*
X56579697Y-62550227D01*
X56454227Y-62675697D01*
X56306689Y-62774279D01*
X56142754Y-62842183D01*
X55968721Y-62876800D01*
X55791279Y-62876800D01*
X55617246Y-62842183D01*
X55453311Y-62774279D01*
X55305773Y-62675697D01*
X55180303Y-62550227D01*
X55081721Y-62402689D01*
X55013817Y-62238754D01*
X54979200Y-62064721D01*
X54979200Y-61887279D01*
X55013817Y-61713246D01*
X55081721Y-61549311D01*
X55180303Y-61401773D01*
X55305773Y-61276303D01*
X55453311Y-61177721D01*
X55617246Y-61109817D01*
X55791279Y-61075200D01*
X55968721Y-61075200D01*
X56142754Y-61109817D01*
G37*
G36*
X58682754Y-61109817D02*
G01*
X58846689Y-61177721D01*
X58994227Y-61276303D01*
X59119697Y-61401773D01*
X59218279Y-61549311D01*
X59286183Y-61713246D01*
X59320800Y-61887279D01*
X59320800Y-62064721D01*
X59286183Y-62238754D01*
X59218279Y-62402689D01*
X59119697Y-62550227D01*
X58994227Y-62675697D01*
X58846689Y-62774279D01*
X58682754Y-62842183D01*
X58508721Y-62876800D01*
X58331279Y-62876800D01*
X58157246Y-62842183D01*
X57993311Y-62774279D01*
X57845773Y-62675697D01*
X57720303Y-62550227D01*
X57621721Y-62402689D01*
X57553817Y-62238754D01*
X57519200Y-62064721D01*
X57519200Y-61887279D01*
X57553817Y-61713246D01*
X57621721Y-61549311D01*
X57720303Y-61401773D01*
X57845773Y-61276303D01*
X57993311Y-61177721D01*
X58157246Y-61109817D01*
X58331279Y-61075200D01*
X58508721Y-61075200D01*
X58682754Y-61109817D01*
G37*
G36*
X61222754Y-61109817D02*
G01*
X61386689Y-61177721D01*
X61534227Y-61276303D01*
X61659697Y-61401773D01*
X61758279Y-61549311D01*
X61826183Y-61713246D01*
X61860800Y-61887279D01*
X61860800Y-62064721D01*
X61826183Y-62238754D01*
X61758279Y-62402689D01*
X61659697Y-62550227D01*
X61534227Y-62675697D01*
X61386689Y-62774279D01*
X61222754Y-62842183D01*
X61048721Y-62876800D01*
X60871279Y-62876800D01*
X60697246Y-62842183D01*
X60533311Y-62774279D01*
X60385773Y-62675697D01*
X60260303Y-62550227D01*
X60161721Y-62402689D01*
X60093817Y-62238754D01*
X60059200Y-62064721D01*
X60059200Y-61887279D01*
X60093817Y-61713246D01*
X60161721Y-61549311D01*
X60260303Y-61401773D01*
X60385773Y-61276303D01*
X60533311Y-61177721D01*
X60697246Y-61109817D01*
X60871279Y-61075200D01*
X61048721Y-61075200D01*
X61222754Y-61109817D01*
G37*
G36*
X64400800Y-62876800D02*
G01*
X62599200Y-62876800D01*
X62599200Y-61075200D01*
X64400800Y-61075200D01*
X64400800Y-62876800D01*
G37*
G36*
X71890754Y-61109817D02*
G01*
X72054689Y-61177721D01*
X72202227Y-61276303D01*
X72327697Y-61401773D01*
X72426279Y-61549311D01*
X72494183Y-61713246D01*
X72528800Y-61887279D01*
X72528800Y-62064721D01*
X72494183Y-62238754D01*
X72426279Y-62402689D01*
X72327697Y-62550227D01*
X72202227Y-62675697D01*
X72054689Y-62774279D01*
X71890754Y-62842183D01*
X71716721Y-62876800D01*
X71539279Y-62876800D01*
X71365246Y-62842183D01*
X71201311Y-62774279D01*
X71053773Y-62675697D01*
X70928303Y-62550227D01*
X70829721Y-62402689D01*
X70761817Y-62238754D01*
X70727200Y-62064721D01*
X70727200Y-61887279D01*
X70761817Y-61713246D01*
X70829721Y-61549311D01*
X70928303Y-61401773D01*
X71053773Y-61276303D01*
X71201311Y-61177721D01*
X71365246Y-61109817D01*
X71539279Y-61075200D01*
X71716721Y-61075200D01*
X71890754Y-61109817D01*
G37*
G36*
X76970754Y-61109817D02*
G01*
X77134689Y-61177721D01*
X77282227Y-61276303D01*
X77407697Y-61401773D01*
X77506279Y-61549311D01*
X77574183Y-61713246D01*
X77608800Y-61887279D01*
X77608800Y-62064721D01*
X77574183Y-62238754D01*
X77506279Y-62402689D01*
X77407697Y-62550227D01*
X77282227Y-62675697D01*
X77134689Y-62774279D01*
X76970754Y-62842183D01*
X76796721Y-62876800D01*
X76619279Y-62876800D01*
X76445246Y-62842183D01*
X76281311Y-62774279D01*
X76133773Y-62675697D01*
X76008303Y-62550227D01*
X75909721Y-62402689D01*
X75841817Y-62238754D01*
X75807200Y-62064721D01*
X75807200Y-61887279D01*
X75841817Y-61713246D01*
X75909721Y-61549311D01*
X76008303Y-61401773D01*
X76133773Y-61276303D01*
X76281311Y-61177721D01*
X76445246Y-61109817D01*
X76619279Y-61075200D01*
X76796721Y-61075200D01*
X76970754Y-61109817D01*
G37*
G36*
X74430754Y-61109817D02*
G01*
X74594689Y-61177721D01*
X74742227Y-61276303D01*
X74867697Y-61401773D01*
X74966279Y-61549311D01*
X75034183Y-61713246D01*
X75068800Y-61887279D01*
X75068800Y-62064721D01*
X75034183Y-62238754D01*
X74966279Y-62402689D01*
X74867697Y-62550227D01*
X74742227Y-62675697D01*
X74594689Y-62774279D01*
X74430754Y-62842183D01*
X74256721Y-62876800D01*
X74079279Y-62876800D01*
X73905246Y-62842183D01*
X73741311Y-62774279D01*
X73593773Y-62675697D01*
X73468303Y-62550227D01*
X73369721Y-62402689D01*
X73301817Y-62238754D01*
X73267200Y-62064721D01*
X73267200Y-61887279D01*
X73301817Y-61713246D01*
X73369721Y-61549311D01*
X73468303Y-61401773D01*
X73593773Y-61276303D01*
X73741311Y-61177721D01*
X73905246Y-61109817D01*
X74079279Y-61075200D01*
X74256721Y-61075200D01*
X74430754Y-61109817D01*
G37*
G36*
X47414257Y-61377362D02*
G01*
X47432976Y-61383040D01*
X47450222Y-61392259D01*
X47465337Y-61404663D01*
X47477741Y-61419778D01*
X47486960Y-61437024D01*
X47492638Y-61455743D01*
X47494800Y-61477693D01*
X47494800Y-61834307D01*
X47492638Y-61856257D01*
X47486960Y-61874976D01*
X47477741Y-61892222D01*
X47465337Y-61907337D01*
X47450224Y-61919740D01*
X47428786Y-61931199D01*
X47420506Y-61936732D01*
X47413465Y-61943773D01*
X47407932Y-61952054D01*
X47404121Y-61961254D01*
X47402179Y-61971021D01*
X47402179Y-61980979D01*
X47404121Y-61990746D01*
X47407932Y-61999947D01*
X47413465Y-62008227D01*
X47420506Y-62015268D01*
X47428786Y-62020801D01*
X47450224Y-62032260D01*
X47465337Y-62044663D01*
X47477741Y-62059778D01*
X47486960Y-62077024D01*
X47492638Y-62095743D01*
X47494800Y-62117693D01*
X47494800Y-62474307D01*
X47492638Y-62496257D01*
X47486960Y-62514976D01*
X47477741Y-62532222D01*
X47465337Y-62547337D01*
X47450222Y-62559741D01*
X47432976Y-62568960D01*
X47414257Y-62574638D01*
X47392307Y-62576800D01*
X47095693Y-62576800D01*
X47073743Y-62574638D01*
X47055024Y-62568960D01*
X47037778Y-62559741D01*
X47022663Y-62547337D01*
X47010259Y-62532222D01*
X47001040Y-62514976D01*
X46995362Y-62496257D01*
X46993200Y-62474307D01*
X46993200Y-62117693D01*
X46995362Y-62095743D01*
X47001040Y-62077024D01*
X47010259Y-62059778D01*
X47022663Y-62044663D01*
X47037776Y-62032260D01*
X47059214Y-62020801D01*
X47067494Y-62015268D01*
X47074535Y-62008227D01*
X47080068Y-61999946D01*
X47083879Y-61990746D01*
X47085821Y-61980979D01*
X47085821Y-61971021D01*
X47083879Y-61961254D01*
X47080068Y-61952053D01*
X47074535Y-61943773D01*
X47067494Y-61936732D01*
X47059214Y-61931199D01*
X47037776Y-61919740D01*
X47022663Y-61907337D01*
X47010259Y-61892222D01*
X47001040Y-61874976D01*
X46995362Y-61856257D01*
X46993200Y-61834307D01*
X46993200Y-61477693D01*
X46995362Y-61455743D01*
X47001040Y-61437024D01*
X47010259Y-61419778D01*
X47022663Y-61404663D01*
X47037778Y-61392259D01*
X47055024Y-61383040D01*
X47073743Y-61377362D01*
X47095693Y-61375200D01*
X47392307Y-61375200D01*
X47414257Y-61377362D01*
G37*
G36*
X45382257Y-61377362D02*
G01*
X45400976Y-61383040D01*
X45418222Y-61392259D01*
X45433337Y-61404663D01*
X45445741Y-61419778D01*
X45454960Y-61437024D01*
X45460638Y-61455743D01*
X45462800Y-61477693D01*
X45462800Y-61834307D01*
X45460638Y-61856257D01*
X45454960Y-61874976D01*
X45445741Y-61892222D01*
X45433337Y-61907337D01*
X45418224Y-61919740D01*
X45396786Y-61931199D01*
X45388506Y-61936732D01*
X45381465Y-61943773D01*
X45375932Y-61952054D01*
X45372121Y-61961254D01*
X45370179Y-61971021D01*
X45370179Y-61980979D01*
X45372121Y-61990746D01*
X45375932Y-61999947D01*
X45381465Y-62008227D01*
X45388506Y-62015268D01*
X45396786Y-62020801D01*
X45418224Y-62032260D01*
X45433337Y-62044663D01*
X45445741Y-62059778D01*
X45454960Y-62077024D01*
X45460638Y-62095743D01*
X45462800Y-62117693D01*
X45462800Y-62474307D01*
X45460638Y-62496257D01*
X45454960Y-62514976D01*
X45445741Y-62532222D01*
X45433337Y-62547337D01*
X45418222Y-62559741D01*
X45400976Y-62568960D01*
X45382257Y-62574638D01*
X45360307Y-62576800D01*
X45063693Y-62576800D01*
X45041743Y-62574638D01*
X45023024Y-62568960D01*
X45005778Y-62559741D01*
X44990663Y-62547337D01*
X44978259Y-62532222D01*
X44969040Y-62514976D01*
X44963362Y-62496257D01*
X44961200Y-62474307D01*
X44961200Y-62117693D01*
X44963362Y-62095743D01*
X44969040Y-62077024D01*
X44978259Y-62059778D01*
X44990663Y-62044663D01*
X45005776Y-62032260D01*
X45027214Y-62020801D01*
X45035494Y-62015268D01*
X45042535Y-62008227D01*
X45048068Y-61999946D01*
X45051879Y-61990746D01*
X45053821Y-61980979D01*
X45053821Y-61971021D01*
X45051879Y-61961254D01*
X45048068Y-61952053D01*
X45042535Y-61943773D01*
X45035494Y-61936732D01*
X45027214Y-61931199D01*
X45005776Y-61919740D01*
X44990663Y-61907337D01*
X44978259Y-61892222D01*
X44969040Y-61874976D01*
X44963362Y-61856257D01*
X44961200Y-61834307D01*
X44961200Y-61477693D01*
X44963362Y-61455743D01*
X44969040Y-61437024D01*
X44978259Y-61419778D01*
X44990663Y-61404663D01*
X45005778Y-61392259D01*
X45023024Y-61383040D01*
X45041743Y-61377362D01*
X45063693Y-61375200D01*
X45360307Y-61375200D01*
X45382257Y-61377362D01*
G37*
G36*
X31110800Y-62138800D02*
G01*
X30009200Y-62138800D01*
X30009200Y-60037200D01*
X31110800Y-60037200D01*
X31110800Y-62138800D01*
G37*
G36*
X39110800Y-62138800D02*
G01*
X38009200Y-62138800D01*
X38009200Y-60037200D01*
X39110800Y-60037200D01*
X39110800Y-62138800D01*
G37*
G36*
X41110800Y-62138800D02*
G01*
X40009200Y-62138800D01*
X40009200Y-60037200D01*
X41110800Y-60037200D01*
X41110800Y-62138800D01*
G37*
G36*
X43110800Y-62138800D02*
G01*
X42009200Y-62138800D01*
X42009200Y-60037200D01*
X43110800Y-60037200D01*
X43110800Y-62138800D01*
G37*
G36*
X35110800Y-62138800D02*
G01*
X34009200Y-62138800D01*
X34009200Y-60037200D01*
X35110800Y-60037200D01*
X35110800Y-62138800D01*
G37*
G36*
X33110800Y-62138800D02*
G01*
X32009200Y-62138800D01*
X32009200Y-60037200D01*
X33110800Y-60037200D01*
X33110800Y-62138800D01*
G37*
G36*
X29110800Y-62138800D02*
G01*
X28009200Y-62138800D01*
X28009200Y-60037200D01*
X29110800Y-60037200D01*
X29110800Y-62138800D01*
G37*
G36*
X37110800Y-62138800D02*
G01*
X36009200Y-62138800D01*
X36009200Y-60037200D01*
X37110800Y-60037200D01*
X37110800Y-62138800D01*
G37*
M02*
